<svg class="icon" xmlns="http://www.w3.org/2000/svg" viewBox="0 0 182 315.1"><style type="text/css">  
	.st0{fill:#FFFFFF;}
</style><path d="M0 234c0.8-2.3 1.6-4.7 2.5-7 1.3-3.6 2.9-7.1 3.9-10.7 0.7-2.5 0.6-5.2 1.3-7.7 1.9-6.6 4.1-13.2 6.3-20.5 -1.5 0.7-2.2 1-3.4 1.5 2.8-10.9 5.5-21.3 8-31.8 0.5-2.1-0.6-4.6-0.1-6.7 4.5-18.9 9.3-37.7 13.6-56.7 1.3-5.9 1-12.1 1.9-18.1 1-6 3.1-6.1 8.1-3 8.4 5.1 10.3 13.9 13.7 21.8 3.9 9 7.2 18.2 10.9 27.3 0.8 1.9 2.3 3.5 4.5 4.7 -0.6-2.4-1.2-4.8-1.8-7.3 0.2-0.1 0.4-0.1 0.5-0.2 3.9 7.8 8.2 15.3 11.4 23.3 3.3 8.2 5.4 16.8 8.1 25.7 20.3-36.1 40.2-71.5 60.8-108.1 0.6 8.3 1.1 14.4 1.5 20.5 0.1 1.7 0.1 3.4-0.2 5 -1.2 6.2-2.6 12.4 1.7 18.1 0.1 0.1 0.2 0.4 0.1 0.5 -4.8 10.7 3.6 20 3.3 30.3 -0.7 23.1 8 44.8 11.9 67.2 2.2 12.6 7.9 24.6 12 36.8 0.6 1.7 0.6 3.5 1.3 7.3 -21-21.3-18.7-50.6-33.5-72.3 1 2.5 1.9 5.1 3.4 9 -5.3-8.6-9.9-15.9-14.5-23.3 -0.2 0-0.5 0-0.7 0 -1.5-1.6-3.1-3.3-4.7-5 -7.5 6.8-6.1 15.6-4.7 24.2 1 6.1 4.4 12 4.6 18 0.2 7.2-1.9 14.4-3 21.6 -0.1 0.8-0.3 1.6-0.6 3.1 1.2-0.7 1.8-1.1 3.9-2.4 -2 6.6-3.6 12.1-5.2 17.6 0.3 0.3 0.6 0.6 0.8 0.8 0.3-1.2 0.7-2.4 1-3.7 0.6 0.4 1.1 0.7 1.7 1.1 -4 25.4-11.5 50.6-6.4 76.7 -1.4-8.5-2.1-17.3-4.3-25.6 -3-11.5-7.4-22.7-10.9-34.1 -3.1-10.3-5.8-20.8-8.8-31.2 -0.5-1.8-1.3-3.6-1.7-4.8 -4 0.9-7.4 1.5-10.7 2.3 -8.8 2.1-8 10-7.6 15.7 0.6 9.6-3.2 17.6-5.7 26.2 -1.2 4.4-1.9 9.2-1.6 13.8 0.4 7.3 2.1 14.5 2.6 21.8 0.5 6.6 0.1 13.2 0.1 19.8 -0.8 0-1.6 0-2.4 0 -2.5-16.8-5-33.6-7.5-50.4 -0.8 0.1-1.5 0.2-2.3 0.3 1.5 13.8 2.9 27.6 4.4 41.4 -0.4 0.1-0.7 0.1-1.1 0.2 -1.1-6.4-2.3-12.7-3.3-19.1 -2.5-16.9-5.2-33.8-7.3-50.8 -0.9-6.9-0.1-14-0.9-20.9 -2.2-20.1-4.8-40.2-7.5-60.2 -0.2-1.3-1.9-2.4-2.9-3.6 -1 0.9-2.1 1.8-3.1 2.8 -1.6 1.6-3.1 3.2-5.4 5.7 2.7-0.8 4.5-1.4 6.9-2.1 -3 4.5-5.7 8.6-9 13.6 0-2 0-2.9 0-3.8 -0.5-0.3-1.1-0.6-1.7-0.9 -5.1 9.9-10.7 19.5-15.1 29.6 -5.1 12-9.1 24.6-13.8 36.8 -0.4 1.1-2.2 1.6-3.3 2.4C0 235.3 0 234.7 0 234z"/><path d="M112.9 63.5c-1.6 2.3-2.8 5.4-5 6.9 -3.4 2.3-4.9 5.1-5.5 8.8 -0.6 3.9-1.1 7.8-2.2 11.5 -2.1 7.3-4.5 14.4-7.4 23.5 -2.3-5.2-3.9-8.7-5.4-12.2 -7.1-16.9-15.5-32.9-27.2-47.3 -9.2-11.3-4.5-27.9 8.1-35.2 6.1-3.6 11.5-8.3 17.6-12C90.7 4.5 96 2.4 101 0c1 0 2 0 3 0 1.3 0.6 2.7 1.3 4.5 2.1 -0.6 3-1.3 5.9-2 9.2 1.3-0.4 2.7-0.8 4.9-1.5 0.4 2.4 0.8 4.7 1.2 6.9 2.8 1 5.5 1.9 9.4 3.2 -1.5 2.8-2.9 5.1-3.9 7.1 1.7 0.6 4 1.4 6.7 2.3 -2.7 2.3-4.5 3.9-7.9 6.7 4.4 0.6 7 1 11.5 1.7 -4.5 4-8.3 7.8-12.6 11.1 -4.7 3.7-4.6 8.3-3.7 13.3 -1.4 1.7-2.8 3.3-4.3 5 0.4 0.4 0.8 0.7 1.3 1C110.3 66.6 111.6 65 112.9 63.5z"/><path d="M136.6 159.4c0.2 0 0.5 0 0.7 0 1.6 4.1 3.2 8.2 4.7 12.4 -0.5 0.2-1.1 0.4-1.6 0.6C139.2 168 137.9 163.7 136.6 159.4z"/><path class="st0" d="M112.9 63.5c-1.3 1.5-2.6 3.1-3.9 4.6 -0.4-0.3-0.8-0.7-1.3-1 1.4-1.7 2.9-3.3 4.3-5C112.4 62.6 112.6 63 112.9 63.5z"/></svg>