<svg class="icon" xmlns="http://www.w3.org/2000/svg" viewBox="0 0 301.9 311.7"><path d="M253.8 304c-4.2-1.3-8.4-3.8-12.5-3.7 -8.3 0.4-16.4 0.8-24.7-1.4 -4.2-1.1-9.1 0-13.6 0.2 -8.1 0.4-16.2 1.2-24.3 1.3 -5.3 0-10.6-1.5-15.7 1.1 -0.8 0.4-1.9 0-2.9 0 -2.9 0-5.9 0.1-8.8 0 -3.4-0.1-6.8-0.8-10.2-0.6 -3.1 0.2-6.2 1.3-9.8 2.1 0.2-1.6 0.3-2.4 0.5-4 -2.8 0.5-5.1 0.9-7.5 1.5 -2.6 0.7-5.2 1.8-7.8 2.2 -6.8 1.2-14.1-1.5-20.6 2.1 -3.9 2.1-7.5 2.9-11.7 1.1 -1.3-0.5-3-0.1-4.5-0.2 -8.2-0.5-16.5-0.8-24.7-1.8 -3.6-0.5-5.3 2-7.8 3 -7 3-13.7 0.2-20.5-0.8 -2.8-0.4-5.8-0.6-8.6-0.4 -5 0.5-9.8 0.1-14.1-1.3 0.5-2.4 1-4.1 1.1-5.8 0.7-9.1 1.3-18.2 1.8-27.4 0.1-2 0-4 0-6 0.3-8.3 0.6-16.6 0.9-24.8 0.2-6.8 0.4-13.6 0.5-20.4 0.2-9.8 0.2-19.6 0.4-29.5 0.2-11 0.8-22 0.7-32.9 -0.1-12.6-0.8-25.2-1.2-37.8 -0.5-17.3-0.8-34.6-1.3-51.9C6.4 54.3 6.1 40.9 5.3 27.5c-0.3-4.7-2.1-9.3-3.1-14C1.4 9.4 0.9 5.3 0 0c5.8 1 10.3 1.8 14.8 2.4 3.8 0.5 7.6 0.5 11.4 0.9 2.4 0.2 4.8 0.8 7.3 0.9 3.1 0.1 6.2 0 9.3-0.2 1.8-0.1 3.6-0.8 5.4-0.8 9-0.2 18.1-1.2 26.9 0 10.3 1.4 20.3-0.8 30.5-0.2 10.3 0.6 20.7 0.2 31 0 16.2-0.3 32.4-0.8 48-1.2 0.8 1.4 1.5 2.8 2.3 4.2 -4 0-7.9 0-11.9 0 0 0.4 0 0.8 0 1.2 3.7 0 7.4 0 11.1-0.1 0.2 0 0.5-0.8 0.7-1.2 5.4 0.4 10.8 0.7 16.2 1.3 8.4 0.8 16.8-0.1 25.2-0.1 8.5 0 16.9-1 25.4-1.7 10.6-0.8 21.2-1.8 31.8-2.3 2.6-0.1 5.4 1.2 8 2.1 3 1.1 5.9 2.5 8.6 3.7 -3.9 2.2-4.3 6.7-4.5 11.6 -0.6 12.6-1.7 25.1-2.4 37.7 -0.7 12.9-1.1 25.9-1.6 38.8 0 0.6-0.4 1.2-1 3 -0.3-4.6-0.5-8-0.7-11.4 -0.3-0.1-0.7-0.1-1-0.2 -0.6 0.8-1.7 1.6-1.8 2.5 -0.5 4.1-1.2 8.3-1 12.4 0.6 14.4 1.8 28.8 2.4 43.2 0.6 14.9 0.9 29.9 1.2 44.8 0.4 14.6 1.7 29.3 0.7 43.8 -0.9 12.6 1.5 24.8 1.3 37.2 0 2.4 1.3 4.7 1.6 7.1 0.6 5.3 0.9 10.6 1.5 15.9 0.4 3.2 1.3 6.4 2 10.1 -1 1.2-2.2 3-3.6 4.5 -2.5 2.5-7.8 2.5-11.7 0.7 -2.6-1.2-5.5-2.1-8.3-2.4 -3.9-0.4-7.9-0.1-11.8-0.1 -2.6 0-5-0.1-5.9-3.3 -0.1-0.5-2.2-0.4-3.4-0.6L253.8 304zM22.8 138.6c-0.6 0.3-1.7 0.6-1.9 1 -1.2 4.4-2.3 8.9-3.3 13.4 -0.2 0.7 0.4 1.6 0.7 2.5 0.3 0 0.5 0 0.7 0 1.3-5.7 2.6-11.3 3.8-17 -1.1 8.2-2.2 16.4-3.2 24.6 -1 8.6-1.9 17.2-2.8 25.8 -0.1 0.7-0.2 1.5 0.1 2 2.9 3.9 0.7 8.1 0.8 12.1 0.1 1.8-0.7 3.6-0.6 5.4 0.3 7.4 1 14.7 1.3 22 0.4 8.4 0.5 16.8 1 25.1 0.1 1.9 0.5 4.3 1.7 5.6 4.7 5 4.3 11.2 4.9 17.2 -1.1 0.4-2 0.8-3 1.1 0.6 2 1.1 3.7 1.8 5.6 0.7-1 1.1-1.6 1.7-2.4 0.2 3 0.4 5.6 0.6 8.2 5.3 0 9.9 0 14.6 0 9.3 0 18.6 0 27.9 0 3.6 0 7.3-0.1 10.9 0.1 8 0.4 16 0.8 24.1 1.4 1.6 0.1 4.1 0.2 4.6 1.2 2.9 5.5 5.4 1.7 8.1-0.6 3.2 4.7 7.6 2.5 11.6 2.3 16.5-0.7 32.9-1.4 49.4-2.1 18.8-0.8 37.5-1.4 56.3-2.2 14.6-0.7 29.1-1.6 44.2-2.4 0.4-5.8 0.7-11 1-16.3 0.7-11.7 1.1-23.4 2.1-35.1 0.4-4.2 3-8.3 3.1-12.4 0.2-18.3-0.1-36.6-0.6-54.9 -0.1-5.4-1.9-10.8-2.1-16.2 -0.6-22.1-0.9-44.2-1.1-66.3 -0.2-15 0.1-30-0.2-45 -0.1-4.8-1.5-9.5-1.6-14.3 -0.2-6.9-6.6-13.4-13.6-13 -2.8 0.2-5.6 0.4-8.4 0.4 -4.1 0-8.3-0.2-12.4-0.1 -3.1 0.1-6.1 0.5-9.6 0.8 0.7-1.6 0.9-2.2 1.8-4.2 -9.5 3.4-17.8 2.8-26.5 1.2 -4.7-0.9-10.1-2.1-15.4 0.7 -2.6 1.4-6.2-0.4-9.5-0.3 -7.1 0.3-14.3-1.1-21.5-1.6 -3.1-0.2-6.3-0.4-9.4-0.1 -6.1 0.6-12.2 1.8-18.3 2.1 -7.2 0.4-14.5 0.1-21.8 0.1 -3.3 0-6.6 0.1-9.9-0.1 -7.8-0.4-16-2.8-23.2 0.8 -7.9 4-16 0.6-24 2.5 -6.3 1.5-13.4-0.6-20.2-0.3 -4.9 0.2-9.8 1.8-13.9 2.7 0 6-0.1 11.2 0 16.5 0.2 7.9 0.6 15.9 0.7 23.8 0.1 6.6 0 13.2 0 19.8 0 6.1-0.1 12.3-0.3 18.4 -0.3 11.1-0.6 22.2-0.9 33.4C23 133.7 22.9 136.1 22.8 138.6zM284.5 238.7c-0.6 0-1.2-0.1-1.7-0.2 0 2.9 0 5.8 0 8.6 0.3 0 0.7 0 1 0C284 244.4 284.3 241.6 284.5 238.7zM256.7 8.7c0-0.5 0-0.9 0-1.4 -1.2 0-2.4 0-3.6 0 0 0.4 0 0.7 0 1.1C254.3 8.5 255.5 8.6 256.7 8.7zM281.1 27c0.4 0 0.8 0 1.2 0 0.2-0.6 0.5-1.2 0.4-1.8 -0.1-0.5-0.7-1-1.1-1.5 -0.2 0.1-0.5 0.2-0.7 0.3C280.9 25 281 26 281.1 27zM286.5 228.7c0.3 0 0.5 0 0.8 0 0-1.1 0-2.2 0-3.2 -0.3 0-0.5 0-0.8 0C286.5 226.5 286.5 227.6 286.5 228.7zM283.3 269.9c-0.3 0-0.6-0.1-1-0.1 -0.1 0.9-0.2 1.8-0.4 2.6 0.3 0 0.6 0.1 0.9 0.1C283 271.7 283.2 270.8 283.3 269.9z"/><path d="M253.7 303.9c-0.9 0.9-1.7 2.5-2.6 2.6 -4.4 0.3-8.8 0.2-13.3 0.3 -3.4 0-6.9 0-10.3 0 0-0.4 0-0.8-0.1-1.2 8.8-0.5 17.6-1 26.4-1.5L253.7 303.9z"/><path d="M190 1.7c6.8 0 14.4 0 22.1 0C204.4 2.2 196.6 7.4 190 1.7z"/><path d="M198.4 305.2c2.4 0 4.8 0 7.2 0 0 0.1 0 0.3 0 0.4 -2.6 0-5.1 0-7.7 0C198 305.5 198.2 305.3 198.4 305.2z"/><path d="M46.5 19.4c-1.5 0-3 0-4.5 0 0-0.1 0-0.3 0-0.5 1.5-0.1 3.1-0.2 4.6-0.3C46.6 18.9 46.5 19.2 46.5 19.4z"/></svg>