<svg class="icon" xmlns="http://www.w3.org/2000/svg" viewBox="0 0 562.7 570"><path d="M550 309.3c-2.7 3.6-5.8 7.1-8.1 10.9 -2.2 3.6-3.4 7.8-5.4 11.6 -1.4 2.8-3.4 5.3-4.9 8.1 -1.5 2.8-2.3 6.2-4.3 8.7 -5.3 6.7-10.9 13.2-16.8 19.3 -4.8 4.9-10.3 9.2-15.6 13.7 -0.5 0.4-1.2 0.6-1.9 0.8 -0.1 0-0.5-0.8-0.4-0.9 0.4-0.5 1-1 1.5-1.4 0.2-0.2 0.4-0.2 0.7-0.4 -0.4-0.4-0.9-1-1.2-1 -0.7 0.1-1.8 0.5-2 1 -0.4 1.1-0.4 2.4-0.2 3.5 0.1 0.5 1.2 0.8 1.8 1.2 -1 0.5-2 1.1-3 1.5 -5.9 2.5-11.8 5.1-17.8 7.5 -1.7 0.7-3.6 0.7-5.4 1.1 0.6-0.5 1.1-1 1.7-1.5 -0.3-0.1-0.7-0.5-1-0.4 -8.8 1.2-17.6 2.6-26.4 3.4 -11.9 1.1-23.9 1.4-35.9 2.6 -4.5 0.4-8.8 2.3-13.1 3.7 -0.7 0.2-1.1 1.5-1.7 2.3 1.5 0.3 3 0.7 4.6 1 0.8 0.2 2.1 0.3 2.4 0.9 0.4 0.9 0.2 2.1 0.3 3.2 -1 0-2.1-0.1-3.1 0.1 -7.3 1.1-14.5 2.5-21.9 3.2 -5.3 0.5-10.8 0-16.2-0.3 -2.2-0.1-4.3-1-6.5-1.1 -13.8-0.7-27.7-1.5-41.5-1.9 -9.4-0.3-18.9 0.3-28.3 0 -13.1-0.4-26.2-1.1-39.4-2 -6.5-0.4-12.8-2.2-19.3-2.3 -8.8-0.2-17.7 0.9-26.6 0.8 -4-0.1-7.9-2.5-11.9-2.6 -9.4-0.2-18.8 0.6-28.2 0.4 -8.9-0.2-17.7-1.8-26.6-2 -10.2-0.2-20.4 0.7-30.6 0.9 -7.2 0.2-14.4-0.2-21.6 0.1 -1.7 0.1-3.2 2.3-5 2.6 -5.4 1-10.9 2-16.5 2.2 -7 0.2-14.1-0.4-21.2-0.5 -0.3 0-0.7 1.5-0.8 2.4 -0.1 0.5 0.2 1.1 0.4 1.7 -0.9 0.2-2 0.8-2.7 0.5 -0.7-0.3-0.9-1.5-1.4-2.3 -0.5-0.7-1.1-1.9-1.7-2 -4.4-0.3-8.9 0.3-13.1-0.7 -1.8-0.4-2.9-4-4.2-6.2 -0.7-1.2-2.1-2.7-1.9-3.6 0.7-2.6 2.8-4.9 3.1-7.4 0.3-2.8-0.4-5.9-1.3-8.7 -1.5-5.2-3.3-10.4-5.1-15.5 -0.7-2.2-2.1-4.2-2.3-6.4 -0.2-1.3 1.3-2.8 1.9-4.3 0.1-0.3-0.5-1.1-0.9-1.5 -0.5-0.5-1.5-0.8-1.6-1.3 -0.1-0.6 0.8-1.6 0.6-2.1 -0.5-1-1.4-1.7-2.2-2.5 0-0.2 0-0.3 0-0.5 2.3-6.6 13.4-10.6 20.4-8.3 3.5 1.2 7.7-0.1 11.6 0.1 8.2 0.4 16.3 1.2 24.5 1.5 10.4 0.5 20.8 0.3 31.1 1.2 12 1 23.8 3 35.8 4.3 9.6 1 19.2 1.7 28.8 2.4 15.1 1 30.1 2.4 45.2 2.7 12.1 0.3 24.1-0.9 36.2-1.3 9.9-0.3 19.9-0.5 29.8-0.6 11.5-0.1 23-0.2 34.5-0.2 14.7 0 29.3 0.4 43.9-0.1 14.3-0.5 28.6-1.9 42.8-2.7 9.7-0.5 19.4-0.5 29.1-1 8.9-0.5 18.2-0.2 26.6-2.7 6.3-1.9 11.9-7.3 16.7-12.2 7.1-7.2 14.5-14.6 19.7-23.3 7.8-13.1 14.2-27.1 20.5-41 2.2-4.8 2.8-10.5 3-15.8 0.1-4.7-1.2-9.5-2.4-14.1 -1.1-4.2-2.8-8.3-4.1-12.5 -0.1-0.4 0.5-1.1 0.5-1.6 0.1-0.8 0-1.6-0.1-2.4 0-0.1-0.4-0.1-0.7-0.1 0 0.4-0.1 0.8-0.1 1.2 -1-0.5-2.1-1-3.1-1.4 -0.1-0.1-0.2-0.2-0.3-0.3 0.3-1.1 0.7-2.2 1-3.3l0.1-0.1c-1.1-1.6-2.1-3.3-3.4-4.8 -2.2-2.4-4.6-4.7-6.9-7 -1.9-0.7-4.5-0.8-5.6-2.1 -3-3.6-5.7-7.6-8-11.7 -0.8-1.4-0.4-3.6-0.5-5.5 0.2-0.7 0.3-1.4 0.5-2 -0.8 0.1-1.6 0.1-2.4 0.2 -0.1 0-0.3 0-0.4 0.1 -3.2-4.9-6.3-9.8-9.7-14.6 -1.3-1.8-3.4-3-5.1-4.5 -0.1 0-0.2 0-0.3 0 -0.2 0-0.4-0.1-0.6-0.1 0-0.1 0-0.2 0-0.4 -1.1-0.9-2.2-1.9-3.3-2.8 -0.3-0.2-0.8-0.4-0.8-0.6 1.2-8.4-6.1-9.4-10.9-12.5 -0.6-0.4-1.6-0.3-2.4-0.4 0.4 0.7 1 1.4 1.3 2.1 0.6 1.4 1.1 2.8 1.7 4.2 -0.9-0.8-1.9-1.7-2.8-2.5 -3.8-3.1-7.2-7.1-11.6-8.9 -3.2-1.4-7.7 0.5-11.5 0 -12.2-1.7-24.3-4-36.5-5.8 -7.1-1-14.4-1.2-21.6-1.8 -7.1-0.6-14.2-1.7-21.3-1.6 -7.7 0.1-15.3 1.4-23 1.9 -3.1 0.2-6.2-0.4-9.4-0.4 -4.3 0-8.6 0.5-12.9 0.3 -3.7-0.2-7.4-1.2-11.2-1.7 -2.2-0.3-4.5 0.1-6.8-0.2 -2-0.2-4-1.2-5.9-1.1 -1.6 0.1-3.1 1.2-4.6 1.9 -0.3 0-0.6 0-0.9 0 0 0-0.1 0.1-0.1 0.1 -0.5-0.1-1-0.3-1.4-0.4 -6.5-0.3-13-0.5-19.5-0.8 -3.1-0.1-6.2-0.1-9.3-0.2 -5.8-0.2-11.7-0.9-17.5-0.4 -4 0.3-7.9 2.3-11.9 3.4 -0.1 0-0.7-0.8-0.7-1.3 0.1-0.6 0.5-1.2 0.7-1.8 -1.2 0.4-2.5 0.8-3.6 1.3 -10.1 4.8-1.1 8.7 1.2 11.6 8.7 11.1 17.9 21.7 27.2 32.3 4.3 4.9 9.2 9.2 13.7 13.9 0.8 0.8 1.1 2.1 1.7 3.1 -1.3 0-2.8 0.4-3.8-0.1 -13.2-6-26.3-12.1-39.4-18.4 -4.3-2.1-8.1-5.3-12.5-7.5 -6.6-3.2-13.5-5.8-20-9 -8.1-4-16-8.5-24-12.8 -4.4-2.4-8.4-5.8-13.1-7.4 -9-3.1-18.4-5-27.4-8.1 -3-1-4.9-5.1-7.8-6.1 -3.8-1.3-5.9-2.8-4.7-6.8 0.8-2.7 1.5-6.1 3.4-7.7 8.7-7.4 18.1-13.9 26.5-21.4 4.4-3.9 7.2-9.6 11.2-14 2.4-2.6 5.7-4.5 8.7-6.5 15.4-10.3 30.9-20.5 46.3-31 13.2-9 26.1-18.4 39.3-27.4 4.8-3.3 10.2-5.8 15.3-8.7 0.3 0 0.7 0 1 0 4.2 6.6 2.1 12.5-2.4 17.8 -3.9 4.6-8.4 8.7-12.3 13.2 -4.9 5.6-9.4 11.6-14.3 17.1 -1.7 2-4.4 3.1-6.6 4.7 -1.1 0.8-1.9 1.9-2.9 2.8 1.4 0 2.8 0.3 4.1 0 1.7-0.3 3.3-1.1 4.9-1.7 -1.8 1.9-3.5 3.8-5.3 5.6 -1 1-2.2 1.9-3.3 2.8 1.2 0.3 2.3 0.7 3.5 0.8 15.8 1.4 31.6 3.3 47.4 3.8 15 0.4 30.1-0.9 45.2-1.4 14.1-0.5 28.2-0.8 42.2-1.4 6.6-0.3 13.2-1.6 19.7-1.9 10.5-0.4 21.1-1.3 31.4 0.1 7.3 1 14 5.7 21.3 7.9 9.9 2.9 20.3 4.4 30.1 7.6 12.5 4 25.2 8 36.9 13.9 11.6 5.9 21.8 14.6 33.1 21.4 11.3 6.8 19.5 16.3 26 27.4 4.4 7.7 8.6 15.5 12.4 23.5 3.3 7 6.7 14.1 8.8 21.5 1.5 5.3 0.5 11.3 1.1 16.9 0.5 4.9 1.9 9.8 2.5 14.7 0.7 5 0.8 10.2 1.6 15.2 1.2 7.9 3 15.6 4.1 23.5 0.4 2.6-0.7 5.4-1.2 8 -0.8 4.5-1.4 9-2.3 13.5 -1.3 6.7-2.7 13.4-4.2 20.1 -0.3 1.4-1.2 2.6-1.8 4 0.1 0.3 0.2 0.7 0.3 1 -1.1 1.8-2.2 3.7-3.4 5.5 -0.2 0.1-0.4 0.2-0.6 0.3 0.2 0.1 0.4 0.2 0.6 0.2 0 0.2 0 0.3 0 0.5C550 308.9 550 309.1 550 309.3zM473.9 192.1c0.5-0.4 0.9-0.8 1.4-1.2 -0.2-0.1-0.4-0.4-0.7-0.4 -1.1-0.2-2.2-0.3-3.3-0.5 0.1 0.4-0.1 1 0.2 1.3 2.7 2.9 5.5 5.8 8.3 8.6 0.1 0.1 0.4 0.1 0.7 0.1 -0.2-0.4-0.3-0.8-0.6-1.2C477.9 196.6 475.9 194.4 473.9 192.1zM381.2 406.7c2.3-1.6 4.3-3 6.2-4.4 0.1 0-0.7-1.4-0.7-1.4 -2.5 1.1-5 2.3-7.5 3.5C379.7 405 380.2 405.6 381.2 406.7z"/><path d="M411.6 217.3c1.8 4.9 4.3 9.6 5.4 14.7 1.3 6.3 1.5 12.8 2 19.3 0.4 5 1.2 10 0.5 14.9 -1.5 10.9-9.1 16.2-19.1 18.8 -3.6 0.9-7.2 2.2-10.8 2.9 -6.9 1.3-13.8 3-20.7 3.4 -8.4 0.4-13.5-4.4-15.8-12.5 -0.5-1.9-2.6-3.4-3.9-5.1 -0.7-1-1.4-2-2.1-3 0.8 0.5 1.6 1.1 2.4 1.5 0.2 0.1 0.6-0.1 0.9-0.2 -0.5-2-1.1-4.1-1.6-6.2 -0.3 0.2-0.6 0.4-0.9 0.7 -0.6 0.5-1.3 0.9-1.9 1.4 0-0.8 0.2-1.7 0-2.4 -1.8-5.8 3.2-11-0.9-18 -4.5-7.5-5.1-17.8 3-25.6 3.2-3 5.2-8.1 8.9-9.7 7.4-3.1 15.6-4.5 23.4-6.6 4.9-1.3 9.6-3.2 14.6-4.2C403 199.6 413.4 208.8 411.6 217.3z"/><path d="M491 214.6c-0.3 1.1-0.7 2.2-1 3.3 0 0.1 0 0.2-0.1 0.3 1.5 5.4 3.1 10.7 4.6 16.1 0.1 0.5 0.1 1 0.2 1.4 -0.6-0.5-1.6-1-1.8-1.6 -4-10.4-8-20.9-11.9-31.4 2.3 2.3 4.7 4.6 6.9 7 1.3 1.4 2.3 3.2 3.4 4.8C491.1 214.5 491 214.6 491 214.6z"/><path d="M252.4 131.8c0.5 0.1 1 0.3 1.5 0.4C253.4 132 252.9 131.9 252.4 131.8z"/><path d="M254 132.1c0.3 0 0.6 0 0.9 0C254.6 132.1 254.3 132.1 254 132.1z"/><path d="M291.3 487.7c2.7 4.9 5.8 9.6 7.9 14.7 2.2 5.5 4.4 11.4 4.6 17.2 0.1 2.8-4.3 6-7.3 8.4 -5.3 4.3-11.5 7.6-16.5 12.3 -3 2.8-4 7.5-6.4 11.1 -3.2 4.7-6.8 9.2-10.3 13.7 -0.2 0.3-0.7 0.3-1 0.5 0.2-0.8 0.4-1.7 0.6-2.5 -0.3 0.2-0.7 0.4-0.8 0.6 -0.5 0.7-0.7 1.9-1.3 2.2 -0.6 0.3-1.9 0.1-2.5-0.4 -3.7-3.1-3.6-1.3-3.2 2.1 0.1 0.8-2.6 2.6-4.1 2.6 -3.2 0-6.4-0.7-9.5-1.4 -1.3-0.3-2.3-1.6-3.5-2.5 1 0.1 2.6 0.4 2.7 0.1 0.4-0.9 0.8-2.7 0.3-3.1 -1-0.8-2.5-0.9-3.8-1.2 -2.9-0.6-6-0.6-8.7-1.7 -3-1.1-6-2.8-8.5-4.9 -1.7-1.4-2.8-3.8-3.8-5.9 -3.5-7.4-9.1-14.7-9.7-22.4 -0.5-6.9 3-15.2 7.3-21.1 7.6-10.5 16.8-19.9 25.7-29.4 4.5-4.8 9.4-10.1 15.2-12.6 3.8-1.7 10.1 0.1 14.4 2.1 6.4 2.9 12.3 7.1 17.8 11.5 2.8 2.2 4.1 6.3 6 9.5C292.2 487.1 291.7 487.4 291.3 487.7z"/><path d="M75.4 547.1c-2.4-2.1-4.9-4.1-7.3-6.2 -0.5-0.4-0.6-1.2-1-1.8 -0.8-1.3-1.8-2.6-2.3-4 -0.9-2.5-1.4-5.2-2.3-7.7 -0.9-2.8-2.2-5.5-3.1-8.3 -0.8-2.4-2.5-5.6-1.6-7.4 2.4-4.8 5.7-9.3 9.2-13.5 1.7-2 4.6-2.9 6.6-4.7 2.4-2.2 4.3-5 6.7-7.2 4.2-3.6 8.4-7.2 13-10.2 4.4-2.9 10-4.3 13.7-7.8 9.2-8.4 15.8 0 22.9 3.1 4.7 2.1 8.6 6.3 12.4 10 1.8 1.8 2.4 4.8 3.7 7.1 1.2 2 3 3.6 4.1 5.7 1.5 2.8 2 6.3 4 8.5 3.4 3.7 0.4 6.5-0.4 9.6 -0.7 2.7-1.8 5.3-3.4 7.6 -1.7 2.5-4 4.6-6.1 6.9 0.3 0.2 0.7 0.6 0.8 0.5 3.6-2.2 7.2-4.6 10.8-6.8 -0.5-0.7-0.9-1.3-1.4-2 1.3 0.1 2.6 0.1 3.7 0.5 0.4 0.1 0.6 1.9 0.3 2.2 -8.1 6.8-16.4 13.3-24.3 20.3 -3.4 3.1-5.7 7.5-9.2 10.5 -3.3 2.9-7.4 4.8-11.2 7 -2.1 1.2-4.3 2.9-6.6 3.2 -4.4 0.6-9.4 1.6-13.2 0.1 -5.6-2.2-10.4-6.6-15.7-9.9 -1.3-0.8-3.1-1-4.7-1.5C74.2 549.4 74.8 548.3 75.4 547.1z"/><path d="M444.6 510.8c-3.3 2.7-6.8 5.3-9.9 8.3 -2.9 2.7-5.4 5.7-8 8.6 -0.1 0.1 0.2 0.5 0.3 0.7 0.7-0.4 1.4-0.8 2-1.2 1.4-1.1 2.8-2.2 4.2-3.3 -1.1 1.7-1.9 3.6-3.3 4.9 -5.4 5.2-11 10.2-16.4 15.4 -0.7 0.7-0.6 2.1-1.3 2.9 -0.8 1-2 1.7-3.1 2.6 0.8-1.8 1.6-3.7 2.5-5.5 0.5-1 1.2-1.8 1.7-2.7 -1.2 0.7-2.5 1.4-3.7 2.2 -0.6 0.4-1.7 0.9-1.7 1.3 0.2 2.3-8.6 1.6-1.9 5.9 0.6 0.4 0.7 1.7 1 2.6 0 0.1-0.4 0.4-0.7 0.6 -0.3-0.6-0.5-1.4-1-1.7 -0.5-0.4-1.8-0.7-1.9-0.5 -5.7 7.7-10.5-1.1-15.7-0.9 -1.1 0-2.3-0.5-3.4-0.8 0.8 0.8 1.5 1.6 2.3 2.3 2.3 1.9 4.8 3.8 7.1 5.7 0.8 0.7 1.3 1.6 2 2.4 -1.2-0.1-2.5 0-3.5-0.5 -6.2-3.4-12.3-6.8-18.3-10.5 -0.7-0.4-0.4-2.6-0.5-3.9 0-0.3 0.3-0.9 0.2-1 -3.4-2.2-7.1-4.1-10.3-6.7 -1.5-1.2-2.4-3.5-3.2-5.4 -1.4-3.1-3.5-6.4-3.5-9.6 0-7.7-11.2-12.8-5.1-21.6 1.6-2.3 4.8-3.4 6.9-5.4 5.2-5 10.3-10 15.1-15.3 2.6-2.9 4.6-6.3 6.7-9.6 2-3.1 3.7-6.4 5.9-9.4 4.9-6.4 18.1-7.4 24.7-2.8 3.1 2.2 7.6 2.4 10.9 4.3 6.2 3.5 12.6 7.1 18 11.6 3.5 2.9 5.9 7.5 8.1 11.6 0.6 1.1-1.2 3.4-2 5.1 -0.2 0.5-0.8 1-1.2 1.4 0.6 0.3 1.3 0.4 1.7 0.8 1.1 1.3 3.3 3 3 4 -1.2 4.4-2.9 8.6-0.6 13.1 -1.1 0.5-2.1 1-3.2 1.5C445.1 511.5 444.8 511.1 444.6 510.8z"/><path d="M48.2 415.3c-0.9 0-1.3 0-1.6 0 -7.6 0.1-15.3 0.1-22.9 0.1 -0.6 0-1.7-0.3-1.8-0.7 -0.2-0.7-0.1-2 0.3-2.2 1.1-0.6 2.4-0.9 3.7-1 3.2-0.2 6.5-0.8 9.7-0.3 3.8 0.6 7.4 2 11.1 3.1C47.1 414.4 47.4 414.7 48.2 415.3z"/><path d="M10.2 407.9c3.6 0.8 6.7 1.5 9.7 2.3 0.2 0.1 0.5 1.3 0.4 1.4 -2 1.4-4 3-6.2 3.8 -1.1 0.4-2.7-0.5-4.1-0.9 -0.8-0.2-1.4-0.7-2.1-1.1 0.8-0.5 1.6-1 2.4-1.4 0.9-0.4 1.9-0.8 2.8-1.2 -0.7-0.5-1.5-0.9-2.2-1.5 -0.4-0.3-0.6-0.9-0.8-1.3C10.2 407.9 10.5 407.7 10.2 407.9z"/><path d="M399.5 405.2c4.4-1.6 7.1-2.6 9.7-3.5 -2.9 2-5.7 3.9-8.7 5.8 -0.1 0.1-1.1-1.1-1.6-1.7C399.5 405.1 400.2 404.6 399.5 405.2z"/><path d="M553.4 302.3c-0.1-0.3-0.2-0.7-0.3-1C553.2 301.6 553.3 302 553.4 302.3z"/><path d="M550 308.3c-0.2-0.1-0.4-0.2-0.6-0.2 0.2-0.1 0.4-0.2 0.6-0.2C550 308 550 308.1 550 308.3z"/><path d="M550 309.3c0-0.2 0-0.3 0-0.5C550 308.9 550 309.1 550 309.3z"/><path d="M464.9 182c0-0.1 0-0.3 0-0.5 0 0.1 0.1 0.2 0.1 0.3C465 181.9 464.9 182 464.9 182z"/><polygon points="466.8 182 466.9 182 466.8 182.1 "/></svg>