<svg class="icon" xmlns="http://www.w3.org/2000/svg" viewBox="0 0 305 92"><style type="text/css">  
	.st0{fill:none;}
</style><path class="st0" d="M159.6 29.2l0 0C159.7 29.2 159.6 29.2 159.6 29.2z"/><path class="st0" d="M161.3 31.3c-0.1-0.2-0.3-0.5-0.4-0.7h-7.6l7.4 1C160.9 31.5 161.1 31.4 161.3 31.3z"/><path d="M301.7 40.2c-0.9-0.2-2.1-0.4-2.9 0 -1.9 0.9-3.7 1-5.6 0 -1.7-0.9-3.4 1.6-5.6 0.1 -1.4-1-4.1-1.4-5.6-0.8 -3 1.2-5.4-1-8.2-0.5 -2.6 0.4-5.4 0.6-7.9 0 -3.8-0.9-7.5-0.6-11.3-1 -1.1-0.1-2-0.3-3.1 0 -0.9 0.2-2 0-2.8-0.4 -1.7-0.6-5.6-1.1-7.5-0.8 -0.6 0.1-1.3 0.2-1.9 0.2 -7.1-1-14.1-1.9-21.3-2 -3.3 0-6.8-0.9-10-2 -2.1-0.7-4.2-0.9-6.3-0.9 -4.6 0.1-9.1-0.6-13.6-1.8 -0.3-0.1-0.6-0.2-1-0.2 -4.8-0.3-9.5-0.8-14.3-1 -3.9-0.1-7.8-0.9-11.6-1.7 -0.8-0.2-1.6-0.3-2.4-0.3 -1 0-1.9 0.2-2.9 0.4 0.8 0.5 1.5 1.1 2.4 1.5 0 0-3.2 0.8-7.6 1 -2.8 0.1-12.9-1-20.1-1.8 1.9 0 3.7 0 5 0 9.5 0.2 9.7 0.9 11.3 0 1.6-0.9 2.5-0.9 2.5-0.9s-5.5-0.3-20.6-1.5c-7.5-0.6-12.2-1.3-15.1-1.8 0.2-0.1 0.5-0.3 0.7-0.4 -0.4-0.1-0.9-0.4-1.4-0.4 -2.3-0.4-4.6-0.7-6.9-1 -0.9-0.1-1.8-0.2-2.7-0.2l0 0c0 0 0 0 0 0 -2.9-0.2-5.7-0.4-8.6-0.8 -4.5-0.6-9.1-1.1-13.5-2.2 -3.9-1-8.2-0.6-11.8-2.7 -0.4-0.2-1.2-0.1-1.4-0.4 -2.6-4.3-7.8-4.5-11.5-7.1 -1.5-1-3.1-2.5-5.7-1.9 -2 0.5-3.8-1.5-4-3.5 -0.2-2.1-1.5-2.5-2.8-3 -1.2-0.5-2.5-0.3-3.7 0.6 -3.2 2.4-6.6 4.6-9.9 7 -0.9 0.7-2.4 1.5-1.3 3.2 0.1 0.2-0.3 0.8-0.5 0.9 -1.1 0.7-2 1.1-1.6 3.1 0.3 1.5 0.5 2.3 2 3.1 3.8 2 6.4 5.7 10.5 7.3 0.6 0.2 1.2 0.8 1.4 1.4 1.4 3 4.1 4.6 6.6 6.5 2.3 1.8 4.2 4.1 6.2 6.2 2 2 4 4 6 6 0.9 0.9 1.4 1.5-0.2 2.6 -3.9 2.4-7.7 5-11.3 7.8 -4.6 3.6-8.9 7.6-13.3 11.4 -2.1 1.8-4.2 3.7-6.4 5.4 -1.6 1.2-1.5 3.2-2.4 4.7 -0.5 0.8 1.8 4.1 3.1 4.4 3.9 0.9 5.9 3.7 7.6 6.8 0.4 0.7 0.5 0.7 1.3 0.7 1.5 0.1 2.9 0.5 2.8 2.5 0.7 0 1.3 0 2 0 2.3-3.7 5.1-7 8.5-9.7 1.8-0.3 3.7-0.6 4.7-1 2.1-0.9 12.4-5.5 12.4-5.5s-4.6 0.7-8 1.7c0 0-0.1 0-0.1 0 4.3-1.4 8.4-3.4 11.9-6.4 1-0.8 1.8-0.7 3-0.6 3 0.2 6.1-0.3 9.1-0.8 2.1-0.3 4.1-1.1 6.1-1.7 0.4-0.1 0.7-0.5 1.1-0.7 -0.5-0.1-0.9-0.2-1.4-0.4 -0.6-0.3-1.1-0.6-1.7-0.9 -0.1-0.1-0.1-0.5-0.1-0.8 0-0.1 0.3-0.2 0.4-0.1 0.3 0.1 0.7 0.1 0.9 0.3 3.5 2.4 7.2 1.4 10.9 0.6 3.9-0.9 7.6-3 11.9-1.3 1.1 0.4 2.8-0.6 4.2-1 0.4-0.1 0.6-0.7 0.9-1.1 -0.4-0.2-0.9-0.3-1.3-0.5 -0.3-0.1-0.6-0.2-0.9-0.3 0.3-0.2 0.5-0.6 0.8-0.6 3.3-0.7 6.8-0.9 10-2.2 2.8-1.1 5.3-3.1 8.4-1 1.6-0.9 3.3-0.2 5-0.2 1.8 0 3.8 0 5.2-0.8 1.5-0.9 2.7-2.1 4.6-2.1 1.1-2.5 3.3-1.6 5.1-1.7 6.6-0.4 13.2-0.4 19.8-1.1 3.2-0.3 6.1-2.2 9.5-2 0.6 0 1.7-0.8 1.9-1.4 0.7-2.6 2.7-2.3 4.7-2.6 2.4-0.3 4.9 1.6 7.4-0.7 0.8-0.8 1.9 3.1 3.8 1.4 1.3-1.3 2.5-1 3.9-0.6 1.6 0.4 3.2 0.6 4.8 0.7 1.6 0.2 3.3 0.4 4.9 0.3 3.3-0.4 6.6-1 9.8-1.5 3.6-0.5 7-1.8 10.7-1.5 0.6 0.1 1.6 0 1.9-0.4 1.8-2.2 4.2-1.5 6.5-1.6 8.4-0.3 16.9-1.6 25.2-0.8 11 1.1 21.9 0.3 32.8 0.7 1.1 0 2.3-0.2 3.4-0.4C303.9 41.1 302.9 40.5 301.7 40.2zM159.7 29.2l0 0C159.6 29.2 159.7 29.2 159.7 29.2zM160.9 30.6c0.1 0.2 0.3 0.5 0.4 0.7 -0.2 0.1-0.4 0.2-0.6 0.3l-7.4-1H160.9z"/><path d="M26.3 54.5c1-0.8 2-1.6 2.9-2.4 2.3-2 5.1-3.5 7.3-5.9 1.2-1.3 1.3-2.3 0.3-3.3 -5.3-5-9.8-10.8-15.9-15 -0.9-0.6-1.6-1-2.6-0.1 -6.1 5-12.7 9.4-17.1 16.2 -2.1 3.3-1.4 5 2.3 6.1 1 0.3 2.2 0.8 3 1.5 2 1.8 3.8 3.7 5.7 5.6 0.8 0.8 1.7 1.4 1.1 3 -0.2 0.6 1.2 1.7 1.8 2.6 1.3-0.8 2.6-1.6 3.8-2.5 1.3-1 2.6-1.9 3.8-2.9 -0.3-1.6-0.4-3.2 0.1-4.3 1.4-2.8 3-4.4 3-4.4S25 52.1 26.3 54.5z"/></svg>