<svg class="icon" xmlns="http://www.w3.org/2000/svg" viewBox="0 0 294.2 262.9"><path d="M0 5.1c0-1 0-2 0-3 2.9-0.6 5.7-1.5 8.5-1.6 3.6-0.1 7.3 0.7 10.9 0.9 13.3 0.5 26.6 0.7 39.9 1.4 9 0.5 17.9 2.3 26.9 2.2 24.5-0.4 48.9 1 73.4-1.4 20.5-2 41.2-1.2 61.9-1.7 6.8-0.1 13.6-0.2 20.5-0.4C257.4 1 272.8 0.4 288.3 0c3.4-0.1 5.6 1.6 5.7 5 0.1 3.8 0 7.6-0.6 11.3 -0.7 4.1-2.1 8.1 0.2 11.8 -1.2 1.9-2.2 3.5-3.6 5.6 1.4-0.5 2-0.7 3.5-1.2 -0.7 3.3-1.3 6-1.9 8.7 -0.5 2.4-1.3 4.8-1.4 7.2 -0.3 9.5 0.8 18.9-1.6 28.3 -1 3.9 0.5 7.8 2.8 11.1 0.3 1.1 0.3 2.2 0.1 3.4 -1.8 8.3-4.2 16.5-2.7 25.1 0.2 1.1-0.1 2.3-0.2 3.5 -1.1 12.8-2.4 25.5-3.2 38.3 -0.3 4.2 0.3 8.7 4.3 11.3 -0.2 1.9-0.9 3.6-0.5 5.1 2.3 10.3 2.4 20.8 3.1 31.3 0.6 9 2.2 18.1 0.3 27.2 -0.7 3.2-1.1 6.7 1.7 8.7 -1.6 5.7-3 10.9-4.6 16.6 -2.9-0.9-5.1-1.6-7.5-2.3 -3.2 0.3-6.8 0.5-10.8 0.9 -4.4-1.9-12.5-1.9-15.3 0.6 4.7-0.6 9-0.8 12.1 3.3 -0.5 0.2-0.9 0.6-1.3 0.6 -16.3 0-32.6-0.6-48.8-3.1 -3.9-0.6-7.8-1.1-11.7-1.7 -6.5-0.9-13-2.1-19.5-2.6 -8.7-0.7-17.5-1-26.4-1.4 0-1 0-1.7 0-2.6 -4.7 0.1-9.4-1.1-13.9 0 0 0.6-0.1 1.2-0.1 1.7 3.9 0.9 7.8 1.7 11.7 2.6 0 0.2 0 0.5 0 0.7 -8.5 0-17 0-25.6 0 -1.1-0.2-2.3 0.3-3.4 0.4 -10.9 0.9-21.8 1.7-32.7 2.4 -2.3 0.2-4.7-0.3-6.9 0.2 -12.2 2.8-24.6 4.2-37 4.8 -2.8 0.1-5.6 0-8.1 0 -1-1.3-1.9-2.4-3-3.9 -0.8 1.6-1.2 2.6-2 4.2 -5.1-0.3-10.4-0.3-15.6-0.9 -3.3-0.4-6.6-1.8-9.9-2.4 -3.1-0.6-4.9-2.3-5.2-5.2 -0.3-3.5-0.5-7-0.2-10.4 1.5-15.9 4.1-31.7 3.5-47.8 -0.1-3.3-0.4-6.7-0.3-10 0-16.8 0.5-33.7 0.1-50.5 -0.4-18.1-1.6-36.3-2.5-54.4 -0.8-15.8-1.6-31.6-2.4-47.1 -3.4-4.2-4.4-8.7-4.6-13.7C1.9 15.2 0.7 10.1 0 5.1zM163.9 24.1c3.2-0.6 6.3-1.1 9.5-1.7 -8.5-0.7-17-2.1-25.4-0.9 0 0.4 0 0.7 0 1.1 5.4 0.5 10.7 1 16.1 1.4 -3.4 0.5-6.8 1.4-10.3 1.5 -13.6 0.4-27.2-2.7-40.8-0.6 -2.1 0.3-4.9 0.8-5.8-2.4 0-0.2-0.5-0.2-0.7-0.3 -0.6 0.9-1.3 1.8-1.7 2.4 -3.3 0-6 0-8.8 0 -1.7 0-3.3 0.4-5 0.2 -5.4-0.6-10.8-1.5-16.2-2.1 -1.5-0.2-3-0.1-4.4 0.1 -4.3 0.8-8.6 1.7-12.8 2.6 0 0 0.3 0.7 0.9 2 -6.4-0.8-12.1-3.9-18-1.6 -1.8 2.8-0.2 4.6 1.3 6.4 3.9 4.7 7.8 9.5 11.7 14.2 2.6 1.6 5 3.6 6.9 5.9 2.8 3.3 5.2 6.9 8 10.1 5.4 6.1 10.9 12.1 16.7 17.8 4.3 4.3 9.4 7.8 13.6 12.1 4.2 4.3 7.7 9.4 11.7 14 9 10.5 18.1 20.8 27.2 31.2 1.7 1.9 3.7 3.5 5.6 5.2 0.2-0.2 0.5-0.5 0.7-0.7 -1.7-2-3.4-4.1-5.1-6.1 0.3-0.2 0.6-0.5 0.8-0.7 4.3 4.2 8.6 8.5 13.4 13.3 4.8-4.9 9.4-9 13.2-13.7 6.3-7.7 11.6-16.3 18.3-23.7 9.2-10.1 19.2-19.4 29.1-28.8 13.1-12.6 26.2-25.1 39.7-37.3 5.7-5.2 7.5-12.2 11.4-19.2 -19-1.1-37.2-2.2-56.4-3.3 -4.3 2.6-10.2 1.6-16 1.8 -5.3 0.1-10.6-0.4-15.9-0.4C172.1 23.7 168 24 163.9 24.1zM257.2 59.4c0.3 0.2 0.5 0.4 0.8 0.7 -1.3 2.3-2.3 4.9-4.1 6.8 -9.8 10.4-19.9 20.6-29.8 31 -3.3 3.5-6.7 7-9.6 10.8 -2.4 3.3-3.7 7.4-6.2 10.5 -11.3 14.2-22.9 28.2-34.3 42.3 -1.1 1.4-1.8 3.2-2.8 4.7 -1.7 2.5-3 5.8-5.3 7.2 -4.2 2.5-6.6 5.9-8.2 10.2 -0.5 1.4-1.2 2.6-1.7 3.8 -3.3 0.8-5.8 0.1-7.7-2.1 -2.8-3.3-5.4-6.7-8-10.2 -2.1-2.8-3.9-5.8-6.2-8.5 -8.9-10.5-18-20.9-27-31.4 -5.8-6.8-11.4-13.9-17.3-20.7 -9.3-10.7-18.8-21.1-28-31.9 -5.9-6.8-11.3-14-17.2-20.7 -3.8-4.4-8.2-8.3-12.3-12.4 -1.5-1.5-2.9-3.3-4.3-4.9 -0.5 0.2-0.9 0.3-1.4 0.5 0.3 5.3 0.5 10.6 0.9 18.5 -2.8 9.9 1.5 22.6-0.3 35 3.1 9-1.6 17.7-0.6 26.6 0.6-0.5 1.1-1 1.8-1.6 0 10.1-0.8 19.8 0.2 29.5 0.3 3.4-0.3 6.9-0.3 10.4 0 5.6 0.5 11.3 0 16.9 -0.5 5.8-2.2 11.4-3.1 17.2 -0.4 2.3-0.1 4.6-0.1 7 1.4-0.4 2.1-0.7 4.1-1.3 -3.5 4.7-4 8.8-2.4 13.4 0.6-1.1 1.1-2 1.7-2.9 0.8 7.6 1.6 15.1 2.4 22.5 1.4 0.5 2.2 0.9 3 1 7 0.5 13.9 1.2 20.9 1.3 10.6 0.2 21.3 0 31.9 0.1 33.3 0.5 66.6 1.5 99.8 1.6 19.3 0.1 38.6-0.9 57.9-1.9 8.3-0.4 16.5-2.2 24.3-6 0.4-1.8 1.2-3.5 1.2-5.3 0.1-6.1-0.1-12.3-0.1-18.4 0.1-12.3 0-24.6 0.3-37 0.2-10.1 1-20.3 1.3-30.4 0.3-9.6-0.1-19.4 0.8-28.9 1.9-19.6 1.4-39.3 1.3-58.9 0-2-0.6-4-1-6.4C266.9 51.4 262.1 55.4 257.2 59.4zM186.8 142.7c-0.3-0.2-0.6-0.3-0.9-0.5 -1.5 1.9-3 3.9-4.5 5.8 0.3 0.2 0.6 0.4 0.8 0.6C183.7 146.7 185.2 144.7 186.8 142.7zM122.7 253.6c-0.1-0.5-0.2-1.1-0.2-1.6 -1.3 0.3-2.6 0.5-3.9 0.8 0.1 0.4 0.1 0.7 0.2 1.1C120.1 253.8 121.4 253.7 122.7 253.6zM71.6 259.3c-0.1-0.4-0.2-0.7-0.3-1.1 -1.4 0.3-2.9 0.5-4.3 0.8 0.1 0.4 0.1 0.7 0.2 1.1C68.7 259.9 70.1 259.6 71.6 259.3zM190.6 22c0-0.4-0.1-0.8-0.1-1.1 -1.1 0.1-2.3 0.3-3.4 0.4 0 0.3 0.1 0.5 0.1 0.8C188.3 22 189.4 22 190.6 22zM171.6 149.3c0.2 0.1 0.4 0.3 0.6 0.4 0.5-0.8 1-1.5 1.5-2.3 -0.2-0.1-0.4-0.3-0.6-0.4C172.6 147.8 172.1 148.5 171.6 149.3zM259.7 20.5c-0.1 0.3-0.1 0.7-0.2 1 0.5 0 1.1 0.1 1.6 0.1 0-0.2 0.1-0.4 0.1-0.6C260.7 20.8 260.2 20.7 259.7 20.5z"/><path d="M229 204.2c-0.1 1.1-0.3 2.3-0.6 4.3 -6.4-3.3-12-5.9-17.4-9 -3.7-2.2-3.8-7.1 0-10.7 3.7-3.4 5.6-7.3 5.7-11.9 5-4.9 11.7-4.6 21.9 0.9 0.9 2.1 1.9 4.3 3.1 6.8 1 0.2 2 0.3 3.9 0.7 -1.6 2.5-2.7 4.7-4.3 6.5 -3.9 4.4-8.1 8.5-12.2 12.7 -0.8-0.3-1.7-0.6-2.5-0.9 0 0.4 0 0.7 0 1.1C227.3 204.4 228.2 204.3 229 204.2z"/><path d="M85.6 199.9c-2.6 1.1-5.6 2.3-8 3.3 -5.2-2.9-9.7-5.4-14.1-7.9 -2.1-1.2-4-2.5-3.4-4.4 3.2-3.5 6.4-5.9 8.2-9.1 1.7-3 1.8-6.9 2.5-9.9 9.6-3.3 18.1 1.1 25.3 12.5 -0.9 1.9-1.7 3.8-2.8 6.3 -1.5 1-3.4 2.3-5.5 3.7C87.2 195.7 86.6 197.2 85.6 199.9z"/><path d="M75.2 25.7c-1.3 0.1-2.6 0.3-3.9 0.4 0-0.3-0.1-0.6-0.1-0.9 1.3-0.2 2.6-0.3 3.9-0.5C75.2 25 75.2 25.4 75.2 25.7z"/></svg>