<svg class="icon" xmlns="http://www.w3.org/2000/svg" viewBox="0 0 429.1 461"><path d="M377.3 0c2.4 0 4.8 0 7.2 0 0.8 1.7 2.1 3.3 2.3 5 0.4 4.2 0.8 8.6 0 12.7 -1.3 7.1-3 14.2-5.6 20.9 -1.3 3.4-5.1 5.7-7.5 8.7 -1.2 1.5-2.1 3.3-2.5 5.1 -0.5 2.3 0.6 5.5-0.6 7.1 -5.3 7-3.7 10.3 4.9 10.1 10.5-0.2 20.9-0.9 31.4-1 5.4 0 12.9-1.1 15.7 1.8 3.3 3.5 2.8 10.8 3.2 16.5 0.3 4.1-0.6 8.4-1.2 12.6 -1.1 7.4-2.5 14.7-3.7 22.1 -0.1 0.8 0.1 1.7 0.1 2.5 0.7-0.5 1.4-1 2.1-1.4 0.3-0.2 0.8 0 1.2 0 -0.1-0.6-0.4-1.2-0.3-1.8 0.2-0.9 0.6-1.8 0.9-2.8 0.9 1.9 2.2 3.8 2.6 5.8 0.8 4.8 1.1 9.7 1.6 14.5 0 0.9 0 1.9 0 2.8 -1.5 4.6-3.2 9.1-4.5 13.7 -0.5 1.9-0.2 3.9-0.3 5.9 -0.9-0.6-1.9-1.3-2.9-1.9 0 0-0.5 0.5-0.4 0.6 0.4 1 0.8 1.9 1.3 2.9 0.3 0.7 1.1 1.4 1.1 2.1 -0.3 3.2-0.9 6.3-1.3 9.5 -0.2 1.7-0.3 3.4-0.5 5.1 0 0.1-1.1 0.2-1.4 0 -0.5-0.5-0.7-1.2-1-1.8 0 2-0.1 4-0.1 6 0 0.1 1.2 0.3 1.8 0.3 0.7 0.1 1.3 0 2 0 -0.1 0.9-0.1 1.8-0.2 2.7 0 0.3-0.5 0.5-0.7 0.7 -0.7 0.7-2 1.5-1.9 2.1 0.3 1.5 2 3 1.7 4.2 -1 4.5-2.6 9-3.9 13.5 -0.2 0.6 0.4 1.4 0.7 2.1 -0.5 0.1-1.1 0.1-1.6 0.2 0.2 0.6 0.4 1.2 0.6 1.8 0.6-1 1.1-2.1 1.9-3 0.9-1 2-1.8 3-2.7 0.6 1.1 1.7 2.1 1.8 3.2 0.2 7 0.3 14 0.1 21 -0.2 7.7-0.5 15.3-1.3 23 -1.4 13.4-3.2 26.7-4.8 40 -0.1 1.1-0.3 2.2-0.5 3.3 -0.2-0.2-0.5-0.4-0.6-0.7 -0.4-0.7-0.7-1.4-1.1-2.1 -0.1 1.1-0.3 2.2-0.2 3.3 0.1 4.1 0.4 8.1 0.4 12.2 0 0.3-1.2 0.7-1.9 1 -0.2 0.1-0.5-0.3-0.8-0.4 0.1 0.6 0 1.2 0.2 1.8 0.1 0.2 0.6 0.3 0.7 0.6 0.4 0.9 1.1 1.8 1 2.7 -0.1 1.4-1 2.7-1.1 4 -0.1 0.9 0.4 1.9 0.7 2.8 0.4-0.8 0.9-1.6 1.3-2.5 0 2.1-0.3 4.2-0.1 6.3 0.2 2.8 0.6 5.5 1 8.2 0 0.1 1 0 1.5-0.1 -0.2-2.2-0.7-4.4-0.5-6.6 0.1-1.1 1.3-2.2 2-3.2 0.3 0.4 0.8 0.8 0.8 1.2 -0.3 6.4-0.8 12.9-1.1 19.3 0 0.1 1.8 0.1 1.8 0.3 0.9 5.6 2 11.3 2.3 16.9 0.5 11.2 0.4 22.4 0.8 33.6 0.2 7.2 1.5 14.4 1.1 21.6 -0.7 11.6-2.2 23.2-3.7 34.8 -0.2 1.7-1.5 4.4-2.5 4.6 -3.9 0.5-7.9 0.2-11.8 0.1 -2 0-4-0.5-5.9-0.5 -10.5 0-21 0.1-31.5 0.1 -0.6 0-1.1-0.6-1.7-0.9 0.4-0.3 0.7-0.7 1.2-1 0.8-0.4 1.6-0.6 2.4-1 -1.2 0-2.4-0.1-3.5 0.2 -8.5 2.4-16.9 5.7-25.5 7.2 -8.7 1.6-17.7 1.5-26.6 2.1 -1.9 0-3.7 0-5.6 0 -6.6-0.3-13.1-0.7-19.7-0.8 -1.8 0-3.6 0.5-5.4 0.8 -0.3 0-0.5 0-0.8 0 -5.8-1.9-11.6-4.7-17.5-5.4 -11.2-1.3-22.6-1.2-34-2.1 -13-1-25.9-2.9-38.9-3.3 -9.3-0.3-18.7 1.3-28.1 1.9 -8.3 0.6-16.7 1-25 1.5 -3 0.2-6 0.6-8.9 0.5 -7.5-0.2-15-0.9-22.6-0.8 -3 0-6 1.5-9 2 -2.2 0.4-4.5 0.6-6.8 0.7 -0.7 0.1-1.4-0.2-2.1-0.3 0 0-0.2 0.7-0.1 0.8 0.6 0.4 1.3 0.7 2 1 -1 0-2.1 0-3.1 0.1 -2.2 0.2-4.3 0.6-6.4 0.5 -0.6 0-1.3-1.5-1.8-2.4 -0.2-0.3 0.3-1.4 0.5-1.4 5-0.5 10-0.9 15-1.4 0.7-0.1 1.4-0.5 2.1-0.8 0.2-0.1 0.1-0.5 0.2-0.8 -0.8-0.1-1.7-0.2-2.5-0.2 -6 0-11.9 0-17.9 0.1 -2.9 0.1-5.8 0.2-8.7 0.7 -1.6 0.3-3.1 1.5-4.7 2.2 -0.5 0.2-1.1 0-1.7 0.2 -0.2 0.1-0.4 0.8-0.2 1 0.2 0.3 0.8 0.6 1.1 0.6 4.8-0.4 9.6-1 14.4-1.4 0.5 0 1.4 0.5 1.4 0.8 0 1.2-0.2 3.4-0.4 3.4 -7 0.6-13.9 0.9-20.9 1.2 -0.3 0-0.8-0.7-0.9-1.2 -0.1-0.5 0.1-1.2 0.1-1.7 0.4 0.2 0.7 0.5 1.1 0.6 0.8 0.3 1.6 0.6 2.4 0.9 -0.5-1.1-0.9-2.2-1.5-3.3 -0.1-0.1-0.9 0.2-1.3 0.2 -2.4-0.1-4.8-0.3-7.2-0.5 -0.1 0-0.3-0.4-0.4-0.6 1.7-0.2 3.3-0.3 5-0.6 0.6-0.1 1-0.7 1.5-1.1 -0.3-0.2-0.6-0.6-0.9-0.6 -3.2-0.3-6.4-0.6-9.6-0.8 -0.9 0-1.8 0.2-2.6 0.4 0.8 0.4 1.9 0.6 2.4 1.3 1.1 1.3 2 2.7 3 4.1 -1.5-0.1-3-0.2-4.4-0.5 -0.6-0.1-1-0.9-1.5-1.4 -2.5-2.5-4.5-6.2-7.5-7 -3.6-1-8 1.2-11.8 0.7 -5.2-0.7-1.1-10.8-9.7-10 -2.7 0.2-6.3-4-8.5-6.9 -2.6-3.4-5.2-7.5-5.9-11.6 -1.3-7.7-1.2-15.6-1.7-23.5 0-2 0-4 0-6 0.2-3.1 0.3-6.2 0.6-9.3 1.5-16.1 2.9-32.3 4.6-48.4 0.2-2.1 1.9-4.2 2-6.3 0.1-2.1-1.5-4.2-1.5-6.3 0.1-14.4 0.4-28.8 0.8-43.2 0.3-9.8 1.6-19.5 1.5-29.3 -0.1-13-1.6-26-1.7-38.9 -0.1-12.2 1.2-24.4 1.3-36.5 0.3-20.3 0.2-40.7 0.1-61 0-6.3-0.6-12.6-1.3-18.9 -0.6-5.3-3.8-11.1-2.3-15.5 1.5-4.3 7.1-9.7 11.4-10.2 13.1-1.4 26.4-0.6 39.7-0.8 1.6 0 3.2-1 4.9-1.5 -2.8-3.8-5.6-7.6-8.4-11.4 -0.5 1.1-1 2.1-1.5 3.2 -0.3-0.2-0.7-0.3-0.9-0.5 -3.4-3.9-7.1-7.6-10-11.8 -1.6-2.2-2.3-5.3-2.6-8.1 -0.5-4.6-0.9-9.2-0.4-13.8 0.2-2.3 2.1-5.9 3.8-6.2 6.8-1.4 13.8-2.1 20.8-2.4 30-1.2 60.1-2.1 90.1-3.3 5.2-0.2 10.5-1.2 15.6-2.3 3.7-0.8 7.2-2.4 10.7-3.7 1.1 3.5 3.4 7.1 3 10.4 -0.5 4-3.4 7.7-5 11.6 -1.7 4.2-2.7 8.7-4.6 12.7 -2 4.2-5 7.9-7.3 11.9 -2.7 4.7-5.3 9.4-7.8 14.2 -0.8 1.5-1.2 3.3-1.4 5 -0.1 0.9 0.8 2.8 1.2 2.8 16.1-0.3 32.1-0.8 48.2-1.1 16-0.3 32.1-0.3 48.1-0.6 0.5 0 1.4-1.2 1.2-1.4 -1.8-3.9-3.2-8.2-5.8-11.5 -5.8-7.4-12.6-14.1-18.5-21.4 -4.7-5.9 2.5-21.3 10.1-21.9 8.6-0.6 17.3-1.1 26-1.2 28.2-0.4 56.3-0.1 84.5-1.2C359.5 11.7 371 11.2 377.3 0zM47.8 348c-0.2 0-0.5 0.1-0.7 0.1 0 0.7 0 1.5 0 2.2 0 0.3 0.3 0.6 0.5 1 0.3-0.4 0.5-0.8 0.8-1.1 0.3 0.8 0.9 1.6 0.7 2.2 -1 3.3-2.5 6.4-3.1 9.8 -0.6 2.8-0.2 5.7-0.3 8.6 0 1.6-0.1 3.2-0.2 4.8 0.4-1.1 0.9-2.2 1-3.4 0.4-3 0.5-6 0.8-9 0-0.4 0.5-1 0.7-1 0.7 0.1 2.1 0.4 2.1 0.6 -0.2 10.5-0.5 20.9-0.8 31.4 0 1.1-0.6 2.2-0.3 3.1 0.9 2.8 1.8 7.8 3.2 7.9 6.1 0.6 12.4-0.4 18.6-0.3 8.1 0.1 16.3 0.3 24.4 1 15.3 1.3 30.5 3.1 45.8 4.6 12.5 1.2 25 3.4 37.5 2.9 13.4-0.5 26.6-4 40-5.6 7.5-0.9 15.2-0.1 22.7-0.6 10.1-0.6 20.1-2.3 30.2-2.4 14.1-0.2 28.2 1.3 42.3 0.8 22.2-0.9 44.4-2.9 66.6-4.6 1.1-0.1 3-1.7 3-2.7 0.1-11.5-0.2-23.1-0.2-34.6 0-12 0.3-24 0.5-36.1 0.2-10.6 1.2-21.2 0.6-31.7 -0.6-10.2-3.2-20.4-4.3-30.6 -1.4-13.5-2.7-27.1-3.1-40.7 -0.5-18.8-0.3-37.6 0.2-56.4 0.2-9.2 1.9-18.4 2.7-27.7 0.8-9.5 1.3-18.9 2-28.4 0.2-2.5 0.6-4.9 0.9-7.4 -2.3 0.8-4.5 1.7-6.9 2.3 -4 1-8 2.4-12 2.5 -2.3 0-4.8-2-7-3.6 -1.6-1.2-3-4.4-4-4.2 -2.5 0.5-4.8 2.2-6.9 3.8 -1.5 1.1-2.5 2.9-3.7 4.4 0.4-1 1-2 1.2-3 0.2-0.7 0-1.9-0.4-2.2 -0.6-0.4-1.6-0.2-2.5-0.2 0.6 0.6 1.7 1.4 1.6 1.8 -1.1 2.9-2.1 5.9-3.6 8.7 -5.6 10-11 20.1-17.1 29.8 -2.5 4.1-6.3 7.4-9.8 10.7 -0.4 0.4-2.8-1.9-4.1-1.8 -1.6 0.1-4.1 2.6-4.6 2.2 -2.1-1.7-4.1-3.9-5.1-6.4 -3.5-9.1-5.9-18.6-10.1-27.4 -2.8-5.9-7.9-10.7-11.9-16 -0.5-0.7-0.4-2.6-0.7-2.6 -2.5-0.1-5 0.3-7.5 0.3 -4.9-0.1-9.9-0.8-14.8-0.7 -11.5 0-23.1 0.1-34.6 0.5 -7.2 0.3-14.4 1.4-21.6 1.7 -6.1 0.3-12.2 0-18.4-0.1 -8.9-0.1-17.8-0.3-26.7-0.4 -4 0-8.5-0.9-11.8 0.6 -2.1 0.9-2.8 5.5-3.8 8.5 -1.5 4.2-2.4 8.6-4 12.7 -2.5 6.5-5.4 12.9-7.9 19.4 -0.6 1.7 0 3.8-0.7 5.4 -0.4 0.9-2.4 1.2-3.7 1.3 -2.3 0.2-4.7 0-7.1 0.1 -1.4 0.1-2.8 0.8-4.1 0.7 -0.4 0-0.8-1.7-1-2.7 -0.8-4-1.1-8.3-2.6-12 -0.7-1.6-4.7-1.7-5.8-3.4 -5.6-8.9-10.8-18.2-16.1-27.3 -0.2-0.3-0.6-0.5-1-0.6 -0.2 0-0.4 0.6-0.6 0.6 -1.9 0.5-3.8 1.2-5.8 1.3 -1.9 0.1-3.8-0.6-5.7-0.7 -0.7 0-1.5 0.7-2.1 1.2 -0.5 0.5-0.9 1.7-1.3 1.6 -3.6-0.4-7.3-0.9-10.9-1.4 0.2 4.1 0.5 8.2 0.4 12.3 0 1.4-1 2.8-1.6 4.1 -0.1 0.3-0.6 0.4-0.9 0.6 -0.1-0.9-0.2-1.8-0.4-2.6 -0.2-0.7-0.6-1.3-0.9-1.9 -0.2 0.7-0.4 1.4-0.6 2.2 -0.8 3-1.6 6.1-2.6 9 -0.4 1.3-1.4 2.4-2.1 3.6 0.9 0.1 1.9 0.5 2.7 0.2 0.5-0.2 0.3-1.7 0.8-2.2 0.9-0.9 2.1-1.5 3.2-2.3 0.6 1.1 1.2 2.2 1.6 3.3 0.2 0.5 0.2 1.2 0 1.7 -1.2 3.3-3.3 6.4-3.6 9.8 -0.5 6 0.1 12 0.2 18.1 0 2.5-0.2 4.9-0.2 7.3 0 0.5 0.8 0.9 1.3 1.4 -0.7 0.1-1.3 0.2-2 0.3 -0.3 0-0.7-0.1-1.1-0.2 0.3 0.3 0.6 0.5 0.8 0.8 0.6 1.2 1.2 2.4 1.5 3.6 0.1 0.4-0.8 1.2-1.4 1.6 -0.9 0.6-2.4 0.7-2.7 1.5 -0.4 0.9 0.1 2.2 0.2 3.3 0.7-0.5 1.3-1.2 2-1.5 0.7-0.3 1.6-0.4 2.4-0.2 0.2 0 0.4 1.1 0.4 1.7 -0.4 3.3-1.1 6.6-1.4 9.9 -0.9 13.3-1.7 26.7-2.7 40 -0.3 3.5-1.6 7-1.8 10.5 -0.2 2.5 0.6 5.2 0.7 7.7 0 0.5-2.3 1.3-2.2 1.5 0.6 1.6 2.4 3.3 2.2 4.7 -0.8 4.4-2.3 8.6-3.4 12.9 0 0.1 1.7 0.5 1.7 0.7 -0.2 5.3-0.6 10.6-1 15.9 -0.1 1-0.3 2.1-0.2 3.1 0 0.3 1 0.7 1.5 0.6 0.3 0 0.5-0.8 0.8-1.2 -0.1 0.8-0.2 1.7-0.2 2.5 0 2-0.1 4.1-0.1 6.1 0.9-0.5 1.8-1 2.8-1.4 0.2-0.1 0.9 0.8 0.9 1.1 -0.3 11.8-0.7 23.5-1.2 35.3 0 0.5-0.4 0.9-0.7 1.3 0 0-0.6-0.2-0.8-0.4 -0.4-0.4-0.7-1-1-1.4 -0.1 0.9-0.4 1.8-0.2 2.6C46.3 340.7 47 344.4 47.8 348zM273.4 39.7c-0.1-0.4-0.2-0.8-0.3-1.3 -2.4 0.8-4.8 1.6-7.2 2.3 0.6 1.3 1 2.6 1.8 3.8 3.9 5.4 8.2 10.5 11.7 16.1 8.6 13.7 17 27.5 25.5 41.3 0.3 0.5 2 0.6 2.1 0.5 1.8-4.4 3.4-9 5.4-13.4 2.1-4.5 4.6-8.8 7-13.1 7.8-14.5 15.7-29 23.4-43.6 0.3-0.6 0.1-1.5 0.1-2.3 -0.5 0.1-1 0.3-1.5 0.3 -2.2 0.1-4.5 0.1-6.7 0.2 -7 0.3-14.2-0.1-21.1 1.1C300.2 33.8 286.8 36.9 273.4 39.7zM94.2 42.2c0 0.3 0 0.6 0 0.9 -2.7-0.5-5.3-1-8-1.5 0.2-0.4 0.4-0.8 0.6-1.2 -1.8 0.1-3.7 0.2-5.5 0.3 0.3 0.6 0.4 1.3 0.8 1.8 2.6 3 5.6 5.7 7.7 9 7.8 12 15.2 24.2 22.8 36.3 0.9 1.5 2 2.8 2.9 4.2 1.2-0.9 3-1.5 3.6-2.6 5.2-10.1 9.7-20.5 15.4-30.3 7.1-12.3 6.8-13.4-7.1-14 -0.8 0-1.5-1-2.2-1.5 0.8-0.5 1.5-1.4 2.3-1.4 1.8-0.2 3.7 0.1 5.6 0.1 1.1 0 2.2-0.3 3.3-0.5 -2.1-1.4-4.1-2.7-6.3-4 -0.2-0.1-0.8 0.8-1.3 1.1 -0.8 0.5-1.7 1-2.7 1.1 -0.3 0.1-0.8-0.9-1.1-1.4 -0.1-0.3 0-0.9 0.3-1.1 0.3-0.3 0.8-0.4 1.3-0.6 -0.9-0.4-1.8-1.1-2.7-1.1 -1.2 0.1-2.5 0.8-3.6 1.4 -1 0.5-1.8 1.4-2.6 2.1 0.8 0.5 1.6 1 2.4 1.5 0.5 0.4 1 0.8 1.5 1.2 -0.5 0.2-1 0.5-1.5 0.5C111.4 42.2 102.8 42.2 94.2 42.2zM58.4 102.5c-0.6 0.5-1.3 1.2-1.9 1.8 0.7 0.3 1.4 0.7 2.2 0.8 5.7 0.5 11.3 1.1 17 1.4 1.5 0.1 3-0.4 4.5-0.7 0.6-0.1 1.2-0.7 1.7-1 -0.9-1.1-1.8-3-2.7-3C72.4 101.7 65.6 102.2 58.4 102.5zM44.9 297.9c-0.1 0-0.3 0-0.4 0 -0.3-1.5-0.7-3-1-4.5 0 0-0.5 0-0.5 0.1 -0.1 1.7-0.2 3.4-0.2 5.1 0.1 3.9 0.3 7.8 0.4 11.6 0 0.9-0.5 2-0.1 2.5 1 1.3 2.4 2.4 3.6 3.5 0.1-1.9 0.4-3.9 0.1-5.7C46.3 306.3 45.5 302.1 44.9 297.9zM420.9 221.1c-0.3-0.9-0.7-2.5-1.2-4 -0.5 0.7-1 1.4-1.5 2.1 0.1-1.9 0.2-3.7 0.4-5.6 0.1-0.8 0.2-1.6 0.3-2.3 -0.6 0.2-1.2 0.3-1.6 0.6 -0.2 0.2-0.1 1 0 1.4 0.6 3 1.3 5.9 1.7 8.9 0.1 0.4-1.7 1.4-1.7 1.5 0.8 1.3 1.8 2.4 2.8 3.6C420.3 225.5 420.6 223.7 420.9 221.1z"/><path d="M108.9 273.7c-0.9-4.6-2.2-8.1-2.2-11.7 0-3 2-6 2.2-9.1 0.2-2.3-1-4.7-1.4-7.1 -0.1-0.7 0.4-1.6 0.9-2.1 10.4-10 20.9-4 31.8-0.8 11 3.2 22.4 4.9 33.4 8 4.8 1.3 9 4.5 13.5 6.9 3.7 2 7.4 4 11 6 5 2.8 12 3.9 8.4 12.9 -1 2.6 1.8 6.4 1.4 9.5 -0.3 2.9-2.4 5.6-3.9 8.3 -1.1 2.1-2.4 4.3-3.9 6.2 -0.9 1.1-2.4 1.7-3.5 2.6 -0.5 0.4-0.9 1-1.3 1.4 0.5 0 0.9 0.1 1.3 0.1 1.1 0 2.1 0 3.2 0 -0.9 0.3-2.2 0.3-2.7 1 -2.7 3.5-5.3 7.1-7.7 10.9 -2.7 4.3-4.2 9.5-7.5 13.2 -4.2 4.7-9.3 8.7-14.5 12.2 -5.6 3.8-11.7 6.7-17.6 10 -0.3 0.2-0.7 0.2-1.1 0.3 0-0.2-0.2-0.4-0.1-0.5 0.6-0.6 1.2-1.2 1.8-1.8 -2.3 1-4.5 2.4-6.9 2.8 -4.6 0.7-9.5 1.5-14 0.8 -6.4-1.1-12.4-4.3-18.8-5.2 -6.3-0.9-12.8 0.1-19.3 0.2 -0.3 0-0.5-0.1-0.8-0.1 1.3-1 2.5-2.7 4-3 12.2-2.2 25.2-2.2 36.4-6.7 9.1-3.7 16.3-12.5 23.7-19.7 1.2-1.1-0.8-5.7-1.6-8.6 -0.2-0.7-1.5-1.3-2.4-1.5 -2.5-0.5-5.7 0.1-7.4-1.3 -3.4-2.7-5.8-6.7-9-9.7 -1.2-1.1-3.6-0.8-5.4-1.3 -0.6-0.2-0.9-1.1-1.5-1.3 -0.9-0.3-1.9-0.3-2.9-0.2 -2.8 0.1-5.7 0.4-8.5 0.4 -0.4 0-1.3-1.3-1.2-1.9 0.1-0.7 0.9-1.8 1.5-1.9 1.9-0.2 3.8 0.1 5.7 0.2 -1.7-1.2-3.6-2.2-4.9-3.7 -4-4.3-7.8-8.9-11.6-13.3 -0.2-0.2-0.1-0.5-0.2-0.8 0.4 0.1 0.9 0.3 1.3 0.3C107.1 274 107.9 273.9 108.9 273.7z"/><path d="M328.5 360.8c-3.1-1.4-5-2.8-7-2.8 -1.5-0.1-3.3 1.3-4.6 2.5 -1.3 1.3-2.1 3.1-3.1 4.7 -1-1.1-2-2.2-3-3.3 -0.1-0.1-0.6 0-0.9 0.1 -2.3 1.1-4.5 2.2-6.7 3.5 -1.4 0.8-2.7 1.9-4 3 -0.4 0.3-0.3 1.1-0.5 1.7 -1.6-0.8-3.3-1.7-4.9-2.5 0.6-0.4 1.9-1 1.9-1.1 -0.6-1.2-1.1-2.5-2-3.5 -3.4-3.7-6.4-9-10.6-10.5 -4.6-1.6-10.4 0.8-15.6 0.9 -6.6 0.2-13.2-0.1-19.7-0.3 -0.6 0-1.6-1.3-1.6-1.4 0.9-1.3 1.8-3.2 3-3.5 6.7-1.4 14.1-1.2 20.1-3.9 3.4-1.5 5.9-7.5 6.6-11.8 1.4-8.3 1.9-16.9 1.5-25.3 -0.3-6.2-2.4-12.3-3.9-18.4 0-0.1-2.6 0.3-3.9 0.5 -0.2 0-0.5 0.3-0.7 0.2 -4.1-1.1-8.3-2.1-12.4-3.6 -0.4-0.1-0.1-2.7 0.2-4.1 0.1-0.7 1.3-1.7 1.1-1.9 -0.6-0.8-1.5-1.3-2.3-2 -0.6 0.8-1 1.8-1.8 2.4 -1.2 0.9-2.6 1.5-3.8 2.4 -2.6 2-4.9 4.4-7.7 5.9 -3.1 1.6-6.6 2.4-10 3.5 1.8-4.6 3.2-9.5 5.6-13.7 3.9-6.8 8.4-13.2 12.9-19.6 1.9-2.7 4.9-4.9 6.4-7.8 0.8-1.5-1.3-5.4-0.5-6.1 3-2.3 6.6-4.9 10.1-5.3 9.9-1.1 19.9-1.2 29.9-1.4 1 0 1.9 1.8 3.1 2.4 1.2 0.6 2.8 1.2 3.9 0.7 10-3.9 8.8 3.4 9.3 9.1 0.7 9.1 1.5 18.1 2 27.2 0.4 6.7-0.1 13.5 0.9 20.1 1 6.5 3.4 12.7 5 19.1 0.9 3.5 1.1 7.2 2.3 10.5 0.8 2.3 2.9 4.2 4.1 6.4 1.9 3.8 4.2 7.5 5.1 11.5 0.6 2.9-0.6 6.3-1.2 9.4C330.4 356.9 329.4 358.7 328.5 360.8z"/><path d="M140 210.4c-11.8 2.2-23.6 4.5-35.5 6.6 -4.5 0.8-9 1-13.5 1.3 -0.4 0-1-1-1.4-1.6 -0.8-1-1.4-2.2-2.2-3.2 -0.7-0.8-2.5-1.5-2.5-1.8 0.7-2.8 1.7-5.6 2.8-8.4 0.3-0.7 1.5-1 2.3-1.5 -0.6-0.2-1.3-0.3-1.9-0.5 -0.8-0.3-1.5-0.6-2.3-0.9 0.7-0.1 1.8 0 2.1-0.4 0.6-0.9 1-2 0.9-3.1 -0.2-4.1-0.7-8.3-1.1-12.4 4.4 0.3 8.9 0.5 13.3 1 9.7 1.3 19.3 3.5 29 3.9 15.1 0.6 30.2 0.2 45.3-0.1 13.9-0.3 27.8-1 41.7-1.8 16.9-1 33.7-2.2 50.5-3.3 17.4-1.2 34.8-2.7 52.2-3.3 2.7-0.1 5.4 4.1 8.3 6.1 1.5 1 3.3 1.5 4.9 2.1 1.2 0.5 3.2 0.6 3.4 1.3 0.4 1.8 0.8 4.8-0.1 5.5 -4.3 3.1-9 5.7-13.6 8.3 -1.9 1.1-4 1.9-5.9 3.1 -0.3 0.2 0.1 1.4 0.2 2.2 0.5-0.1 1.1-0.1 1.6-0.3 0.8-0.3 1.4-0.8 2.2-1.2 0.1 0 0.5 0.4 0.7 0.6 -0.6 0.6-1 1.7-1.7 1.8 -5.6 0.8-11.2 1.4-16.8 2.1 -0.5 0.1-1 0.1-1.6 0.1 0.1 0.7 0 1.5 0.3 2.1 0.2 0.4 1 0.4 1.5 0.6 0.9 0.3 1.7 0.6 2.6 1 -0.7 0.1-1.4 0.4-2 0.3 -11.5-1-23-1.9-34.4-3 -9.7-0.9-19.5-1.9-29.2-3.1 -4.2-0.5-8.2-1.6-12.4-2.3 -0.6-0.1-1.2 0.3-1.9 0.5 0.4 0.2 0.8 0.4 1.1 0.7 0.4 0.3 0.8 0.6 1.2 0.9 -0.5 0-1 0-1.5 0 -0.3 0-0.6 0.1-0.8 0.2 0.2 0.2 0.3 0.4 0.5 0.5 0.9 0.3 1.7 0.6 2.6 0.9 -2.1 0.1-4.3 0.3-6.4 0.3 -0.1 0-0.1-0.8-0.2-1.2 -2 0.4-3.9 1-5.9 1.2 -0.5 0.1-1.3-0.8-1.8-1.3 -0.3-0.3-0.4-0.8-0.5-1.2 -0.2 0.3-0.3 0.7-0.5 1 -0.7 0.8-1.5 1.5-2.2 2.3 -0.5-0.7-0.9-1.5-1.4-2.1 -0.2-0.3-0.8-0.4-1.1-0.4 -8.7 0.5-17.5 1.3-26.2 1.4 -3.6 0.1-7.2-1.2-10.9-1.8 -7.9-1.2-15.8-2.4-23.7-3.3 -1.9-0.2-4 0.9-6 1.4 0.8 0.4 1.7 0.6 2.2 1.2 0.4 0.4 0.3 1.3 0.4 2 -1.4 0.2-2.8 0.5-4.2 0.7C140.2 211.4 140.1 210.9 140 210.4zM138.4 202.7c2.9 0.2 3.5 0.3 4 0.2 1-0.2 2-0.5 3-0.7 -0.1-0.2-0.2-0.6-0.4-0.6 -5.9-0.2-11.7-0.4-17.6-0.5 -0.3 0-0.6 0.4-0.9 0.5 0.2 0.2 0.3 0.4 0.5 0.6 0.4 0.3 0.8 0.6 1.2 1 -0.6 0.3-1.3 0.6-1.9 0.8 -0.4 0.1-0.9 0.1-1.4 0.2 0.5 0.2 1.1 0.6 1.6 0.6C131.1 203.9 135.9 203.1 138.4 202.7zM309.3 206.5c-0.9 0.4-2.1 0.9-3.4 1.5 2.8 0.6 5.7 1.3 8.5 1.8 0.4 0.1 0.8-0.6 1.3-0.9C313.7 208.1 311.7 207.4 309.3 206.5z"/><path d="M314.5 366.3c-0.4 2.3-0.7 3.9-1 5.5 -2.2-0.6-4.5-1.2-6.7-1.8 0.7-1 1.2-2.6 2.2-3C310.7 366.4 312.7 366.5 314.5 366.3z"/></svg>