<svg class="icon" xmlns="http://www.w3.org/2000/svg" viewBox="0 0 360.7 370.3"><path d="M203.2 178c0.4-1.9 0.2-4.2 1.2-5.5 3-3.7 6.4-7.1 9.8-10.5 2.5-2.4 5.8-4.2 7.6-7.1 2.8-4.3 4.5-9.2 6.8-13.8 0.2-0.5 0.8-0.8 1.9-1.8 -0.5 1.7-0.7 2.5-1.2 4.1 2.5-2.2 4.4-4 6.4-5.7 -0.2-0.2-0.4-0.4-0.6-0.6 0.8-1 1.6-2 2-2.6 0.9-0.8 1.3-1.2 1.8-1.6 0.1-0.1 0.2-0.2 0.3-0.3 0 0 0 0 0 0 0.1-0.1 0.2-0.2 0.2-0.2 0-0.1 0.1-0.2 0.1-0.4 0.1-0.1 0.2-0.2 0.2-0.2 4.7-5.4 9.5-10.7 13.9-16.3 2.2-2.7 3.7-6 5.5-9 0.3-0.6 0.7-1.1 1.2-2 0 0-0.2-0.3-0.8-1.2 3.1-0.8 5.9-1.6 8.8-2.2 0.7-0.1 1.7 0.3 2.1 0.8 0.4 0.4 0.4 1.6 0.1 2.1 -2 3.3-4.4 6.4-6.2 9.8 -2.9 5.8-5.4 11.9-8.1 17.8 -3.1 6.5-6.1 13-9.4 19.3 -3.4 6.6-6.9 13.2-11 19.4 -5.6 8.6-11.9 16.6-17.6 25.1 -4.8 7-9.5 14.1-13.6 21.5 -4.6 8.4-8.5 17.2-12.8 26.1 -0.1-0.6-0.3-1-0.3-1.2 -0.9 1.1-2 2.5-3.1 4 0.1 0.1 0.3 0.4-0.3-0.5 -2.6 7.4-4.9 13.8-7.2 20.4 -0.7-0.3-1.9-0.7-3.2-1.1 -0.6 0.5-1.2 0.9-1.8 1.4 -0.7-1.7-1.5-3.3-2.2-5 -1.9-4.5-3.5-9.1-5.8-13.4 -4-7.8-8.4-15.3-12.6-23 -5.7-10.4-11.5-20.8-17.1-31.2 -2.9-5.3-5.2-11-8.4-16.1 -4.7-7.8-10.4-15-14.8-23 -4.2-7.4-7.1-15.6-10.9-23.2 -4.2-8.5-8.8-16.8-13.1-25.3 -0.6-1.1-0.4-2.6-0.5-4 2.5 0.2 4.9 0.2 7.3 0.7 1 0.2 1.9 1.2 2.9 1.9 -0.1 0.2-0.3 0.5-0.6 0.9 7 8.9 13.9 17.9 20.9 26.8 0.1 0.1 0.2 0.2 0.3 0.3 0 0.1 0.1 0.3 0.1 0.4 0.1 0.1 0.2 0.2 0.2 0.3 0 0 0 0 0 0 0.1 0.1 0.2 0.2 0.3 0.3 0 0.8 0 1.7 0 2.5 0.5-0.5 0.9-0.9 1.4-1.4 0.8 1 1.5 2 2.3 3.1 -0.2 0.2-0.3 0.4-0.5 0.6 1.9 1.8 3.9 3.5 6.4 5.9 -0.4-1.6-0.7-2.4-1.5-5.3 2.5 3.5 3.9 5.3 5.1 7.2 1.3 1.9 2.7 3.9 3.6 6 1.2 2.5 1.9 5.2 2.9 7.7 0.2 0.6 0.6 1.5 1.1 1.7 7.2 2.2 10.8 8.2 14.7 13.8 0.6 0.8 0.1 2.3 0.1 3.5 -1.5-2.1-3-4.1-4.5-6.2 -0.1-0.1-0.2-0.2-0.3-0.2 1.3 2.2 2.7 4.5 4 6.7 0.5 1.3 0.9 2.6 1.4 3.9 0.4-0.3 0.7-0.7 1.1-1 0.8 1.1 1.5 2.2 2.9 4.2 -1.3-0.6-1.7-0.8-2-0.9 -0.2 0.3-0.4 0.6-0.7 0.9 2.2 1.7 4.4 3.3 6.7 5 -0.5 0.2-1.2 0.4-2 0.6 1.1 1.3 2.2 2.6 3 3.6 1 1.5 1.8 2.7 2.6 3.9 0.6-0.1 1.1-0.2 1.7-0.3 -1.2-56.5-2.4-113.1-3.6-169.5 -2.1-0.1-3.3-0.2-4.5-0.3 0-0.2 0-0.4 0-0.7 1.2-0.1 2.4-0.3 4.3-0.5 -1.2-0.9-1.7-1.3-1.3-1 -2.2 0.3-3.4 0.4-4.6 0.6 0-0.2-0.1-0.3-0.1-0.5 0.3-0.1 0.6-0.1 1.1-0.3 -2.6 0.4-4.9 0.8-7.2 1.2 0-0.2-0.1-0.5-0.1-0.7 1-0.1 2-0.2 2.9-0.3 0-0.1 0-0.2 0-0.3 -7.3 0.4-14.6 0.9-23.2 1.4 2.4 1 3.5 1.5 5.8 2.6 -5.1 0-9 0.4-12.8-0.2 -1.2-0.2-2.3-3.1-2.6-5 -0.7-3.3-0.8-6.7-0.7-10.2 -1.8-4.1-0.5-5.9 4.2-6.4 6.4-0.7 12.8-2.5 19.2-2.6 7.7-0.2 15.4 1.5 23 1.3 12.3-0.3 24.5-1.3 36.8-2.6 5-0.5 9.8-2.6 14.7-4 2.1 0 4.1 0 6.2 0 2.3 2.1 4.8 4 6.7 6.3 0.5 0.6-0.8 2.6-1.7 5.4 0.1-0.2-0.4 0.8-1 2 0.2 0.2 0.7 0.5 1.2 0.9 -0.4 0.4-0.8 0.8-1.2 1.2 0.3 0.2 0.5 0.3 0.9 0.6 -0.5 0.3-0.9 0.5-2.4 1.3 2.4-0.3 3.4-0.4 5.1-0.7 -0.5 1.3-0.9 2.4-1.4 3.8 0.6-0.1 1.3-0.2 2.6-0.5 -1.6 1.4-2.9 2.5-5.3 4.6 0.4 0-0.7 0.1-1.7 0.2 -0.3 0.9-0.5 1.6-0.5 1.6 -3 0.3-5.5 0.5-8 0.8 0.8 0.3 1.7 0.6 3.4 1.2 -1.3 0.2-2.2 0.5-2.5 0.3 -5.4-4.8-11.3-0.9-17-1.2 -3.7-0.2-7.6-0.2-11.1 1 -1.4 0.5-2.2 4.1-2.4 6.4 -0.3 4.9 0 9.9-0.1 14.8 -0.2 13.4-0.5 26.7-0.8 40.1 -0.2 8.4-1 16.9-1.1 25.3 -0.1 5.3 0.7 10.6 1 16 0.1 2.4 0 4.8 0 7.3 -0.5-0.1-0.9-0.2-1.8-0.5 0.2 2.3 0.3 4.3 0.5 7.2 0.5-0.6 0.3-0.3 0.4-0.4 0 11.7 0 23 0 32.2 -0.5 1.6-0.4 1.2-0.2 0.7 0.1 0 0.2 0 0.3 0.1 -0.6 3.6-1.5 7.1-1.8 10.7 -0.3 3.7-0.1 7.5-0.1 12.5 2.6-2 4.5-3.4 6.4-4.9 -0.4-0.4-0.8-0.9-1.3-1.3 1.1-1.3 2.2-2.6 3.4-4 -0.8-0.3-1.5-0.5-2.1-0.7 2.3-1.7 4.5-3.3 6.7-4.9 -0.2-0.3-0.4-0.6-0.6-0.9 -0.3 0.2-0.7 0.3-1 0.5 -0.2-0.2-0.3-0.4-0.5-0.6 1-0.8 2-1.6 4-3.3 0 0 0.5-1.3 1-2.7 1.3-2.2 2.7-4.5 4-6.7 -0.1 0.1-0.2 0.2-0.3 0.2C206.2 173.8 204.7 175.9 203.2 178z"/><path d="M359.9 365.7c-0.4-1-0.9-2-1.2-2.6 -0.6 1.7-0.9 4.7-1.9 4.9 -2.5 0.7-5.4-0.1-8.1 0.2 -1.8 0.2-3.4 2.1-5.1 2 -5.7-0.2-11.4-1.1-17.1-1.5 -5.9-0.4-11.8-0.4-17.7-0.8 -2.8-0.2-5.6-1.1-8.4-1.3 -5.8-0.2-11.6-0.1-17.4-0.3 -3.1-0.1-6.2-0.7-9.3-1 -0.8-0.1-1.5 0.1-2.1-0.5 -2.4-0.4-4.7-0.9-7.6-1.4 -5.4 0-11.4 0-16.8 0 -0.2-0.2 0.3 0.3 1.2 1.4 -1.1-0.5-1.6-0.8-2.2-1 -0.1 0.1-0.3 0.4-0.4 0.6 -0.4-0.7-0.7-1.9-1-1.9 -2 0.1-4 0.4-7.6 0.8 2.6 1.1 3.6 1.5 5 2.1 -13.9-0.8-27.4-1.6-42.3-2.5 1.5 1.7 1.7 1.9 1.7 1.9 -14 0-28.2 0-42.2 0 0 0.1 0.2-0.2 1.7-1.9 -15 0.9-28.5 1.7-42.4 2.5 1.4-0.6 2.4-1 5.1-2.1 -3.7-0.4-5.7-0.7-7.8-0.8 -0.3 0-0.6 1.1-1 1.8 -0.1-0.1-0.3-0.4-0.4-0.6 -0.5 0.3-1 0.6-2.3 1.3 1.1-1.3 1.5-1.8 1.3-1.6 -5.4 0-11.3 0-16.8 0 -2.9 0.5-5.2 0.9-7.6 1.4 0.1 0.2 0.1 0.4 0.2 0.6 -3.3 0.3-6.5 0.9-9.8 1 -5.9 0.1-11.8-0.1-17.7-0.1 -2.2 0-4.3 0.5-6.5 0.7 -7.1 0.6-14.2 1.2-21.3 1.9 -5.6 0.5-11.1 1.1-16.7 1.5 -0.7 0.1-1.4-1-2.2-1.1 -1.3-0.2-2.6 0-4 0.1 -1.6 0.1-3.7 1-4.8 0.2 -2-1.4-3.4-3.7-4.8-5.4 0.2-0.3-0.3 0.6-0.7 1.6 -0.2 0-0.4-0.1-0.6-0.1 0.5-2.3 0.8-4.6 1.4-6.8 1.4-5.9 3.4-11.8 4-17.8 0.7-7 0.1-14.1 0-21.2 -0.2-6.7-0.6-13.4-0.8-20.1 -0.2-6.4 0-12.8-0.2-19.2 -0.1-6.2-0.6-12.4-0.7-18.5 -0.1-5.8 0.2-11.7 0.1-17.5 -0.2-9.4-0.7-18.7-0.9-28.1 -0.1-5.6 0.5-11.3 0.6-16.9 0.7-19.3 1.3-38.7 1.8-58.1 0-1-1.6-2.1-2.5-3.3 0.7-0.3 1.5-0.6 1.8-0.7 -0.9-1-1.9-2-3.4-3.6 0.6 0.1 0.2 0 0.3 0.1 0.7-1.2 1.5-2.5 2.3-3.8 -0.3-0.2-0.5-0.3-0.8-0.5 0.7-0.6 1.6-1.2 2-2 0.2-0.5-0.3-1.4-0.7-2.6 0-0.5 0-1.5 0-2.5 -0.2 0-0.3 0-0.5 0 0-1.5 0-2.9 0-4.5 1 0 1.9 0 2.8 0 0-0.7 0.1-1.3 0.1-2 7.1 0.8 13.9 2.1 20.8 2.3 12.9 0.3 25.8 0.1 38.7-0.2 4.1-0.1 8.2-1.2 12.2-1 1.4 0.1 3.5 2.3 3.9 3.9 0.4 1.6-0.8 3.7-0.3 5.8 -0.9 3.5-1.6 7.1-3 10.5 -0.4 0.9-2.8 1.1-4.4 1.3 -1.6 0.2-3.2 0.1-5.6 0.1 3 0.9 5.2 1.5 6.9 2 -17 0-34.4 0-51.8 0 0-0.5 0-0.9-0.1-1.4 0.3 0.2 0.6 0.4-0.3-0.2 -1.7 6.3-3.8 12-4.5 17.9 -0.8 5.9-0.2 12-0.5 18.1 -0.2-1.5-0.5-3.1-0.7-4.6 -0.2 0-0.3 0.1-0.5 0.1 0.2 2 0.4 4 0.6 6.3 0.4 3.6 0.4 7.6 1.3 11.4 1 4.3 2.7 8.4 4 12.6 0.7-0.2 1.4-0.5 2.2-0.7 0 10.4 0 20.7 0 31.1 0.5 0 1.1 0.1 1.6 0.1 0.4-2.6 0.7-5.1 1-7.7 0.4 0 0.7 0.1 1.1 0.1 0.2 2.7 0.5 5.4 0.7 8.1 -0.1 0-0.2 0-0.3 0 0.1 1.7 0.2 3.4 0.3 4.5 -0.4 1.6-0.7 2.5-0.9 3.5 0.1 0.1 0.8 0.7 0.8 1.2 -0.4 4.7-0.9 9.4-2 13.8 0.5 7.1 1 14.1 1.5 21.3 0.4-0.1 0.8-0.2 1.4-0.3 -0.4 1.2-0.7 2.2-1.2 3.8 0 1 0 2.8 0 4.5 -0.2 0-0.3 0-0.5 0 -0.2-2.1-0.4-4.3-0.6-6.4 -0.2 0-0.3 0-0.5 0 0 2.3 0 4.6 0 6.9 0 4.3 0 8.7 0 13 0 0 0.1 0 0.1 0 0 2.6 0 5.2 0 7.8 -0.1 0-0.2 0-0.2 0.1 0.1 0.8 0.2 1.6 0.3 2.9 -0.5-0.2-1.1-0.4-2-0.7 0 0-0.4 0.3-0.2 0.2 0.2 1.5 0.4 2.5 0.5 3.2 0.4-0.5 0.9-1.2 1.4-1.8 0.2 0.2 0.5 0.4 0.7 0.6 -0.2 0.4-0.4 0.8-0.9 1.5 1.1-0.3 1.9-0.5 3-0.8 -0.5 2.5-1.1 5.1-1.7 8.1 0.8-0.4 1.1-0.6 1.1-0.6 0.1-0.8 0.1-1.3 0.2-1.8 0.3 0 0.5 0 0.7 0 0 1.2 0 2.5 0 5 0.6-2 0.9-2.8 1.6-5 0 4.3 0 7.1 0 9.9 0.1 3.6 0.3 7.2 0.4 10.8 0.3 8.8 8.1 6.1 12.1 6.5 12.2 1.2 24.6 0.7 37 1 10 0.3 20 0.7 30 1.1 3.2 0.1 6.4 0.3 9.5-0.5 39.5 0 79 0 118.6 0 0 0.3 0 0.6 0 1 2.4-0.1 4.8-0.2 7.2-0.3 7.1-0.3 14.3-0.8 21.4-0.9 11.9-0.2 23.8 0.1 35.7-0.5 7.9-0.4 15.7-2 23.6-3.2 0.3 0 0.4-1.6 0.4-2.5 0.1-6.7 0.2-13.5 0.3-20.2 0-0.2 0.5-0.4 0.9-0.9 0.3 1 0.5 1.8 1.2 4 0-2.7 0-3.9 0-5.2 0.2 0 0.5 0 0.7 0 0.1 0.5 0.1 0.9 0.2 1.8 -0.1-0.1 0.2 0.1 1.1 0.7 -0.6-3.2-1.2-5.8-1.7-8.3 1.1 0.3 1.8 0.5 3 0.9 -0.4-0.8-0.6-1.1-0.9-1.6 0.3-0.2 0.6-0.4 0.8-0.6 0.4 0.6 0.8 1.2 1.2 1.8 0.1-0.7 0.3-1.7 0.6-3.2 0.2 0.2-0.2-0.2-0.3-0.2 -0.8 0.3-1.4 0.6-2.7 1.1 0.8-1.5 1.1-2.1 1.4-2.7 -0.4-0.1-0.7-0.3-0.7-0.3 0-2.8 0-5.4 0-8.1 0 0 0.1 0 0.1 0 0-4.3 0-8.7 0-13 0 0 0.1 0 0.1 0 0-2.3 0-4.7 0-7 -0.2 0-0.4 0-0.6 0 -0.2 2.2-0.4 4.3-0.5 6.5 -0.2 0-0.3 0-0.5 0 0-1.7 0-3.4 0-4.3 -0.5-1.7-0.9-2.7-1.3-4 0.6 0.1 0.9 0.2 1.4 0.3 0.5-7.1 1-14.1 1.5-21.2 -0.6-2.1-1.3-4.4-1.8-6.8 -0.4-1.8-0.5-3.6-0.6-5.2 0.5-1.5 0.8-2.6 1.1-3.6 -0.2-0.5-0.4-1.3-0.9-2.7 0.1-1.3 0.2-3 0.2-4.7 -0.1 0-0.2 0-0.2 0 0.2-2.7 0.4-5.3 0.6-8 0.4-0.1 0.7-0.1 1.1-0.2 0.4 2.5 0.8 5.1 1.2 7.6 0.5 0 1 0 1.5 0 0-10.4 0-20.7 0-30.6 1.5-0.3 3-0.4 3.1-0.8 1.9-7.7 3.5-15.4 4.5-23.3 0.2-2 0.4-4 0.6-6 -0.2 0-0.4-0.1-0.5-0.1 -0.2 1.5-0.5 3.1-0.7 4.6 0.8-12.2 0.6-24.1-5.9-35.3 -0.1 0.1 0.2-0.1-1.1 0.8 -6.8 0.3-15.3 0.7-23.8 0.9 -9 0.2-17.9 0-28.8 0 4.1-1.2 6.2-1.8 7.3-2.1 -2.4-0.8-6.5-0.9-8.6-3.1 -1.9-2-1.6-6.1-1.6-9.5 -2-3.6-1.1-9.3 2.4-9.6 3.5-0.3 7.1 0.3 10.7 0.5 7.3 0.4 14.7 1 22 1.3 5.5 0.3 11 0.7 16.4 0.4 4.6-0.3 9.1-1.6 13.6-2.2 3-0.4 6.1-0.6 9.4-0.9 0.1 0.6 0.1 1.2 0.2 1.9 0.8 0 1.7 0 2.8 0 0 1.6 0 3.1 0 4.5 -0.2 0-0.4 0-0.5 0.1 0 1 0 2 0 2.6 -0.3 1.1-0.9 2-0.7 2.6 0.3 0.8 1.3 1.2 1.2 2.2 0.7 1.3 1.5 2.7 2.2 4 0.2 0-0.2 0 0.3-0.1 -1.4 1.6-2.4 2.6-3.3 3.7 0.3 0.1 1 0.4 0.9 0.4 -3.5 9.3-1.7 18.7-1.4 28 0.3 9.4 1.5 18.7 1.7 28.1 0.3 11.4 0.1 22.8 0 34.1 -0.1 8.7-0.2 17.4-0.4 26.1 -0.2 13.3-0.5 26.6-0.7 39.9 -0.1 7.8-0.1 15.7-0.4 23.5 -0.2 8.8-1.1 17.6-0.9 26.4 0.1 3.9 2.2 7.6 3.2 11.5 1 3.4 1.8 6.9 2.6 10.3C360.4 365.6 360.2 365.7 359.9 365.7zM334.2 336.1c0.2 0.1 0.3 0.2 0.5 0.3 0.1-0.3 0.2-0.6 0.4-0.9L335 335.5c-0.1-0.4-0.2-0.8-0.4-1.2 -0.1-0.5-0.3-1-0.4-1.5 -0.2 0-0.3 0-0.5 0 -0.2 0.2-0.5 0.3-0.8 0.5 0 0.9 0 1.8 0 2.6 0.4 0.1 0.7 0.2 1.1 0.2L334.2 336.1zM26.3 336.1c0 0 0.1 0.1 0.1 0.1 0.4-0.1 0.7-0.2 1.1-0.2 0-0.9 0-1.8 0-2.6 -0.2-0.2-0.5-0.3-0.8-0.5 -0.2 0-0.3 0-0.5 0 -0.1 0.5-0.3 1-0.4 1.5 -0.1 0.4-0.2 0.8-0.4 1.2l0 0c0.1 0.3 0.2 0.6 0.4 0.9C26 336.3 26.2 336.2 26.3 336.1z"/><path d="M335 335.5c-0.1 0.3-0.2 0.6-0.4 0.9 -0.1-0.1-0.1-0.3-0.2-0.5 -0.1 0.1-0.2 0.1-0.3 0.2 0 0-0.1 0.1-0.1 0.1 -0.4-0.1-0.7-0.2-1.1-0.2 0-0.9 0-1.8 0-2.6 0.2 0.1 0.4 0.3 0.5 0.4 0 0.1 0 0.2 0 0.3 0.1 0.2 0.2 0.4 0.3 0.6l0 0c0.3-0.1 0.5-0.2 0.8-0.3 0.1 0.4 0.3 0.8 0.4 1.2C335 335.5 335 335.5 335 335.5z"/><path d="M27.5 333.3c0 0.9 0 1.8 0 2.6 -0.4 0.1-0.7 0.2-1.1 0.2 0 0-0.1 0-0.1 0 -0.1-0.1-0.2-0.1-0.3-0.2 -0.1 0.2-0.1 0.3-0.2 0.5 -0.1-0.3-0.2-0.6-0.4-0.9 0 0 0 0 0 0 0.1-0.4 0.3-0.8 0.4-1.2 0.3 0.1 0.5 0.2 0.8 0.3 0 0 0 0 0 0 0.1-0.2 0.2-0.4 0.3-0.6 0-0.1 0-0.2 0-0.3C27.2 333.6 27.3 333.4 27.5 333.3z"/><path d="M26.8 332.8c-0.1 0.1-0.2 0.2-0.4 0.3l0 0c0-0.1 0-0.2-0.1-0.2C26.4 332.8 26.6 332.8 26.8 332.8z"/><path d="M334.1 333.1c-0.1-0.1-0.2-0.2-0.4-0.3 0.2 0 0.3 0 0.5 0 0 0.1-0.1 0.2-0.1 0.2L334.1 333.1z"/><path d="M26.4 333.1c-0.1 0-0.1 0.1-0.2 0.1 0.1-0.1 0.1-0.1 0.2-0.2C26.3 333.1 26.4 333.1 26.4 333.1z"/><path d="M27 333.7c0 0.1 0 0.2 0 0.3 0-0.1-0.1-0.1-0.1-0.2C26.9 333.8 27 333.7 27 333.7z"/><polygon points="26.7 334.6 26.6 334.6 26.7 334.6 "/><path d="M334.2 333.1c0.1 0.1 0.1 0.1 0.2 0.2 -0.1 0-0.2-0.1-0.2-0.1C334.1 333.1 334.2 333.1 334.2 333.1z"/><path d="M333.5 334c0-0.1 0-0.2 0-0.3 0 0.1 0.1 0.2 0.1 0.2C333.6 333.9 333.6 334 333.5 334z"/><polygon points="333.8 334.6 333.9 334.6 333.9 334.6 "/></svg>