<svg class="icon" xmlns="http://www.w3.org/2000/svg" viewBox="0 0 214 323.7"><path d="M11 190.2v-1.6c-0.1 0.6-0.3 1.1-0.4 1.7C10.7 190.2 10.8 190.2 11 190.2z"/><path d="M4 74.9c0.5 0 0.2-6.1 0.7-6.1 0.6-13.3 1.2-26.7 1.8-40 2 19.9 3 39.6 3.7 59.4 0.3 8.9 0 17.8 0.1 26.7 0 3.8 0.4 7.5 0.6 10v63.7c0.3-0.9 0.5-1.8 0.7-2.7 0.9 0.9 1.3 1.7 1.1 2.4 -3.5 10.2-0.6 20.8-1.7 31.1 -1 10.2-0.5 20.6-0.6 30.8 0 1.1 0.9 2.2 0.9 2.3V285c-1.4-0.3-2.3-0.5-2.9-0.7 -0.7 8.3-1.2 16.3-2.1 24.3 -0.6 5-1.6 10-2.5 15h4c8.1-6.7 16-13.8 24.5-20.1 11.8-8.8 24.6-16.2 36-25.5 12.6-10.3 23.9-22.1 35.9-33 5.5-5 11.5-9.5 17.3-14.2 -1.4 0.8-2.9 1.6-4.3 2.4 -0.2-0.4-0.4-0.8-0.6-1.2 1.8-0.8 3.6-1.6 5.3-2.3 1.4-1.3 2.1-4.4 5-2 0.6-0.3 1.3-0.5 1.8-0.9 15.4-11.4 30.8-22.8 46.2-34.1 9.9-7.2 19.7-14.5 29.7-21.5 2.8-2 6.2-3.1 9.3-4.5v-2c-3.1-2.1-6.1-4.4-9.2-6.4 -2.8-1.8-5.8-3.3-8.4-5.3 -17.3-13.5-34.5-27.1-51.8-40.7 -12.8-10-25.9-19.7-38.5-30C95 73.2 84.7 63.3 73.7 54.2 54.1 37.8 34.1 21.8 14 5.3c-0.7 1-1.9 2.9-3.2 4.8 -0.6-0.2-1.2-0.5-1.8-0.7C8.4 6.3 7.7 3.1 7.1 0 6.9 0 6.6 0.1 6.3 0.1 6 2.2 5.7 4.2 5.4 6.3c-0.2-0.1-0.4-0.1-0.6-0.2C3.1 9.9 1.4 13.6 0 16.7 1.1 34.4 2.9 57.8 4 74.9zM119.1 221.5c4.5-5.3 9.1-10.6 13.6-15.9 -0.1-0.2-0.2-0.4-0.3-0.6 -4.9 3.3-9.8 6.6-14.7 9.8 -7 4.7-14.1 9.3-21.2 14 -12.7 8.4-25.5 16.6-38.2 25.1 -3.9 2.6-7.4 5.7-11.1 8.6 0.5 0.8 1 1.6 1.5 2.4 -1.7-0.5-3.3-1-6-1.8 -5.9 6.1-12.4 12.9-19.7 20.5 -0.3-3.8-0.8-7.5-0.8-11.2 0-5.5 1.1-11 0.6-16.4 -0.6-6.1 3.1-8.7 7.2-11.4 5.8-3.8 12.1-6.9 17.5-11.1 16.9-13 33.1-26.8 50.3-39.4 9.5-6.9 20.4-11.9 30.5-17.9 5.3-3.1 10.3-6.6 15.6-10.1 -0.7-1.1-0.9-2.2-1.5-2.4 -16.4-6.9-31.2-16.9-44.6-28.1 -16.8-14.1-34.7-26.4-52.8-38.6 -7-4.7-13.9-9.7-20.7-14.8 -1.1-0.8-2.1-2.4-2.2-3.6 -0.7-12.4-1.2-24.9-1.5-37.4 0-1.4 1.2-2.8 1.8-4.2 -0.3-0.5-0.6-1.1-0.9-1.7 0.3-0.2 0.7-0.5 1-0.7 0.8 1.4 1.7 2.8 2.5 4.2 5.9 3.9 11.4 8.6 17.8 11.6 13.3 6.4 22.9 17.5 34.1 26.5 5.4 4.3 11.8 7.3 17.4 11.3 12.8 9 25.5 18.1 38 27.4 16.8 12.5 33.3 25.3 50 37.9 4.9 3.7 10 7.1 15.9 11.2 -3 2.9-5.6 6.2-8.9 8.7 -7.6 5.8-15.6 11.3-23.3 17 -3.2 2.4-6 5.3-9.2 7.6 -8.2 5.9-16.4 11.9-25 17.3C127.7 217.6 123.4 219.5 119.1 221.5"/><path d="M37.1 266c-0.9 1.3-1.9 2.5-2.8 3.7 -0.5-0.5-1-1-1.5-1.5 1.1-1 2.3-2.1 3.4-3.1C36.4 265.4 36.8 265.7 37.1 266z"/></svg>