<svg class="icon" xmlns="http://www.w3.org/2000/svg" viewBox="0 0 741 783.4"><style type="text/css">  
	.st0{fill:#FFFFFF;}
</style><path d="M255.1 571.7c-5.2 4.6-10.4 9.1-16.9 14.8 0.2 1.5 0.6 4.6 0.9 7.5 -8.7 9.9-17.6 19.9-28.5 32.3 -2.3 8.5-5.1 18.5-7.9 28.6 4.4 0.9 7.6 1.6 10.8 2.3 -3 8.7-5.6 16-8.2 23.2 -3.3 1.5-6.2 2.8-10.1 4.5 -1.2 7.5-2.5 15.9-3.8 24.3 0.9 0.2 1.8 0.4 2.7 0.7 -4.5 9-9.1 18-13.9 27.6 -0.2-0.1 4.2 1.4 13.3 4.4 -6.1 0.6-7.5 0.7-9.4 0.9 0.1 2.5 0.3 4.8 0.4 7.6 -1.9 2.7-4.1 6-7.6 11.1 -9.8-1.3-21-2.8-32.1-4.3 -0.1 1.1-0.2 2.1-0.4 3.2 -2.7-0.5-5.5-0.9-8-1.3 -0.9 1.8-1.8 3.6-2.7 5.3 -0.6-0.3-1.1-0.5-1.7-0.8 1.2-2.5 2.4-5.1 4.8-10.3 -5.1 4.4-8.2 7-10.5 9 -3.8 0.9-7.3 1.7-11.6 2.7 1.5 1.6 2.5 2.6 4.5 4.8 -8.9 1.8-17.1 3.5-24.1 4.9 -0.8 2-1.2 3.2-3.5 9 -0.6-9.1-1-13.6-1.6-22.9 -2.5 6.6-3.9 10.1-5.7 14.9 -3-5.4-3.9-6.9-5.8-10.4 0 0.9 0-0.5 0-2.2 -2.2-0.2-4.2-0.4-6.5-0.5 -0.2-1.1-0.6-2.6-0.8-3.5 -3.7-0.5-6.9-0.9-10.7-1.4 0 0-0.6 1-0.8 1.3 -2.7-2.9-5.3-5.8-7.9-8.7 -0.8 0.5-1.6 1-2.5 1.5 -3.4-11-6.8-22-10.2-33.1 0 0 0.1 0 0.1 0 -5.4-18-10.9-36-17-56.2 0 0.7 0-1 0-2C14.7 640.5 7.3 621.6 0 603.1c1.1-3.3 2-6.1 3.1-9.3 0.9 0 2.2 0 2.7 0 1.1 2 2.1 3.8 3.9 7.2 1.3-4.4 2-6.8 2.8-9.7 1.4 0.9 2.5 1.6 3.5 2.2 0.6-0.5 1.1-0.9 1.7-1.4 -2.1-2.3-4.2-4.7-6.9-7.6 1.6-1.9 3.4-3.9 4.6-5.3 2.8-0.1 5-0.2 3-0.1 10.7 4.9 18.1 8.4 29.7 13.7 -1.5-2 0.1 0.1 1.3 1.7 12.8-7.3 25.1-14.3 37.3-21.4 0.1 0.2 0.2 0.5 0.3 0.7 25.1-15.8 50.2-31.6 74.9-47.1 0.1-2.3 0.2-3.6 0.4-6.3 25.3-23.6 51.3-47.9 77.2-72.2 0.7 0.8 1.5 1.6 2.2 2.3 0.9-2.1 1.7-4.2 2.6-6.3 1.7-0.3 3.1-0.5 3.6-0.6 23.4-22 46.2-43.5 70.8-66.5 -75.2-63.6-135-144.8-226.5-188.6 -9.5-5-18.9-9.9-28.4-14.9 0 0.1 0 0.3 0 0.4 -14.8-6.9-29.5-13.7-48-22.3 -13.9-13.3-4.4-31.2 1.6-53.7 6.7-11.9 15.7-28.1 25.5-45.7 3.7-3.5 8.6-8 13.6-12.7 1.2-5 2.6-10.3 4.3-17.5 6.5-0.7 14.1-1.6 22.1-2.5 5.9-3 12.6-6.4 19.3-9.8 0.5 0.9 0.9 1.8 1.4 2.7 2.1-1 4.2-2 4.9-2.4 5.3 1.7 9.3 3 13.3 4.3 2.7-1.6 5.4-3.2 7.4-4.4 3.8 2.3 7.2 4.3 10.5 6.3 0.4-0.7 0.9-1.4 1.3-2.1 1.3 0.6 2.7 1.1 2.3 1 4.3-0.5 7.1-0.9 9.8-1.2 0.3 1.2 0.6 2.2 0.8 2.8 12.2 0 23.9 0 35.7 0 -0.3 0.9-0.6 1.9-1 2.8 5 2.4 10 4.8 15.3 7.4 0.2-0.4-0.2 0.5-0.8 1.9 2.4 0.3 4.4 0.6 6.2 0.9 1.6 1.9 3.1 3.7 3.7 4.4 -2.9 5-5.7 9.8-8.4 14.6 -0.9-0.3-1.7-0.6-2.6-1 -0.5 1.5-1.1 3.1-1.6 4.6 2.9 4.5 5.8 9 9.5 14.7 -0.3-0.1 1.1 0.4 0.9 0.3 2.2 4.6 3.8 8 5.4 11.5 0.6-0.3 1.2-0.5 1.8-0.8 3.1 6.6 6.2 13.2 10.8 22.7 14 18.1 30.2 39 46.3 59.9 0.5-0.4 1-0.8 1.4-1.2 3.9 6.7 7.7 13.3 11.6 20 0.3-0.2 0.6-0.4 0.9-0.5 6.1 10.8 12.2 21.5 18.2 32.3 0.1 0 0.2 0 0.2-0.1 4.1 6.8 8.2 13.5 11.4 18.7 4.7 3.4 8.1 5.8 11.4 8.2 -0.6 1.1-1.1 2.1-1.6 3 1.8 0.7 3.6 1.4 6.6 2.6 0.1 0.2 0.6 1.6 1.6 4.4 -1.9-1.5-2.6-2.1-3.4-2.8 -0.4 0.4-0.8 0.7-1.2 1.1 2.7 3.4 5.3 6.8 8.4 10.8 -0.1 0.3-0.7 1.3-0.8 1.4 8.2 13.3 16 26.2 25 40.8 -0.1-0.1 1.9 1 3.9 2.1 -2 2.1-4 4.2-6 6.3 7.2 2.8 14.3 5.6 23.9 9.3 25.9-26.6 55-56.6 78.5-80.8 39.2-52.4 73.6-98.2 109.6-146.3 -1.1 0.5 0.7-0.3-0.1 0.1 9.8-30 18.9-58.2 28-86.1 4.6 0.5 7.2 0.7 10.1 1 0.6-0.8 1.3-1.8 2.7-3.8 2.1 1.5 4 2.9 5.9 4.3 0.2-1.7 0.4-3.4 0.6-5.2 27 4.4 54 8.9 84.7 13.9 -0.5 0.3 3.8-2.2 7.2-4.1 4.3 3 7.5 5.2 10.8 7.5 -0.3 1.6-0.6 3.4-1.3 7.9 2.1-3.4 2.7-4.5 2.6-4.4 5 18.5 26.1 35.8 9 57.7 1.5 2.5 2.4 4.1 3.3 5.5 -2.6 6.1-5 11.8-7.3 17.2 2.8 2.2 4.1 3.4 4.7 3.8 0 10.7 0 20.5 0 29.3 -3.1 1.2-5 1.9-7.5 2.9 -3.1-1.7-6.8-3.7-11.6-6.4 1 1.8 1.4 2.5 1.7 3.1 -6.9 4.4-13.6 8.8-20.4 13.2 0.2 0.2 0.3 0.5 0.5 0.7 -3 1.7-6 3.5-9.8 5.7 1.4 0.8 2.5 1.4 4.6 2.6 -22.4 10.2-44.1 20.1-66.3 30.3 -0.4-1.6-0.6-2.6-1.2-5 -14.9 9.3-29.4 18.4-43.9 27.5 0.9 0.9 1.8 1.7 2.7 2.6 -9.6 8.6-19.1 17.1-28.8 25.8 0.7 0.8 1.4 1.6 2.2 2.5 -4.7 3.9-9.3 7.7-12.5 10.2 -1.2 3.5-1.9 5.8-2.8 8.3 -2.7-0.8-4-1.3-3.2-1 -6.7 6.1-12.4 11.2-20 18.1 4.1-1.3 5.8-1.8 9.6-3 -8.1 8.8-14.9 16.2-18.3 19.9 -11.1 15.7-19.4 27.4-27.7 39.2 -2.1-1.9-4.3-3.8-6.4-5.6 0.7 0.8 1.4 1.7 2.6 3.1 -2.8 2.1-5.3 4.1-8 6.2 -0.6 1.9-1.4 4.1-1.3 3.8 -9.6 8-17.4 14.4-25.5 21.2 1.5 0.5 3.1 1 5 1.5 -4.1 4.4-8 8.6-14.9 15.9 0.7-1.3-0.8 1.5-3.5 6.7 36.1 40.5 72.8 81.8 113.2 127.2 -9.8-6.2-15.4-9.7-23.7-15 -7.8-8.9-17.8-20.3-27.8-31.6 -1.5 1.4-2.9 2.9-4.4 4.3 6.1 7.9 12.3 15.8 18.8 24.3 -0.5 0.9-1.2 2.3 0.3-0.5 31.9 38.8 62.8 76.4 94.9 115.4 -1.2 0 0.2 0 1.9 0 0.5 2.2 1 4.3 1.5 6.3 0.6-0.2 1.1-0.5 1.7-0.7 3 7.1 6 14.2 10.6 25 4.4 4.1 12 11.3 22.2 20.9 -0.4-1.8 0.1 0.6 0.6 2.4 2.4 2.6 4.5 4.8 7.2 7.8 0.7 0.2 2.2 0.6 3 0.8 4.9 6 9.4 11.4 14 16.8 -0.4 2-0.7 3.7-1.4 7.2 -2.9-5-5-8.8-7.2-12.6 -0.9 0.6-1.8 1.2-2.7 1.9 11.9 15.7 23.9 31.3 37.5 49.1 -5.3-2.5-8.2-3.8-11.6-5.4 0-0.8 0-2 0-3.4 -1.8 0-3.4 0-1.9 0 -98.5-97.6-195.4-193.6-292.1-289.4 -30.2 31.9-57.2 60.5-87.8 93 0.9-1.6-1 1.8-3.1 5.4 0.1 1.2 0.2 2.6 0.3 4.4 -1.5 0-2.7 0 0 0 -11 10.2-19.7 18.3-28.4 26.5 0 0.4 0 0.8-0.1 1.2 -0.8 0.4-1.7 0.8-2.5 1.2 -0.8-1.4-1.6-2.8-2.8-4.9 -1.4 2.1-2.3 3.4-3.2 4.6l0-0.1C256.5 568.1 255.8 569.9 255.1 571.7z"/><path class="st0" d="M265.7 565.3c0-0.4 0.1-0.8 0.1-1.2C265.8 564.6 265.8 565 265.7 565.3z"/></svg>