<svg class="icon" xmlns="http://www.w3.org/2000/svg" viewBox="0 0 499.5 384.6"><path d="M499.5 35.2c0 0.7 0 1.4 0 2.1 -1 4.8-2 9.5-3 14 0.3 1.2 0.4 2.2 0.8 4 -0.7-1-0.9-1.3-1.1-1.5 -0.1 0.1-0.3 0.2-0.4 0.3 0.5 0.6 0.9 1.2 1.4 1.8 -0.3 1.1-0.5 2.3-0.8 3.4 0.3 0 0.5 0 0.8 0.1 -0.2 3-0.5 5.9-0.8 8.9 -0.2 0-0.5 0-0.7 0 0 0.7 0 1.4 0 2.1 -0.3 0-0.5 0-0.8 0.1 0-3.7 0-7.5 0-11.2 -0.3 0-0.6 0-0.9 0 -0.2 4.4-0.4 8.8-0.8 15.4 1.1-2.6 1.3-3 1.5-3.4 0.7 0.3 1.4 0.5 2.3 0.9 -1.3 4.4-2.5 8.8-4.1 14.4 1-1.7 1.3-2.2 0.8-1.4 -1 11.3-2.1 23.9-3.3 36.7 0.9-0.2 1.2-0.3 1.6-0.5 0.1 0.6 0.1 1.2 0.3 3 1-3.4 1.7-5.7 2.3-8 0.3 0.1 0.7 0.2 1 0.3 -0.8 3.7-1.6 7.5-2.4 11.2 0.1 0 0.3 0 0.4 0.1 -2.3 14.9-4.7 29.9-7 44.8 -0.2 0-0.4 0-0.6 0 -0.4 1.3-0.7 2.5-1.3 4.6 0.4 1.4 1.1 3.8 1.9 6.3 -0.1 0.1-0.1 0.2-0.2 0.4 0 0 0 0 0 0 0.1 0.2 0.3 0.3 0.4 0.5 -0.2 0.8-0.4 1.6-0.7 2.4l-0.1 0.1c0 0 0.1 0.1 0.1 0.1 0.9 0.4 1.7 0.7 2.6 1.1 0.2 1.2 0.4 2.3 0.5 3.5 -0.5 0.2-0.9 0.4-1 0.4 -0.2 1.6-0.4 3-0.6 4.6 -0.6-0.1-1.1-0.2-1.8-0.3 0 3.4 0 6.7 0 10.4 0.3-1.2 0.5-1.9 1.3-4.8 0.2 3.8 0.3 5.3 0.4 6.8 -0.6 0.4-1.2 0.7-1.8 1 0 0.7 0 1.3 0 1.8 0.3-0.5 0.6-1.2 1.5-2.8 0.4 3.5 0.7 5.9 1.1 8.8 0 2.4 0 5.4 0 8.4 -0.2 0-0.3 0-0.5 0 0.5 8.1 0.9 16.1 1.4 25.4 0.6-2.8 0.9-4.5 1.3-6.5 0.9 0.8 1.5 1.4 1.7 1.5 -0.4 3.3-0.7 5.9-1 8.9 -0.8-0.7-1.2-1.1-2.1-1.9 0.2 3.4 0.5 6.3 0.7 9.2 0.1 0 0.3-0.1 0.4-0.1 0.2 2.2 0.3 4.4 0.5 7.6 0.5-1.2 0.6-1.5 0.7-1.9 0.6 0.3 1.1 0.6 1.8 1 0.1-1.4 0.2-2.5 0.2-3.7 0.3 0 0.5 0 0.8 0 0.2 1.9 0.3 3.8 0.4 5.4 -0.9 0.7-1.5 1.2-2.2 1.8 0.9 0.2 1.5 0.3 2.7 0.6 -0.5 2.1-0.9 4.1-1.3 6 0 0.1 0 0.2 0 0.4 0 0.2-0.1 0.3-0.1 0.5 -0.1 0-0.2 0-0.3 0 -0.4 0-0.7 0-1.1 0 0.3 0.4 0.7 0.8 1 1.2 0.1 0.1 0.3 0.3 0.4 0.4 0.3 0 0.6 0 1 0 0.1-0.5 0.2-0.8 0.2-1.2 0 2.1 0 4.2 0 5 -1 2.4-1.5 3.4-2 4.5 -0.4-1.7-0.8-3.5-1.1-5 -0.4 0.7-1 1.6-0.9 1.4 -0.5 2.7-0.8 4.4-1.2 6.5 0.1 0.2 0.5 0.9 0.8 1.6 -0.5 0-0.9 0-1.5-0.1 0 2.2 0 4.3 0 6.3 0.3 0 0.6 0 0.8 0 -0.1-1.2-0.1-2.5-0.2-4 1.7 1 3.2 1.8 4.6 2.7 0 0.9 0 1.8 0 2.7 0.1 0 0.3 0 0.4 0 0.1-2.2 0.2-4.3 0.4-6.5 0.5 0 0.9 0 1.4 0 0 12.3 0 24.6 0 36.8 -0.1 0-0.2-0.1-0.4-0.1 0 6.5 0 13.1 0 19.6 0.1 0 0.2 0 0.3 0 0 4.6 0 9.2 0 13.8 -0.2-0.1-0.5-0.1-0.7-0.2 -0.6 3.7-1.2 7.4-2 11.8 -0.7 0.9-2 2.4-2.9 3.5 -2.5-0.8-4.2-1.4-4.2-1.4 -7.2 0-12.8 0-20 0 0.4-0.1-1 0.3-2.4 0.7 -3.6 0.4-7.3 0.9-10.9 1.3 0 0.3 0 0.6 0 0.8 -3.1 0-6.1 0-7 0 -11.9-1.6-21.5-2.8-31.6-4.2 1-0.6 1.8-1.1 2.3-1.5 -15.7-1.1-31.5-2.2-47.4-3.2 0-0.6 0-1.2 0-1.8 -1 0.4-2 0.8-3.1 1.3 -0.4-0.4-0.9-0.8-1.2-1.1 -0.9 0-1.6 0-2.3 0 -0.9 0.7-1.7 1.3-2.6 2 -1.1-0.9-2.1-1.7-2.6-2.1 -2 0.7-3.4 1.2-4.8 1.7 -0.1-0.3-0.2-0.7-0.3-1.1 -1.9 0.8-3.9 1.7-7.8 3.4 -1.1-0.1-4.6-0.5-8.2-0.9 0 0.2-0.1 0.4-0.1 0.5 -2.2 0-4.3 0-6.6 0 0 0.4 0 0.9 0 1.5 -8.7-1-17.1-1.9-23.9-2.7 -3.6-0.8-5.5-1.2-7.4-1.6 0 0.3 0 0.6 0 0.9 -4.5-0.3-9-0.6-13.7-0.9 0.8-1 1.3-1.8 1.8-2.4 -0.7-0.9-1.3-1.7-1.8-2.4 -3.1-0.2-6.3-0.4-9.4-0.6 0 0.3 0.1 0.7 0.1 1 -6.2 0-12.5 0-19 0 0.1 0.5 0-0.3-0.1-0.9 -2.8 0.1-5.5 0.2-8.4 0.4 -0.1 0.6-0.2 1.1-0.2 1.1 -3.9 0.6-7.6 1.2-11.3 1.8 -3.3-1.1-6.3-0.9-9.3-0.4 -1.4 0.2-2.6 0.9-5.8 2 -0.4 0-2.7 0-5.1 0 -0.1-0.4-0.2-0.9-0.4-1.3 1.5-0.5 3-1 4.5-1.5 -4 0.1-7.9 0.6-11.7 1.5 -3.8 0.8-7.5 2-11.3 3 -12.4 0.8-24.7 1.6-37.1 2.4 -0.2-0.7-0.4-1.4-0.7-2.7 -2.8 0.6-5.5 1.2-8.2 1.7 0.1 0.4 0.2 0.8 0.3 1.3 -1.2 0.2-2.5 0.5-3.6 0.7 -0.6-0.7-1-1.1-1.2-1.4 -0.6 0.9-1.2 1.8-1.2 1.8 -3.5 0-6.1 0-9.4 0 0.3-0.3-0.1 0.1 0 0 -2.7 0.5-4.9 1-7.7 1.5 -0.7-0.4-2.1-1.1-3.6-2 -2.5 0.8-5.1 1.7-7.6 2.5 -0.5-0.7-0.9-1.3-1.6-2.3 -0.2 1-0.3 1.6-0.5 2.3 -3.5 0-6.9 0-10.3 0 0-0.1 0-0.2 0-0.3 -2.5 0.2-5.1 0.3-7.8 0.5 -0.1-0.1-0.4-0.6-0.9-1.3 -0.5 0.9-0.8 1.4-1.1 1.9 -3.4 0.3-6.8 0.7-10.1 1 -0.1-0.4-0.1-0.8-0.2-1.2 2.3-0.6 4.6-1.3 7.4-2 -3.1-0.4-5.7-0.7-8.5-1.1 -0.4 0.2-1.2 0.5-2 0.9 -0.2 0.4-0.4 1-0.3 0.9 -5.5 0.4-10.7 0.9-13.3 1.1 -3 2.2-3.9 2.9-5 3.6 -0.6-0.7-1.1-1.3-1.7-2 -0.9 0.5-1.8 1.1-3.2 1.9 -2.9 0-6.5 0-9.9 0 -1 0.6-2 1.2-3 1.8 -0.6-0.8-0.9-1.3-1.4-2.1 -1.6 0.1-3.3 0.3-5.3 0.5 0.5 0.5 0.8 0.7 1.5 1.3 -1.8 0.1-3.1 0.2-4.5 0.2 -0.2-0.2-0.6-0.7-1.1-1.2 -1.4 0-2.9 0-3.8 0 -3.1-1.7-5.8-3.2-8.6-4.8 -0.8 1.3-1.3 1.9-2.6 3.9 -2.4-1.7-6.4-3.1-6.5-4.8 -0.9-9.6-1.3-19.3-1.1-28.9 0.7-26.4 2-52.8 2.9-79.2 0.3-8.2 0-16.4 0-24.7 -0.1 0-0.3 0-0.4 0 0-16.6 0-33.2 0-49.8 -0.4 0-0.8 0-1.2 0 0.3-2.1 0.5-4.3 0.4-3.5 0-7.6 0-12.2 0-17.3 -0.2-2.9-0.5-6.2-0.7-9.5 -1.3-13.1-2.6-26.3-3.9-39.7 0.3-0.4 0.9-1.3 1.4-2.1 0-15 0-29.8 0-44.9 -1.4 0.7-1.9 0.9-2.5 1.2 -0.7-2-1.2-3.8-2-6.2 -0.4-3.9-0.9-8.4-1.3-11.6 -1.3-1.6-1.8-2.2-2.3-3 0.6-0.4 1-0.6 0.7-0.4 -0.6-4.4-1.2-8.5-1.4-9.3 0-7.3 0-11.2 0-16.1 -0.2 1.1-0.4 1.6-0.6 2.9C-2 19 3.8 7.2 16.3 2.9c1-0.3 2.1-0.6 3.1-0.8 0 0 0-0.1-0.1-0.1 2.7-0.6 5.4-1.3 8.1-1.9 0.1 0 0.3 0 0.4 0 2 0.5 4 1.4 6 1.5 14.4 0.6 28.9 0.7 43.2 1.7 27.4 2 54.7 5.6 82.1 6.6 36.9 1.4 73.8 1.2 110.7 1.4 16.2 0.1 32.4-0.8 48.5-0.8 15.1 0 30.3 1 45.4 0.9 18.8-0.1 37.5-0.9 56.3-1.3 6.6-0.1 13.2 0 19.7 0 0 0.4 0 0.8 0 1.2 5.7-0.3 11.4-0.7 15.8-0.9 3-0.9 4.8-1.4 6.5-1.9 0.3-1.2 0.5-2.2 0.7-3.4 1.6 0.3 2.9 0.5 7.1 1.3 -0.5-0.3 1.4 0.9 6.3 3.8 -1.1-1.5-0.3-0.5 1.4 2 0 0 2.1 0.4 4.1 0.9 1 1.9 1.8 3.6 3 5.9 0.8 0.1 2.3 0.4 3.8 0.6 0 0.6 0 1.3 0 1.4 1.4 3.1 2.5 5.6 3.6 8.1 0.4-0.2 0.8-0.3 1.2-0.5 0.4 0.6 0.7 1.2 0.8 1.3 -0.7 5.3-1.4 10.3-2.2 16.1 1.1-1.6 1.6-2.3 2.5-3.6 0.3 1.2 0.4 1.7 0.4 2.2 0.2 0 0.3 0 0.5-0.1 -0.1-1-0.2-2.1-0.2-2 0.6-2.9 1.1-4.8 1.5-6.8 -0.4-0.1-0.8-0.2-1.3-0.3 0.3-0.5 0.5-1 0.9-1.7 -0.5-0.3-1-0.5-1.6-0.8 0.7-0.9 1.1-1.3 1.7-2.1 0.5 1.9 0.9 3.3 1.3 4.8C498.3 35.4 498.9 35.3 499.5 35.2zM227.7 204.6c0 0 0.1 0.1 0.1 0.1 -0.2 0-0.5 0-0.7 0 -0.1 0.5-0.1 0.9-0.2 1.4 0 0.2 0 0.5 0 0.7l0 0.2c0 0.1-0.1 0.1-0.2 0.2 -0.2 0-0.5 0.1-0.8 0.1 0.1 0.3 0.1 0.5 0.2 0.6 -0.9 2-1.7 3.9-3.1 7 -0.1 1.1-0.4 3.6-0.7 6.1 -0.9 1.1-1.8 2.2-2.7 3.4 -0.2 0-0.5 0-0.7 0 -0.2 0.1-0.4 0.2-0.6 0.3 -0.1 0.1-0.1 0.1-0.2 0.2 -0.1 0.7-0.2 1.5-0.3 2.2 0.2 0.4 0.3 0.8 0.5 1.2 0 0.1 0.1 0.1 0.2 0.2 0.2 0 0.4 0 0.6 0 1 1.2 2 2.4 3 3.5 -0.5 2.4-1.1 4.9-1.7 7.5 -1.9-0.4-3-0.6-4.7-1 1.2 0.8 1.8 1.2 2.9 1.9 -1.3 0.3-2 0.4-2.9 0.6 0.7 0.4 1.2 0.7 1.7 1.1 -0.5 0.9-1 1.6-1.5 2.5 0.6 0.1 1 0.1 1.4 0.2 -1.1 2.4-2.1 4.7-3 6.9 -0.4 0-0.7 0.1-1.1 0.1 0-2.1 0-4.2 0-5.9 -0.3 0.2-1.1 0.6-2.1 1.2 0.6 0.2 0.9 0.3 0.3 0.1 -1.4 4.5-2.8 8.8-4.2 13.1 0.5 0.1 1 0.1 1.6 0.2 -2.2 4.8-4.4 9.6-5.9 13 1.2 3.1 1.8 4.6 2.4 6.2 -3.3 2.2-6.3 4.2-8.5 5.6 -4-0.8-7.2-1.5-11.7-2.4 -0.2-0.3-1.7-1.8-3.2-3.4 -0.5 0.4-0.9 0.7-1.4 1.1 -1.6-2.3-3.2-4.7-6.1-8.8 -0.4-1.3-1.4-4.4-2.4-7.4 -1-0.2-1.7-0.3-3.2-0.5 -2.8-13.5-5.6-27.3-8.9-43.5 -0.6 2.1-0.5 1.6-1.3 4.7 -2.6-33.7-13.2-60.7-34.5-83.2 -1.3 1.4-2.8 3.1-4.7 5.1 0.1-1.3 0.2-2 0.3-3.7 -1 1.6-1.5 2.4-2 3.1 -0.2-0.1-0.3-0.3-0.5-0.4 -1.5 1.7-3 3.5-4.5 5.1 0.5 0.9 0.8 1.4 1.2 2.1 -1.4 1.1-2.8 2.2-4.2 3.4 -0.2 1.4-0.4 2.9-0.7 5.3 -1.1 0.9-2.8 2.3-4.5 3.8 -0.5 0.6-1.1 1.3-1.6 1.9 -0.4 1-0.9 2.1-1.3 3.1 -0.7 0.5-1.4 1-1.4 1 -9.3 13.9-18.1 27.1-26.3 39.4 0.7-0.5 2.4-1.6 4-2.7 0.8 0.6 1.4 1 2.2 1.5 -1.4 2.1-2.8 4.1-4.3 6.4 -0.3 0-1.3-0.2-2.3-0.3 -0.1 0.3-0.1 0.5-0.2 0.8 0.9 0.3 1.9 0.5 2.9 0.9 -5.8 7.3-11.5 14.4-18.4 23.1 -0.8 0.7-3.1 2.8-5.6 5.1 -0.3 0.9-0.8 2.1-1.2 3.3 0.2 0.6 0.5 1.2 0.1 0.3 0 5.8 0 10.2 0 14.2 -1.2 0.6-1.9 0.9-1.7 0.8 -0.5 3.5-0.8 6.2-1.3 9.6 0.3 0.4 1.1 1.3 2.1 2.7 0 0.2 0 1 0 1.5 -0.8 0.3-1.4 0.6-2.5 1 1.5 0.9 2.3 1.4 2.5 1.5 -0.7 6.3-1.3 12.2-1.9 18.1 -0.6 0-1.1-0.1-1.7-0.1 -0.3 6.5-0.6 13-1 19.4 0.3 2.7 0.5 5.4 0.8 8.1 -0.3 0.2-0.5 0.3-0.8 0.5 0 0.2 0 0.5 0 0.7 0 0.3 0 0.6 0 0.9 0 0.2 0 0.5 0 0.7 -0.1 0.2-0.2 0.4-0.4 0.5 -0.1 1.1-0.2 2.2-0.3 3.4 0.2 1.4 0.4 2.9 0.6 4.3 -0.3 1.4-0.5 2.8-0.7 4.1 0.6 0.9 1.1 1.6 1.1 1.6 -0.4 3-0.7 5.1-1.1 8 1.1-1.2 1.6-1.8 2.3-2.5 0.2 0.8 0.3 1.4 0.4 2 12.1-0.6 24-1.3 37.2-2 -0.6 0.5-0.2 0.1-0.6 0.4 6 0 11.1 0 16.3 0 0 0.2-0.1 0.7-0.1 1.3 0.6-0.2 1-0.3 1.4-0.4 0.2-0.1 0.4-0.3 0.6-0.4 4.2 0 8.4 0 11 0 2.6-1.1 3.8-1.6 5-2.1 0.1 0.4 0.2 0.8 0.2 1.2 2.2-0.2 4.4-0.4 9.2-0.9 15.4 0 33.5 0 52.3 0 -0.1 0.1 0.5-0.3 1-0.6 0.9 0.3 1.6 0.6 1.7 0.6 10.8 0 20.9 0 31.1 0 0.2 0.4 0.5 0.9 0.6 1.2 8.3 0 16.3 0 24.7 0 -0.2-0.3 0.1 0.2 0.4 0.8 0.9-0.5 1.6-0.9 3.9-2.3 48.5-1.4 98.6-2.9 148.8-4.4 0 0.2 0 0.4 0 0.6 22.6 0 45.2 0 69 0 1.4-41 2.8-81.4 4.2-121.3 1.8-1 2.7-1.4 3.7-2 -0.7-0.5-1.1-0.8-1.4-1 0.2-4.2 0.4-8.2 0.6-13.2 0.8 1.5 1 2 1.3 2.4 0.2-0.1 0.3-0.2 0.5-0.3 -1-1.9-2-3.9-3-5.8 0.6-0.5 0.9-0.8 1.7-1.4 -1.5-17.9-3.1-36.1-4.7-54.2 0.2 0 0.3 0 0.5 0 0-4.6 0-9.2 0-17.1 -0.3 2.1-0.1 0.9 0.1-0.4 -0.7-1.3-1.3-2.6-1.5-2.9 0.6-2.6 0.9-4.5 1.4-6.6 -1.1 0-1.7 0-3.6 0 -1.4-21.8-2.7-43.5-4.1-65.9 -0.4 0.2 0.2-0.2 0.9-0.6 0.1-0.9 0.1-1.8 0.2-3 -1.6 0.8-3 1.4-5.5 2.6 -2.2-0.2-5.8-0.6-10.1-1 0.1-0.1-0.3 0.3-0.6 0.5 -4.7-1-9.2-2-13.7-2.9 -0.5 0.5-1 0.9-1.4 1.3 -2 0-3.8 0-5.8 0 -0.3-0.3-0.8-0.7-1.4-1.2 0.1 0.5 0.2 0.9 0.1 0.4 -5.9 0-11.8 0-18.3 0 0.3-0.4-0.1 0.1-0.4 0.7 -1.7-0.2-3.2-0.5-5.4-0.8 0 0-0.5 0.3-0.6 0.3 -3.1-0.9-6-1.6-8.8-2.4 -6.4 2.3-13.3 2.7-20.2 3.2 -1.3 0.1-2.5 0-4.3 0 0.2-0.3-0.1 0.2-0.5 0.8 -0.8-0.4-1.6-0.8-0.1-0.1 -5.8-0.6-9.3-0.9-13.4-1.3 0.2 0.4 0 0-0.2-0.5 -0.8 0.4-1.5 0.8-2.3 1.2 -0.9-0.5-1.9-1.1-2.8-1.6 -0.1 0.5-0.2 0.9-0.3 1.3 -3.3-0.2-6.3-0.3-9.4-0.4 0 0.2 0 0.5-0.1 0.7 -5.1-0.4-10.2-0.8-15.3-1.3 0-0.3 0.1-0.5 0.1-0.8 -2.7 0.2-5.4 0.5-5 0.4 -10.4 0-17.7 0-25.7 0 0.1 0.1-0.5-0.3-1-0.6 -0.6 0.4-1.1 0.7-0.1 0.1 -25.8 0-50.1 0-74.4 0 0-0.7-0.1-1.4-0.1-2 -2.7 0.4-5.4 0.7-9 1.2 -1-0.1-2.8-0.3-4.2-0.5 -2 0-3.4 0-5.2 0 0-1.1 0-2.1 0-4 -0.8 1.3-1.1 1.9-0.8 1.4 -5 1.1-9.1 2.1-13.2 3 -0.5-0.7-1.1-1.6-2.6-3.9 0.3 2.4 0.4 3 0.5 4.3 -1.1-0.8-1.8-1.3-3.5-2.6 -1.4 0-4.1 0-7.2 0 0.5 0.8 0.8 1.4 1.2 2 -1.1 0.3-2 0.6-3.2 0.9 0.1-1 0.3-2 0.4-3.1 -2.4 0.1-4.6 0.2-6.8 0.3 0.1 0.6 0.1 1.2 0.2 1.7 -5.5 0.5-11.1 1-16.6 1.4 0 0.3 0 0.6-0.1 0.8 -17.7 0-35.3 0-53.5 0 0.3 0.7 0.1 0.2-0.3-0.6 -0.2 0.8-0.2 1.2-0.3 1.6 -1 0.1-1.9 0.1-2.9 0.1 -0.2-0.5-0.5-1-0.7-1.6 -0.9 0.1-1.6 0.2-2.3 0.3 -0.3 0.8-0.6 1.4-0.6 1.4 -1.7 0.4-3 0.7-4.4 1 -0.3-0.2-0.7-0.6-0.4-0.4 -2.9 0-5.1 0-6.7 0 -2.4 0.6-4.3 1-6.1 1.4 0-1.2 0-1.9 0-2.3 -1.6-0.5-2.9-0.9-4.7-1.5 -1.1 0.2-2.8 0.5-4.6 0.8 -0.3-0.6-0.6-1.1-1.1-1.9 -0.5 1-0.8 1.4-0.3 0.6 -5.5 0.6-10 1.1-14.9 1.6 0.8 1.2 1.1 1.6 0.9 1.3 0 6 0 11 0 16.5 1.1-0.9 1.9-1.6 3.8-3.1 -1.1 2.4-1.6 3.5-2.5 5.4 1.5-2 2.5-3.2 4-5.2 -0.3 4.9-0.6 8.9-0.8 11.4 0.7 1.5 0.6 1.2 0.4 0.9 -0.2 0.1-0.4 0.3-0.6 0.4 0.3 1.1 0.7 2.1 1.1 3.3 -0.6-0.1-1.2-0.2-1.8-0.3 -0.4-1.7-0.8-3.3-1.4-5.9 1.6 12.7 3 24.4 4.9 39.3 0-0.3-0.1 2.8-0.3 6.5 0.1 0-0.6 0.5-1.4 1.1 0.2 0.7 0.4 1.3 0.6 2 0.7-0.2 1.4-0.3 1.8-0.4 0.5-5.8 0.9-11.3 1.4-16.9 -0.5-0.4-1.1-0.8-1.8-1.4 1.1-0.8 2-1.4 2.2-1.5 -0.1-2-0.2-3.6-0.3-5.2 0.3 0 0.7 0 1-0.1 0.1 0.9 0.2 1.9 0.1 1.1 0 14.1 0 26.5 0 39.2 -0.1 0 0.4 0.1 0.8 0.3 -0.8 2-1.5 3.9-2.5 6.6 0.2-0.1-0.5 0.4-0.7 0.6 0.3 2.2 0.5 3.8 0.8 5.3 0.5 0 1.1 0.1 1.7 0.1 0.1 1.9 0.2 3.5 0.3 5.6 -0.9-0.5-1.3-0.7-2-1.1 0.7 1.7 1.2 3.1 2.2 5.5 -1.1-1.2-1.4-1.4-2.9-3.1 1.3 2.4 1.6 3.1 2.1 4 -0.5 0.1-1 0.2-1.2 0.2 -0.5 2.3-0.9 4.4-1.5 7.1 0 0.1 0.3 0.8 0.6 1.5 -0.4 0.6-0.7 1.1-1 1.8 0.8 1.2 1.7 2.4 2.7 4 -0.7 0.5-1.2 0.9-1.1 0.8 -0.3 5.3-0.6 10.2-0.7 12.2 13.2-28.2 27.5-58.6 41.8-89.1 3.1 0.7 3.6 0.1 4.2-0.5 8.7-9.2 17.2-18.4 26.2-27.3 1-1 4.4 0.4 6.6 0.9 0.4 0.1 0.6 1.4 1.2 2.9 1.4 0.7 3.6 1.9 5.8 3.1 -0.6 0.6-1.2 1.3-1.8 1.9 0.6 0 1.2 0.1 2 0.1 -0.3 0.5-0.6 0.8-0.7 1.1 1.8 0.7 3.4 1.2 5.1 1.9 0.4 1.1 0.9 2.3 1.3 3.5 0.8 0.2 1.5 0.3 3.1 0.7 -1.3 0.8-1.9 1.2-2.9 1.8 2.3 4 4.7 8 7.1 12.1 0.2-0.1 0.3-0.2 0.5-0.3 4.4 7.5 8.9 14.9 13.4 22.5 0.6-0.7 0.8-0.9 1.9-2.1 0 4.7 0 8.3 0 12 -0.3 0.3-0.9 0.6-1.6 1.2 0.7 1.6 1.4 3.1 2.1 4.6 0.1-0.1 0.2-0.1 0.4-0.2 2.6 4.6 5.2 9.3 7.5 13.6 1.3 3 2.5 5.7 3.6 8.3 -0.2 0.1-0.4 0.2-0.7 0.2 0.2 0.6 0.3 1.1 0.5 1.7l0 0c1.2 3.8 2.4 7.5 3.6 11.1 1 1.7 1.9 3.1 2.6 4.2 4.6 12.3 9 24.1 13.5 36.1 12-23.8 23.9-47.2 36.7-72.3 5.9 1.1 10.7 2 14.4 2.7 2.4 3.4 3.9 5.5 5.4 7.6 0 0-0.1 0.1-0.1 0.1 8.9 13.2 17.8 26.4 26.7 39.6 0.3-0.2 0.5-0.3 0.7-0.5 3.1 4.1 6.3 8.3 11.1 14.7 -0.3-0.2 1.9 1.2 4 2.6 -0.2 0.2-0.4 0.4-0.6 0.6 1.9 1.3 3.8 2.7 5.7 4 -0.3 0.4-0.7 0.8-1 1.2 1.5 2 2.9 4 4.4 6 -0.3 0.2-0.6 0.5-0.9 0.7 9.3 11.5 18.6 23.1 28 34.7 -0.1 0.4-0.1 1-0.2 1.5 0.7 0.4 1.3 0.8 0.1 0 3 3.8 4.7 6.1 6.6 8.6 0.1 1.2 0.3 2.6 0.5 4.2 0.8 0.3 1.7 0.7 2.7 1.1 -0.1 1.2-0.2 2.3-0.3 3 0.5 1.4 0.8 2.4 1 2.9 1.8 1.5 3.3 2.7 5.1 4.2 0.2 0 1 0.2 1.7 0.3 0.4 1.4 0.8 2.7 1.2 3.9 1.1-0.1 1.9-0.1 3.8-0.2 -1.6 1.1-2.3 1.6-3.8 2.6 1.5-0.3 2.2-0.5 2.5-0.5 0.2 1.5 0.3 2.8 0.6 5.2 0.1 0.2 0.4 1.3 0.7 2.3 1.1-0.3 1.7-0.4 2.4-0.6 0.6 0.5 1.1 0.9 1.6 1.3 -0.3 0.3-0.7 0.6-1 0.9 5.7 6.1 11.4 12.2 17 18.3 -0.7 1.2-1.3 2.5-2 3.7 -9.2-5-18.5-10-27.7-15 -0.2 0.4-0.4 0.8-0.6 1.2 -1.5-1.3-3.1-2.5-4.4-3.6 -1 0.3-1.6 0.5-2.6 0.9 0.2-1.1 0.3-1.9 0.3-2 -22-23.3-43.7-46.3-66.7-70.7 -1.5-4-3.6-9.3-5-12.9 -7.2-8.8-13.2-16-19.3-23.5 -0.4 0.8-0.7 1.2-0.9 1.7 -0.5-0.6-1-1.3-2-2.5 -1.8 2.3-3.3 4.3-4.8 6.2l-0.1 0 0.1 0.1c-0.8 1.9-1.5 3.7-2.3 5.6 -0.2 0-0.4-0.1-0.6-0.1 -0.3-0.2-0.6-0.4-0.9-0.6C227.7 204.3 227.7 204.5 227.7 204.6zM181 212.1c-0.3 0.2-0.5 0.3-0.8 0.4 0.7 2.5 1.2 5 2 7.4 0.8 2.3 1.8 4.5 2.7 6.7 1.1-0.4 2.1-0.8 3.2-1.2 -2.9-21.8-16.6-39.8-23.8-60.1 2.4 6 4.7 11.9 7.1 17.9 -0.6 0.2-1.1 0.4-1.7 0.6 0.5 1 0.9 1.9 1.3 2.7 0.6 0 1.2-0.1 1.7-0.1 0.4 1.1 0.7 2.1 1 3.2 -0.6 0.4-1 0.8-1.5 1.1 0.9 0.5 1.7 1 2.7 1.6 -0.9 0.6-1.4 0.9-2 1.3 0.2 0.8 0.4 1.5 0.7 2.5 0.1-0.9 0.1-1.3 0.5-4.8C177 200 179 206 181 212.1zM166.6 372.5c4.1-0.4 7.7-0.7 11.3-1.1 0.5 0.6 0.9 1.1 1.3 1.5 0.5-0.7 1-1.3 1.4-1.8 1.1 0.5 1.8 0.8 2.5 1.1 0.1-0.2 0.2-0.5 0.3-0.7 1.7 0.5 3.4 1 5.5 1.7 -0.8-0.7-1.2-1.1-1.9-1.8 1.4-0.2 2.4-0.3 3.5-0.5 0-0.2 0-0.4-0.1-0.6 -3.9 0-7.8 0-12 0 -0.2-0.4-0.7-1.2-1.3-2.3C173.6 369.5 170.4 370.9 166.6 372.5z"/><path d="M238.4 195.4c-1.6 4-3.3 8-5.8 14.2 -0.2-2-0.1-1.4-0.1-0.7 -0.5 0.3-1 0.5-1.8 0.8 0.6 0.3 0.9 0.5 1.1 0.6 -0.5 1.5-0.9 2.8-1.8 5.6 -0.6 0.4-2.3 1.6-4.1 2.8 0.3-1.4 0.7-2.8 1-4.3 -0.4 0.1-0.7 0.3-1.2 0.4 0.6-2.4 1.1-4.6 1.7-6.8 0.1-0.2 0.3-0.3 0.4-0.5 0.4-0.1 0.9-0.3 1.3-0.4l0 0c0-0.7 0.1-1.5 0.1-2.2 0.8-1.9 1.5-3.7 2.3-5.6 0 0 0-0.1 0-0.1 1.5-1.9 3-3.9 4.8-6.2C237.4 194.1 237.9 194.7 238.4 195.4z"/><path d="M45.1 317.4c0.5-2.3 1-4.5 1.6-6.8 0.4 0 0.8 0 1.2 0 0 5.1 0 10.2 0 15.3 0 0 0-0.1 0-0.1 0-0.2 0-0.4 0-0.6 -0.6 0.1-1.3 0.2-1.9 0.3C45.7 322.9 45.4 320.1 45.1 317.4z"/><path d="M226 221.8c0.5-0.2 1.1-0.5 2.3-1.1 -2.3 4.1-4.3 7.6-6.3 11 -1-1.2-2-2.4-3-3.5 0.3-0.7 0.7-1.3 1-2 0.7 0.1 1.3 0.3 2 0.4 0.2-0.5 0.5-0.9 0.7-1.4 0-0.2 0-0.5 0-0.7C223.8 223.7 224.9 222.8 226 221.8z"/><path d="M46.7 329.9c1.3 2 2.5 4 4.1 6.7 -3.1 0-4.5 0-5.8 0 -0.2-1.4-0.4-2.9-0.6-4.3 0.3 0 0.5 0 0.8 0l0.2 0c0.1 0.1 0.1 0.1 0.2 0.2 0.1-0.4 0.3-0.8 0.4-1.2 -0.1-0.1-0.1-0.1-0.2-0.2 0-0.1 0-0.1 0-0.2 0.1-0.1 0.1-0.1 0.2-0.2C46.2 330.4 46.4 330.1 46.7 329.9z"/><path d="M207 259.8c0.6-0.4 1.2-0.9 1.9-1.4 0.9-2 1.8-4.1 2.7-6.2 0.5-0.3 1-0.5 1.6-0.8 0.4 0 0.7 0 1.1-0.1 -1.9 2.9-3.8 5.8-5.6 8.7C208 259.9 207.5 259.9 207 259.8z"/><path d="M227.9 207.5c-0.3-0.9-0.5-1.8-0.8-2.7 0.3 0 0.5 0 0.8 0 0.3 0 0.6 0 0.8 0 0.2 0 0.4 0.1 0.6 0.1 0 0.7-0.1 1.5-0.1 2.2 -0.1 0-0.1-0.1-0.2-0.1 0.1 0 0.1 0.1 0.2 0.1C228.7 207.2 228.3 207.3 227.9 207.5z"/><path d="M217.9 227c0.5-0.7 1.1-1.5 1.6-2.3 0.3 0.1 0.5 0.2 0.7 0.3 0.1 0.1 0.1 0.1 0.2 0.2 -0.1 0.4-0.2 0.7-0.3 1.1 -0.3 0.7-0.6 1.3-1 2 -0.2 0-0.4 0-0.6 0.1 0-0.1-0.1-0.1-0.1-0.2C218.2 227.7 218 227.4 217.9 227z"/><path d="M102.5 166.9c0.3 0.4 0.6 0.8 1.1 1.5 -0.9 0.6-1.7 1.1-2.4 1.6C101.6 168.9 102 167.9 102.5 166.9z"/><path d="M44.7 329c0.4 0.6 0.8 1.1 1.2 1.7 -0.1 0.1-0.1 0.1-0.2 0.2 -0.2 0.5-0.4 1-0.6 1.4 -0.3 0-0.5 0-0.8 0.1C44.5 331.2 44.6 330.1 44.7 329z"/><path d="M486.2 186.7c0 0.1 0 0.2 0 0.3 0 0-0.1-0.1-0.1-0.1L486.2 186.7z"/><path d="M493.5 280c-0.4 0-0.7 0-1.1 0C492.8 280 493.1 280 493.5 280z"/><path d="M219.5 224.7c-0.2-0.1-0.4-0.2-0.6-0.3 0.2 0 0.5 0 0.7 0C219.6 224.5 219.5 224.6 219.5 224.7z"/><path d="M45.1 327.7c0 0.2 0 0.5 0 0.7C45.1 328.2 45.1 327.9 45.1 327.7z"/><path d="M486.6 183.4c-0.1 0.1-0.1 0.2-0.2 0.4C486.4 183.6 486.5 183.5 486.6 183.4z"/><path d="M486.4 183.8c0.1 0.2 0.3 0.3 0.4 0.5C486.7 184.1 486.6 184 486.4 183.8z"/><path d="M226.9 206.1c0 0.2 0 0.5 0 0.7C226.9 206.6 226.9 206.4 226.9 206.1z"/><path d="M227.7 204.1c0 0.2 0 0.4 0 0.5C227.7 204.5 227.7 204.3 227.7 204.1z"/><path d="M101 349.1c0.2-0.1 0.4-0.3 0.6-0.4C101.4 348.8 101.2 349 101 349.1z"/><path d="M45.1 326.1c0 0.2 0 0.5 0 0.7C45.1 326.5 45.1 326.3 45.1 326.1z"/><path d="M381 208.8c-1-0.4-1.9-0.8-3.3-1.4 1.3-0.5 2.4-1 4.2-1.7 -3.7 0-6.7 0-9.7 0 -0.2 0.6-0.4 1.1-0.6 1.7 -8.8-2.6-17.6-5.3-27-8.1 0.1-0.1-0.5 0.4-1.3 1.1 -5-0.9-10.2-1.8-15.4-2.8 -0.8 0.4-1.7 0.8-3.4 1.6 0.3-0.5 0.1-0.1-0.3 0.5 0.6 0.3 1.1 0.5 2 0.9 -0.9 0.6-1.6 1-3.1 2 3.2-0.3 5.4-0.5 7.6-0.7 0.1 0.4 0.1 0.8 0.2 1.2 -4.7 0.4-9.3 0.9-14 1.3 0.1 0.4 0.1 0.7 0.2 1.1 -2.8 0.1-5.6 0.3-8.5 0.4 0-2.1 0-3.9 0-5.9 -0.8-0.2-1.9-0.5-3.9-1.1 1.7-0.8 2.5-1.1 3.2-1.4 -0.2-0.1-0.5-0.4-2-1.6 3.9 1 6.4 1.6 8.9 2.2 0.5-0.7 1-1.3 1.7-2.2 -1.4 0.1-2.5 0.2-3.7 0.4 0-0.6-0.1-1.1-0.1-1.7 -0.8 0.2-1.6 0.3-2.1 0.4 -1.5-0.8-2.7-1.5-4-2.2 -0.2 0.3-0.3 0.6-0.6 1.2 -0.3-0.7-0.5-1.3-0.8-2 -1.1-0.3-2.3-0.6-3.8-1.1 0.7-0.5 1.2-0.9 1.9-1.4 0-0.5 0.1-1 0.2-1.7 -0.6-0.3-1.2-0.6-1-0.5 -0.1-2.6-0.2-4.7-0.4-6.7 -0.2 0-0.3 0-0.5 0 -0.3-1.5-0.5-3-0.4-2.4 0-23.9 0-45.7 0-68 -0.1-0.1-0.8-0.7-1.1-1 0.3-1.5 0.5-2.5 1.1-5.6 0-0.7-0.9-5.3 0.1-5.8 7.7-3.5 15.7-7.9 23.9-8.8 19.5-2.2 39.2-2.8 58.9-3.7 9.7-0.4 19.5-0.1 29.1-0.1 1.6 2.5 2.9 4.4 4.3 6.5 -0.2 0.3-0.4 0.7-0.5 0.9 1 6.3 2 12.3 2.9 18.4 1 0 2 0 3 0 -0.9 18.2-1.9 36.3-2.8 54.5 -0.7-0.1-1.5-0.2-2.2-0.3 -1.2 4.9-2.3 9.8-3.9 16.6 1.4-2.7 2-3.7 4.4-8.2 -1.4 5.1-1.8 6.6-2.2 8.1 -0.8 0.1-1.5 0.2-1.6 0.3 -1 5.9-1.9 11.5-2.8 16.4 -4 1.4-6.7 2.3-10.6 3.6 0.4-0.5-0.1 0.1-1.5 1.8 2-0.7 2.7-1 3.6-1.4 0.2 0.4 0.5 1 0.9 1.9 -0.9 0.6-1.7 1.2-2.7 1.8 0.2 0.3 0.6 0.9 0.9 1.4 -0.2 0.8-0.5 1.5-0.5 1.7 -1.7 0.2-3 0.3-5.1 0.6 0.3 0.2-0.2-0.2-0.8-0.6 -0.1-0.1-0.1-0.2-0.2-0.3 1.6-1.1 3.2-2.3 4.6-3.3 -5.5 0.8-11 1.7-17.8 2.7 0.6-0.4-0.2 0.1-0.9 0.7C381.2 208.7 381.1 208.8 381 208.8zM358.6 113.1c-0.1 0-0.1 0-0.2 0 -1-0.3-1.9-0.8-2.9-0.7 -6.9 0.3-13.7 0.7-20.6 1 0-0.7 0-1.5-0.1-2.2 -2.9 0.8-5.7 1.7-9.6 2.8 0.2 0.1-0.8-0.2-2.8-0.6 1.2 0.7 1.6 0.9 3.6 2.1 -2.7-0.5-3.7-0.7-4.8-1 0 0.4-0.1 0.8-0.1 1.3 1 0.3 1.9 0.5 2.7 0.8 0.2 0.8 0.3 1.5 0.4 2.1 -1.7 0.5-3.1 1-4.2 1.4 0 2.8 0 5.5 0 11.4 0.4 3.7 1.2 10.4 1.9 17.2 -1.3 0.2-1.8 0.2-2.7 0.3 1 0.7 1.6 1.1 2.2 1.5 -0.6 0.8-1.2 1.5-1.7 2.2 0.2 0.1 0.3 0.2 0.5 0.4 0.3-0.3 0.6-0.7 1.8-1.9 -0.6 2.4-0.9 3.7-1.7 6.9 0.2 0.7 0.9 3.4 1.6 6.2 -0.3 0.2-0.7 0.5-1.2 0.8 0.6 0.3 1.2 0.6 1.5 0.8 0.4 2 0.7 3.7 1.1 6.3 0.4-1.2 0.6-1.7 0.8-2.4 6.3 7.6 20.8-2.3 24.3 12 0.7-0.1 1.8 0 2.9-0.2 10.3-1.9 20.6-4.6 31-5.4 6.8-0.5 14.1-7 12.2-13.9 1.6-4.7 3.2-9.6 4.5-13.7 0.7-3.3 1.2-5.9 1.8-8.4 0.1 0 0.2 0 0.3 0 0.5-2.3 1-4.5 1.5-6.8 -0.3-0.4-0.6-0.9-0.8-1.1 0.3-3.1 0.5-5.9 0.7-8.6 -0.3-0.1-0.6-0.1-1-0.2 0.3-1.7 0.6-3.4 1-5.3 -4.6-1.1-9.2-2.3-14.4-3.6 0.3-0.1-0.2 0.1-1 0.5 -0.9-0.7-1.9-1.3-3.3-2.3 1.7-0.2 2.6-0.3 3.5-0.4 0-0.2 0-0.4 0-0.6 -1.3 0-2.6 0-3.9 0 0-0.1 0-0.1 0-0.2 -7.5 0-15 0-22.1 0C359.9 111.9 359.2 112.5 358.6 113.1z"/><path d="M395.6 208.9c-2.8 0.9-5.5 1.8-7 2.3 -2.6-0.5-3.3-0.7-4.2-0.9 0.1 0.2 0.1 0.5 0.3 1.2 -1.9-0.1-3.7-0.2-6.6-0.4 1.6-1.2 2.2-1.7 2.9-2.2 0.1 0 0.2-0.1 0.3-0.2 4.7 0 9.4 0 14.1-0.1C395.5 208.7 395.5 208.8 395.6 208.9z"/><path d="M226 221.8c-0.6 0.3-1.2 0.6-2.6 1.3 1.1-1.6 1.6-2.5 2.2-3.3C225.7 220.5 225.9 221.2 226 221.8z"/><path d="M46.7 329.9c0-0.3 0-0.6 0-0.9C46.7 329.3 46.7 329.6 46.7 329.9z"/><path d="M47.6 326.1c0.1 0 0.2 0.1 0.3 0.1 -0.1 0.2-0.2 0.4-0.3 0.5 -0.1-0.1-0.1-0.1-0.2-0.2 0 0 0-0.2 0-0.2C47.5 326.3 47.5 326.2 47.6 326.1z"/><path d="M47.5 327.1c-0.1 0-0.2 0-0.3 0 -0.1-0.1-0.1-0.1-0.2-0.2l0-0.2c0.1-0.1 0.2-0.1 0.2-0.2l0.2 0c0.1 0.1 0.1 0.1 0.2 0.2C47.6 326.8 47.5 327 47.5 327.1z"/><path d="M47.9 325.9c-0.1 0-0.2 0-0.4 0 0.1-0.2 0.2-0.4 0.3-0.5C47.9 325.5 47.9 325.7 47.9 325.9z"/><path d="M222.7 225.3c0-0.2 0-0.5 0-0.7C222.7 224.8 222.7 225 222.7 225.3z"/><path d="M224.8 219.4c-0.5 0.9-1.1 1.7-1.6 2.6 -0.1-0.1-0.2-0.1-0.3-0.2l-0.1 0c-0.1 0.1-0.2 0.1-0.3 0.2l-0.1 0c-0.1-0.1-0.2-0.1-0.3-0.2 0-0.2 0.1-0.5 0.1-0.7C223.2 220.5 224 219.9 224.8 219.4z"/><path d="M222.8 222.4c-0.2 0.4-0.4 0.7-0.6 1.1 -0.2-0.1-0.4-0.2-0.6-0.3 0.2-0.4 0.4-0.9 0.6-1.3 0.1 0.1 0.2 0.1 0.3 0.2 0 0.1 0.1 0.1 0.2 0.2C222.7 222.2 222.8 222.3 222.8 222.4z"/><path d="M220.2 225l0.2 0c0 0 0 0.2 0 0.2C220.3 225.1 220.3 225.1 220.2 225z"/><path d="M223.2 221.9c-0.1 0.1-0.3 0.3-0.4 0.4 -0.1-0.1-0.1-0.1-0.2-0.2 0 0 0-0.2 0-0.2 0.1-0.1 0.2-0.1 0.3-0.2 0 0 0.1 0 0.1 0C223.1 221.8 223.2 221.9 223.2 221.9z"/><path d="M47.5 325.8c0 0.1 0.1 0.2 0.1 0.3 -0.1 0.1-0.1 0.2-0.2 0.3 -0.1 0.1-0.1 0.1-0.2 0.2 -0.1 0.1-0.1 0.2-0.2 0.2 -0.1 0.1-0.1 0.1-0.2 0.2 -0.1 0.1-0.1 0.1-0.2 0.2 -0.1-0.3-0.3-0.5-0.5-1C46.7 326 47.1 325.9 47.5 325.8z"/><path d="M47.2 327.1c-0.2 0-0.4 0-0.5 0 0.1 0 0.1-0.1 0.2-0.2 0 0 0.2 0 0.2 0C47.1 327 47.1 327.1 47.2 327.1z"/><path d="M226.9 207l0 0.1c0 0-0.1 0-0.1 0C226.8 207.1 226.9 207.1 226.9 207z"/><path d="M493.8 281.2c-0.1 0-0.3 0-0.4 0C493.5 281.2 493.6 281.2 493.8 281.2z"/><path d="M494.1 281.1l0.2 0c0 0 0 0.2 0 0.2C494.2 281.2 494.1 281.2 494.1 281.1z"/><path d="M493.8 281.6c0-0.1 0-0.3 0-0.4 0.1 0 0.2-0.1 0.3-0.1 0.1 0.1 0.1 0.1 0.2 0.2C494.1 281.4 493.9 281.5 493.8 281.6z"/><path d="M218.3 224.6l0 0.2c0 0-0.1 0-0.1 0C218.2 224.7 218.3 224.7 218.3 224.6z"/><path d="M46 331.2l-0.2 0c0 0 0-0.2 0-0.2C45.8 331.1 45.9 331.2 46 331.2z"/><path d="M45.4 332.3l0.2 0c0 0 0 0.2 0 0.2C45.5 332.4 45.4 332.3 45.4 332.3z"/></svg>