<svg class="icon" xmlns="http://www.w3.org/2000/svg" viewBox="0 0 284.9 320.2"><path d="M154 0c3.4 6.5 2.4 13.4 2.8 20.4 0.6 8.5-4.4 16.1-1.7 24.8 0.7-0.9 1.1-1.5 1.6-2.1 0.1 0.5 0.4 1.1 0.3 1.5 -3.7 9.9 1 19 2.8 28.3 1.9 9.5 5.2 18.7 7.5 28.1 0.5 1.9-0.1 5.1-1.5 6.3 -4.6 4-9.6 8.1-16.6 5.4 -0.5-0.2-1.3-0.1-1.9 0.1 -10.1 2.6-20.2 5.2-30.3 7.9 -0.9 0.3-1.8 0.7-3.3 1.3 1.7 7.6-0.1 13.5-9.5 15.4 -4.9-2.5-2.2-9.1-6-14.4 -1.1 2.9-2.4 4.9-2.5 7 -0.5 8.1-0.7 16.2-0.9 24.3 -0.2 6.6-0.7 13.2-0.3 19.8 0.2 3.1 2.6 6 3.3 9.1 0.8 3.6 1.5 7.7 0.7 11.2 -1.8 8.1 4.1 17.2 12.5 18.1 2.1-4.8 6-7.2 10.2-5.9 1.2 0.4 1.9 2 3.4 3.6 13.8-3.9 28.8-8.2 45.5-13 0.8 10.4 1.9 19 2.1 27.7 0.4 15.1-0.3 30.2 5.5 44.6 2.8 6.9 4.8 14.1 7.6 20.9 1.4 3.5 3.7 6.5 5.6 9.8 0.4-0.2 0.9-0.5 1.3-0.7 -0.5 1.1-1.6 2.2-1.5 3.2 0.5 8.4-2.4 11.7-11.2 11.4 -10.3-0.3-20.6-1.2-30.8-2.1 -3-0.3-5.1-0.6-6.7 3.1 -0.9 2.2-4.3 3.4-7.1 5.5 -0.9-1.6-2.1-4.2-3.8-6.5 -1.1-1.5-2.7-3.6-4.3-3.8 -22-2.3-41.3-12-60.7-21.5 -1.3-0.7-2.8-1.2-4-1.9 -5-3-10.6-5.4-15-9.2 -16.3-14.1-25.6-32.8-34-52.2C5.8 208.2 3.2 190.6 1 172.8c-0.1-0.9-0.7-1.8-1-2.8 0-5.7 0-11.3 0-17 1-9.3 2.1-18.7 3.1-28 0.4-3.4 0.8-6.8 1.2-10.3 0.3 0.1 0.5 0.1 0.8 0.1 0 6.2 0 12.4 0 18.5 1.1-0.4 1.5-1 1.6-1.5 4.3-16 8.6-31.9 13-47.9 1.9-6.9 3.9-13.7 5.9-20.5 0.6-1.9 0.9-4.3 2.3-5.5 4.6-4.2 9.4-8.4 14.5-12 8.4-5.7 17-11.1 25.7-16.2 6.2-3.6 12.7-6.6 12.8-15.2 0-0.8 0.4-1.6 0.7-2.4 2-3.7 5.8-3.8 8-0.3 1.1 1.7 1.9 3.5 2.7 5 3.5-1.5 6.9-3.6 10.5-4.4 7.6-1.5 15.6-1.7 23.1-3.5C134.5 6.9 144.1 7.3 151 0 152 0 153 0 154 0zM22.3 162c0.2 0.1 0.5 0.1 0.7 0.2 -0.3 1.9-0.8 3.7-1 5.6 -0.9 7.2-2.4 14.3-2.5 21.5 -0.2 13.5 6.8 25.2 11.7 37.1 4 9.7 10.7 18.4 16.8 27.1 3.9 5.7 8 12.1 13.5 15.8 8.3 5.6 16.4 12 27.4 13.1 10.2 1 20.1 4.2 30.2 6.2 2.2 0.5 4.7 0.1 7.8 0.1 -3.8-20.5-7.4-40.1-11.1-59.9 -3.8 0.5-6.9 1.6-9.9 1.3 -5.5-0.6-11-1.9-16.4-2.9 -7.5-1.5-8.5-3.2-8-10.7 0.4-5.9 0.2-11.9-0.5-17.9 -1.4-13.2-3.4-26.3-4.9-39.5 -0.5-4.7-0.5-9.4-0.5-14.2 0-6.4 0.2-12.7 0.5-19.1 0.2-3.7 0.9-7.4 1.2-11.2 0.3-4.8 4.5-8.2 9.3-7.8 3.1 0.2 6.3-0.4 10.1-0.8C92.6 84.3 88.9 64 85.3 43.7c-3.1 0.1-3.1 0-9.8 4.8 -5.6 4.1-11.5 7.9-16.2 13 -6.1 6.7-11.6 14.1-16.5 21.7 -3.1 4.7-4.9 10.4-7 15.7 -0.5 1.2 0.4 2.9 0.7 4.4 -0.3-0.1-0.5-0.2-0.8-0.3 -3.2 8.1-6.5 16.2-10.2 25.3 1.8-1.2 2.4-1.5 3-1.9 -7.9 12.3-4.1 26.9-8.1 39.9C21 164.8 21.6 163.4 22.3 162zM108 103.4c5.6-2.6 9.9-5 14.5-6.6 6-2.1 12.3-3.4 18.3-5.3 1.5-0.5 3.6-2.2 3.6-3.4 0.1-4.1-0.1-8.4-1-12.4 -3.4-14.6-7.1-29-10.8-43.5 -0.3-1.2-0.9-2.4-1.4-3.6 -0.9-0.1-1.6-0.4-2.1-0.3 -9.3 2.2-18.5 4.8-27.9 6.7 -6.1 1.2-6.7 4.4-5.5 9.7 2.6 11.5 4.9 23 7.1 34.6 0.8 4.5 0.9 9.1 1.4 13.6 0 0.3 0.2 0.6 0.3 1.1 0.7-0.3 1.3-0.5 2-0.8C106.9 96.1 107.3 99 108 103.4zM152.3 293.5c3.9-4.1 5.9-8.4 4.4-14.4 -1.3-5.1-1.1-10.5-1.8-15.8 -1.8-12.8-3.7-25.6-5.6-38.5 -0.5-3.7-2.6-5.3-6.2-4.8 -3.7 0.6-7.3 1.8-11 2.3 -4.7 0.6-5.9 2.1-5 6.9 0.4 2.1 0.7 4.3 0.9 6.4 1.4 11.1 2.6 22.3 4.2 33.4 0.4 3 2 5.8 3 8.7 -0.2 0.1-0.5 0.2-0.7 0.3 -0.3-0.4-0.6-0.8-0.9-1.2 -0.2 0.1-0.4 0.1-0.6 0.2 1.1 3.7 2.3 7.3 3.1 9.9C141.7 289.2 146.8 291.3 152.3 293.5z"/><path d="M213.8 118.9c1.4-0.8 2.7-1.6 5.3-3.1 -3.2 0.3-5 0.5-7.5 0.7 -0.8-1.5-3.1-3.8-2.6-4.9 0.9-1.9 3.2-3.9 5.3-4.5 7.8-2.2 15.9-3.6 23.7-5.9 5.5-1.6 10.8-4.1 16-6.6 5.4-2.6 10.6-5.6 16.9-3.4 -0.3 0.4-0.6 0.7-0.9 1.1 3.6 3.6 7.2 7.2 11.3 11.3 -3.1 0.9-5.2 1.5-7.3 2.2 0.1 0.2 0.1 0.4 0.2 0.7 2.1-0.2 4.2-0.3 6.3-0.5 0.2 0.4 0.4 0.9 0.6 1.3 -1 0.5-2 1-3.6 1.7 2.9 0.5 4.7 0.9 7.2 1.3 -6 5-11 8.7-18.9 5.1 -2.5-1.1-6.2-0.4-8.9-2.7 -0.6-0.5-1.9-0.4-2.8-0.2 -10.8 2.5-21.6 5.1-32.4 7.4 -2.5 0.5-5.1 0.1-7.7 0.1C214 119.7 213.9 119.3 213.8 118.9z"/><path d="M196.9 72c-3.2-2.9-3.3-5.6-0.7-8.5 3.3-3.7 6.6-7.4 9.8-11.2 3.6-4.3 7.1-8.8 10.8-13 2.3-2.6 4.7-5.2 7.5-7.2 2.5-1.7 5.3-2 6.7 2 0.9 2.5 3.2 4.7 3.7 7.2 0.5 2.1 0 5.3-1.3 6.8 -3.4 3.8-7.4 7.1-11.5 10.1 -5.6 4.2-11.4 8.1-17.4 11.7C202.3 71.3 199.2 71.4 196.9 72z"/><path d="M255.4 202.4c-1.7 3.3-3.1 5.9-4.8 9.2 -4.1-2.1-8.7-4.2-13-6.7 -6.2-3.6-12.5-7.2-18.4-11.3 -3.3-2.3-6.3-5.5-8.6-8.8 -1-1.5-1.1-5.1 0-6.3 1.4-1.6 5-3.1 6.5-2.3 9.4 4.8 18.7 9.9 27.5 15.7C248.9 194.6 252.1 199.1 255.4 202.4z"/><path d="M142.5 118.7c-2.8 0.7-5.6 1.4-8.4 2.1 -0.1-0.3-0.2-0.5-0.3-0.8 2.8-0.9 5.5-1.9 8.3-2.8C142.2 117.7 142.3 118.2 142.5 118.7z"/></svg>