<svg class="icon" xmlns="http://www.w3.org/2000/svg" viewBox="0 0 1036.1 943.4"><path d="M803.1 358.3c-2.6 0.5-5.2 0.9-7.8 1.4 3.1 3.4 6.3 6.8 9.4 10.1 -3.1-1.9-6-4-9.2-5.6 -1.5-0.7-3.4-0.5-5.2-0.6 -18.7-1.8-37.3-3.6-56-5.5 -1.2-0.1-2.4-1-3.6-1.5 2.4-0.3 4.9-0.6 7.3-0.8 1.5-0.1 3 0 4.5 0 -0.6-0.7-1.2-1.6-2-2 -0.4-0.2-1.2 0.6-1.9 0.6 -12.2 0.1-24.4 0.2-36.7 0.4 -0.4 0-1 0.6-1.1 1 -1.5 10.5-3 21.1-4.6 31.6 -0.1 0.6-0.9 1-1.4 1.5 -0.7-1.3-1.4-2.6-2.4-4.4 -3 12-6 23.7-8.7 35.6 -0.2 0.9 1.8 2.4 3 3.4 0.2 0.2 1.3-0.1 1.6-0.5 2.4-2.4 4.7-4.9 7.1-7.4 -1.5 4.2-3.9 8.3-4.4 12.6 -1.8 16.4-3.5 32.9-4.2 49.3 -0.5 13 0.1 26.1 0.8 39.1 1.4 26.1 3.6 52.1 4.7 78.2 0.5 12.5-1.7 25.2-1.4 37.7 0.5 16.7 0.1 34.1 5.1 49.6 1.2 3.8 22.3 4.3 32.9 1.3 10.9-3.1 19.3-14 30.1-18.1 5.7-2.2 14.2 2.8 21.4 4.7 1.6 0.4 3 1.6 4.5 2.1 8.2 2.8 16.4 5.6 24.6 8.4 1 0.3 1.8 1.6 2.6 1.5 3.2-0.1 6.3-0.6 9.5-1 0.6 8.2 2.4 16.6 1.4 24.7 -1.1 8.2-4 16.6-8 23.8 -10.4 18.9-21.9 37.1-32.6 55.7 -2.4 4.2-3.1 9.3-5.3 13.5 -0.7 1.4-3.9 1.5-5.9 2.2 1.4-3.1 2.7-6.2 4.1-9.3 0.3 0.2 0.7 0.3 1 0.5l0-0.1c-0.3-0.2-0.6-0.4-0.9-0.5 2.8-6.6 5.7-13.2 8.5-19.8 -0.8-0.5-1.6-1-2.5-1.5 -7.2 12-13.3 24.8-21.9 35.7 -6.5 8.2-16.2 13.8-24.5 20.6 -1.7 1.4-3.3 3.1-4.9 4.6 1.7 0.3 3.4 0.5 5 1 1.7 0.5 3.3 1.4 4.9 2.1 -0.7 1.3-1.7 3.7-2.2 3.6 -4.1-0.7-8.2-1.6-12.1-3 -3-1.1-5.6-3-6.6-3.6 -0.8 4.2-0.6 9.2-2 9.8 -3.8 1.4-8.3 0.8-12.6 1 -9.1 0.6-18.8 3.3-27.3 1.3 -12.2-2.9-23.6-9.3-35.3-14.1 -2.6-1.1-5.8-1.1-8.2-2.5 -7.9-4.8-15.9-9.7-23.3-15.2 -14.8-11-29.2-22.5-43.8-33.8 -0.3-0.3-0.9-0.3-1.3-0.4 0.2 0.9 0.2 1.9 0.5 2.8 0.6 2.1 1.2 4.1 1.9 6.2 -1.4-1.5-3.1-2.8-4.1-4.5 -8-12.8-15.7-25.9-23.9-38.6 -8.5-13.1-17.8-25.7-25.8-39.1 -2.3-3.8-2.5-9.8-1.5-14.3 0.8-3.9 4.7-10.3 6.9-10.2 14.2 0.6 28.3 3.2 42.6 4.2 15.1 1.1 30.3 1.1 45.4 1.9 4.5 0.2 9.2 2.8 13.5 2.1 21.7-3.9 8.1-20.8 8-29.7 -0.2-46.7-3.5-93.3-5.5-140 -0.7-16.9-0.4-33.8-1.3-50.6 -1.5-30.5-3.8-61-5.3-91.6 -0.4-7.8 2-15.8 1.3-23.6 -0.1-1.6-8.2-2.6-12.6-3.6 -0.4-0.1-1.3 2.1-2 3.2 0 0-0.1-0.1-0.1-0.1 -5.7 1.4-11.4 2.8-10.3 2.5 -27.5 0-47.8 0-68.2 0 -0.4-0.9-0.8-2.7-1.2-2.6 -9.9 0.7-19.8 1.5-33.7 2.6 13.5 0 22.9 0 32.4 0 5.9 0.3 11.8 0.6 17.6 1 0.9 0.1 2.5 1.2 2.5 1.3 -0.8 1.9-1.4 5.2-2.7 5.4 -11.1 2.1-22.2 4.3-33.4 5.3 -17.3 1.7-34.6 3-51.9 3.3 -5.3 0.1-10.5-4.6-15.9-5.2 -3.1-0.3-6.7 3.1-10 4.9 -0.5 0.3-0.8 0.8-1.2 1.2 -1.8-2.5-3.7-4.9-5.4-7.5 -4.1-6.2-8-12.4-12.1-18.6 -1.1-1.6-2.5-2.9-3.8-4.4 2.4-0.8 5-1.2 7.1-2.4 1.4-0.8 2.1-2.8 3.2-4.3 -2.5-1.1-4.9-2.2-7.4-3.4 -0.7-0.3-2-1-2-1.2 1.2-5.1 3.3-10.1 3.7-15.3 0.5-6.1 0.7-12.6-1-18.3 -4.2-13.5-10.1-26.5-14.4-40 -4.5-13.9-8.1-28-11.9-42.1 -0.4-1.5 0.3-3.3 0.5-4.9 1.1 0.7 2.2 1.5 5.3 3.7 -4.8-16-9.9-30.2-13.3-44.8 -3.1-13.2-4.1-26.9-6.4-40.3 -2-11.3-5.1-22.5-6.6-33.9 -0.8-5.7 0.7-11.7 1.3-17.6 0.2-1.8 0.7-3.6 1.1-5.5 -1.6 0.2-4.4 1-4.6 0.6 -2.3-5.5-4.6-11-6.1-16.7 -0.3-1.2 3.4-3.2 3.6-5 1.1-8.3 0.5-17 2.9-24.8 1.6-5.1 6.9-12 11.3-12.7 29.8-4.1 59.7-8 89.8-9.5 37-1.9 74-1.5 111-1.8 21.4-0.1 42.8 0.8 64.2 0.6 28.1-0.3 56.2-2.2 84.3-1.7 30.9 0.6 61.7 3.6 92.5 4.6 17.1 0.5 34.2-1.1 51.3-1.3 21.3-0.3 43 2.2 64-0.8 33.2-4.8 47.7 7.9 43.6 43.2 -1.8 15.7-4.7 31.3-6.5 47.1 -0.5 4.2 2.6 8.8 1.9 12.8 -2.3 13.3-5.7 26.3-8.4 39.5 -4.1 19.8-7.3 39.8-12.4 59.3 -5.2 19.8-12.8 38.9-18.3 58.6 -2.4 8.5-2.5 17.7-3.3 26.7 -0.7 7.8-0.6 15.7-1.5 23.4 -0.5 4.3-3.2 8.4-3.4 12.7 -0.1 2 3.3 4.3 5.4 6.1 0.7 0.6 2.3 0 3.5-0.1 -1.4 1.2-3.3 2.2-4 3.7 -0.7 1.6-0.3 3.7 0 5.5 0.3 1.7 2 4.4 1.4 4.9 -1.5 1.3-4 1.4-5.7 2.7 -1.4 1-1.8 3.2-3.2 4.2 -5.7 4.5-11.5 8.8-17.4 12.9 -0.9 0.6-2.8-0.1-4.2-0.2 0.8 2 1.5 4.1 2.5 6 0.8 1.7 1.9 3.2 2.9 4.8 -3.2-0.2-6.5 0-9.5-0.9 -0.8-0.2 0-4.1-0.9-5.8 -0.9-1.7-4.1-4.1-4.6-3.8 -2.6 1.8-4.6 6.3-7 6.4 -12.2 0.8-24.4 0.5-36.6 0.5 -0.3 0-0.5-1.3-0.8-2 1.1 0 2.1 0 3.2 0 3.4-0.1 6.9-0.2 10.3-0.2 -1-1.7-1.7-4.5-3-4.9 -3.6-1-7.6-1.1-11.4-1.3 -1.7-0.1-3.5 0.4-5.2 0.7 0.9-0.4 1.8-0.9 2.7-1.3 -2.2-1.6-4.3-3.9-6.7-4.7 -6.3-1.9-12.7-3.1-19.1-4.6 -2.5-0.3-4.9-0.5-7.4-0.8 -0.3 0.3-0.5 0.5-0.8 0.8 -0.6 0.3-1.1 0.6-1.7 1 0 0.5 0 1 0 1.5 0 0.3 0.1 0.6 0.1 0.9 0 0-0.2 0.2-0.2 0.2C803.4 357.8 803.3 358 803.1 358.3zM864.7 266.7c3.5-8.8 7.3-17.6 10.4-26.5 6.8-19.6 13.9-39.1 19.4-59.1 2.9-10.3 2.1-21.5 4.1-32 1.2-6.6 5-12.8 6.8-19.4 2.3-8.5 4-17.2 5.6-25.9 1.2-6.8 1.7-13.8 2.6-20.7 -2.7 3.9-5.4 7.9-8.1 11.8 -0.1 0.1-0.5 0.1-0.9 0.2 0.4-3.2 1.2-6.3 1.2-9.4 0-4-0.3-11.3-0.9-11.3 -5.8-0.4-11.8 1.5-17.5 0.6 -17.9-2.8-35.6-6.5-53.4-9.7 -1.7-0.3-3.6 0.8-5.4 1.3 0.7 0.5 1.4 1 2.2 1.4 1 0.4 2.1 0.7 3.1 1.1 -1.1 0.9-2.4 2.5-3.4 2.4 -5.9-0.7-11.8-1.5-17.5-2.8 -9.8-2.2-19.5-4.9-29.2-7.3 0.1-0.2 0.1-0.3 0-0.5 -19.9 1.8-39.9 3.6-59.8 5.4 -2 0.2-4 0.9-6 1.4 1.9 0.1 3.9 0.2 5.8 0.3 5.7 0.2 11.3 0.4 17 0.8 0.9 0.1 1.7 1 2.6 1.5 -0.4 0.7-0.7 1.6-1.3 2 -1.2 0.6-2.5 0.9-3.8 1.2 2 0.3 4 0.8 6 0.8 6.2 0.1 12.4-0.1 18.5 0.1 1.7 0 3.4 1 5.1 1.5 -1.8 0.8-3.6 2.2-5.5 2.3 -16.2 1.1-32.5 2.8-48.8 2.9 -30.1 0.3-60.3-0.2-90.4-0.7 -17.4-0.3-34.9-1.5-52.3-1.6 -14.1-0.1-28.3 1.7-42.4 1.3 -23.8-0.8-47.5-3.5-71.3-3.8 -7.9-0.1-15.9 5.1-23.9 7.6 -3.5 1.1-7.2 1.6-10.8 2.3 4.4 20.1 8.9 40.2 13.3 60.3 2.6 12 4.7 24.2 7.9 36.1 1.2 4.7 5.7 8.6 7 13.3 2.5 9 2.5 18.8 5.9 27.4 6.2 15.7 14.2 30.8 21.3 46.2 0.7 1.5 0.2 3.5 0.3 5.2 -1-0.1-2.1-0.2-3.1-0.3 -0.8-0.2-1.6-0.5-2.4-0.7 -0.7 3-1.5 6.1-1.9 9.2 -0.1 0.5 1.4 1.9 2.2 1.9 23.7 0.3 47.4 0.3 71.1 0.9 40.6 1 81.2 2.5 121.8 3.4 35.6 0.8 71.2 2.3 106.8 1.4 20.1-0.5 40.3-3.9 60-8.4 11.2-2.5 21.4-9.7 32.1-14.8C864.7 267.1 864.7 266.9 864.7 266.7zM779.2 345.6c-0.2 0.3-0.4 0.5-0.6 0.8 12.6 1.8 25.3 3.6 37.9 5.3 1.3 0.2 2.7-0.3 4-0.5 -0.1-0.6-0.1-1.6-0.4-1.7 -1.5-0.6-3.1-1.2-4.7-1.3C803.3 347.1 791.3 346.4 779.2 345.6zM564.1 345.2c0-0.6-0.1-1.2-0.1-1.8 -5.4-0.7-10.8-1.7-16.3-1.9 -1.6 0-3.3 2.4-5 3.7C549.8 345.2 557 345.2 564.1 345.2z"/><path d="M381.2 265.4c-0.8 7.6-1.5 15.1-2.5 22.6 -0.2 1.5-1 2.9-1.5 4.4 -0.7-1.6-1.6-3-2-4.7 -0.5-2.6-0.6-5.3-0.9-8 -1.3 3.5-4.2 7.3-3.8 10.6 3.8 29.1-15.5 40.7-37.6 50 -4 1.7-9.3 0.4-14 0.2 -16-0.9-32.1-2.2-48.1-2.6 -2.1 0-5.5 4.3-6.3 7.2 -3.3 11.1-6.5 22.2-8.4 33.6 -3.3 19.7-5.6 39.6-8.4 60.6 1.2-2.7 2-4.4 5.3-11.8 -4.8 39.9-9 73.7-12.7 104.1 -1.7 2.4-1 1.3-0.6 0.8 -1.2 24-2.3 48.4-3.4 71.4 0.3-0.5 1.6-2.5 2.8-4.4 0.4 3.5 1.4 7.1 1.2 10.6 -2.1 34.3-4.7 68.7-6.4 103 -0.3 5.2 3 10.5 4.2 15.9 0.3 1.5-0.9 3.4-1.5 5.1 -1-1.4-2.1-2.7-2.9-3.7 -1.5 26.1-2.4 52.8-4.9 79.4 -1.2 12.5-5.3 24.7-8.2 37.1 -0.1 0.3-0.8 0.9-0.9 0.8 -5.3-3.6-14.4-6.5-15.2-11 -8.3-44.6-15.9-89.5-22.5-134.4 -5-34.5-8.7-69.2-12.3-103.9 -2-19.3-2.2-38.8-3.7-58.2 -2.8-36.1-6.9-72-8.9-108.2 -1.6-29.5-0.8-59.1-1.6-88.7 -0.1-3-4.1-6.2-6.9-8.6 -3.5-3.1-7.4-7.7-11.4-8 -7.1-0.4-14.7 1.2-21.5 3.5 -5.8 1.9-11 6.1-16.5 9.1 -0.4 0.2-1.2-0.2-1.8-0.4 0.7-1.6 1.2-3.4 2.3-4.9 1-1.4 2.6-2.4 3.9-3.6 -1.4-1.1-2.8-2.8-4.3-3 -1.2-0.1-2.5 1.8-4 2.5 -4.9 2.5-9.8 4.8-14.8 7.1 -0.1 0.1-0.4-0.1-0.4 0 -12.1 20.7-14-12.2-23.6-4.6 -2-2.7-4.1-5.3-5.9-8.1 -4-6-6.7-15-12.2-17.4 -16.5-7.3-13.4-21.8-14.9-34.2 -1.7-14.4-3.5-29.4-1.2-43.5 1.1-7.1 5.7-19.8 21.5-10.8 10 5.7 24.3 5.3 36.6 5 48.1-1.3 96.2-4.8 144.4-5.2 28.1-0.3 56.3 4.4 84.4 5.4 7.6 0.3 15.5-4.4 23.2-6.9 0.7-0.2 1.7-1.1 2.1-0.9 6 3 12.4 5.5 17.6 9.5 4.4 3.5 7.3 8.8 10.7 13.5 1 1.4 1.1 3.3 1.7 4.9 0.6 1.7 1.2 3.4 1.9 5.1 0.3-1 0.5-2.1 1-3.1 0.4-0.7 1.9-1.8 1.9-1.8 3.6 3.6 7.6 7 10.3 11.2 1.6 2.6 1.1 6.6 1.5 10C381.4 265.2 381.2 265.4 381.2 265.4z"/><path d="M855.3 921.6c-0.7 0.6 0.3-0.2 1.2-1 -1.1 0-2.2-0.2-3.2-0.1 -2.9 0.5-5.8 1.5-8.8 1.8 -9.4 0.9-18.9 1.1-28.2 2.6 -6.1 1-11.9 5-18 5.3 -22.8 1.4-45.6 1.7-68.4 2.7 -6.2 0.3-12.4 1.4-18.6 1.7 -1.5 0.1-3.1-1.5-5.2-2.6 -3.2 1.1-8.3 2.9-15.6 5.4 3.7-3.4 5.4-5 7-6.5 -4.5-0.4-9-1.2-13.4-1 -18.5 0.7-37 1.8-55.4 2.6 -3.2 0.1-6.5-0.2-9.7-0.4 3.2-1.3 6.5-2.5 9.6-3.9 0.6-0.2 0.8-1.1 1.2-1.7 -3.7 0.9-7.4 2.1-11.2 2.6 -13.7 1.7-27.5 4.1-41.3 4.3 -8.9 0.1-17.9-4.5-26.7-4.3 -10.4 0.3-20.7 3.4-30.9 5.5 -2.1 0.4-4.2 2.6-6.1 2.4 -1.7-0.2-3.3-3.9-4.8-3.8 -3.5 0.2-6.9 2.3-10.4 2.6 -2.1 0.2-4.4-1.5-6.6-2.4 3.4-2.2 6.7-4.5 10.5-6.9 -2.6 0.6-5 1.5-7.4 1.6 -2.3 0.1-4.7-0.7-7.1-1 1.5-0.8 3.1-1.5 4.4-2.5 0.4-0.3 0.3-2.2 0.2-2.2 -4.7-1.1-9.4-2.6-14.2-3 -11.9-1-23.9-2.2-35.9-2.1 -16.2 0.1-32.4 1.1-48.6 2.2 -7.9 0.5-15.6 2.2-23.5 3.3 -10.6 1.5-21.2 3.3-31.8 4.2 -5.3 0.4-10.8-0.9-16.2-1.5 -0.2 0-0.4-1.1-0.3-1.2 1.7-0.9 3.3-1.8 5.1-2.5 1-0.4 2.1-0.2 3.2-0.3 -1.3-0.8-2.7-2.4-3.9-2.2 -11.2 1.8-22.2 4.6-33.4 5.9 -16.4 1.9-32.9 2.9-49.4 4.2 -7.2 0.6-14.5 1.1-21.7 1.7 -0.6 0.1-1.8 0.5-1.8 0.5 -5.7-16.1-12.8 0.4-19.5-0.2 -20.8-1.9-42-0.5-63 0.3 -10.4 0.4-20.8 2.3-31.2 3.4 -1.5 0.1-3-0.7-4.6-1.2 -0.4 0.6-1.2 2.1-2.1 3.6 0-1.5 0.6-3.8-0.2-4.4 -1.3-1-3.5-1.6-5.1-1.3 -7 1.4-14 3.1-21 4.7 5.7 0.7 11.3 1.5 17 2.2 1.3 0.2 2.6 0.3 3.9 0.4 -1.4 1-2.9 3-4.3 3 -13.1 0.1-27.6 3.3-38.9-1.2 -14.8-5.9-27.7-17.4-40.2-27.9 -5.4-4.5-10.2-12.3-10.9-19 -0.5-4.9 6.1-15.1 9.7-15.2 49.8-1.5 99.6-1.7 149.5-2.2 21-0.2 42-1.1 63-0.6 22.7 0.5 45.3 2 67.9 3.5 30 2 60.1 6.5 90.1 6 48.1-0.8 96.1-5.4 144.1-7.2 30.4-1.2 60.9 0.3 91.3-0.4 40-0.9 80-2.2 120-4.6 35.6-2.1 71.1-5.7 106.6-8.9 7.4-0.7 14.8-2.9 22.2-3 25.1-0.3 50.2 0.4 75.3-0.1 14.6-0.3 29.2-3 43.8-3.1 7.2 0 14.5 3 21.5 5.4 9.8 3.4 19.7 7 28.9 11.7 1.5 0.8-0.2 8-0.6 12.2 -0.1 0.8-1.4 1.4-2.2 2.1 1-0.1 1.9-0.3 2.9-0.3 0.7 0 1.4 0.2 2.1 0.3 -0.4 0.6-0.7 1.5-1.3 1.8 -6 2.4-12.2 4.5-18.1 7.2 -5.4 2.5-10.2 6.6-15.8 8.4 -7.9 2.5-16.4 3.1-24.4 5.1 -3.5 0.9-6.4 4.4-9.9 5.1 -6.8 1.4-13.8 2-20.8 2.3 -19.4 0.8-38.8 1.2-58.2 1.7 -2.7 0.1-5.5-0.2-8.2-0.3 4.5 0.5 9 0.9 13.5 1.6 1.3 0.2 2.5 1.2 3.8 1.9 -1.1 0.6-2.3 1.8-3.3 1.7C880.2 924.9 867.1 923.2 855.3 921.6z"/><path d="M815.9 356.5c5.4 1.9 10.8 3.6 16.1 5.9 1.1 0.4 2.3 3.2 1.8 4 -1 1.8-3.1 2.9-4.7 4.3 -0.8-1.1-1.3-2.6-2.3-3.4 -1.1-0.8-2.6-1.3-4-1.6 -2.8-0.5-5.6-0.7-8.5-1 0.4-2.8 0.8-5.5 1.1-8.3 0 0 0.2 0 0.2 0L815.9 356.5z"/><path d="M381.2 265.4c0 0 0.2-0.2 0.2-0.2C381.4 265.2 381.2 265.4 381.2 265.4z"/><path d="M603.4 351.8C603.4 351.8 603.5 351.9 603.4 351.8 603.5 351.9 603.4 351.8 603.4 351.8z"/><path d="M776.5 792.3c-0.3-0.2-0.7-0.3-1-0.5 0 0 0.1-0.1 0.1-0.1C775.9 791.8 776.2 792 776.5 792.3 776.5 792.2 776.5 792.3 776.5 792.3z"/><path d="M805.4 354.3c0.3-0.3 0.5-0.5 0.8-0.8 1.1 0.8 2.2 1.6 3.3 2.4C808.1 355.3 806.8 354.8 805.4 354.3z"/><path d="M803.7 356.6c0-0.5 0-0.9 0-1.4C803.7 355.7 803.7 356.1 803.7 356.6z"/><path d="M806.9 357.5l-0.4 0c0 0-0.4 0-0.4 0C806.5 357.3 806.7 357.3 806.9 357.5z"/></svg>