<svg class="icon" xmlns="http://www.w3.org/2000/svg" viewBox="0 0 587.5 683.3"><path d="M434.3 563c-0.6 1.6-0.9 3.5-1.9 4.8 -5.5 7.5-11.2 14.8-16.9 22.1 -4.5 5.8-9.2 11.4-14.7 16.3 -4 4.2-8 8.5-12 12.7 0.2 0.6 0.4 1.3 0.6 1.9 -4 0.2-8.1 0.9-12.1 0.4 -5.6-0.7-7.4-4.1-5.6-9.5 1-2.8 2.3-5.6 3.9-8 13.5-20.4 23.6-42.4 32.1-65.4 3.8-10.5 4-21.2 6.2-31.7 1.4-7 2.8-14.1 5-20.9 2.6-8 1-11.3-5.8-15.9 -10.7-7.4-23.2-11.4-33.6-19.3 -2.2-1.7-4.9-2.7-7.7-3.8 -7.8-5.1-15.7-10.2-24.1-15.6 -1.1 1.6-2.2 3.2-3.1 4.5 4.2 7.7 4.1 12.2-0.3 17.3 0.7 0.7 1.3 1.4 2.3 2.4 -1.6 0.4-2.7 0.7-3.7 1 -0.5 2.7-1 5.4-1.6 8.6 2.1-0.8 3.7-1.4 6.6-2.5 -0.6 10.9-1.2 21-1.8 31 -0.3-0.1-0.5-0.1-0.8-0.2 -0.9 4.2-1.8 8.4-2.8 12.6 0.4 0.2 0.8 0.3 1.2 0.5 -1.6 1-3.2 2-4.7 3.1 -1.2 5.1-2.3 10.2-3.6 15.7 1.7 0.1 2.6 0.1 4.6 0.2 -1.6 5-3.2 9.8-4.5 14 -3.3 2-6.2 3.7-9.1 5.4 0.4 0.6 0.9 1.3 1.3 1.9 1.6-1.3 3.1-2.7 5.4-4.7 0.3 2.3 0.4 3.9 0.7 6 -3.4 2-6.8 4-10.6 6.3 0.8 0.5 1.7 1 3.1 1.9 -6.7 6.3-13.2 12.5-19.7 18.6 -0.5-0.5-1-1-1.6-1.5 0.8-1 1.6-1.9 2.2-2.9 0.6-1 1-2.1 0.7-3.7 -4 3.4-8 6.8-12.7 10.7 -0.7 0.1-2.4 0.2-4.1 0.4 -1.4 7.6-8.2 8-13.3 9.8 -5.3 1.9-11.4 2.5-17.1 2.4 -10.4-0.2-20 1.6-30 5 -10.6 3.6-22.4 2.8-32.5-4.3 -0.8-0.6-1.3-1.6-2.8-3.6 2.8-1.5 5-3.2 7.5-3.9 14.8-3.7 28.7-9.4 40.8-18.6 5.2-3.9 9.2-9.6 13.3-14.8 5.7-7.3 12.3-14.3 16-22.6 3.9-8.6 5.1-18.4 6.8-27.8 2.8-15 4.3-30.2 7.7-45 2.6-11.4 4-22.3 2.5-34.1 -1.5-12-0.3-24.3-0.3-37.4 -17.7 17.9-39.4 31-53 50 -1.4 15.1-2.6 28.5-3.8 41.8 0.5 0.1 1 0.1 1.5 0.2 -2.1 2.5-4.3 4.9-6 6.9 -3-0.6-5.6-1.1-9.6-1.9 5.7 7 5.7 7-2.1 15.5 -2.5-3-4.9-5.8-7.7-9.3 -2.2-0.1-5.1-0.3-8.2-0.5 0-0.8 0-1.6 0-2.2 -1.9-0.2-3.8-0.4-6.7-0.6 -3.2 2.1-6.3 0.8-9.8-2.3 -16.6-14.7-33.7-29-50.2-43.8 -8.9-8.1-17-17.1-25.6-25.5 -7-6.8-14.2-13.3-21.3-20 -5.3-5.1-10.3-10.4-15.7-15.5 -15.8-14.9-31.3-30-47.6-44.3 -6.7-5.9-15-10-22.9-15.1 -0.4-2.6-0.7-5.3-1.2-8.9 2.8-2.5 5.8-5.2 7.4-6.7 5.2-6.2 9-11.4 13.5-15.8 10.7-10.4 21.6-20.5 32.6-30.5 21.3-19.2 42.7-38.3 64.1-57.4 8.8-7.8 18.3-14.9 26.3-23.4 21-22.6 41.6-45.5 61.7-68.9C218.5 89.7 230.2 74 242 58.3c8.3-11 15.9-22.6 23.7-34 1.1-1.6 1.9-4.1 1.6-5.9 -2.4-12.8 6.8-20.3 18-17.9 7 1.5 13.7 4.1 19.5 5.8 1.5 5 2.5 8.7 3.5 12.2 2.7 0.4 4.4 0.7 6.2 1 3 4.3 6 8.6 9.2 13.2 0.7 4.2 1.6 8.9 2.4 13.7 2.1-0.2 3.2-0.3 4.7-0.4 0 1.7 0 3.2 0 4.3 3.6 4.1 6.7 8.1 10.3 11.7 11.7 11.4 23.6 22.7 35.6 34 1.3 1.2 3.3 1.9 5.1 2.5 6.8 2.3 11 7 13.3 13.7 0.6 1.6 1.4 3.2 2.6 4.3 4.4 4 8.9 7.8 13.4 11.7 -0.5 0.4-1 0.9-1.6 1.3 0 2.1 0 4.3 0 6.6 -1.1 0-2.4 0-3.7 0 -0.2 0.3-0.4 0.7-0.6 1 3.4 2.5 6.8 5.1 10.7 7.9 -1.8 1.7-3.1 3-4.6 4.3 -3.1-2-6-3.9-8.9-5.7 -0.4 0.2-0.8 0.4-1.3 0.7 0.7 3.5 1.5 7 2.2 10.7 -1.3 0.6-2.9 1.4-4.4 2.1 -0.9-0.5-2-0.7-2.4-1.3 -3.1-4.9-7.7-7.4-13-9.8 -6.9-3.2-13-8.1-19-12.9 -5.1-4.1-9.3-9.4-14.4-13.6 -5-4.2-11-7.3-16-11.4 -6.1-5.1-11.8-10.7-17.5-16.2 -7.8-7.5-15.4-15.2-23.3-23 -6.1 1.5-11.8 3.3-16.9 8.1 -7.2 6.9-16.3 12-23.8 18.7 -8.4 7.5-16.1 15.8-23.8 24 -10.2 10.7-20.4 21.5-30.4 32.5 -4.8 5.3-8.8 11.3-13.5 16.7 -7.8 9-15.9 17.6-23.6 26.7 -4.1 4.9-7.6 10.3-11.3 15.5 -0.6 0.9-1.2 1.8-1.8 2.6 -10.7 12.9-21.6 25.7-32.1 38.8 -5.9 7.3-11 15.2-16.5 22.8 -1.1 1.6-2 3.6-3.5 4.6 -6.9 4.8-10.5 11.7-14.3 18.9 -2.4 4.6-6.1 8.5-9.2 12.8 -1.1 1.5-2.1 3.2-3.4 5.1 31.1 33 71.6 54 103.8 85.1 5.8 5.2 11.6 10.5 16.6 15.1 20.2-2.2 32.7-14.5 44.4-28.2 3.4-4 6.6-7.8 12.3-9.2 2.9-0.7 5.3-3.8 7.6-6.2 16.4-17.3 32.3-35 49.2-51.7 7.3-7.2 11-15.8 15.2-24.6 4.3-9.2 9.6-17.9 14.9-26.5 6.9-11.2 14.3-22.2 21.5-33.3 -0.3-0.3-0.6-0.6-0.9-0.9 -4.6 2-9.1 4.1-13.8 6.2 -0.3 1.5-0.6 2.8-0.8 4.1 -3 1.8-5.8 3.9-8.9 5.5 -12.3 6.4-24.6 12.7-36.9 19 -10.7 5.5-21.5 10.7-32.2 16.3 -17.6 9.3-35.2 18.6-52.7 28.2 -6.6 3.6-12.7 8.1-19.3 11.7 -5.8 3.1-11.9 5.7-18 8.2 -5.9 2.4-12 4.5-18.1 6.3 -1.9 0.6-4.8 0.9-6-0.1 -11.8-9.8-25.4-17.7-33.3-31.6 -1.1-1.9-1.3-4.3-2-6.5 0.6-0.4 1.2-0.8 1.8-1.3 2 1.6 4.2 3.1 5.9 4.9 4.4 4.8 6.4 5.6 12.3 2.5 8.6-4.6 16.8-10 25.4-14.5 12.4-6.6 25-12.5 37.4-19.1 6.9-3.7 13.4-8.3 20.2-12.2 9.7-5.6 19.5-10.9 29.3-16.4 6.3-3.5 12.4-7.2 18.8-10.3 10.4-5 21-9.6 31.5-14.4 2.4-1.1 4.8-2 7.1-3.2 7.6-3.9 15.1-8 22.7-11.8 1.7-0.8 3.7-1 5.7-1.5 1.5-1.2 2.9-3 4.7-3.9 9.2-4.4 18.7-8.4 27.9-13 7.8-3.9 15.2-8.6 23-12.6 10.7-5.5 20.4-13.2 32.8-14.9 1.7-0.2 3.3-1.8 4.8-3 5.6-4.2 10.9-8.8 16.8-12.5 2-1.3 6.3-1.6 7.9-0.3 3 2.4 1.6 5.8-0.5 8.9 -5.7 8.4-11.2 17-16.7 25.6 0.4 0.2 0.9 0.6 1.1 0.7 -1.4 2.9-3.2 5.5-4 8.4 -2.9 10.1-5.3 20.3-8.1 30.4 -0.9 3.3-2.5 6.3-4.9 9.1 -0.5 3.2-0.9 6.5-1.5 10.5 4.7-0.6 9-1 13.2-1.6 3.6-0.5 7.2-1 10.7-1.6 7.7-1.3 15.4-3.1 23.2-4.1 15.9-2 31.9-3.8 47.9-5.3 2.8-0.3 5.7 1.2 8.6 1.9 1.5 0.3 3.1 1 4.6 0.9 13.7-1.2 19.6 7 22.7 18.6 0.1 0.5 0.5 0.9 0.7 1.4 0.1 0.3 0.1 0.7 0.4 2.2 -15.1 5.7-30.4 11.5-48.2 18.2 -4.5 5-13.9 3.7-20.8 5.7 -1.9 2-2.8 3.6-4.1 4.2 -9.4 4.3-19.1 7.8-28.1 12.8 -6.5 3.5-11.9 8.9-17.8 13.4 -1.4 1.1-2.7 2.2-3.3 4 -6.2 7.1-12.3 14.2-18.5 21.4 0.2 0.3 0.4 0.5 0.7 0.8 -1.8 0.7-3.5 1.4-5.4 2.1 0.2 0.6 0.3 1.3 0.4 1.7 -8.3 1.1-9.9 9.2-15 13.5 0.3 0.4 0.6 0.9 0.9 1.3 2-1.2 4-2.4 7.1-4.3 -8.2 11.8-15.8 22.6-22.9 32.9 17.6 14.2 35 27.1 51 41.6 15.9 14.3 33.2 27.1 46 44.5 2.2 3 4.3 5.9 6.2 8.5 1.4 5.7 2.8 11.1 4.2 16.6 0.3-0.1 0.6-0.2 0.9-0.4 -0.8 3.4-1.7 6.8-2.3 9.4 2.5 1.6 4.2 2.6 6.2 3.9 -1.6 2.7-2.8 4.6-3.9 6.5 0.2 0 0.4 0.1 0.5 0.1 -1 4.4-2 8.8-3 13 -1.7 2.1-3.3 4.1-5.2 6.5 -6.3-1.2-6.9 5.6-10.4 8.7 -3.8 3.4-6.4 8.2-10.1 11.6C445.7 554.5 439.9 558.6 434.3 563c0.7-1.5 1.3-2.9 2-4.4C433.9 559.5 430.7 560.2 434.3 563zM344.2 467.6c-0.7-0.3-1.3-0.6-2-0.8 -0.5 2-1 3.9-1.5 5.9 0.5 0.1 1 0.3 1.4 0.4C342.8 471.3 343.5 469.5 344.2 467.6z"/><path d="M561.7 649.2c5.9 3.3 12.4 5 15.4 11.2 -0.2 3.5-0.4 6.5-0.6 9.4 -10 12.6-24.8 6.7-37.4 9.9 -6.7 2.8-15.2-4.9-20.9 3.7 -17.7-1.2-35.4-2.3-53.2-3.7 -2.4-0.2-4.7-1.9-6.8-3.7 -6.9-0.7-13.8-4.4-19.6-2.6 -4-0.2-6.6-0.4-9.2-0.6 -3.9-0.3-7.8-1-11.8-1.1 -3.4-0.1-6.8 0.8-10.3 0.8 -3.8 0.1-7.6-0.3-11.3-1.1 -3.6 0.2-7.1 0.5-10.7 0.5 -8.7 0-17.5 0-26.2-0.3 -14.4-0.6-28.8-1.7-43.3-2.3 -4.9-0.2-9.8 0.5-14.6 0.7 -5.5 0.3-11.1 0.6-16.6 0.9 -1.3 0.1-2.6 0.5-3.8 1.5 1.3 0.1 2.6 0.3 3.9 0.4 0 0.4 0 0.7 0 1.1 -7.9 0-15.8 0-23.9 0 -0.6-0.8-1.4-2.1-2.6-3.8 -6 1.9-11.5 4.6-17.3 5.4 -6.8 0.9-13.8 0.6-20.7 0.1 -4.3-0.3-8.5-1.6-13.4-2.7 0.4 2 0.6 2.8 0.8 3.7 -9 0.5-17.8 1-26.6 1.6 -0.1-0.3-0.3-0.7-0.4-1 1.5-1 2.9-2 4.4-3.1 0-0.2-0.1-0.5-0.1-0.7 -4 0.8-8.1 1.2-12 2.3 -13.9 4-28.1 4.3-42.4 4.6 -7 0.2-13.9 0.7-20.9 0.9 -2.4 0.1-4.9-0.5-7.3-0.8 -7.2-1.1-14.5-2.5-21.7-3.1 -6.6-0.6-11.3-4.1-15.8-8.4 -1.9-1.8-4-3.4-6-5.1 -2.4-3.7-4.9-7.4-7.4-11.2 1.8-4.7 5-7.5 9.6-8.4 7.8-1.7 15.6-3.7 23.5-4.3 7.8-0.6 15.8 0.1 23.6 0.4 13.5 0.5 26.9 1.1 40.4 1.8 14.7 0.7 29.4 1.5 44.1 2.1 15.9 0.7 31.8 1.2 47.7 2 24.1 1.2 48.2 2.8 72.4 3.9 12 0.5 24.1 0.3 36.2 0.4 11.4 0.1 22.8 0.3 34.2-0.1 9.4-0.3 18.8-0.9 28.2-1.9 25.7-2.8 51.4-6.6 77.2-8.7 17.2-1.4 34.6-0.8 51.9-0.5 4.7 0.1 9.7 1.8 14.1 3.7C557.3 644.1 559.3 647.1 561.7 649.2z"/><path d="M515.5 114.6c1 1.4 1.7 2.3 1.5 2 24.4 3.3 43.4 13.1 57.2 32.6 -0.3 0.8-0.7 1.8-1.3 3.2 1.8 1.5 3.6 3 5.6 4.7 -3.4 7.4 4 10.2 6.1 15.6 -3.6 4.7-1.1 8.6 2.8 12.5 -3.7 3.9-7.2 6.9-12.2 8.2 -4.5 1.2-8.7 3.5-13 5.3 -3.6 1.6-6.8 1.4-10.3-1 -2.9-2.1-6.6-3-10-3.2 -4.9 0-9.9-0.6-14.8 0.1 -5.8 0.9-11.6 2.5-17.2 4.4 -15.3 5-30.5 10.3-45.7 15.5 -5.1 1.8-9.9 1.6-15.9-1.8 0.8-2.4 0.9-5.9 2.7-7.3 9.6-8 15-17.8 19.4-29.9 4.8-13.1 14.4-24.7 22.7-36.3 5.6-7.9 12.6-14.9 19-22.2C512.8 116 514 115.5 515.5 114.6z"/></svg>