<svg class="icon" xmlns="http://www.w3.org/2000/svg" viewBox="0 0 741.9 753.5"><path d="M540.9 441.7c-2.2-1.1-4.4-3.2-6.6-3.2 -6.4-0.1-12.9 0.7-19.4 1.1 -0.4 0-0.7 0.3-1.1 0.5 0.4 0.1 0.8 0.2 1.2 0.3 2.7 0.8 5.4 1.6 8.1 2.4 -2.3 0.5-4.5 1.4-6.8 1.4 -7.7 0.1-15.3 0-23-0.2 -9-0.3-18.1-1.1-27.1-1.4 -12.4-0.3-24.9-0.2-37.3-0.5 -0.7 0-1.3-1.4-1.9-2.1 6-2.3 12-4.7 18-7 0.7-0.2 1.4-0.2 2.1-0.4 -0.6-0.3-1.2-0.9-1.8-0.9 -5.4-0.3-10.9-0.4-16.3-0.8 -0.2 0 0-1.9-0.4-2.3 -1.3-1.1-2.8-2-4.2-2.9 1.1-0.4 2.1-1 3.2-1.3 2.8-0.6 5.6-0.9 8.4-1.4 -1.9-1.1-4.1-1.9-5.8-3.2 -2.1-1.7-4.6-3.6-5.6-6 -0.8-1.7 0.8-4.4 0.8-6.6 0.1-1.3-1-2.6-1-3.9 -0.1-3 1.2-6.4 0.1-8.8 -3.4-7.9 1.3-9.8 7.2-10.2 12.1-0.9 24.4-2.7 36.4-1.6 34.4 3 68.7 8.1 103.1 10.5 19.7 1.4 39.6-1.7 59.4-1.5 18.6 0.2 37.2 2.3 55.9 2.9 13.4 0.5 26.8-0.5 40.2 0 3.6 0.1 9.2 2 10.3 4.7 1.8 4.2 1.1 9.7 0.7 14.5 -0.5 5.4-1.7 10.7-2.8 16 -1.6 8.5-3.9 16.9-4.9 25.4 -0.7 6.7 0.7 13.6 0.3 20.4 -0.7 9.7-2.6 19.4-3.2 29.1 -0.8 11.3-0.7 22.6-1.3 33.9 -0.1 3-1.5 5.9-1.8 8.9 -0.2 3 0.3 6.1 0.6 9.1 0 0.1 0.9 0.4 0.9 0.3 0.7-1.2 1.3-2.4 1.9-3.6 0 2 0.1 4.1 0 6.1 -0.5 8.5-2 17-1.5 25.4 0.6 10.7 2.9 21.3 4.3 32 0.5 4 1.4 8.1 0.9 11.9 -0.6 4.3-2.7 8.3-3.9 12.5 -0.3 1 0.5 2.4 0.8 3.6 0.4-0.8 0.6-2 1.2-2.3 1.1-0.4 3.4-0.6 3.5-0.3 0.5 1.6 0.6 3.4 0.7 5.1 0.4 7.7 0.8 15.4 1 23.1 0.1 4.2-1.3 8.7 0 12.4 1.7 4.8 5.4 8.9 8.2 13.3 0 4.8 0 9.5 0 14.3 0 0.2 0 0.4 0 0.6 0 2.7 0 5.4 0 8.1 -4.6 5.9-9.1 12-13.9 17.7 -3.1 3.8-6.8 7.2-10.2 10.7 -0.4 0.4-1.3 0.7-1.9 0.5 -4-1.3-8-2.7-12.1-4 -3.4-1.1-6.8-2.7-10.3-3.2 -2-0.3-4.3 2.1-6.4 2 -11.9-0.9-23.8-2.6-35.8-3.3 -6.5-0.4-13 0.5-19.5 0.6 -0.7 0-1.7-1-2.1-1.8 -0.2-0.4 0.5-1.5 1.1-1.9 0.5-0.4 1.4-0.2 2.1-0.4 3.2-0.5 6.3-1.1 9.5-1.7 -3.7-1.3-7.2-3.6-11-3.9 -10-0.8-20-0.9-30-1.1 -1 0-2 1.5-3.1 2.3 -3.4-1-6.9-2.2-10.4-2.9 -0.5-0.1-1.4 1.9-2.2 2.9 -1.2-0.8-2.4-2.3-3.5-2.2 -3.2 0.3-6.4 2-9.5 1.7 -9.2-0.8-18.3-2.4-27.5-3.6 -0.8-0.1-1.7 0.8-2.5 1.3 1.1 0.3 2.2 0.7 3.3 1 1.9 0.4 3.8 0.6 5.6 0.9 -1.5 1.1-3 2.1-4.5 3.2 -0.3 0.2-0.8 0.1-1.2 0.3 -0.5 0.2-1.1 0.5-1.6 0.7 1.8 1.1 3.6 2.4 5.5 3.2 2.8 1.2 5.8 2 8.6 3 -8.2 0.4-16.3 1.1-24.5 1.1 -8.3 0-16.7-0.8-25-1.4 -0.5 0-1.3-1.3-1.3-2.1 0-0.8 0.5-1.8 1.2-2.3 0.8-0.6 2-0.7 3-1.1 -1.9-0.1-3.7-0.2-5.6-0.3 0 1.2 0 2.3 0 3.5 0 0.5 0.3 1.5 0.2 1.6 -1.4 0.7-2.9 1.7-4.4 1.8 -4 0.2-8 0-12-0.1 -1.4 0-2.8-0.2-4.2-0.4 1.7-0.7 3.5-1.3 5.2-2 0.6-0.2 1.3-0.6 1.9-0.9 -0.7-0.3-1.4-1-2-0.9 -10.7 1-21.5 2.4-32.2 2.9 -5.8 0.3-11.7-1.2-17.5-1.2 -8.7 0-17.4 0.6-26.1 0.8 -12.9 0.3-25.8 0.2-38.7 0.8 -10.6 0.4-21.1 1.9-31.7 2.2 -7 0.2-14.1-0.9-21.1-1.4 1.2-0.3 2.3-0.7 3.5-1 4.4-1.1 8.7-2.1 13.1-3.2 0.3-0.1 0.6-0.7 0.9-0.7 3.3-0.4 6.7-0.8 10-1.3 0.9-0.1 1.8-0.5 2.7-0.8 -0.9-0.8-1.8-2.2-2.7-2.2 -5.2 0.2-10.6-0.2-15.6 1.2 -7.2 2-14.1 5.3-21.2 8 -6-0.5-12.2-1.8-18.1-1.3 -6.2 0.5-12.2 3-18.4 3.8 -2.2 0.3-4.7-1.6-7-2.5 0 0.4 0 0.8 0 1.1 -8.7 0.7-17.5 1.4-26.3 2.1 -4.8 0.4-9.6 1.1-14.5 1.2 -0.9 0-1.8-3.2-2.7-3.2 -5.1-0.1-10.2 0.8-15.3 0.5 -3.9-0.2-7.7-2-11.7-2.5 -6.2-0.8-12.4-1.1-18.6-1.8 -0.7-0.1-1-1.6-1.8-2.3 -1.1-0.9-2.4-1.6-3.6-2.4 -0.2 0.4-0.5 0.8-0.7 1.1 0.7 0.3 1.3 0.5 2 0.8 -1.9 0.8-3.8 2.2-5.7 2.3 -10.9 0.9-21.9 1.1-32.8 2.3 -4.1 0.5-7.9 3.4-12.1 4.6 -1.9 0.6-4.2-0.7-6.2-0.3 -10.9 2.1-21.6 4.6-32.5 6.6 -3.1 0.6-6.5 0-9.8-0.5 -2.6-0.4-5.2-2.5-7.5-2.1 -5.5 1-10.7 3.6-16.1 4.4 -4.9 0.7-9.9 0-14.9-0.1 1.8-2 3.5-3.9 5.3-5.9 -2.9 0.3-5.7 0.4-8.6 0.8 -3.5 0.5-6.9 1.2-10.4 1.8 -0.9 0.2-1.9 0.3-2.8 0.5 0.8 0.2 1.5 0.5 2.2 0.6 4 0.8 8 1.5 11.9 2.2 -6.2-0.5-12.3-1.1-18.5-1.6 0.2-0.7 0.3-1.6 0.7-2.2 0.5-1 1.7-1.9 1.7-2.8 0-0.7-1.3-1.5-2.1-2.3 -2.2-2.1-4.8-4-6.5-6.4 -2.2-3.2-4.1-6.8-5.6-10.5 -3.5-8.9-9.6-17.5 2.5-26.2 3.3-2.3 0.8-12.8 0.8-19.6 -0.1-25.2-0.1-50.3-0.3-75.5 -0.3-26.5-0.9-53-1.1-79.4 -0.1-10.6 1-21.2 0.9-31.8 -0.1-9.6-1.6-19.2-1.9-28.9 -0.5-14.5 0-29-0.8-43.5 -0.2-4.7-2.9-9.3-4.6-13.9 -0.5-1.2-2.7-2.6-2.5-3.1 1.2-2.4 2.9-4.5 4.5-6.8 0.1-0.1 0.1-0.3 0-0.4 -0.6-3.3-1.1-6.6-1.9-9.8 -0.5-1.9-2.3-3.8-2-5.5 2.7-15.7 3.6-15.5 22.1-14.1 20.6 1.5 41.4 1.8 62 2.1 33.4 0.5 66.8 0.9 100.1 0.5 19.5-0.3 39-3.1 58.6-3 5.3 0 12.8 5.1 15.4 10 3.3 6.2 3.1 14.5 3.4 21.9 0.2 4.8-1 9.7-1.8 14.5 -0.7 4-0.6 9.6-3.1 11.5 -4.5 3.4-10.8 6.3-16.2 6.2 -11.1-0.2-22.2-3.2-33.4-3.8 -14.9-0.7-29.9-0.3-44.9-0.3 -11 0-22.1 0-33.1 0.2 -12.9 0.2-25.7 0.5-38.6 0.8 -11.5 0.3-22.9 0.5-34.4 1 -0.4 0-0.9 3.4-0.9 5.3 0.1 8.9 0.7 17.8 0.6 26.8 -0.1 5.5-1.7 11-1.4 16.4 0.3 6.4 2 12.7 3.1 19.1 0.5-0.4 1.4-0.8 1.4-1.4 1.1-6.9 1.9-13.9 3-20.8 0.1-0.8 0.9-1.7 1.6-2.1 0.3-0.2 1.8 0.6 1.8 1 -0.1 10.6-0.6 21.2-0.4 31.8 0.1 9 1.1 18 1.5 27 0.2 4.8 0.2 9.5 0.2 14.3 0 2.1-0.4 4.3-0.7 6.4 -0.8-2-1.6-4.1-2.2-6.1 -0.2-0.7-0.2-1.6-0.2-2.4 -0.2 0.8-0.7 1.8-0.5 2.4 0.9 2.7 2.7 5.2 3 7.9 0.3 2.9-0.6 6-1 8.9 -0.5 3.8-1.4 7.5-1.6 11.3 -0.1 1.2 2.1 2.4 2.2 3.6 0.4 9.3 0.5 18.6 0.6 27.9 0 0.7-0.4 1.3-0.6 2 -0.2-0.5-0.2-1.2-0.5-1.6 -0.3-0.5-0.8-0.8-1.3-1.2 -0.2 0.5-0.4 0.9-0.5 1.4 -0.1 10.7-0.3 21.3-0.2 32 0 1.5 1.6 2.9 2.5 4.4 0.8-0.7 1.5-1.4 2.3-2.1 -0.7 0-1.5 0.2-2.2 0 -0.5-0.1-1.4-0.8-1.3-1.1 1-5.5 2.2-11 3.3-16.4 0-0.2 0.3-0.3 0.4-0.4 1.1 1.2 2.7 2.2 3.1 3.6 0.4 1.2-0.6 2.9-0.7 4.4 -0.3 3-0.7 6.1-0.6 9.1 0.1 3.4 0.8 6.8 1.2 10.2 -0.7 0.2-1.4 0.3-2 0.5 -1.8-1.4-3.6-2.8-5.5-4.2 -0.4 1.8-1.2 3.6-1.2 5.4 0.1 10.2 1 20.5 0.3 30.6 -0.4 6.2 0 10.1 7.4 9.4 0.3 0 0.6 0 0.9 0 6 0.2 12 0.9 17.9 0.6 22.2-0.9 44.4-2.1 66.6-3.1 29.8-1.4 59.6-2.8 89.3-4.2 16.1-0.7 32.3-1.8 48.4-2.1 18.3-0.3 36.7-0.4 55 0.1 22.2 0.5 44.4 2.2 66.6 2.4 26.9 0.2 53.8-0.7 80.7-1.1 31.7-0.4 63.3-0.6 95-1.2 27.2-0.5 54.4-1.6 81.6-2 15.5-0.2 9.7-14 10-19.5 1.3-22-0.7-44.1-1.3-66.3 -0.4-13.1-0.8-26.2-0.9-39.2 -0.1-15.5-0.1-30.9 0.2-46.4 0.3-18.3 1.2-36.5 1.1-54.8 0-1.6-4.9-4.4-7.7-4.7 -14-1.5-28.1-2.8-42.2-3.4 -8.2-0.4-16.5 1.2-24.7 1 -8.6-0.2-17.2-1.7-25.8-2.1 -10.9-0.5-21.9-0.5-32.9-0.9 -2.9-0.1-5.7-0.7-8.6-1.1 0.2-0.7 0.5-1.4 0.7-2.2C540.7 442.3 540.8 442 540.9 441.7z"/><path d="M384.3 457.8c0.5 1 1.2 1.9 1.3 3 0.6 3.6 0.9 7.2 1.6 10.7 0.6 2.7 2.3 5.3 2.4 8 0.2 7.2-0.8 14.5-0.3 21.7 0.3 4.9 2.9 9.5 3.6 14.4 1.1 7.5 2.5 15.2 2 22.7 -0.8 11.4 2.3 14.9 14.6 13.8 18.5-1.6 37.2 0 55.8-0.3 25.4-0.3 50.7-1.4 76-1.4 5.7 0 14.9 1.7 16.4 5.2 2.3 5.2-1.1 12.7-1.7 19.3 -0.2 2 0.8 4.2 1.2 6.3 0.2 0.8 0.6 1.8 0.4 2.5 -1 3.7-1.6 7.6-3.5 10.8 -1.4 2.4-4.6 3.6-7 5.4 -2.5 1.9-4.7 4.2-7.5 5.5 -2 1-4.6 0.6-6.9 0.8 -2.9 0.2-5.8 0.7-8.7 0.5 -1.7-0.1-3.3-1.6-5.1-1.9 -4-0.5-8-0.6-12.1-0.8 -1.4-7.4-5.9-6.9-11.1-4.2 -3.2-0.4-6.4-1.2-9.6-1.3 -5.3-0.2-10.6 0-15.9 0.1 0.3 0.5 0.6 1.5 0.9 1.5 8.4 0.3 16.8 0.5 25.1 0.8 3.9 1.6 7.8 3.3 11.8 4.9 1.1 0.6 2.2 1.2 3.3 1.8 -1.2 0.4-2.5 1.3-3.7 1.2 -20.8-1.1-41.7-2.3-62.5-3.6 -8.1-0.5-16.2-1.8-24.3-2 -6.5-0.2-13 1.5-19.4 0.9 -11.5-1.2-22.9-4.3-34.4-5.1 -10.5-0.7-21.2 0.2-31.8 1.1 -2 0.2-3.7 3.6-5.5 5.5 3.3 1.1 6.6 2.1 9.9 3.1 0.9 0.3 1.8 0.2 2.8 0.3 -1 0.6-2 1.6-3 1.7 -12.2 0.7-24.4 1.7-36.7 1.9 -17.1 0.2-34.1-0.4-51.2-0.1 -15.2 0.3-30.4 1.5-45.6 1.7 -2.7 0-5.5-2.7-8.3-4.2 1.4-0.5 3-0.7 4.2-1.6 1-0.7 1.4-2.1 2.1-3.2 -1.1-0.2-2.8 0-3.4-0.7 -2.7-3.5-6.3-6.9-7.4-11 -1.2-4.5 0.3-9.6 0.2-14.4 0-3.2-0.9-6.4-0.9-9.7 0-1 2.3-2.1 2.2-3.1 -0.2-2.7-2.4-6.1-1.5-8 2.4-5.1 6.3-13.7 9.2-13.6 8.8 0.5 17.3 5.6 26.2 6.9 9.6 1.4 19.4 0.6 29.2 0.7 26.4 0.4 52.8 1 79.2 0.6 1.5 0 4.1-8.3 4-12.6 -0.4-18.3-2.4-36.5-2.6-54.7 -0.3-30.3 0.6-60.6 0.7-90.9 0-20.1-0.9-40.2-0.8-60.4 0.1-22.6 0.3-45.3 1.3-67.9 1.4-32.2 4.1-64.3 5.4-96.5 0.7-16.5-0.5-33.1-1-49.7 -0.1-1.9-1.1-3.7-1.8-5.6 -1.5 1.7-3 3.4-4.6 4.9 -0.8 0.7-2 1-3 1.5 0.4-1 0.8-1.9 1.3-2.9 1.3-2.5 2.6-5 3.9-7.5 -0.7 0.3-1.6 0.4-2.1 0.9 -2 2.1-3.9 4.3-5.6 6.6 -4.2 5.6-8.8 10.9-12.3 16.9 -1.7 2.9 0.1 8.1-1.8 10.4 -6.2 7.5-13.4 14.2-20.3 21.2 -6.5 6.6-13.1 13-19.6 19.6 -0.4 0.4-0.3 1.4-0.4 2.1 1.4 0.1 3.2 0.7 4 0.1 2.1-1.6 3.6-4 5.6-5.7 1.5-1.3 3.5-2 5.3-2.9 -1.5 1.9-2.8 4.2-4.6 5.8 -8.3 6.8-16.7 13.4-25.1 20.1 -0.1 0-0.3 0.1-0.4 0.1 -1 0.4-1.9 0.9-2.9 1.3 -0.9-0.8-1.8-1.6-2.6-2.5 -1.3 1.5-2.6 3-3.9 4.5 0 0.5 0 0.9 0 1.4 -0.2 0.5-0.4 1-0.6 1.5l0 0.2c0.3 0.4 0.6 0.8 0.9 1.2 0.1 0.1 0.2 0.2 0.2 0.3 -5.5 3.5-11.4 6.5-16.3 10.7 -5.8 5-10.5 11.3-16.2 16.4 -9 8.1-18.8 15.3-27.8 23.4 -6 5.4-11.1 11.6-16.7 17.4 -6.8 7.1-13.7 14.3-20.7 21.2 -0.8 0.8-2.8 0.3-4.2 0.5 0.3-1 0.3-2.2 0.9-3.1 15.8-24 31.6-48 47.6-71.9 13.2-19.7 26.2-39.5 39.8-58.9 20.8-29.7 41.6-59.3 63.2-88.4 10.9-14.6 23.9-27.7 35.3-42 3.6-4.5 6.8-10.4 7.4-15.9 1.7-15.9 13.1-18.1 25.3-20.2 2.5-0.4 4.8-1.6 7.3-2.4 0.2 0 0.4 0 0.6 0 7.2 10 14.8 19.8 21.4 30.2 4.8 7.7 8.4 16.2 12.4 24.3 1.9 3.8 3.7 7.7 5.7 11.4 1.3 2.3 3.1 4.3 4.6 6.4 -0.4-1.5-0.8-3-1.1-4.5 -0.1-0.3 0.6-1.1 0.7-1.1 1.4 0.6 3.4 1 4 2.1 4.1 8 7.7 16.4 11.9 24.3 1.8 3.3 5.4 5.7 7 9.1 4.8 9.8 8.8 20 13.7 29.8 3.6 7.2 8.2 13.8 12.1 20.8 1.7 3 2.2 6.7 4.1 9.5 3.1 4.7 6.9 9 10.4 13.5 0.8-1.6 1.4-4.1 2.6-4.4 1.9-0.5 5.7-0.1 6.1 0.9 5.7 14.7 10.1 29.9 16.4 44.3 4.4 10.1 12.4 18.8 16.5 29 3.8 9.3 4.2 19.8 7 29.6 2.5 8.9 6.1 17.5 9.2 26.2 2.7 7.8 4.9 15.9 8.3 23.4 3 6.4 7.5 12.1 11.2 18.3 1.1 1.9 2.1 4 2.4 6.2 0.3 2.2-0.2 4.6-0.4 6.8 -3.3-2-7.4-3.3-9.6-6.1 -11.9-15.1-23.2-30.6-34.9-45.7 -2.8-3.6-6.3-6.6-9.6-9.8 -0.2-0.2-0.8 0-1.1-0.2 -2.5-1.4-5.7-2.3-7.3-4.4 -15-19.5-30.3-38.8-44.1-59.1 -7-10.3-10.4-23.1-16.8-33.9 -14.4-24.1-29.6-47.7-44.6-71.5 -1.4-2.2-3-4.3-4.5-6.4 -0.3 3.5-0.7 6.9-1 10.4 -0.8 13.6-1.5 27.1-2.4 40.7 -1.2 18.8-2.8 37.5-3.7 56.2 -0.6 13.2-0.4 26.4-0.6 39.6 -0.1 4.9-0.6 9.8-0.5 14.6 0.1 4.6 0.8 9.3 1.2 13.9 0 0.1 0.6 0.3 0.8 0.2 1-0.5 2-1 3.1-1.6 0 2-0.1 4-0.1 6.1 0 6.7 0 13.4 0 20.1 0 0.6-0.3 1.5-0.8 1.7 -0.7 0.3-1.6 0.2-2.4 0.3 0-0.6 0-1.1 0-1.7 0-0.7 0.3-1.7 0-2.2 -0.2-0.4-1.3-0.3-2-0.4 -0.1 1-0.4 2-0.3 2.9 0.6 4.7 1.5 9.4 1.9 14.2 0.1 1.5-0.9 3.1-1.1 4.6 -0.4 3.1-0.8 6.2-0.8 9.3 0 0.4 3.8 0.8 3.8 1.1 -0.1 4.1-0.3 8.3-1.1 12.3 -0.7 4.1-2.9 8.2-3.1 12.3 -0.9 25.3-1.5 50.5-1.9 75.8 0 2.3 1.9 4.7 2.9 7C384.2 456.8 384.3 457.3 384.3 457.8zM493.9 206.4c0.3-0.1 0.6-0.3 0.9-0.4 -0.3-0.6-0.5-1.2-0.8-1.8 -0.6 0.6-1.9 1.3-1.8 1.6 1.8 5.4 3.7 10.8 5.8 16.1 0.2 0.4 1.4 0.3 2.2 0.5 -0.1-0.8 0-1.8-0.3-2.5C497.9 215.3 495.9 210.8 493.9 206.4zM513.4 246.3c-2.8-7.2-5.3-13.5-7.8-19.7 -0.2-0.5-1.2-0.6-1.8-0.9 -0.1 0.3-0.3 0.7-0.2 0.9 1.7 4.7 3.1 9.5 5.2 14.1 0.9 2.1 3.1 3.6 4.7 5.4C513.7 245.9 514 245.5 513.4 246.3z"/><path d="M384.3 457.8c0-0.5-0.1-0.9-0.1-1.4 -0.2-7.3-0.4-14.7-0.5-22 0-1.4 0.5-2.8 0.8-4.3 0.1 1.5 0.3 2.9 0.4 4.4 0.2 1.6 0.4 3.2 0.7 4.8 0.3-1.4 0.9-2.9 0.7-4.2 -0.6-4.9-2.4-9.9-2.2-14.7 0.2-6.2 1.9-12.4 3-18.6 0-0.1 0.4-0.2 0.7-0.3 0.7 1.9 1.9 3.9 1.9 5.8 0.1 15.4 0.2 30.8-0.1 46.2 0 1.9-2.1 3.7-3.4 5.4C386.1 458.8 385 458.1 384.3 457.8z"/><path d="M348.5 602.8c-1.4-0.2-2.8-0.4-4.1-0.7 -0.1 0-0.1-0.7-0.1-1.1 1.5-0.1 3-0.5 4.4-0.3 8.2 0.8 16.4 1.4 24.5 2.6 6 0.9 11.8 2.6 17.7 4 0.2 0.1 0.5 0.6 0.4 0.7 -0.4 0.5-1 1.4-1.4 1.4 -10-0.6-20.1-1.6-30.1-2 -4-0.2-8.1 0.6-12.1 0.9 -0.4 0-0.8 0.3-1.3 0.5 -0.1-0.5-0.4-1.1-0.2-1.3 0.8-0.9 1.6-1.9 2.6-2.4 1.4-0.8 3-1.2 4.6-1.8 -1.5-0.3-3.1-0.6-4.6-0.9C348.6 602.4 348.5 602.6 348.5 602.8z"/><path d="M69.7 651.7c0.7-0.2 1.4-0.3 2-0.5 0 7.5 0 15-0.1 22.5 0 2.4-0.9 4.9-0.7 7.3 0.1 1 2.7 2 2.7 2.9 -0.3 3-1.2 6-1.9 9 -0.3 0-0.6 0-0.9 0 -1.8-1.4-5.4-3-5.3-4.2C66.5 676.3 68.2 664 69.7 651.7z"/><path d="M560.4 740.1c5.1-1.9 10.2-4.1 15.4-5.8 2.2-0.7 4.7-0.4 7-0.6 0.1 0.1 0.1 0.2 0.2 0.3l0.1 0.1c4.7-0.1 9.4-0.2 14.1-0.3l0.3 0c0.2-0.1 0.4-0.1 0.6-0.1 0.1 0.5 0.3 0.9 0.4 1.3 0 0-0.2 0.2-0.2 0.2 -0.1 0.1-0.3 0.3-0.3 0.4 0.1 0 0.3 0 0.4 0 0.2 0 0.4-0.1 0.6-0.1 0 0.7 0 1.3-0.1 2 -0.1 0-0.3 0.1-0.4 0.1 -9.8 0.8-19.7 1.7-29.5 2.4C566.1 740.2 563.2 740.1 560.4 740.1z"/><path d="M252.7 210.1c0-0.5 0-0.9 0-1.4 2.2-0.4 4.4-0.8 6.6-1.2 0.1 0.1 0.3 0.2 0.4 0.3l0.2 0c0.2-0.1 0.3-0.2 0.5-0.2l0.1 0c0.2 0.1 0.3 0.2 0.5 0.2l0.2 0c0.2-0.1 0.3-0.1 0.5-0.2 -0.7 0.6-1.4 1.3-2.2 1.9 -0.1-0.1-0.3-0.1-0.5 0 -1.9 1.3-3.7 2.6-5.6 3.9 -0.1-0.1-0.1-0.2-0.2-0.3C252.9 212.1 252.8 211.1 252.7 210.1z"/><path d="M598 733.7c0.1-0.6 0.2-1.3 0.3-1.9 2.2 0.9 4.5 1.7 6.7 2.6 -0.3-0.2-0.6-0.4-0.9-0.6 -0.1 0.4-0.1 0.8-0.2 1.2 0 0-0.2 0.1-0.2 0.1 -0.6-0.2-1.2-0.5-1.7-0.7 0-0.2 0-0.4 0.1-0.6 0-0.1 0.1-0.1 0.1-0.2 -0.1 0.1-0.1 0.1-0.2 0.1 -0.2 0-0.4 0-0.6 0 0 0-0.1 0-0.1 0 -0.8 0.4-1.6 0.8-2.3 1.2 0 0-0.1 0.1-0.1 0.1 -0.2 0-0.3 0-0.5 0C598.3 734.6 598.2 734.2 598 733.7z"/><path d="M259.3 206.7c1-0.4 1.9-0.9 2.9-1.3 0.3 0.1 0.6 0.3 0.9 0.4 -0.5 0.6-1 1.2-1.5 1.9 -0.1 0.1-0.3 0.1-0.4 0.2 0 0-0.2 0-0.2 0 -0.2-0.1-0.3-0.2-0.5-0.2 0 0-0.1 0-0.1 0 -0.2 0.1-0.3 0.2-0.5 0.2 0 0-0.1 0-0.1 0 -0.1-0.1-0.2-0.2-0.4-0.2C259.3 207.3 259.3 207 259.3 206.7z"/><path d="M540.9 441.7c-0.1 0.3-0.2 0.6-0.3 0.8C540.7 442.3 540.8 442 540.9 441.7z"/><path d="M252.1 211.6c0 0 0 0.2 0 0.2C252.1 211.8 252.1 211.6 252.1 211.6z"/><path d="M583 734c0 0 0.1 0.1 0.1 0.1S583 734 583 734z"/><path d="M597.2 733.8c0 0 0.3 0 0.3 0S597.2 733.8 597.2 733.8z"/><path d="M598.2 735.6c-0.1 0-0.2 0.1-0.3 0.1 0.1-0.2 0.2-0.3 0.3-0.4C598.2 735.4 598.3 735.5 598.2 735.6z"/><path d="M601.4 735c0-0.2 0-0.4 0-0.6 0.2 0 0.4 0 0.5 0C601.8 734.6 601.6 734.8 601.4 735z"/></svg>