<svg class="icon" xmlns="http://www.w3.org/2000/svg" viewBox="0 0 806.4 804.1"><path d="M262.9 214.3c-5.8 2.2-11.6 4.3-17.3 6.7 -1.1 0.5-2.7 2.4-2.4 2.8 0.7 1.3 2.2 2.1-1.4-1 -25.8 7.7-55.5 16.5-82.8 24.7 -22.9-20.8-39.5-35.7-56-50.6 2.1-0.2 4.3-0.4 5.4-0.6 -0.7-4.7-1.2-8.8-1.8-12.8 -0.7-0.3-2.2-0.8-3.7-1.3 -1.5-2.4-3-4.8-4.5-7.1 1.5-0.1 3-0.2 9.4-0.8 -10.4-7.6-17.9-13-26.2-19 -1.6 0.9-4.1 2.3-7.4 4.1 -1.8-17.5-3.6-34.8-5.6-53.8 8.7-6.1 20.4-11.3 27.9-20.2 13.3-15.9 29.6-32.5 34.2-51.4C136.6 9.7 154.6 8.1 170.2 0c2.8 5.8 8.7 12.3 7.7 17.4 -4.7 26.3 12.9 19 26.8 20 18.4 1.4 36.6 4.7 54.9 7.6 19.1 3 38.1 6.3 57 13.1 1.7 0 3.5-0.3 5.1 0.1 16.1 3.5 32.2 7.3 48.4 10.5 26.7 5.3 53.5 9.8 80.2 15.3 32.8 6.8 65.2 17.5 98.3 20.6 43.8 4.1 88.2 2.5 132.3 3.2 33.2 0.6 66.4-0.3 99.4 2.3 6.3 0.5 11.7 14 17.4 21.6 0.5 0.6 0.7 1.4 1 2.1 0.7-0.5 1.5-0.9 2.2-1.4 0.8 2.5 1.7 5 2.5 7.4 -17.3 5.2-34.6 10.4-59.9 18 7.4-8.1 8.6-9.4 11.8-12.9 -15.9-0.7-30.2-1.4-41.6-2 -11.8 1.5-21.1 2.7-31.8 4.1 0.1-0.2-0.5 2-1 3.5 -7.7 1.2-15.4 2.3-28.2 4.3 7.9 1.3 10.5 1.8 12.1 2 -32 4.2-64.6 8.5-95.9 12.6 -1.1-0.9-0.3-0.3 1 0.8 -19.5 0-38.3 0-65.7 0 10.3-2.6 11.9-3 15.3-3.8 -2.6-0.7-3.7-1-4.1-1.1 1.1-0.8 2.7-1.9 4.2-3 -0.5-0.7-1-1.3-1.5-2 -4.5 3.3-9.1 6.7-9.7 7.2 -43 5.8-82.6 11.2-120.8 16.3 -0.4 2-0.7 3.6-0.8 4.2 -12.8 1.2-24.4 2.2-45 4 13.6 2.4 18.7 3.3 28.3 5 -7.5 1.9-10.8 2.7-14.3 3.6 0.6 0.9 1.4 2.3 2 3.1 -6 0.8-12.4 1.6-18.5 2.5 0 0.7 0-0.5 0-0.1 -6.8 1.7-13.7 3.5-20.5 5.2 -0.5-1.5-0.9-3.1-1.4-4.6 -8.1 4.7-16.2 9.3-24.6 14.2 0.4-1.3 0.8-2.5 1.2-3.9 -2.2-0.1-4.1-0.2-6.5-0.3 2-3 3.7-5.7 5.4-8.3 1.2 2 1.8 3 2.4 4 2.3-2 4.5-3.9 7-6.1 -7.3 0-13.4 0-20.9 0 -2.2 1.9-4.6 4.1-7.1 6.3 0 0 0 0.1 0 0.1 -0.6-1.9-1.2-3.8-1.8-5.8 -1.6-0.6-3.2-1.3-4.8-1.9l0.1 0c-4.1 1.5-8.2 3-12.4 4.6 0 0-0.1 0-0.1 0 1.5 1.3 3 2.5 4.6 3.8 0 0-0.1-0.1-0.1-0.1 0.7 0 1.4 0 2.1 0l0.1 0.1c0.4 0.5 0.9 0.9 1.3 1.4C263 214.4 262.9 214.3 262.9 214.3zM557.8 155.9c0-0.6 0-1.2 0-1.8 -8.7-0.4-17.4-0.8-27.2-1.3 2.7 8.1 4.5 13.9 4.9 14.9 7.6-2.1 6.6-1.8-0.4 0.1 9.4-0.8 12.6-1.1 15.1-1.3 -0.2-3.9-0.3-6.8-0.5-10.1C552.4 156.2 555.1 156.1 557.8 155.9z"/><path d="M695.1 412.9c3.8 1.5 5.7 2.3-1-0.4 -58.4 4.5-125.3 9.7-192.3 14.8 -0.2-0.6-0.4-1.3-0.7-1.9 -5.5 1.1-11 2.3-15.5 3.2 -0.4 0.6 0.3-0.4 1.7-2.6 -5 0.9-8.8 1.7-8.1 1.5 -18.4 1.4-32.5 2.4-46 3.4 -0.1 0.3 0.4-0.9 1.7-3.5 -20.1 2.7-39.1 5.2-58.1 7.8 0.1 1.1 0.1 2.3 0.2 3.4 7.4 0 14.8 0 22.2 0 0.1 0.9 0.2 1.8 0.2 2.7 -12.4 2.2-24.8 4.4-37.2 6.7 0.2-2 0.5-4 0.7-6 -10.4-1-20.9-1.9-33.5-3.1 2.3 4.4 3.5 6.6 5.3 9.8 -13.9 2.3-28.2 4.7-43.3 7.2 -0.3-1.2-0.9-3.1-2.2-7.5 -24.8 1.8-50.3 3.6-77.3 5.6 1.3 4.8 1 3.6 0.4 1.5 -1.3 2.5-2.1 4-2.7 5.2 -1.3-1.8-2.4-3.4-3.5-5 -1.3 1.1-2.6 2.2-5 4.2 -23.9 4-49.4 7.9-74.8 12.7 -3 0.6-5.2 5.7-7.8 8.7 2.6 0.5 5.1 1.5 7.6 1.3 7.5-0.3 14.9-1 23.6-1.7 -0.5-1 0.5 0.9 1.5 2.9 2.2-1.1 4.2-2.1 7.1-3.5 -1.5-1.8-2.8-3.3-4-4.7 -0.2 0.7-0.4 1.4 0 0.1 2.3-0.6 5.9-1.6 10.6-2.8 -1.5 1.7-2.3 2.6-1.5 1.7 26.8-3.4 55.2-7.1 83.5-10.7 0.1 1.4 0.2 2.8 0.4 4.2 2-0.2 3.9-0.4 11.5-1.2 -12.7 3.9-20.4 6.3-32.5 10 -0.4 0-6.5 0-13.8 0 0.7 0.8 0 0-0.7-0.7 -0.9 1.2-1.7 2.4-2.7 3.8 -0.7-0.6-1.5-1.3-1.7-1.5 -9.8 4.8-19 9.2-30.8 14.9 -0.6 0.4-3.8 2.5-2 1.3 -9.4 1-13.4 1.3-17.3 1.9 -0.3 0.1-0.7 2.4-0.3 3.2 0.4 0.8 1.8 1.3 2.9 1.4 1 0.1 2.1-0.5-4.5 1.3 4.3-0.2 0.8 0-4.6 0.3 1-2 0.7-1.3 0.9-1.8 -3.5-0.4-6.7-1-10-0.9 -0.8 0-1.5 2.4-1.8 2.9 -1.1-2.1-2.9-5.3-2.1-3.9 -17.5 4.4-32.5 8.2-48.4 12.2 0-4.4 0-2.9 0-1.4 -7.6-2.2-15.2-4.4-23.5-6.9 0.3-0.7-0.2 0.6-1 2.2 -3.6-3.4-7.2-6.5-10.2-10 -0.5-0.5 1.7-3.3 4.1-7.9 -8.4-7.8-18.3-16.8-27.5-25.4 -0.5 0 0.5 0 2.1 0 -6.7-7.7-13-15.1-19.2-22.4 -1.8 1.2-3.4 2.2-4.8 3.2 -3.3-6.9-8.1-13-9.2-19.7 -6.2-36.8 28.9-52.3 42.1-79.3 8-16.4 15.6-34.2 27.9-46.8 11-11.3 26.5-13.4 30 10.8 0.6 4 9.9 7.4 15.7 9.7 11.7 4.6 23.6 8.9 35.8 12.3 20.8 5.7 41.8 10.7 62.8 15.9 20.2 5 40.4 10.4 60.8 14.3 11.6 2.2 23.7 1.6 35.2 2.2 0 0-0.7 0.4-1.3 0.7 0 1.8 0 3.7 0 5.5 85.6 0 171.3 0 261.5 0 -5 6.8-5.4 7.4-4.7 6.4 81.3 4 163.4 8 245.5 12 0 1.9 0.1 3.7 0.1 5.6 -4.1 0.4-8.1 0.9-13.8 1.5 3.1 0.8 4.6 1.2 8.9 2.3C768.2 401.4 732.8 407 695.1 412.9z"/><path d="M172.6 790.7c-1.1 0.1-3.1 0-3.3 0.5 -1.6 4.3-2.9 8.6-4.3 13 -11.6-9-23.1-18.1-34.9-26.9 -4.8-3.5-10.1-6.3-14.5-9 0.1-0.3 2.3-2.8 1.7-4 -2.6-5-6-9.6-9.8-15.5 -0.6-2.4-1.1-7.2-3-11.2 -4.4-9.2-9.6-18.1-12.5-23.5 -4.1-5.4-5.7-7.6-8.4-11 0.6-1.5 2.5-5.9 3.1-7.4 0-8.7 0-13.3 0-17.9 -0.9-0.6-1.9-1.2-2.9-1.9 4.5-13.2 9-26.3 13.6-39.5 1.5 1.1 2.9 2.2 4.4 3.3 27.7-26.3 55.4-52.5 89.3-84.6 -5.4 3-3.5 1-1.7 1.1 3.9 0.2 8 0.9 11.6 2.4 3.2 1.3 8.1 3.7 8.3 6.1 0.4 3.1-3.2 6.5-4.8 10 -0.7 1.4-0.6 3.2-2.2 11.9 10.7 7.1 21 17.4 33.4 21.4 18.8 6 38.9 7.7 58.5 11.1 24.4 4.3 48.6 9.9 73.2 12.3 42 4.3 84.2 6.2 126.3 9.7 75.8 6.4 151.5 13.4 227.3 20.1 6.2 0.6 12.4 0.8 18.6 2.8 -17 0.9-34.1 1.7-51.1 2.6 0 0.4 0 0.8 0.1 1.3 21.1 0 42.1 0 63.2 0 0-0.8 0.1-1.7 0.1-2.5 -2.3-0.5-4.6-1-7-1.5 0.2-1.4 0.5-2.8 0.7-4.2 18.5 3.2 37.1 6.2 55.6 9.9 2.3 0.5 3.7 4.8 5.6 7.4 -2.7 0.6-5.5 1.8-8.2 1.6 -7.8-0.4-15.5-1.4-22.5-6.8 -7.2-0.7-14.5-1.9-21.7-2 -3.8 0-7.6 1.9-13.2 3.4 9.6 0.4 17.4 0.8 26.7 1.2 -3.5 2.7-6 4.6-8.4 6.5 2.5 1 5.7 2.3 12.3 4.9 -32 0-60.5 0-96.4 0 9.3 4.8 11.5 5.9 10.3 5.3 -48.5 3.1-99.7 6.4-151.3 9.7 0.2 2.8 0.1 1.7 0.2 2.7 -3.8-1.2-6.8-2.2-9.8-3.2 1-1.8 1.9-3.5 2.9-5.3 -8.1-2.8-16.3-5.5-24.4-8.3 -0.3 1.1-0.7 2.2-1.1 3.3 1.6 0.2 3.2 0.5 4.8 0.7 0.2 1 0.3 1.9 0.5 2.9 -14.8 1.6-29.7 3.1-45.6 4.8 1.9 1.1 2.9 1.7 9.1 5.2 -10.1-2.6-14.6-3.7-19.2-4.9 -0.1 0.4-0.3 0.8-0.4 1.2 1.4 0.4 2.7 0.9 2.9 0.9 -3 2.6-6.2 5.3-9.3 8.1 -1.7-0.3-3.4-0.6-5.2-0.8 -8.3 1.6-16.6 3.3-24.9 4.9 -1.5-1.3-2.8-2.9-4.5-3.6 -0.7-0.3-2.2 1.1-3.4 1.7 1.6 1.6 3.2 3.1 4.9 4.7 0 0-0.1 0.1-0.1 0.1 0.6-0.2 1.2-0.3 1.8-0.5 3.7 1.8 7.3 3.5 13.8 6.6 -13.7 2.2-24 3.8-37.4 5.9 4.6 2.4 6.2 3.3 10.6 5.6 -14.3 1.7-25.8 3.1-37.1 4.4 -0.5-2.2-0.1-0.6 0-0.1 -5.8 1.4-11.5 2.7-19.5 4.6 2.9-2.3 4-3.1 5.5-4.3 -4.4-0.9-8.6-1.7-13.8-2.8 1.2 2.4 2.2 4.3 2.3 4.6 -23.3 4.8-48.6 10-75 15.4 -0.1-0.3 0.6 2 1.5 5.1 -1.4-1.9-2.4-3.4-3.8-5.3 -1.9 1.7-3.8 3.3-2.1 1.8 -14.1 1.4-24.8 2.5-35.8 3.6 0-0.3-0.3-1.8-0.6-3.6 -1.9 1.7-3.6 3.1-5 4.3 -0.7-1.5-1.3-3.9-2-4 -2.2-0.2-4.5 0.6-11 1.7 0.5-0.1-2.8 0.8-4.7 1.2 -3.9-0.6-7.4-2.3-9.4-1.2 -1.9 1-1.9 5-3.2 7.5 -4.4 8.2-8.9 16.4-13.4 24.6C172.5 790.7 172.6 790.7 172.6 790.7z"/><path d="M527 694.7c-1 1.8-1.9 3.6-2.9 5.3 -6.5 4-13.1 8.1-27.4 16.8 7.5-6.9 8.2-7.5 9.5-8.7 -2.7 0-4.6 0-4.5 0 -2-1.9-2.8-3.2-3.6-3.3 -1.1-0.2-2.4 0.6-4.1-0.5 2.6-0.5 5.3-0.9 7.8-1.6 2.4-0.6 4.8-1.5 7-2.6 1.4-0.7 2.5-2 6.4-5.5C516.4 694.7 521.7 694.7 527 694.7z"/><path d="M102.8 182.1c-1.6-0.3-3.4-0.2-4.6-1 -2.1-1.5-3.6-3.7-5.7-5.3 -1.6-1.2-3.7-1.8-5.5-2.7 -0.5-1.7-0.9-3.3-1.4-5 0.9-0.2 2.1-0.9 2.6-0.5 3.5 2.4 6.8 4.9 10.2 7.4C99.9 177.3 101.4 179.7 102.8 182.1z"/><path d="M216.5 771.2c9.1-0.4 18.1-0.9 27.2-1.3 0 0.8 0.1 1.6 0.1 2.4 -9 0.7-18 1.4-27 2.1C216.7 773.3 216.6 772.3 216.5 771.2z"/><path d="M88 177.3c5 6.5 10 13.1 15.1 19.6C98 190.3 93 183.8 88 177.3z"/><path d="M463.4 175c-5.1 2.4-7.4 4.3-9.8 4.5 -6.5 0.4-13 0.1-19.5 0.1C442.6 178.2 451.3 176.9 463.4 175z"/><path d="M262.9 214.3l0.1 0.1c1.4-1.2 2.7-2.3 4.1-3.5 0 0-0.1 0.1-0.1 0.1 1.4-0.4 2.7-0.7 4.1-1.1 0 2.4 0 4.7-0.1 7.1 0 0-0.1 0-0.1 0 0.4 0.9 0.8 1.7 0.6 1.3C269.3 217.1 266.1 215.7 262.9 214.3zM268.6 213.2c-0.3-0.1-0.5-0.2-0.8-0.3 -0.1 0-0.2 0.2-0.3 0.3 0.2 0.2 0.3 0.5 0.5 0.5C268.2 213.7 268.4 213.4 268.6 213.2z"/><path d="M439.1 707.8c1.7 0.3 3.5 0.6 5.2 0.8 1.2 0.5 2.3 0.9 3.5 1.4 0 0-0.1-0.1-0.1-0.1l0.2 0.1C444.9 709.3 442 708.5 439.1 707.8z"/><path d="M274.1 212.3c0 0 0-0.1 0-0.1 -1 1.5-2.1 3.1-3.1 4.6 0 0 0.1 0.1 0.1 0.1C272 215.4 273 213.9 274.1 212.3z"/><polygon points="172.6 790.7 172.5 790.7 172.5 791 "/><path d="M259.6 212.9c-0.1-0.8-0.3-1.6-0.4-2.4 0.6 0.4 1.2 0.9 1.8 1.3l0.1 0c-0.5 0.4-1.1 0.7-1.6 1.1C259.5 212.9 259.6 212.9 259.6 212.9z"/><path d="M261 211.8c0.2 0.4 0.5 0.8 0.7 1.2 0 0-0.1-0.1-0.1-0.1 -0.2-0.4-0.3-0.7-0.5-1.1L261 211.8z"/><path d="M255.2 209.2c0.1-0.1 0.2-0.2 0.2-0.3 -0.1 0.1-0.2 0.2-0.4 0.3C255 209.2 255.2 209.2 255.2 209.2z"/><polygon points="267.4 204.6 267.5 205.1 267.5 204.6 "/><path d="M409.7 714.1c0.5 0.5 0.9 1 1.4 1.5 0 0 0.2-0.1 0.2-0.1 -0.5-0.5-0.9-1-1.4-1.5L409.7 714.1z"/><path d="M409.7 714c-0.2-0.7-0.4-1.4-0.6-2.2l-0.1 0.1c0.6 0 1.2 0 1.7-0.1 -0.4 0.7-0.7 1.5-1.1 2.2C409.7 714.1 409.7 714 409.7 714z"/><path d="M409.1 711.8c0 0-0.1 0.1-0.1 0.1C409 711.9 409.1 711.8 409.1 711.8z"/><path d="M265 209c0.7 0.7 1.4 1.3 2 2 0 0 0.1-0.1 0.1-0.1 -0.7-0.7-1.3-1.3-2-2C265.1 208.9 265 209 265 209z"/><path d="M271.8 207.2c-0.3 0.9-0.5 1.8-0.8 2.7C271.3 209 271.5 208.1 271.8 207.2z"/><path d="M264.8 207.7c0.1 0.4 0.2 0.8 0.2 1.2 0 0 0.1-0.1 0.1-0.1 -0.7-0.4-1.3-0.8-2-1.2l-0.1-0.1c0.6 0 1.2 0.1 1.8 0.1L264.8 207.7z"/><path d="M264.9 207.7c0.1 0.1 0.3 0.1 0.4 0.2 -0.2-0.1-0.3-0.1-0.5-0.2C264.8 207.7 264.9 207.7 264.9 207.7z"/><path d="M263.1 207.7l-0.2 0c0 0 0.1 0 0.1 0C263 207.6 263.1 207.7 263.1 207.7z"/></svg>