<svg class="icon" xmlns="http://www.w3.org/2000/svg" viewBox="0 0 255.1 298.3"><path d="M162.2 215.7c0.3-0.2 0.6-0.3 0.9-0.5 1.1-1 2.1-2.1 3.1-3.1 -0.3 1.5-0.4 3.1-1 4.5 -2.7 6.8-4.5 14.3-8.7 20 -3.7 4.9-6.2 10.1-8.8 15.4 -2.4 4.9-4.9 9.8-7.3 14.7 -0.4 0.9-0.2 2-0.2 3.1 0.7-0.6 1.6-1 2.1-1.8 1.2-2 2-4.3 3.3-6.1 1-1.4 3.2-2.1 3.9-3.6 0.9-1.8 0.7-4.2 1.4-6.2 1.1-3 1.7-6.2 5.3-8 1.5-0.7 1.8-3.6 2.9-5.4 0.3-0.5 1.2-0.6 1.8-0.9 0.1 0.5 0.3 1.1 0.2 1.5 -1.4 3.4-2.9 6.7-4.3 10.1 -0.6 1.5-1.2 3.1-1.4 4.7 -1.2 10-4.7 19.1-10.9 27.1 -2.6 3.4-1.1 10 2.5 13.6 0.6 0.5 1 1.2 1.4 1.8 -0.7 0.1-1.5 0.1-2.2 0.3 -9.5 3.2-18.2 0.5-27-3.1 -2.9-1.2-6.5-0.6-9.8-1.3 -3-0.6-6-1.6-8.9-2.6 -0.5-0.2-0.9-2.5-0.6-2.7 5.2-3.4 2.9-8 1.5-11.8 -2.5-6.7-5.8-13.1-8.6-19.6 -1.1-2.4-2.2-4.9-3-7.4 -3.7-11.7-11.5-20.8-18.3-30.6 -9.1-13.1-17-27-25.9-40.3 -11.5-17.1-23.4-34-35.1-50.9 -3.4-5-6.8-10.1-10.2-15.1 0.4-0.3 0.7-0.5 1.1-0.8 2.9 3.7 5.9 7.4 8.8 11.1 1.4 1.8 2.8 3.6 4.2 5.4 4.4 5.7 8.7 11.5 13.2 17.2 2.9 3.6 5.9 7.1 8.9 10.6 5.4 6.1 10.8 12.2 16.2 18.3 0.4 0.5 0.9 1.1 1.4 1.4 0.9 0.6 1.9 1.1 2.9 1.6 -0.2-1-0.1-2.2-0.5-3.1 -2.1-3.8-4.4-7.5-6.5-11.2 -0.9-1.5-1.7-3.1-2-5 3.5 5.2 6.8 10.4 10.4 15.5 1.3 1.8 3.1 3.1 4.6 4.7 1.1 1.2 2.8 2.4 3.1 3.8 1.4 6.4 7 9 11.1 13 3.6 3.4 8.3 6.3 8.7 12.2 0.1 1 1.2 2.1 2.1 2.7 7.1 4.6 10.9 11.8 14.6 19 0.5 1 1.1 2.3 2 2.8 6.7 3.5 8.4 10.8 12.6 16.2 1 1.4 2.1 2.8 3.1 4.2 1-1.5 2.1-3 2.8-4.6 5.5-11.8 11-23.5 16.3-35.3 9.2-20.5 19.6-40.3 30.8-59.8 8.6-14.9 16.1-30.4 24-45.7 7.9-15.4 15.4-30.9 23.6-46.2 3.4-6.4 9.4-11.7 11.8-18.4 2.4-7 7.3-12 10.6-18.3 3.3-6.3 7.1-12.2 10.7-18.3 0.6-1 1-2.2 1.8-3 0.8-0.7 2-0.9 3.1-1.4 -0.1 1 0 2.1-0.3 3 -2.1 5.2-4.4 10.3-6.5 15.5 -1.5 3.7-3.9 7.6-3.7 11.4 0.2 4.7-2 8.3-3 12.4 -1.1 4.3-2.3 8.7-3.9 12.8 -1.7 4.3-4.2 8.3-6.1 12.5 -2.2 4.8-4.2 9.8-6.5 14.5 -2.5 5.2-5.4 10.1-7.9 15.3 -2.5 5.1-4.8 10.3-6.9 15.6 -1 2.5 0.9 5.4-1.1 8.1 -1.6 2.2-2 5.5-3.9 7.5 -2.9 3-3 6.9-4.4 10.2 -4.2 9.8-9.9 19-14.8 28.6 -2.2 4.3-5.6 8.3-6.8 12.9 -1.5 6.1-6.1 10-8.5 15.3 -2.5 5.4-4.8 10.9-7.2 16.4 -0.5 1.2-0.7 2.6-1 3.8 -0.4-0.2-1.3-0.6-1.3-0.6 -2.7 5.9-5.4 11.9-8 17.8 -0.1 0.3 0.3 1.2 0.5 1.2 0.6 0 1.6-0.1 1.7-0.4C157.5 227.8 159.8 221.8 162.2 215.7z"/></svg>