<svg class="icon" xmlns="http://www.w3.org/2000/svg" viewBox="0 0 304.8 91.9"><path d="M261.6 91.9c-2.7-5.1-7.1-8.7-11.5-12.2 -1.6-1.3-4-1.5-6-2.4 -3.1-1.4-6.6-2.6-9.2-4.7 -3.2-2.6-6.9-1.7-10.4-2.5 -2.7-0.6-5.6-0.8-8.3-1.4 -0.9-0.2-4.8-0.1-0.9-2.4 0.2-0.1 0.1-0.5 0.2-0.8 -0.3 0-0.7-0.2-0.9 0 -4.6 2.7-9 0.4-13.6-0.3 -2.9-0.5-5.9-0.6-8.8-0.8 -1.2-0.1-2.3-0.3-3.4-0.5 -2-0.5-0.9-1.6-0.4-2.5 -0.1-0.1-0.3-0.2-0.4-0.2 -6.3 0.3-11.5-4.9-18.2-3.6 -4.9 0.9-9.8-0.3-14.3-2.9 -1.2-0.7-2.7-1.4-4.1-1.5 -6.1-0.5-12.3-0.5-18.4-1.1 -4.1-0.4-8.2-1.4-12.2-2.1 -0.5-0.1-1.1-0.4-1.3-0.7 -1.9-3.6-5.2-2.9-8.3-2.9 -6.6 0.1-13.1 0.1-19.7 0.5 -5.5 0.3-11.2-1.3-16.8-2.1 -6.8-0.9-13.6-2.1-20.5-2.8 -15.5-1.6-30.9 1.3-46.3 0.3 -2.2-0.1-4.3 0-6.5-0.1 -0.4 0-0.8-0.3-1.2-0.5 0.4-0.2 0.8-0.7 1.2-0.7 3.4-0.2 6.9-0.4 10.3-0.6 4.3-0.2 8.6-0.2 12.9-0.5 8-0.5 15.9-1.1 23.9-1.8 9.8-0.8 19.6-2.2 29.4-2.7 16.1-0.9 31.9-4.4 47.9-5.9 6.6-0.6 13.2-1.5 19.8-2.2 0.7-0.1 1.3 0.4 2 0.6 -0.5 0.4-1 0.8-1.6 1.1 -1.1 0.5-2.2 0.9-3.2 1.3l-0.2-0.3 0.3 0.2c0.5 2.4 2.4 2 4 1.9 6.8-0.3 13.6-0.3 20.4-1.2 12.8-1.6 25.6-3.8 38.3-5.8 0.8-0.1 1.5-0.6 2.2-0.9 0.6-0.1 1.2-0.2 1.9-0.4 -0.1-0.1-0.2-0.4-0.2-0.4 -0.5 0.3-1.1 0.5-1.6 0.8 -4.9 0-9.9 0-14.8 0 -0.6 0-1.2-0.2-1.8-0.4 0.6-0.3 1.1-0.7 1.7-0.8 4.3-0.6 8.5-1.1 12.8-1.7 7.9-1.1 15.8-2 23.7-3.4 3.7-0.6 7-2.3 10.2-4.7 3.9-2.9 8.7-4.7 13.3-6.3 2.3-0.7 3.8-1.4 4.8-3.5 1.7-3.5 3.6-4 6.7-2.1 3.4 2.1 6.8 4.3 9.7 7 1.7 1.5 2.6 4.1 3.3 6.3 0.3 1-0.7 2.8-1.7 3.6 -3.1 2.5-6.6 4.5-9.6 7 -3.4 2.8-6.6 6-9.8 9.1 -3.4 3.4-6.8 6.8-10.2 10.3 -2.4 2.4-2.5 3 0.2 4.5 10.4 5.8 18.3 14.8 27.8 21.8 0.8 0.6 1.5 1.3 2.2 2.1 3.6 3.9 2.7 7.6-1.7 9.5 -1.7 0.8-3.2 2.3-4.6 3.6 -2.1 2-4 4.1-6 6.1C262.9 91.9 262.2 91.9 261.6 91.9zM89.4 44.9c0.9 0 1.4 0.1 1.9 0 0.5-0.1 0.9-0.3 1.3-0.5 -0.4-0.3-0.8-0.8-1.3-0.9 -1.1-0.2-2.3-0.3-3.5-0.4 -0.3 0-0.7 0.5-1.1 0.7 0.4 0.3 0.7 0.8 1.1 0.9C88.4 44.9 89.1 44.8 89.4 44.9zM210.3 62.8c-1 0.3-1.7 0.5-2.5 0.7 1 0.4 1.9 1.1 2.9 1.2 0.6 0.1 1.3-0.5 1.9-0.9C211.9 63.5 211 63.1 210.3 62.8zM202.6 63.3l-0.3 0.1 0.3 0.1L202.6 63.3z"/><path d="M289.6 60.9c-0.3 1.7-1.2 1.2-2.1 0.5 -4.8-3.6-9.6-7.1-14.3-10.7 -1.8-1.4-3.5-2.9-5.2-4.4 -1.4-1.2-1.5-2.6-0.2-3.8 4.7-4.6 9.5-9.2 14.3-13.8 1.3-1.2 2.7-1.9 4.4-0.5 6 5 12.6 9.3 16.7 16.2 0.7 1.1 1 2.4 1.4 3.7l0.1 0c-6.7 2.4-11.6 6.9-15 13l-0.2-0.3L289.6 60.9z"/><path d="M158.2 26.3c-1.7 0.4-3.4 0.8-5.1 1.1 -0.1 0-0.3-0.4-0.4-0.6 1.8-0.5 3.6-1.1 5.4-1.6C158.1 25.5 158.1 25.7 158.2 26.3z"/><path d="M162.1 25.7c-0.2-0.2-0.4-0.4-0.6-0.6 0.4-0.2 0.7-0.4 1.1-0.6 0.1 0.3 0.4 0.6 0.3 0.8C162.8 25.4 162.4 25.5 162.1 25.7z"/><polygon points="304.5 47.9 304.8 48.2 304.6 47.9 "/></svg>