<?xml version="1.0" encoding="utf-8"?>
<!-- Generator: Adobe Illustrator 24.3.0, SVG Export Plug-In . SVG Version: 6.00 Build 0)  -->
<svg class="icon" version="1.1" xmlns="http://www.w3.org/2000/svg" xmlns:xlink="http://www.w3.org/1999/xlink" x="0px" y="0px"
	 viewBox="0 0 291 277" style="enable-background:new 0 0 291 277;" xml:space="preserve">
<path d="M0,213c1.3-5.7,2.9-11.3,3.8-17c1.9-11.7,9-19.9,16.9-28c11-11.4,24.7-13.2,39.3-13.1c10.5,0.1,21,0.1,31.4,0.1
	c2.3,0,4.6-0.3,8.3-0.5c3-10.1,6.3-20.4,9-30.8c1.9-7.6,3-15.4,4.6-24c-5.6-5.1-5.7-6.9-0.1-11.5c23.2,2.2,45.8,4.4,68.4,6.7
	c1.1,0.1,2.5,0.5,3.1,1.2c2.9,3.2,5.5,6.5,8.3,9.8c-3.9,4-10,6.4-9.6,13.4c0.1,1.6-0.2,3.3,0.4,4.8c2.3,6.2,4.8,12.4,7.3,18.5
	c0.4,1.1,1,2.1,1.4,3.2c2.1,7.3,2.1,7.4,9.8,7.1c4.2-0.2,8.4-0.2,12.4-0.9c14-2.5,26.3,3.7,39.2,7.4c3.3,0.9,6.9,1.2,10.3,1.9
	c9,2.1,14.1,8.3,17.2,16.6c3.7,10,8.2,20,7.4,30.8c-1,12.8,2.4,25.9-2.4,38.6c-2.5,6.6-2,6.7-10.6,13c1.9,0,3.1,0,5.3,0
	c-1.8,1.3-3.1,2.2-4.7,3.4c0.6,0.8,1.3,1.5,2.1,2.5c-1.6,1.9-3.3,3.9-5,5.9c-0.2-0.5-0.4-1.1-0.6-1.6c-3.5,0.5-6.9,1.1-10.4,1.5
	c-2.4,0.3-4.8,0.3-7.1,0.3c-2.1,0-4.3-0.3-6.4-0.2c-9.3,0.6-18.5,1.3-27.8,2c-2.4,0-4.9,0.1-7.2-0.2c-7.4-1-14.7-2.5-22-3.1
	c-7.5-0.7-15.1-0.7-22.7-0.8c-4.6-0.1-9.3,0.2-13.9,0.3c-7,0.1-13.9,0.2-20.9,0.3c-2.3,0-4.6-0.2-6.9,0.1c-4.7,0.6-9.4,2.4-14.1,2.1
	c-5.1-0.3-11,2.9-15.5-2.5c-0.5-0.6-2.5,0-3.7,0.3c-7,1.3-14.1,3.6-21.1,3.6c-8.5,0-17.1-2-25.6-3.2c-0.3,0-0.6-0.3-0.9-0.5
	c0.2-0.7,0.4-1.3,0.6-2c-14.2,0.5-20.7-0.7-23.4-4.7c5.6,0,10.8,0,17.3,0c-9.3-6.2-17.5-11.5-20.6-21.8c-2.1-6.8-6.3-13-7.6-19.9
	c-1.4-7.3-6.3-14.7-1.4-22.5c-5.8,5.5-7.8,12.6-9.2,20C1.9,221,0.7,222.5,0,224C0,220.3,0,216.7,0,213z M106.4,182.2
	c0-0.4-0.1-0.8-0.1-1.2c-3.7-0.5-7.4-1-12.9-1.7c-4.5,0.5-11.1,1.3-17.6,1.8c-9.9,0.8-19.9,1.5-29.8,2c-3.8,0.2-6.1,1.7-7.6,5.2
	c-2.7,6.4-5.4,12.7-8.8,18.7c-4.3,7.7-2.2,15.7,4.4,20.3c7.1,4.9,14.6,9.2,21.9,13.9c4.4,2.9,9,3.7,14.2,3.6
	c7.2-0.2,14.5,0.5,21.8,0.8c8.5,0.4,16.9,1.1,25.4,1.1c16.3-0.1,32.5-0.7,48.8-0.9c10.8-0.1,21.6,0.3,32.4,0.2
	c8.5-0.1,17.2-1.8,25.4-0.5c8,1.2,14.8-0.4,21.7-3.2c8.1-3.2,13.5-9.8,18.3-16.3c5.2-7,0.9-25.5-9.1-30.1c-4-1.8-8-3.8-11.8-6.1
	c-1.5-0.9-2.4-3.2-4-3.8c-7.8-2.7-15.6-6.7-23.6-7.3c-15.9-1.1-31.9-0.3-47.8-0.3c0.1,0.5,0.1,1.1,0.2,1.6c-1.2,0.5-2.4,1.4-3.7,1.6
	c-9.4,1.2-18.8,2.2-28.1,3.4c-3.3,0.4-6.5,2.2-9.7,2.1c-10.6-0.2-21.1-0.9-31.7-1.4c-2-0.1-4.1-0.3-6.1-0.4c0-0.5-0.1-0.9-0.1-1.4
	C94.3,183.4,100.3,182.8,106.4,182.2z M175.3,154.2c-3.4-10.5-6.5-20-9.6-29.3c-9,0-17.8,0-26.5,0c-2.6,0-5.3,0.2-7.9-0.2
	c-5.2-0.8-6.9,0.2-8,5.1c-0.7,3.4-1.5,6.8-2.3,10.1c-1.1,4.7-2.3,9.5-3.4,14.3C137,154.2,155.8,154.2,175.3,154.2z"/>
<path d="M210,0c4.3,6.3,9,12.3,12.7,18.9c5.7,10.1,10.6,20.6,16.1,31.5c13-11.2,21.5-27.1,37.1-34.9c-1.1,8.8-2.3,17.8-3.4,27
	c0.3,0.6,1.5,1.8,1.4,2.8C272.1,61.4,262.6,72,249,79.6c-3.4,1.9-6.9,2.8-9.9-0.9c-1,0.7-1.8,1.3-2.9,2.1c-1.3-2.1-2.7-4.2-3.9-6.3
	c-4.4-7.6-8.7-15.3-13-22.9c-2.1-3.7-4.4-7.4-5.7-11.5c-1.9-6.1-5.9-6.4-10.5-5.2c-5.8,8.6-11.5,17-17.1,25.3
	c-2.3,3.5-4.9,7.1-0.4,12.2c-4.8,2.6-8.8,5-13,6.9c-1,0.4-3.2-0.7-4.2-1.7c-2-2.1-3.9-4.5-5.4-7c-7-12-13.9-24.2-20.8-36.3
	c-2.1-3.7-6.1-4.2-7.7-0.4c-1.8,4.2-6.4,7.7-4.1,13.2c0.1,0.3,0,0.7-0.2,1c-4.2,6.2-8.4,12.4-12.7,18.6c-1.5,2.2-3.1,4.5-4.8,6.6
	c-1.3,1.6-2.5,3.6-4.3,4.3c-7,2.7-13,0.3-16.6-6.7c-4.8-9.5-9.5-19.1-14-28.7c-1.4-2.9-2.3-6.1-3.5-9.4c-7.8,2.7-7.9,9.2-10,14
	c-2.2,5-3.4,10.4-5.6,15.4c-1.6,3.6-3.8,7.1-6.3,10.1c-1.5,1.8-4.1,2.7-6.2,3.8c-2,1-4.1,1.7-7.5,3.1c-4.1-1.1-9.9-1.2-12.4-8.7
	c-1.8-5.3-6.7-9.4-9.2-14.6c-3-6.4-5-13.3-7-20.1c-0.3-1.1,1.2-3.9,1.9-3.9c1.9,0,4.4,0.6,5.6,1.8c3,3.1,5.2,6.9,8.2,10
	c2.4,2.5,5.6,4.4,9.4,7.2c2.3-3.7,4.4-6.3,5.5-9.2c3.1-8.4,5.6-17.1,8.8-25.5C53,7.7,59.4,3.3,68.6,3.8c7.8,0.5,13.1,5.2,16,12.5
	c3,7.6,5.7,15.2,8.6,22.8c1.2,3,2.6,6,4.6,10.6c4.9-7.8,9.2-14.3,13.1-20.9c3.2-5.4,6-11.1,8.9-16.7c5.1-9.9,18.6-11,26.4-3.1
	c8.7,8.8,13.5,19.6,18.6,30.4c0.6,1.3,1.4,2.5,2.7,4.9c2.2-3.2,4-5.6,5.7-8.1c6.4-9.3,12.4-18.9,19.3-27.8c2.8-3.6,7.5-5.6,11.4-8.3
	C206,0,208,0,210,0z"/>
</svg>
