<svg class="icon" xmlns="http://www.w3.org/2000/svg" viewBox="0 0 392.9 342.8"><path d="M199.9 0c9.9 6.5 16.9 15.8 24 25 4.1 5.4 8.4 10.6 12.3 16.1 4.1 5.7 7.8 11.8 12 17.4 4.2 5.6 9.3 10.5 13 16.4 7.7 12.1 18.9 20.9 28.2 31.4 4.3 4.8 6.9 11.2 10.1 17 0.7 1.3 0.9 2.8 1.3 4.3 0.8 3.2 6.6 8.3-3 7.7 -1.5-0.1-4 3-4.5 2.6 -2.9-2.4-5.2-5.4-8-8 -3.8-3.5-7.8-6.8-11.9-10 -0.2-0.1-2.5 1.5-2.5 2.3 0.3 11.7 0.8 23.4 1.3 35 0.1 3.4 0.6 6.7 0.6 10.1 0 3.8 1.7 3.9 4.3 2.3 3.5-2.2 7.2-4.2 10.4-6.8 5.7-4.6 8.4-4.9 14.1-0.4 8.3 6.6 16.4 13.6 24.9 20 8.9 6.7 18.1 13 27.3 19.1 7.5 4.9 12.8 11.2 13.9 20.3 0.2 1.6 4.4 3.2-0.1 5.1 -3.6 1.5-5.6 7.5-11.1 2.9 -2.9-2.4-6.4-4.1-9.7-6 -0.6-0.4-1.5-0.3-2.2-0.5 0 0.6 0 1.3 0.1 1.9 0.9 6.2 1.7 12.5 2.9 18.7 0.2 1.1 2.3 2.6 3.6 2.7 10.4 0.9 20.8 1.4 31.2 2.2 1 0.1 2 0.9 3 1.4 -0.8 0.5-1.7 1-2.5 1.6 -1.2 0.9-2.4 1.9-3.6 2.8 1 0.9 2.3 1.7 3.1 2.8 1.8 2.8 4.6 5.7 4.6 8.7 0 3.2 0.5 4.5 3.4 5.2 0.9 0.2 1.6 1.1 2.4 1.7 -1 0.3-2.1 0.6-3.1 0.8 -0.6 0.1-1.3 0-2 0 -0.8 0-1.6 0.1-2.3 0.1 0.6 0.5 1.1 1 1.7 1.5 1 0.9 2.1 1.8 3.1 2.7 -1.4-0.1-2.8-0.3-4.3-0.4 -7.9-0.6-15.8-1.3-23.7-1.9 -1-0.1-2.1 0-2.9-0.5 -11.3-6.2-23.1-5.3-35.2-3.5 -4.1 0.6-8.4-0.1-12.6-0.2 -1.8 0-3.6-0.2-5.5 0 -7 0.5-14 0.7-20.9 1.7 -4.6 0.7-9.1 0.1-14.1 1.8 -6.4 2.3-14.4-0.5-21.6 0.2 -8.5 0.7-17.5-2.7-25.6 2.6 -0.5 0.3-1.6 0.2-2.1-0.2 -4.6-3.9-8.8-8-9.4-14.7 -0.4-4 1.6-5.6 5.1-5.6 2.6 0 5.3 0.6 7.9 1 5 0.9 9.6-3 9.4-8 -0.5-9.5-1.1-18.9-1.6-28.3 -0.2-4.4-3.9-3.3-6-3.2 -8.5 0-16.1 3-22.8 8.4 -1 0.8-3.3 0-4.9-0.1 0.3-1.7-0.1-4.1 0.9-5 4.3-3.7 8.9-7 13.4-10.3 9.3-6.7 18.6-13.5 28-20 3.9-2.7 5.1-5.6 4.6-10.5 -1-8.6-0.7-17.2-1.2-25.9 -0.8-14.7-1.8-29.5-2.8-44.2 -0.5-6.8-0.7-13.6-1.7-20.4 -0.5-3.2-1.9-6.7-3.9-9.3 -7-9.4-14.1-18.6-21.6-27.6 -3.3-3.9-7.4-7.1-11.4-10.4 -0.6-0.5-3.2 0.4-3.7 1.3 -9.8 16-19.3 32.1-29.1 48.1 -2.9 4.6-7.1 8.5-9.8 13.2 -1.6 2.7-1.7 6.4-2 9.7 -0.2 3.3 0.4 6.6 0.3 9.8 -0.1 5.8-0.7 11.7-0.6 17.5 0 1.6 1.4 3.3 2.5 4.7 4.5 5.7 9.5 11.1 13.6 17.1 4.6 6.8 8.5 14 12.7 21.1 0.2 0.4 0.5 0.9 0.6 1.4 0 0.4-0.3 0.9-0.4 1.4 -3.9-2.7-2.8 5.8-6.9 3.1 -2.5-1.6-5.7-2.2-8-4.1 -4.4-3.7-7.9-0.7-10.4 1.8 -1.6 1.6-1.4 5.5-1.3 8.3 0.2 5.9 0.7 11.9 1.4 17.8 0.8 6.9 2.2 13.7 2.9 20.7 0.4 4.2-0.4 8.5-0.4 12.8 0 1.7 0.1 3.7 1 5 3.2 4.7 6.8 9.1 10.2 13.6 2.8 3.8 1 5.9-2.8 6.6 -6.5 1.1-13 2.3-19.5 2.6 -6 0.3-12-1.1-18-1 -16.7 0.3-33.5 1-50.2 1.4 -4.1 0.1-8.3-0.4-12.4-0.4 -2.3 0-4.5 0.6-6.8 0.8 -7 0.6-14.7 3.1-21 1.1 -7.2-2.2-13.6-1.3-20.5-1 -1.3 0.1-2.7 0.7-3.9 0.4 -1-0.3-2.2-1.5-2.3-2.4 -0.5-5.4-0.6-10.9-0.9-16.3 -0.5-6.9 3.4-11.5 10.4-11.9 2.5-0.1 5 0.7 7.4 0.5 1.1-0.1 2.9-1.3 3.1-2.3 2.5-12.6 2-25-1.3-37.5 -1.7-6.6-2.7-13.4-3.5-20.1 -0.5-4.4-1.8-3.8-4.4-1.7 -5.8 4.4-11.6 8.8-17.5 13.1 -2.9 2.1-5.5 3.3-7.4-1.4 -0.4-1-3.1-1-4.7-1.5 0-1 0-2 0-3 4.5-4.7 9.3-8.3 11.8-15.3 2.9-7.8 9.8-14.4 15.6-20.8 5.8-6.4 13.1-11.4 18.4-18.1 11.7-14.7 22.7-29.9 33.5-45.2 3.5-5 9.4-4.2 13.5-7.2 0.4-0.3 1.7 0.2 2.3 0.7 7 5.6 14.2 11 20.9 16.9 4.3 3.9 7 4.9 11.1 1 9.1-8.7 17.8-17.8 23.7-29.3 4.6-9 10.2-17.5 15.3-26.2 6.4-10.8 13-21.6 19.3-32.5C188.8 12 191.8 6 194.9 0 196.6 0 198.2 0 199.9 0zM129.1 255.1c0-0.1 0-0.2 0-0.3 0.7 0 1.3 0 2 0 3.1-0.2 6.3-0.4 9.4-0.6 -0.2-2.3-0.7-4.7-0.6-7 0.1-8.6 0.8-17.2 0.5-25.8 -0.6-19.9-1.6-39.8-2.6-59.7 -0.2-4.2 0-9.8-2.5-12.3 -10.1-10-19-21.4-31.8-28.6 -5.3-2.9-7.5-0.2-9.7 2.5 -5.6 7.1-10.5 14.7-15.9 21.9 -4.8 6.3-9.5 12.8-15.2 18.4 -4.8 4.7-6.7 9.2-4.4 15.5 0.5 1.3 0.5 3 0.3 4.4 -1.3 13.7-4.6 27.3-2.5 41.3 1.1 7.6 0.4 15.5 0.5 23.3 0 2.6 1.1 3.7 3.9 3.8C83.3 252.9 106.2 254 129.1 255.1zM266.7 259.8c0 0.4 0.1 0.8 0.1 1.2 19.1-2.3 38.2-4.6 57.3-7.1 1.4-0.2 3.7-2.1 3.7-3.2 0-13.1-0.3-26.2-0.9-39.3 -0.1-2-1.7-4.4-3.3-5.7 -5.6-4.4-11.7-8-17.3-12.4 -8.3-6.6-11.2-6.7-20.7-1.1 -10.6 6.2-20.7 13.2-30.8 20.2 -1.5 1.1-2.9 3.6-2.9 5.4 -0.1 11.1 0.2 22.2 0.5 33.3 0.1 7.5 1.3 8.6 8.8 8.6C263.1 259.8 264.9 259.8 266.7 259.8z"/><path d="M144.9 0c1.6 2.9 3.2 5.7 4.8 8.6 2.3 4 0.8 9.4-3.7 13.1 -6.1 5-13.5 8.7-17.3 16.1 -1.5 3-2.8 5.9-3.2 9.9 -0.6 7.1-5 14.1-8.5 20.8 -2.1 3.9-6.2 5.9-10.9 6.7 -4.3 0.7-7.8 0.4-11.1-2.7 -4.1-3.8-8.6-7.2-12.7-10.9 -2-1.8-3.3-1.5-5 0.3 -7.5 7.7-15.5 14.9-22.6 23 -4 4.5-6.2 10.5-9.7 15.4 -4.8 6.7-10 13.2-15.3 19.6 -1.3 1.6-3.5 2.4-5.3 3.6 0.3-2.1 0-4.4 0.9-6.1 5.4-10.7 11.1-21.2 16.6-31.8 6.8-12.9 13.4-26 20.4-38.8 2-3.7 4.9-6.9 7.9-9.9 3.3-3.3 6.5-1.6 8.7 1.7 4.6 7 12.1 9 19.4 11.1 1.6 0.5 5.1-1.6 6.2-3.4 2.5-4.4 4-9.5 6.2-14.1 2.5-5.2 5.4-10.3 8-15.5 0.9-1.8 2.3-4.6 1.6-5.9 -2.4-4.3 0.5-4.7 3.2-5.1 3.1-0.5 6.4 0.1 9.3-0.8 2.9-0.9 5.4-3.1 8.1-4.7C142.3 0 143.6 0 144.9 0z"/><path d="M173.9 342.8c-5.2-10.4-4.4-29.3 3.2-38.6 6.9-8.5 15.1-9.6 25-2.4 10.9 8 11.2 9.9-0.1 16.4 -1.8 1-2.6 3.9-3.7 6 -1.4 2.8-2.3 6.1-4.1 8.5 -2.7 3.6-6.1 6.7-9.3 10C181.2 342.8 177.6 342.8 173.9 342.8z"/><path d="M383 108.5c0 11.7-0.1 23.3 0.1 35 0.1 4.4 1.4 9 0.9 13.3 -0.6 5-2.2 9.9-3.9 14.6 -0.8 2.2-2.7 2-3.1-0.6 -0.6-3.6-1-7.3-1.1-10.9 -0.2-19.9-4.2-38.9-11.3-57.4 -1.5-3.8-2.9-5.3-6.4-2.1 -3.2 3-8.2 4.4-8.7 9.8 0 0.4-0.7 1-0.9 1 -4.4-1.6-4.1 2.1-5.1 4.4 -0.2 0.5-1.2 1.3-1.4 1.2 -3.2-1.8-6.9-3.2-9.2-5.8 -7.8-8.8-11.8-19.7-16.6-30.2 -3.9-8.7-8.7-17-13.3-25.3 -2.1-3.8-4.7-7.4-7.4-10.7 -1.4-1.7-3.8-2.4-5.5-3.8 -3-2.5-6.2-5-8.7-8 -2.3-2.7-3.9-6.1-5.8-9.3 -3.1-5.1-1-8.5 5-9 5-0.4 10-1.4 15-2.3 3.2-0.6 5.1 0.2 7.4 3.2 5.6 7.1 6.5 15.8 9.9 23.6 2.4 5.6 6.8 10.4 9.8 15.9 3.8 7 7 14.2 10.6 21.3 1.1 2.2 2.5 4.4 4.1 6.2 0.6 0.7 3 0.8 3.7 0.2 3.7-3.2 7.8-6.4 10.6-10.3 7.3-10.3 7.4-10.6 16.5-2.5 3.4 3.1 6.5 6.6 9.6 10 6.3 7.1 5.6 16 6.1 24.5 0.1 1.3-0.2 2.7-0.2 4C383.3 108.4 383.2 108.5 383 108.5z"/><path d="M264.5 336.4c-3.7 0-7.4 0.1-11.1-0.1 -0.5 0-1.3-1.5-1.3-2.3 0-7.8 0.1-15.6 0.4-23.4 0.1-2.4 0.3-5.1 1.4-7.2 2-3.9 4.2-8 10-7.3 1.3 0.2 2.8-1.2 4.2-1.2 3 0 6.4-0.5 8.8 0.8 3.2 1.7 5.1 4.8 4.1 9.2 -1.4 6.8-2 13.9-3.2 20.7C276.8 331 269.2 337.5 264.5 336.4z"/><path d="M110.2 337c-6.6 2.9-4.3-4.2-6.4-6.6 -0.9-1.1-1.6-2.4-2.4-3.6 -1 1.4-2.2 2.6-2.8 4.1 -0.5 1.3-0.3 2.9-0.5 4.4 -0.1 0.8-0.5 1.6-0.8 2.5 -0.6-0.8-1.6-1.5-1.6-2.3 0-3.9-0.7-8.2 0.6-11.7 4.1-10.6 10.3-20.1 18.4-28.2 3.7-3.7 6.2-2.9 10 1 4.3 4.4 8.5 8.6 7.2 15.3 -0.4 2.4-1.2 5.7-2.9 6.6 -3.8 2.2-4.7 5.7-5.7 9.1C120.9 335.8 119.3 337 110.2 337z"/></svg>