<svg class="icon" xmlns="http://www.w3.org/2000/svg" viewBox="0 0 293.1 300.3"><path d="M293.1 97.8c-2.9 5.7-16.1 11-21.1 8.5 1.8-0.4 3.6-0.8 5.3-1.2 -1.8-0.9-3.9-1.5-5.4-2.7 -5.9-4.4-11.8-8.9-17.5-13.5 -0.7-0.5 0-2.4-0.3-3.5 -0.7-3.1-1.7-6.2-2.5-9.3 -1.5-5.5-3.6-10.8-4.3-16.4 -0.9-6.2-3.2-9.3-10.6-9.4 -6-0.1-11.9-2.2-17.9-2.6 -2.6-0.2-5.4 2.5-8.1 2.6 -10.8 0.7-21.6 1-32.4 1.2 -7.2 0.1-9.3 3.1-7.9 10 0.6 3-1.2 6.3-1.3 9.6 -0.6 11.1-0.5 11.2 11.6 11 10-0.1 19.9-0.2 29.9-0.8 3.3-0.2 6.7-1.4 9.8-2.6 3.9-1.5 6.2-0.9 7.6 2.9 1.3 3.6 2.9 7 4.5 10.5 2.1 4.5 0.3 7.6-4.4 9.1 -4.5 1.4-5.8 3.8-5.2 8.3 1.6 12 3 24 3.5 36.1 0.2 6.4-2 12.8-2.6 19.3 -0.2 1.7 1.4 3.6 2.3 5.4 0.2 0.3 0.8 0.6 0.8 0.9 -0.7 6-1.4 12-2.2 18 -0.2 1.8-0.9 3.5-1.1 5.2 -0.1 0.5 0.9 1.4 1.5 1.5 2.7 0.3 2.8 0.3 2.9 3.4 0.4 7.2-3.9 12.1-9.5 16.3 -0.2 0.1-1-0.6-1.6-0.8 -0.7-0.3-1.5-0.9-2.1-0.7 -6.5 1.7-12.9 3.8-19.4 5.2 -1.9 0.4-4.1-0.9-6.2-1.1 -4-0.5-7.9-4.6-12.4 0.3 -1.2 1.3-6.3-0.5-9.6-0.5 -4 0.1-8 0.7-12.1 0.9 -4.4 0.3-8.9 0.7-13.2 0.5 -3.9-0.2-7.8-1.3-11.7-2 -1.8-0.3-1.6-0.1-2.8 1.4 -0.5 0.6-2.1 0.6-3.2 0.5 -4.6-0.2-9.2-0.9-13.8-0.6 -1.3 0.1-3.4 2.8-3.3 4.3 0.2 4.8 2.5 9.9 1.5 14.3 -0.9 4-4.8 7.8-8.3 10.6 -1.1 0.9-5.7-1.7-8.5-3.1 -10.7-5.1-12.8-12.9-10-23.4 1.7-6.4 1.2-13.4 1.4-20.2 0.1-3.4 1.4-5.2 5.3-5 7.2 0.4 14.4 1.1 21.5 0.9 9.4-0.3 18.9-0.9 28.3-2.2 9.6-1.3 11.2-4.5 10.7-13.6 -0.4-6.5 0-13.2 0.9-19.7 1.2-8.5-3.5-14.5-12.8-14.2 -8.1 0.2-16.2 1-24.1 2.2 -9 1.4-11.7 8.5-7 15.7 1.2 1.9 1.3 5.6 0 7.4 -4.1 5.9-12.4 5.8-18.2 1.2 -7.5-6-9.7-13.5-9.5-22.1 0.2-7-1.9-15 4.3-20.3 4.2-3.6 10.6-6.5 16.3-6.9 10.5-0.7 21.2 0.7 31.8 1.2 12.1 0.5 24.3 0.8 36.4 1.2 5.3 0.2 10.9 7.1 9.4 11.5 -0.1 0.4-0.2 0.8-0.3 1.1 7.2 1.4-1 2.7-0.1 4 -4.8 2.5-4.4 7-4.7 11.1 -0.7 11-1.2 22-1.8 33.1 -0.2 3.3 1.1 4.9 4.9 4.7 7.1-0.4 14.3-0.7 21.4-1.1 3.8-0.2 5.4-1.8 5.5-5.6 0.4-25.3 1-50.5 1.6-75.8 0.2-7.8 0.1-7.5-8.2-7.5 -11.1-0.1-22.2-0.8-33.3-1.2 -1.8-0.1-3.7 0.1-5.5 0.4 -8 1.4-12.4-2.1-12.1-9.7 0.6-13.4 1.3-26.9 1.9-40.3 0-0.5-1.6-1.5-2.2-1.4 -3.1 0.5-6.1 2-9.1 2 -7 0-14-1-21-0.8 -9.1 0.3-18.3 1.2-27.3 2.3 -4.5 0.6-5.6-0.5-5.2-4.5 0.5-5 0.5-10.1 0.4-15.2 -0.1-4.3 1.8-5.9 6.5-6 16.4-0.4 32.9-1.2 49.3-1.6 4.1-0.1 5.8-1.3 5.1-5.3 -1-6 0.5-11.6 5.2-15.7 2.9-2.6 7.2-3.9 10.9-5.8 1.3 0 2.7 0 4 0 5.1 8 8.6 16.4 7.8 25.9 -0.1 1.1 1.5 3.1 2.6 3.3 5.4 0.9 11.2 2.8 16.2 1.7 27.4-5.8 56.3-2.1 83.2-11 3.8-1.3 5.4 0.8 5.6 4.3 0.2 2.5 0.8 5 1.8 7.4 1.2 2.9 2.7 5.6-1.1 7.9 -0.5 0.3 0 1.9 0.1 2.9 0.5 3.4 1.4 6.8 1.4 10.2 0.1 5.2-0.9 10.4-0.4 15.6 0.4 4.3-2.7 11.1 6.8 10.9 0.3 0 0.7 1.3 1 1.9 0.9 2.1 2.2 4.2 2.7 6.4 0.4 1.8 0 3.7-0.2 5.5 -0.3 2.1-0.8 4.1-1.2 6.2C289.7 98.7 291.4 98.2 293.1 97.8z"/><path d="M0 211.4c0.6-3 2.1-6.2 1.7-9.1 -0.7-4.9 0.7-7.4 6.2-7.3 3.6 0.1 7.3 0.8 10.8 1.6 3.9 0.9 5.9 0.3 6-4 0.3-21.5 0.8-43 1.1-64.6 0.1-5.4-0.4-10.8-1-16.1 -0.2-1.4-1.7-3-3.1-3.8 -3.5-2-7.5-3.4-7.1-8.2 0-0.5-0.3-1.2-0.7-1.7 -5.1-6.8-5-7.8 1.8-12.8 6.3-4.6 8.1-12.9 5.5-20.1 -2.8-7.8-4.5-15.9-7.2-23.8 -1-2.9-3.5-5.3-5.5-7.9 -1.8-2.4-1.5-4.2 1.9-4.4 8.6-0.7 17.1-1.5 25.7-1.5 3 0 5.9 2.3 8.8 3.7 1 0.5 1.9 1.1 2.7 1.8 1.5 1.3 2.9 2.7 4.3 4 -1.3 1.1-2.8 2.1-3.8 3.3 -1 1.2-2 2.7-2 4.1 -0.1 3.2 0.6 6.4 0.5 9.6 -0.2 3.5-0.7 7.1-1.8 10.5 -1.6 5.2 2.1 9.9 6 13.1 13.7 11.4 29 2.6 43.4 4.3 7 0.8 13.9 2.5 20.8 3.9 0.8 0.2 1.7 1.6 1.7 2.4 0.3 3.1 1.1 6.5 0 9.1 -1 2.3-4.2 5.4-6.6 5.5 -13.2 0.6-26.5 0.3-39.7 0.5 -6.6 0.1-13.2 0.7-19.7 1.3 -0.8 0.1-2.3 0.9-2.3 1.4 -0.2 6.6-6.7 12.5-1.8 19.9 1.7 2.5 0.2 6.9 0 10.4 -0.8 17.1-4.7 34.8-1.5 51.3 3.9 20.5 0.7 41.1 4.6 61.4 1.6 8.1 10.8 16.4 21.5 16.4 12.9-0.1 25.9-1.3 38.8-1.8 3.1-0.1 6.3 1.1 9.5 1.1 8.5 0.2 17 0.1 25.4 0.1 0.7 0 1.7-0.4 2.1-0.9 1.8-2 0.7-14.4-0.8-16.7 -1.4-2-2-4.5-3-6.8 2.9-0.2 5.8-0.6 8.8-0.7 4.9-0.1 9.9-0.4 14.8 0 7 0.6 7.5 2 6.4 8.1 -0.4 2.1 1.7 4.5 2.4 6.8 0.5 1.7 1.2 3.8 0.6 5.3 -1.4 3.9-0.2 5.8 4.1 5.6 11.8-0.6 23.5-1.3 35.3-2 8.5-0.5 16.9-0.8 25.3-1.6 1.7-0.2 3.8-1.9 4.8-3.4 8.2-13.6 8.2-28.2 7.2-43.4 -1.2-19.3-0.3-38.6-0.3-58 0-0.5 0.2-1.1 1.6-1.6 0.2 4.7 0.5 9.3 0.7 14 0.6 0 1.2 0 1.8 0 0-8.4 0.6-16.8-0.2-25 -0.4-4.5 1.6-11.7 6.4-13 1.6-0.4 3.9 1 5.7 1.9 0.8 0.4 1 1.6 1.8 2.1 9.2 6 11.9 12.8 9.7 22.6 -0.5 2.1-5.1 6.2 2.1 6.8 0.1 0 0.3 2.9-0.3 4.3 -2.4 6.1-5 12.2-7.5 18.3 -0.4 1-0.6 2.6 0 3.3 5 6.2 10.5 12.2 15.4 18.6 3.7 4.8-0.4 12.1-8.2 13.9 -4.5 1-3.9 3.1-3.7 5.9 0.7 7.6 1.7 15.2 1.8 22.9 0.1 6.4-1.1 12.9-1.7 19.3 0.6 0 1.2 0.1 1.8 0.1 0-4.6 0-9.2 0-13.8 0.6 0 1.2-0.1 1.7-0.1 0.3 4.1 0.9 8.2 0.7 12.3 -0.1 2.1-1.8 4.2-2.5 6.3 -0.2 0.7 0.5 1.7 0.5 2.6 0 2 0.5 5.1-0.5 5.7 -2.2 1.3 1.2 8.7-6.5 4.7 -2.2-1.2-7.2 0.3-10.5-2.2 -0.9-0.7-3-1.5-3.4-1.2 -5.7 5.1-12.5 0.6-18.6 1.9 -1.3 0.3-2.6 0.1-4 0.2 -7.1 0.4-14.5 2.2-21.1 0.8 -12.5-2.6-24.6 1.6-36.9 0 -3-0.4-6.7 3.5-10.1 5.5 4.4 4-1.3 4.3-2.9 5.7 -0.8 0.7-3.7 0.3-5.1-0.4 -5.1-2.8-6-10.5-13.6-10.4 -1.7 0-5.2-2.3-4.9 2.1 0 0.1-0.8 0.4-1.3 0.4 -15.1 0.5-30.1 1.2-45.2 1.2 -6.4 0-12.7-1.7-19.3-3.4 3.5-0.2 7.1-0.5 10.6-0.7 0-0.3 0-0.6 0-1 -5.8 0-11.5 0.1-17.3 0 -2.6-0.1-5.2-0.5-7.8-1 -4-0.7-7.6-3.7-12 0.9 -1.9 2-8 0.5-12.2 0.7 -3 0.1-6.2 1.1-8.8 0.4 -4.2-1.1-8.1-3.3-12-5.2 -0.4-0.2 0-2.1 0.4-3.1 2-4.7 5.4-9.2 5.8-14 0.9-10.7 0.3-21.4 0.3-32.1 0-3.8 1.6-8.5-0.3-11.1 -1.4-1.9-7.3-1.3-11.2-1.1 -7.7 0.4-9.6-5-12.5-9.6C0 212 0 211.7 0 211.4z"/></svg>