<?xml version="1.0" encoding="utf-8"?>
<!-- Generator: Adobe Illustrator 24.3.0, SVG Export Plug-In . SVG Version: 6.00 Build 0)  -->
<svg class="icon" version="1.1" xmlns="http://www.w3.org/2000/svg" xmlns:xlink="http://www.w3.org/1999/xlink" x="0px" y="0px"
	 viewBox="0 0 244 326" style="enable-background:new 0 0 244 326;" xml:space="preserve">
<path d="M243.9,308.9c-1.1,1.8-2.3,3.6-3.4,5.5c-2,3.2-4.7,4.1-8.4,2.6c-0.3-0.1-0.6-0.3-0.8-0.3c-6.8,0.9-13.5,1.8-20.3,2.7
	c-0.3,0-0.7,0.3-1,0.2c-8.7-1.6-17,2.2-25.5,2.2c-0.9,0-1.8-0.6-2.6-0.9c0.8-0.6,1.6-1.4,2.5-1.7c1.4-0.4,2.9-0.5,4.5-1.5
	c-1,0-1.9-0.1-2.9,0c-5.9,0.5-11.7,0.9-17.6,1.4c-0.3,0-0.7,0.1-1,0c-6-3.9-13-0.2-19.3-2.3c-0.9-0.3-2.5,0.4-3.5,1.1
	c-2.8,1.8-5.4,3.3-8.3,0c-0.7-0.8-2.4-0.8-3.7-0.9c-8.8-0.3-17.5-0.8-26.3-0.8c-4.9,0-9.8,0.8-14.7,1.1c-4.4,0.2-8.9,0.5-13.4,0.3
	c-9.7-0.4-19.1,0.8-28.4,3.7c-4.3,1.3-9.4,0.9-14.1,0.3c-4.4-0.5-8.5-1.5-12.2,1.9c-0.5,0.5-1.5,0.6-2.3,0.6
	c-4.8,0-7.8-3.8-11.8-5.5c-0.3-0.1-0.6-0.8-0.6-1.3c-0.6-7.9-1.4-15.8-1.6-23.7C6.9,283.8,7,274,7,264.3
	c-0.1-10.4-0.1-20.9-0.3-31.3c-0.1-11.5-0.7-22.9-0.5-34.4c0.2-13.3,1.2-26.6,1.5-39.9c0.2-8.8,0.2-17.6-0.4-26.4
	c-0.4-6.7,1.4-9.3,8.1-9.5c6.9-0.1,13.9-0.3,20.8-0.6c1.2-0.1,2.4-0.9,3.4-1.7c1.3-1,2.3-2.4,3.7-3.3c1-0.6,2.4-0.6,3.6-0.9
	c0,1.1,0.2,2.3-0.2,3.2c-1.4,3.4-0.1,5.6,3.1,6.6c4.6,1.4,9.2,2.9,13.9,3.6c5.2,0.8,10.6,0.7,15.9,1c0.7,0,1.4,0.6,2.1,0.9
	c-0.5,0.6-0.8,1.6-1.4,1.8c-2.1,0.6-4.3,1.4-6.3,1.1c-5.8-0.9-10.9,0.7-15.9,3.2c-4.4,2.2-8.8,4.6-13,7.2c-1.1,0.7-1.7,2.6-2,4
	c-0.8,4.3-1.7,8.7-2,13.1c-0.1,2.4,1.3,4.9,1.4,7.4c0.2,4.3-0.2,8.6-0.1,12.9c0,4.7,0.3,9.4,0.4,14.2c0,2.2,0.6,4.6-0.2,6.4
	c-2.3,4.7-2.1,9.4-1.2,14.2c0.3,1.8,0.8,3.2-1.4,4c-0.2,0.1-0.2,1-0.2,1.5c3.3,0.1,1,1.8,0.8,2.8c-0.3,1.3-0.9,2.5-1.2,3.8
	c-0.1,0.2,0.7,1,1.1,1c2.4,0,2.5-0.1,2.4,1.7c-0.4,6.3-1.1,12.6-1.4,18.9c-0.2,4.1,0.2,8.3-0.2,12.4c-0.6,7.6-1.6,15.1-2.2,22.6
	c-0.1,1.4,0.4,3,0.9,4.4c2.5,7.6,9.1,8.8,15.7,10c15.9,3,31.9,4,48.1,2.6c13.1-1.2,26.2-1.4,39.3-2.3c4.3-0.3,8.6-1,12.8-1.9
	c9.9-2.3,19.7-4.7,29.5-7.5c3.6-1,7.1-2.9,10.3-4.9c1.2-0.7,2-3,2-4.6c0.2-20.6,0.2-41.2,0.2-61.9c0-19.3,0.1-38.5-0.1-57.8
	c0-4.4-1.1-8.8-1.7-13.2c-0.3-2.4-1.9-3.2-4.1-3.6c-5.9-1-11.6-2.1-16.9-6c-3.8-2.9-9.4-3.6-14.1-5.2c-1-0.3-1.9-0.8-2.8-1.2
	c0.9-0.3,1.7-0.8,2.6-1c7.1-1.6,14.7-2.2,21.3-5.1c11.6-5,23.5-3,35.3-4c3-0.2,5.3,0.8,6.3,3.7c0.2,0.5-0.3,1.4-0.7,2
	c-0.6,0.8,0.1,5.1,0.8,5.9c2,2.2,2.2,4.8,0.8,7.1c-2.6,4.2-2.1,7.7-0.4,12.4c2.1,5.8,2.2,12.3,2.7,18.5c0.3,4-0.2,8.1-0.3,12.2
	c0,0.6,0.4,1.1,0.6,1.7c0.6,1.9,1.2,3.9,1.6,5.8c0.2,1.3-0.4,2.8,0,3.9c2.9,8.2,1.7,16.7,2.3,25c0.2,2.4,1.3,4.7,1.5,7
	c0.2,2.5-0.3,5-0.3,7.5c0,4.9-1,10.1,0.6,14.4c1.8,5,1.5,10.5,4,15.3c1.4,2.7,1,5.3,0.3,8.5c-0.8,3.8,0.5,8.2,1.3,12.2
	c0.4,1.9-0.6,5.6,3.7,4.8c0.1,0,0.7,1.7,0.9,2.6c0.4,2.1,0.7,4.2,1,6.3C243.9,302.9,243.9,305.9,243.9,308.9z"/>
<path d="M0.1,34.1c1.2-2.1,2.1-4.4,3.5-6.3c1.7-2.4,3.4-4.9,5.6-6.9c3.8-3.5,7.8-6.7,11.8-10c3.1-2.6,6.5-3.9,10.6-3
	c1.3,0.3,2.6,0.6,3.9,0.7c8.1,0.6,8.1,0.6,9.7,8.2c0.2,1.1,0.1,2.8,0.8,3.3c4.1,3,1.4,7.4,2.3,11.1c0.4,1.5-1.9,4.4-3.6,5.4
	c-6.1,3.2-11.2,8.4-18.6,9.1c-0.7,0.1-1.7,0.9-1.8,1.5c-1.1,5.1-5,6.3-9.2,7.1c-0.2,0-0.3-0.1-0.5,0c-2.1,0.7-4.9,2.6-6.1,1.8
	c-1.6-0.9-1.9-4-2.8-6.1c-1.8-4.3-3.6-8.5-5.4-12.8C0.1,36.1,0.1,35.1,0.1,34.1z"/>
<path d="M218.9,0.1c3.8,2.7,7.5,5.5,11.3,8.2c2.3,1.6,3.9,3.4,3.5,6.6c-0.2,1.5,0,3.7,0.9,4.7c3.5,3.6,0.6,7.8,1.5,11.5
	c0.2,0.7-1.3,2.3-2.2,2.6c-6.8,1.9-13.7,3.7-20.7,5.4c-4.5,1.1-15.5-4.7-16.9-9.1c-1.9-5.9-3.3-11.9-4.5-18c-0.2-1.2,1.4-3.3,2.7-4
	c2.3-1.3,5-1.8,7.4-2.8c4-1.6,7.9-3.4,11.8-5.1C215.6,0.1,217.2,0.1,218.9,0.1z"/>
<path d="M112,212.3c0.4-6.3,0.5-12.6,1.2-18.9c1.5-12.2,0.8-24.2-0.8-36.3c-1.2-9-1.7-18.2-2.4-27.3c-0.1-1.8-0.9-4.4,2.7-3.9
	c0.2,0,1-1.5,0.9-2.3c-0.7-4.4-1.4-8.9-2.4-13.3c-0.3-1.5-1.3-3.2-2.5-4.1c-7.5-5.7-15.2-11.2-22.8-16.7
	C77.8,83.8,69.7,78,61.6,72.3c-1.6-1.1-3.3-2.2-5.1-2.9c-5-1.7-10.1-3-15-4.7c-1.2-0.4-2.9-2.2-2.7-2.9c0.4-1.3,1.7-3.1,3-3.4
	c16.4-3.8,28.9-14.1,41.6-24.3c3.6-2.9,7.7-5.3,11.2-8.3c5.3-4.5,10.2-9.4,15.3-14.1c0.6-0.6,1.5-1.7,1.8-1.5c4.2,1.5,6-4.5,10-3.1
	c2.3,0.8,4.8,1.5,6.9,2.7c10,5.2,20,10.6,29.9,15.9c0.6,0.3,1.2,0.8,1.8,0.9c7.8,1.5,13.3,7.2,19.8,11c4.1,2.4,8.6,4.6,13.2,5.7
	c3.8,0.9,5.5,3.5,7.3,6.1c1.9,2.8,1.1,6.6-2.6,9.1c-5.5,3.7-10.1,9.2-17.5,9.5c-0.3,0-0.7,0.1-0.9,0.3c-8,5.9-16.1,11.5-23.8,17.7
	c-6.3,5.1-12.2,10.8-18.1,16.3c-1.4,1.3-3.1,3-3.4,4.7c-0.9,6.6-1.2,13.3-1.7,20c-0.2,2.5,0,4.9,0.1,7.4c0,1-0.1,2.4,0.4,2.8
	c4,3.6,1.4,7.8,1.2,11.8c-0.3,6.4-0.5,12.8-0.9,19.2c-0.2,3.9-2.1,8.5-0.6,11.5c1.9,3.8,2.1,7.1,1.8,10.8
	c-0.4,5.1-0.8,10.3-1.1,15.4c-0.1,1.5-0.1,3.1,0.4,4.4c3.2,7.7,1.7,15.6,1.2,23.5c-0.6,9.1-0.3,18.3-0.2,27.5
	c0,5.1,0.6,10.3,0.5,15.4c-0.1,2.7-0.8,5.5-1.7,8.1c-0.3,0.9-2,1.7-3.2,1.8c-3.6,0.1-7.2-0.1-10.8-0.2c-2.5-0.1-5-0.6-7.5-0.3
	c-11.7,1.2-23.1-0.9-34.4-3.5c-1.8-0.4-4.3-2.8-4.5-4.5c-0.2-1.6,1.7-4.2,3.4-5.3c6.4-4.1,13.5-2.5,20.4-1.4
	c2.6,0.4,5.2,0.9,7.9,1.3c2.5,0.5,3.9-0.6,4.3-2.9c0.5-2.9,0.9-5.9,1.2-8.9c0.3-3.3-1.3-4.7-4.1-2.9c-8.4,5.2-16,0.8-23.8-1.4
	c-1.1-0.3-2.4-2.7-2.3-3.9c0.2-1.5,1.5-3.4,2.9-4.1c7-3.7,14.6-4.2,22.3-3c1.8,0.3,5.3,0.2,5.3-0.1c0.4-2.9,0.7-6,0-8.8
	c-0.6-2.3-3.1-2.3-5.5-2c-8.1,1.1-15.9-0.8-23.5-3.1c-3.1-0.9-3.7-4-3.6-6.5c0.1-2.7,1.7-5.3,5.1-5.1c3.9,0.2,7.8,0.9,11.7,1.2
	c3.8,0.3,7.6,0.7,11.4,0.7c4.9,0,5-0.2,5.3-5C111.8,215.4,111.9,213.9,112,212.3C112.2,212.3,112.1,212.3,112,212.3z M115.9,83.1
	c2.6-1.1,5.6-2,8.1-3.7c10.1-6.9,20.1-14.2,30.2-21.2c3.7-2.5,3.9-3.3-0.1-5.3c-9.7-4.7-19.5-9.3-29.4-13.7c-3-1.3-6.2-2.2-9.3-3
	c-0.8-0.2-1.9,0.4-2.7,0.9C102,43.5,91.3,49.9,80.6,56.3c-1.5,0.9-2.6,1.5-0.3,3C85.8,63,91.1,67,96.4,71c5.4,4,12.6,5.1,16.8,11
	C113.6,82.6,114.7,82.7,115.9,83.1z"/>
</svg>
