<?xml version="1.0" encoding="utf-8"?>
<!-- Generator: Adobe Illustrator 24.3.0, SVG Export Plug-In . SVG Version: 6.00 Build 0)  -->
<svg class="icon" version="1.1" xmlns="http://www.w3.org/2000/svg" xmlns:xlink="http://www.w3.org/1999/xlink" x="0px" y="0px"
	 viewBox="0 0 249 287" style="enable-background:new 0 0 249 287;" xml:space="preserve">
<path d="M248.9,22c0,0.3,0,0.7,0,1c-0.7,1.6-1.4,3.1-2.1,4.7c-0.4,1-0.4,2.2-1,2.9c-4.7,5.3-5.7,12-5.9,18.4
	c-0.6,16.6,1,33.3-0.7,49.7c-0.7,6.6,0.4,13-0.7,19.5c-2,12.2-3.9,24.5-5.8,36.7c-0.4,2.6-1.2,5.1-1.2,7.7c0,4.6,1.1,9.2,0.7,13.7
	c-0.9,12.4-2.6,24.7-3.4,37.1c-0.3,4-2.4,5.5-5.2,6.2c-4,1.1-8.1,1.7-12.3,2.1c-5.1,0.4-9.6-1.3-14.4-3.3
	c-4.6-1.8-11.1,0.5-15.3-1.7c-7.1-3.8-13.9,1.1-20.7-1.1c-2.6-0.9-6,0.9-9.1,1c-17.4,0.2-34.9,0.2-52.4,0.2c-2.4,0-6.1,0.4-7-0.9
	c-2-2.8-3.8-1.9-6-1.2c-4.1,1.3-8.1,3-12.3,3.8c-5.8,1.2-12.5,0.3-17.4,2.9c-6.2,3.3-8.4,0.3-11.6-3.3c-6.6-7.7-11-15.9-8.9-26.7
	c3.7-19.3,7.2-38.6,10.1-58c5.3-35.2,10.1-70.5,14.9-105.7c0.3-2-0.4-5.2-1.7-6.1c-3-1.9-3-4.5-3.1-7.2c-0.1-1.3,0-2.7-0.4-3.9
	C53.4,3.4,53.3,3.4,60,0c3.7,0,7.3,0,11,0c3.2,0.6,6.4,1.6,9.7,1.9c10.9,0.8,21.9,1.3,32.8,2.1s21.8,2.2,32.8,2.5
	C158.5,6.7,170.8,6.1,183,6c9.6-0.1,19.3,0.1,28.9-0.2c7.1-0.2,14.2-1.1,21.4-1.7c7.1-0.7,8.7,0.8,10.4,7.6
	C244.7,15.3,247.1,18.6,248.9,22z M145.7,35.7c-1.1,0.7-2.1,1.3-3,2c-3.3,2.8-6.7,5.5-9.9,8.4c-10.7,9.5-21.6,18.8-31.9,28.6
	C92.2,83,84,92,75.6,100.8c-4.6,4.8-4.5,6.5-0.4,11.5c1.4,1.7,2.8,3.3,4.4,4.8c19.2,19.4,38.2,39,53.8,61.6c2.1,3.1,3.6,1.8,5.4-0.1
	c7.9-7.9,15.7-15.9,23.8-23.5c16.9-15.7,34-31.3,51.1-46.8c4.3-3.9,5.1-6.1,1.9-9.6c-8.4-9-16.7-18.1-25.9-26.3
	c-13.6-12.1-28-23.5-42-35.1C147.2,36.7,146.5,36.3,145.7,35.7z M71.7,126.6c-0.7,1.9-1.2,3-1.4,4.1c-1.2,7.7-2.4,15.4-3.5,23.1
	c-1.5,10.7-3,21.4-4.5,32.1c-0.5,3.4,1.4,3.6,4.2,3.5c15.1-1,30.2-1.8,45.3-2.5c5.3-0.2,10.6,0,16-0.1c2.8,0,4.4-1.1,2.3-3.9
	c-3.3-4.6-6.6-9.2-10.2-13.5c-8.9-10.6-17.2-21.8-29.8-28.9C83.7,136.9,78.2,131.7,71.7,126.6z M216.7,125.3c-0.5-0.3-1-0.6-1.5-0.9
	c-5.5,4-11.3,7.5-16.3,12c-6.6,5.9-12.4,12.7-18.8,18.9c-9.1,8.8-18.4,17.3-27.6,25.9c-1.6,1.5-3.4,2.7-5.2,4
	c2.7,1.3,5.1,1.4,7.5,1.6c9.6,0.9,19.2,1.7,28.7,2.7c6.4,0.7,12.8,1.6,19.2,2.5c3.5,0.5,4.7-1,5.2-4.3c1.7-12.5,3.8-25,5.6-37.5
	C214.7,142,215.6,133.6,216.7,125.3z M217.6,86.8c0.5-0.2,0.9-0.3,1.4-0.5c0.5-5.6,1.2-11.2,1.4-16.8c0.4-9.9,0.5-19.9,0.6-29.9
	c0.1-3.4-1.6-4.5-5-4.5c-8,0-16.1-0.2-24.1-0.5c-12-0.4-23.9-0.9-35.9-1.4c-0.5,0-1.1,0.4-2.2,0.9c20,18.7,39.6,37,59.1,55.4
	c0.2-0.2,0.5-0.4,0.7-0.7c-9.3-9.5-18.5-19-27.8-28.5c0.3-0.3,0.6-0.6,0.9-0.9C198.6,66.6,207.4,77.5,217.6,86.8z M112.2,55.6
	c0.2,0.2,0.4,0.4,0.6,0.6c9.1-7.4,18.3-14.9,27.4-22.3c-0.2-0.5-0.3-1-0.5-1.5c-8.6,0-17.2,0.3-25.7-0.1
	c-12.7-0.5-25.5-1.4-38.2-2.5c-3.6-0.3-4.1,0.8-3.9,4.1c0.9,12.4,1.5,24.8,2,37.3c0.1,3-0.4,6.1-0.7,9.7
	c14.6-10.7,28.5-20.8,42.3-30.9c0.1,1.6-0.5,2.4-1.2,3.1C113.7,54,112.9,54.8,112.2,55.6z"/>
<path d="M0,234.9c4.6-21.3,9.9-42.4,13.8-63.9C20,136.3,25.2,101.5,31,66.7c0.9-5.2,2.8-10.3,4.4-15.3c0.4-1.1,1.6-2.5,2.6-2.6
	c0.9-0.1,2.3,1.3,2.7,2.3c0.8,2.3,1.8,4.8,1.6,7.2c-0.6,6.4-1.8,12.8-2.8,19.2c-0.1,0.5-0.5,1-0.4,1.4c2.8,13-3.1,25.3-3.5,38
	c-0.1,1.9,0.2,3.9,0.3,5.9c0.1,1.3,0.9,2.8,0.5,3.8c-2.1,5.4-1.8,11.3-3.3,16.8c-1.4,5.1-0.2,10.9-0.5,16.4
	c-0.1,3.1-0.5,6.3-1.4,9.3c-2.8,8.8-3.1,17.5-1.2,26.6c1.1,5,0.1,10.6-0.3,15.8c-0.4,6.2,0.9,11.5,4.9,16.7
	c1.9,2.5,1.5,6.7,1.9,10.1c0.2,1.6,0.2,3.3,0,4.9c-0.9,7.6,3.9,10.5,10,11.8c5.8,1.3,11.8,2.3,17.7,2.6c33.1,1.5,66.1,2.4,99.2,4.1
	c16.3,0.8,32.6,0.7,48.8-1.1c3.3-0.4,4.1-2.3,4.7-4.8c1.7-6,3.2-12.1,5-18.1c0.3-1.1,1.8-2,2.7-2.9c0.5,1.2,1.5,2.4,1.6,3.7
	c0.3,7.2,0.4,14.4,0.4,21.6c0,3.8,0.5,7.1,5.3,7.2c-0.4,3.4,6.5,2.2,4.2,7c-2.3,4.6-4.6,8.9-10.1,10.2c-1.2,0.3-2.2,1.5-3.2,2.3
	c-9,0-18,0-27,0c-3.8-1-7.5-2.7-11.3-2.8c-6.8-0.2-13.5-1-20.5,1c-5.3,1.5-11.4-0.1-17.1-0.1c-16.8,0.2-33.3-1.3-49.8-4.7
	c-0.5-0.1-1-0.2-1.5,0c-6,2-11.7,2-17.5-1.2c-2-1.2-4.9-1.1-7.3-1.3c-5.6-0.3-11.4,0.1-16.9-0.8c-4.8-0.7-9.7-2.2-14-4.3
	c-4.4-2.2-8.2-5.7-12.2-8.6c-4.8-3.5-6.9-10-14.7-10.6c-4.6-0.4-8.7-5.5-13.1-8.5C0,241.6,0,238.2,0,234.9z"/>
<path d="M207.7,239.8c0,7.5-1.1,8.1-8.7,7.5c-12.1-1-24.2-1.3-36.3-1.8c-0.3,0-0.7,0.2-1,0c-8.3-3.6-17.3-1.8-25.8-3.6
	c-5.5-1.1-10.9-2.6-16.4-4c-0.2,0-0.4-0.2-0.5-0.1c-5.6,3.5-11.3-0.7-17.2,0.4c-5.4,1-11.2,0.1-16.8-0.4c-7.6-0.7-15.1-1.9-22.6-2.5
	c-2.2-0.2-4.5,1.2-6.8,1.1c-1.7-0.1-3.4-1.3-5.1-2.1c1.3-1.1,2.4-2.9,3.8-3.2c4.7-1,9.5-2.1,14.3-2.1c17.9,0.2,35.8,0.9,53.7,1.4
	c1.5,0,3,0.1,4.5-0.1c17.1-2.3,33.7,1.5,50.4,4.1c6.5,1,13.2,0.9,19.9,1.2c1.1,0,2.3-0.3,3.4-0.8C207,232,207.7,232.4,207.7,239.8z"
	/>
</svg>
