<svg class="icon" xmlns="http://www.w3.org/2000/svg" viewBox="0 0 703.3 711.9"><path d="M703.3 568.6c-2.3 3.5-4.6 7-6.7 10.7 -0.4 0.7 1.1 2.5 0.7 3.1 -1 1.7-2.5 3-3.9 4.5 -3.1 3.2-6.1 6.6-9.5 9.6 -1.1 1.1-3 1.8-4.5 1.9 -7.7 0.4-15.3 0.6-23 0.8 -0.6 0-1.4-0.7-1.9-1.3 -0.2-0.2 0.3-1.1 0.6-1.5 0.5-0.6 1.1-1.1 1.6-1.6 -1.1-0.2-2.2-0.6-3.3-0.6 -0.5 0-1 0.9-1.5 1.3 -1.7 1.4-3.3 4-5.1 4.1 -8.8 0.1-17.6-0.7-26.4-0.8 -11.1-0.1-22.2 0.3-33.3 0.1 -15.2-0.3-30.5-1.1-45.7-1.6 -1.6-0.1-3.2-0.1-4.7-0.3 -3.8-0.5-7.6-1.5-11.3-1.3 -1.6 0.1-2.9 2.7-4.5 4 -0.5 0.4-1.4 0.8-2 0.7 -4.1-0.7-8.2-1.5-12.3-2.3 -0.5-0.1-0.8-1.1-1.2-1.1 -3.6 0.1-7.2 0.3-10.9 0.5 -4.1 0.2-8.2 0.5-12.2 0.3 -8.9-0.4-17.8-1.1-26.7-1.5 -0.7 0-1.4 0.7-2.1 0.8 -2.4 0.3-4.7 0.5-7.1 0.8 2.6 0.4 5.3 0.7 7.9 1.1 0.9 0.1 1.8 0.4 2.6 0.7 -0.9 0.3-1.9 0.8-2.8 0.8 -6.1-0.1-12.2-0.2-18.3-0.5 -0.9 0-1.7-0.6-2.6-0.9 0.8-0.2 1.5-0.4 2.3-0.7 0.3-0.1 0.7-0.3 1-0.5 -1.1-0.3-2.2-0.9-3.2-0.9 -8.5 0-16.9-0.1-25.4 0.2 -3.3 0.1-6.5 1-9.7 1.3 -2.5 0.2-5-0.1-7.5-0.2 -0.1 0-0.4-1.2-0.2-1.4 4.6-3.5-2.8-1.9-1.7-3.8 -4.6-0.2-9.2-0.5-13.8-0.7 -0.3 0-0.6-0.4-1-0.5 -1-0.4-2.1-0.8-3.1-1.2 -0.1 0-0.5 0.4-0.4 0.5 0.8 1.2 1.4 2.6 2.4 3.6 0.7 0.6 2 0.6 3 0.9 -1.3 0.8-2.5 2.2-3.9 2.4 -4.7 0.6-9.5 1.2-14.3 1.1 -8.4-0.2-16.8-1.5-25.1-1.3 -4.8 0.1-9.5 2.2-14.3 3.2 -0.8 0.2-1.7-0.9-2.6-0.9 -5.9-0.2-11.9-0.4-17.8-0.3 -3.8 0.1-7.7 1.5-11.2 0.7 -3.7-0.9-6.6-1.7-10.2 0.6 -1.5 1-5-1.5-7.7-1.9 -1.9-0.3-3.9 0.3-5.8 0.4 -7.3 0.2-14.5 0.2-21.8 0.3 -0.4 0-0.8 0.2-1.1 0.4 0.5 0.1 0.9 0.3 1.4 0.4 3.2 0.4 6.4 0.8 9.6 1.3 0.6 0.1 1.2 0.6 1.8 0.9 -0.6 0.1-1.2 0.2-1.8 0.2 -10.9-0.1-21.9-0.1-32.8-0.6 -5.4-0.2-10.7-1.8-16.1-2.2 -3.9-0.3-8 0.7-11.9 0.4 -12.3-0.9-24.5-2.5-36.8-3.3 -6.9-0.5-13.9-0.1-20.8 0.2 -7.6 0.3-15.1 1.2-22.6 1.5 -4 0.2-8-0.8-12-0.6 -7.2 0.3-14.3 1.1-21.5 1.7 -0.2 0-0.3 0.4-0.4 0.7 0.4 0 0.8-0.1 1.2 0 3.6 0.1 7.2 0.2 10.8 0.5 0.9 0.1 1.7 1 2.6 1.6 -1 0.3-1.9 0.9-2.9 0.9 -6.3 0-12.6-0.3-18.9-0.3 -0.9 0-1.7 1.1-2.6 1.6 -0.9 0.5-1.8 1.1-2.8 1.1 -5.8 0.5-11.7 0.7-17.6 1.3 -3.8 0.4-7.5 1.6-11.2 2 -1.2 0.1-2.5-1.5-3.9-1.9 -2.5-0.7-5.1-0.9-7.6-1.6 -0.8-0.2-1.7-0.8-2.2-1.5 -5-8.3-9.9-16.7-14.8-25.1 -2-3.4-4-6.7-6.1-10.1 0-0.2 0-0.4 0-0.6 1.7-1.9 3.6-3.6 5.1-5.6 4.9-6.7 9-6.6 15.9-0.4 1.3 1.1 4.7-0.3 7.1-0.4 7.8-0.2 15.7-0.2 23.6-0.3 5.6 0 11.6 1.4 16.6-0.3 3.5-1.1 5.8-6.1 8.3-9.7 15.3-22.4 30.6-44.8 45.6-67.3 11.5-17.3 22.4-35.1 34.2-52.2 1.6-2.3 7.4-3.4 10.6-2.5 5.4 1.6 11.1 4.4 14.9 8.4 4.3 4.5 6.7 10.8 10.1 16.3 4.4 7.3 8.7 14.8 16.6 19.2 1.3 0.7 1.4 3.5 2.7 4.8 2.1 2.1 4.7 3.8 7.1 5.7 0.9-1.6 2-3.2 2.8-4.8 4.6-9.2 9.4-18.3 13.5-27.8 2.1-4.8 2.5-10.4 4.2-15.5 3.6-10.5 7.5-20.9 11.6-31.2 5-12.5 10.4-24.9 15.7-37.3 10.6-24.8 21.3-49.5 31.9-74.2 10.1-23.5 20.1-47.1 30.3-70.6 5.2-11.9 10.7-23.7 16-35.6 0.4-0.9 0.4-2.2 0.2-3.3 -1.2-5.9 0.9-7.9 6.9-6.8 2.5 0.4 6.6-1.1 7.4 0.1 3.5 4.8 5.9 10.4 9.1 15.5 2.7 4.4 5.9 8.4 8.7 12.7 3.3 5.2 6.4 10.4 9.4 15.8 1.6 2.8 3 5.8 3.8 8.9 1.7 6.1 2.9 12.4 4.5 18.5 0.5 2 1.7 3.8 2.4 5.7 2.3 6.1 4.2 12.4 6.9 18.4 2.8 6.4 6.5 12.5 9.2 18.9 1.5 3.5 1.7 7.5 2.4 11.4 0.1 0.3-1.3 1.2-1.5 1.1 -0.7-0.4-1.2-1.2-1.6-1.9 -0.7-1.4-1.3-2.8-1.9-4.2 -0.4 0.3-1.2 0.6-1.2 0.7 0.4 1.6 0.5 3.6 1.6 4.5 1.9 1.6 4.4 2.5 6.6 3.7 0.2 0.1 0.6 0.4 0.6 0.6 -1.1 6.4 4.5 10.1 6.3 15.4 2.6 7.3 5.3 14.6 8.3 21.8 1.1 2.7 3.5 4.9 5.1 7.4 2.7 4.4 5.3 8.9 7.6 13.4 4.2 8.2 8.1 16.7 12.4 24.9 1.3 2.5 3.4 4.5 5.2 6.8 0 0 0.2 0 0.2 0 1 2.3 2.3 4.6 3.1 7 1.9 5.6 2.7 11.8 5.6 16.7 2.9 4.8 3.5 10.2 6.2 14.9 4.8 8.3 9.3 16.7 13.9 25 0.9 1.6 1.4 3.3 2.2 4.9 0.7 1.4 1.4 2.7 2.1 4 1.1-1.2 2.5-2.3 3.2-3.7 4.8-9.4 9.3-19 14.4-28.4 2.7-5.1 6.4-9.6 9.6-14.4 0.4-0.6 0.7-1.5 0.7-2.3 -0.7-7.1 5.6-8.4 9.7-11.1 0.8-0.5 4.7 3.3 7.1 5.2 0.6 0.5 1 1.3 1.6 1.9 1.1 0.9 2.5-0.5 3.6-0.5 10.5 0.2 13.2 8.2 17.3 15.1 0.6 1.1 2.9 2.5 3.5 2.2 5.7-2.8 5.1 5 8.9 5.2 -0.3 0.7-0.4 1.7-1 2.1 -1.2 0.9-2.6 1.4-3.9 2.1 1.3 1.9 2.4 4 4.1 5.5 1.6 1.5 4.4 1.8 5.7 3.5 5.1 6.5 9.8 13.2 14.8 19.8 1.6 2.2 3.4 4.2 5.1 6.3 0.2 0.2 0.6 0.3 0.9 0.4 4.8 0.6 4.7 1.6 7.5 7.4 3.6 7.4 8.5 14.2 12.7 21.2 5.7 9.5 12 18.8 16.9 28.7 3.7 7.4 6.9 15 13.7 20.2 0.3 0.2 0.7 0.4 1.1 0.4 1.1 0.1 2.3 0 3.4 0 9.3 0.2 18.7 0.5 28 0.5 7.2 0 15.5-3.1 18.8 7.4C703.3 565.6 703.3 567.1 703.3 568.6zM276.4 424.7c-0.1 0-0.2 0-0.4 0.1 -1.6 3.9-3.3 7.9-4.9 11.8 -0.2 0.5-0.1 1.1-0.2 1.6 0.5-0.4 1-0.6 1.4-1.1 1.9-2.5 3.7-5 5.7-7.4 0.3-0.4 1-0.6 1.5-0.8 0.1 0.7 0.4 1.5 0.2 2 -3.6 7.2-7.1 14.5-10.9 21.6 -2.9 5.4-6.1 10.6-9.2 15.8 -3.8 6.5-7.7 13-11.4 19.6 -1.1 1.9-1.6 4.3-2 6.5 -0.1 0.8 1.5 2.1 1.3 2.6 -2.3 4.3-4.8 8.6-7.3 12.7 -0.3 0.5-1.3 0.4-1.8 0.8 -0.9 0.7-2.5 1.6-2.4 2.2 0.3 2.3 0.9 4.7 2 6.7 5 9 10.4 17.8 15.2 26.9 0.6 1.2-0.8 3.6-1.6 5.3 -0.1 0.3-2.3 0-3-0.6 -4.7-3.8-9.9-7.3-13.6-11.9 -12.4-15.3-24.3-31-36.3-46.6 -7-9.1-13.9-18.2-20.5-27.5 -2.9-4-3.2-1.7-5.3 0.7 -2.9 3.4-2.1 10.6-9.3 9.9 0 0-0.2 0.8-0.2 1.3 0.1 1.4 0.5 2.8 0.3 4.2 -0.1 0.4-2 0.2-2.8 0.7 -1.5 0.8-2.9 1.7-4.1 2.8 -0.4 0.4 0 1.7 0 2.6 1.1-0.8 2.2-1.6 3.3-2.4 0.3-0.2 0.7-0.2 1-0.4 -0.1 0.4-0.1 0.8-0.3 1.2 -5.6 9.2-11.2 18.5-17 27.7 -3 4.7-6.3 9.2-9.7 13.7 -1 1.3-2.8 2-4.3 2.8 -1.1 0.5-3 0.3-3.5 1.1 -4.2 6.2-8.1 12.7-12.3 19 -2.5 3.7-5.3 7.2-7.9 10.8 -0.3 0.5-0.5 1.1-0.5 1.7 0 0.2 0.9 0.6 1.3 0.6 2.1 0 4.2-0.1 6.3-0.3 9.9-0.9 19.7-2.3 29.6-2.8 23.7-1.2 47.5-2 71.2-3.1 9.5-0.4 18.9-1.4 28.4-1.6 18-0.2 36 0 54.1 0 10 0 20 0.2 30.1 0.4 16.8 0.3 33.6 0.7 50.4 1.2 16.6 0.5 33.1 1.3 49.7 1.6 16.3 0.2 32.6-0.1 48.9-0.2 20.8-0.1 41.6 0.1 62.3-0.2 9.3-0.1 18.7-1.1 28-1.4 8.2-0.3 16.5 0 24.8-0.2 5.8-0.1 11.7-0.9 17.5-0.8 7.6 0.2 15.3 1.2 22.9 1.7 0.9 0.1 1.8-0.3 2.6-0.7 0.2-0.1 0-1.2-0.3-1.6 -3.2-3.9-6.4-7.9-9.8-11.7 -9.3-10.2-19-20-28-30.4 -12.4-14.4-24.3-29.2-36.3-43.8 -3.9-4.8-7.7-9.6-11.7-14.4 -0.3-0.4-1.9-0.5-2-0.4 -2.4 6.6-4 13.5-7.1 19.6 -3.4 6.8-3.7 16-12.5 19.3 -0.4 0.1-0.5 1.1-0.7 1.6 -0.7 1.8-1.4 3.7-2 5.6 -0.5 1.9-0.9 3.8-1.3 5.8 -0.2 1 0.2 2.3-0.3 2.9 -2.9 3.2-6.2 6-9 9.3 -4.8 5.4-10.3 4.6-16.5 2.4 -3.3-1.2-7.9-0.2-10.2-2.2 -3.8-3.3-6.4-8.2-9.1-12.6 -4.6-7.3-9.2-14.6-13.2-22.2 -7.6-14.5-14.9-29.2-22-44 -7.7-16.1-14.8-32.5-22.6-48.6 -5.7-11.7-12-23.2-18.1-34.7 -5.8-10.8-11.8-21.5-17.4-32.5 -4.6-9.1-8.5-18.5-12.8-27.8 -2.3-5-4.5-10-6.9-15 -0.6-1.3-1.9-2.2-2.9-3.3 -2.1 2.3-4.6 4.3-6.2 6.8 -7.4 11.4-14.8 22.7-21.7 34.4 -4.1 6.9-6.6 14.8-10.6 21.8 -6.5 11.5-13.6 22.6-20.4 33.9 -1 1.6-1.4 3.6-2.1 5.4 1.3-1.2 2.5-2.5 3.8-3.7 0.7-0.7 1.6-1.3 2.4-1.9 -0.2 1.3-0.1 2.7-0.6 3.8 -1.1 2.5-2.4 5-3.8 7.4 -0.3 0.5-1.1 0.8-1.7 1 -1.3 0.4-3.4 0.3-3.8 1.1 -2.4 5.4-4.3 11.1-6.5 16.6 -1.2 3-3.5 5.7-3.8 8.7 -0.5 4.4-1.6 3.2-3.9 1.3 -0.6-0.5-2.6-0.6-2.7-0.5C278.3 417.6 277.4 421.2 276.4 424.7zM211.5 597.1c-1 0.8-0.2 0.2 0.6-0.4 -1.5-0.7-3.1-1.9-4.6-1.9 -8.3 0.2-16.7 0.6-25 1 -0.5 0-0.9 0.2-1.4 0.3 0.5 0.1 1 0.3 1.5 0.3C191.5 596.6 200.4 596.8 211.5 597.1z"/><path d="M557.4 293.1c3.5 2 7.3 3.5 10.3 6 3.6 3.1 6.8 6.8 9.6 10.6 1.3 1.8 0.2 5.7 1.6 6.7 3.9 2.8 8.6 4.4 12.8 6.8 4.7 2.7 9.4 5.4 13.6 8.8 3.2 2.6 5.2 6.5 8.3 9.3 2.5 2.1 5.9 3.1 8.6 5 1.8 1.2 3.2 3.1 4.6 4.8 0.7 0.9 1.1 2.2 1.6 3.4 -1.8-0.1-3.9 0.4-5.2-0.5 -10.8-7.3-21.6-14.7-32.2-22.5 -7.1-5.2-13.6-11.2-20.7-16.4 -5.8-4.3-12.1-7.8-18-11.9 -13.5-9.1-26.8-18.4-40.3-27.5 -18.3-12.4-36.7-24.8-55.3-36.7 -3.1-2-7.5-1.7-11.3-2.7 -2.4-0.6-4.7-1.4-7-2.3 -4.9-2-9.7-5.3-14.7-5.9 -7.2-0.8-5.6-4.1-4.9-8.7 0.6-3.5-0.6-7.3-1.4-10.9 -1.8-8.3 1.3-13.9 8.6-17.4 0.4-0.2 1.3-0.5 1.4-0.4 4.9 7.1 9 0.2 13.5-0.3 5-0.6 10.2-1.2 15.2-0.8 3.7 0.3 7.2 2.4 10.9 3.4 2.5 0.7 5.2 1.1 7.7 1.8 0.6 0.2 1.4 1 1.4 1.5 -0.4 5.1 3 9 8 11.7 2.2 1.2 3.1 5.1 4.5 7.8 0.1 0.1-0.6 0.6-1 0.9 -0.4-0.4-0.7-0.9-1.1-1.3 -0.8-0.7-1.4-1.6-2.3-2.1 -0.4-0.2-1.3 0.5-1.9 0.8 0.7 0.8 1.3 1.6 2 2.3 2 2.1 3.9 4.5 6.2 6.1 1.2 0.8 3.3 0.3 5 0.5 0.1 0.5 0.1 0.9 0.2 1.4 0 0.5 0 1.1 0 1.6 1.7 0.7 3.4 1.3 5 2l0.1 0c0.2 0.1 0.3 0.2 0.5 0.3 0 0.2 0 0.3 0 0.5 0.8 0.2 1.5 0.3 2.3 0.5 0.4 0 0.9 0 1.3 0 0.2 0 0.3 0.1 0.5 0.1 0.5 0.1 0.9 0.2 1.4 0.3 0.2 0.2 0.3 0.3 0.5 0.5 0.2 0.5 0.5 0.9 0.7 1.4 -0.1 0.2-0.1 0.3 0 0.5 2.5 3.4 4.9 6.8 7.5 10.1 8 10.3 16 20.6 24.2 30.8 3 3.6 7 6.4 9.9 10 2.1 2.7 3.3 6.2 4.8 9.4 0.3 0 0.7 0 1 0.1 0 0 0.2-0.1 0.2-0.1 0.1 0 0.3 0 0.4 0 0.3 0.2 0.6 0.5 0.9 0.7 0 0 0.2 0.1 0.2 0.1S557.4 293.1 557.4 293.1z"/><path d="M425.3 143.1c2.8-4.2 5.5-8.5 8.3-12.7 3-4.6 5.6-9.6 9.2-13.7 2.7-3.1 6.8-4.9 10.2-7.3 1-0.7 2.4-0.9 3.1-1.7 3.3-4.2 5.6-0.5 8.1 1.2 1 0.7 1.9 1.8 2.7 2.7 3.7 3.8 7.3 7.6 10.9 11.4 0.9 1 1.6 2.2 2.6 3.2 3.8 3.8 11.1 3.9 14.7 0.2 0.1-0.1 0.3-0.4 0.3-0.5 -0.5-0.9-1-1.8-1.5-2.7 2.7 0.5 5.5 0.9 8.2 1.5 0.3 0.1 0.5 1 0.6 1.6 0 0.1-0.6 0.5-1 0.5 -0.8 0.1-1.6 0-2.5 0 0.1 0.4 0.1 1.2 0.3 1.2 1.2 0.2 2.4 0.2 3.6 0.2 1.2 0 2.5-0.1 3.7-0.2 0.5 0 1.4-0.1 1.4-0.2 -0.2-5.7 2.2-3.6 5.5-2.3 3.4 1.3 7.7 1.7 11.1 0.9 1.9-0.4 2.5-1.9 5.3-0.7 4.7 2 10.3 2.1 15.4 3.1 9.9 1.9 19.8 4 29.7 5.9 3.2 0.6 6.4 1.2 9.7 1.6 0.8 0.1 1.6-0.5 2.5-0.8 -0.7-0.3-1.4-0.4-2-0.8 -1.7-0.8-3.3-1.7-4.9-2.6 -0.2-0.1-0.3-0.6-0.4-1 0.4-0.1 0.9-0.3 1.2-0.2 6.5 3.5 13.1 6.9 19.4 10.6 1 0.6 1.2 2.5 1.7 3.8 -1.4-0.6-2.8-1.1-4.2-1.9 -2.1-1.2-4.1-2.5-6.2-3.7 1.8 1.4 3.5 2.8 5.3 4.2 1.9 1.5 4 2.7 5.8 4.4 0.5 0.5 0.5 2.6 0 3 -9.9 7.1-21.5 8.5-33.3 8.9 -13.5 0.5-26.9 0.9-40.4 1 -10.4 0.1-20.7-0.2-31.1-0.2 -11.4 0-22.7 0-34.1 0.2 -5.6 0.1-11.3 0.2-16.8 1.2 -7.5 1.3-13.3-2.4-18.1-6.7 -2.4-2.1-1.9-7.4-2.7-11.3C426.2 144 425.8 143.6 425.3 143.1z"/><path d="M259.3 199.7c-0.2-1.4-0.5-2.4-0.3-3.2 0.2-0.8 1-1.4 1.6-2.1 0 0.6-0.2 1.5 0 1.6 1.6 1.1 3.4 2.1 5.1 3.1 -0.3-0.8-0.6-1.6-0.8-2.4 -2.3-8.9 0.8-13.9 9.6-16.2 1.4-0.4 2.3-2.3 3.7-3 6.2-2.7 10.8 0.7 14.9 5 2.4 2.5 4.7 5.1 7 7.7 0.5 0.5 0.6 1.3 0.9 2 1.3 3 3.3 6 3.9 9.1 0.7 3.9 1.1 8.2 0.1 11.9 -1.9 6.7-4.7 13.3-7.8 19.6 -3.5 7.1-10.3 11.4-17.7 11.3 -12.4-0.1-21 6.8-30.4 12.7 -8.5 5.3-17.5 9.8-25.9 15.1 -16 10-31.6 20.6-47.7 30.5 -16 9.9-32.3 19.3-48.5 28.9 -0.3 0.2-0.6 0.4-0.9 0.4 -2.5-0.1-4.9-0.2-7.4-0.3 1.6-1.4 3.2-2.8 4.8-4.2 5.1-4.2 10.2-8.3 15.3-12.5 4.6-3.7 9.3-7.3 13.9-11.1 8-6.6 15.8-13.3 23.9-19.8 10.6-8.6 21.5-16.8 32-25.5 1.8-1.5 2.3-4.6 3.8-6.5 1.8-2.2 4.3-3.7 6.2-5.8 4.5-4.9 8.6-10.1 13.1-15 4.2-4.5 8.7-8.7 12.9-13.2 4.8-5.1 9.6-10.4 14.2-15.7C259.3 201.5 259.2 200.3 259.3 199.7z"/><path d="M448.8 33.1c3.5 10.4-0.5 18.4-6.7 26.3 -3.1 3.9-4.9 8.9-7 13.6 -1.4 3.2-2.3 6.6-3.2 10 -0.2 0.8 0.2 2 0.7 2.8 3.6 5.6 1.7 8.4-4.1 11.1 -5.2 2.4-10.2 6.6-13.5 11.3 -3.8 5.3-6.4 5.9-11.5 1.8 -4.2-3.4-10-4.7-14.8-7.4 -2.6-1.4-5.6-3.2-6.8-5.6 -1.2-2.5 0.5-6.1-0.4-8.8 -1.4-4.1-3.2-8.5-6.1-11.6 -6.2-6.6-8.3-13.3-4.9-19.7 2.9-5.5 13.7-9 20.7-7 3.9 1.1 7.9 1.7 11.9 2.5 2.4 0.5 5.6 1.9 7.2 0.9 4.5-2.7 9-5.9 12.5-9.7 10.5-11.4 20.5-23.3 30.8-34.8 2.7-3.1 6-5.6 9-8.4 0.3-0.2 0.8-0.5 1-0.3 0.3 0.2 0.5 0.7 0.5 1.1 -0.4 3.3-0.1 6.8-1.3 9.7 -2.7 6.7-6.1 13.2-9.4 19.7 -0.4 0.7-1.9 0.9-2.8 1.3 0 0-0.2-0.2-0.2-0.2 0-0.4 0-0.7 0.1-1.1 0 0 0.1-0.1 0.1-0.1 -0.6-1-1.2-2.1-1.8-3.1 0 0-0.2-0.1-0.2-0.1 -0.4-0.7-0.8-1.5-1.3-2.2 -0.2 0.5-0.4 1-0.6 1.5l0.1 0.1c-0.4 2.1-0.9 4.1-1.3 6.2l-0.1 0.1c0 0.8 0 1.7 0 2.5 -0.1 0.2-0.2 0.5-0.3 0.7 0.1-0.2 0.2-0.4 0.3-0.7 0.3-0.3 0.7-0.6 1-0.9l0-0.2c0.7-0.5 1.3-1 2-1.5C448.6 32.9 448.8 33.1 448.8 33.1z"/><path d="M266.4 119.7c0.8-0.3 2.1-0.3 2.3-0.8 0.3-0.7-0.2-1.8-0.3-2.7 -0.1-0.9-0.2-1.9-0.3-2.8 1 0.5 2.6 0.6 3.1 1.4 1.9 3.5 3.1 3.2 4.8-0.1 0.6-1.1 2.9-2.4 3.8-2 1.2 0.5 1.6 2.8 2.8 3.8 1.6 1.3 4.2 3.4 5.3 2.9 4.6-2.1 3.9 3.2 6.4 4 5.4 1.9 4.2 11.6 12.3 10.7 0.5-0.1 1.6 1.1 1.5 1.4 -0.9 4.4-1 9.5-3.3 12.8 -3.1 4.4-7.8 7.9-12.4 11 -2 1.3-5.5 1.1-8.1 0.5 -24.5-5.1-48.9-4.8-73.6-3.4 -14.3 0.8-28.7-0.3-43.1-0.7 -1.9-0.1-3.9-1.1-5.8-1.7 -0.2-0.1-0.4-1-0.3-1.1 2.6-1 5.1-2.3 7.7-2.8 5.8-1.2 11.8-1.7 17.6-3 6.8-1.6 13.4-4.1 20.3-5.5 7.2-1.5 14.6-2.6 22-3 3.8-0.2 7.8 1.6 11.7 2.5 0.3 0.1 0.9-0.1 1.1-0.4 3.7-4.9 9.5-6.1 14.6-8.7 0.8-0.4 1.8-1.8 1.6-2.1 -2.4-4 0.2-5.9 2.9-7.7 0.4-0.3 1.4 0.3 2.2 0.4 1 0.2 2 0.4 3 0.3 0.4 0 0.7-0.9 1-1.4C266.9 121.1 266.7 120.4 266.4 119.7z"/><path d="M298.7 79.3c-9.2-6.9-5.5-19.3-12.2-27.4 -2.7-3.3-5.1-6.8-7.6-10.3 -0.4-0.6-0.3-1.6-0.4-2.5 0.9 0 1.9-0.2 2.6 0.2 5.3 3.5 12.7 4.2 15.5 11.5 0.2 0.4 4.7-0.5 7.1-1.1 6.9-1.7 11.8 2.2 17.1 5.8 5.6 3.8 11.9 6.6 17.6 10.2 3.3 2 6.1 4.8 9.1 7.3 1.4 1.2 2.8 2.4 4.1 3.7 0.2 0.2 0.1 0.8 0 1.1 -1.4 3.3-2.7 6.7-4.5 9.8 -0.8 1.4-3 1.9-3.9 3.3 -0.8 1.2-0.6 3.1-1.3 4.5 -0.4 0.8-1.6 1.3-2.4 1.9 -2.2 1.8-4.3 3.7-6.6 5.4 -1.3 1-2.6 2.2-4.2 2.6 -6.4 1.8-12.8 4.4-19.3 4.5 -3.3 0.1-6.8-4.5-10.1-7.1 -0.2-0.1-0.3-0.7-0.2-0.9 1.6-3.1 2.7-6.7 5.1-9 5.1-5.1-2.3-6.6-2.5-10.1 0-0.2-0.5-0.4-0.8-0.6 0-0.2-0.1-0.4-0.1-0.6l-0.1-0.1 -0.2 0.2c-0.2-0.2-0.5-0.4-0.7-0.6 -0.1-0.4-0.2-0.7-0.3-1.1C299.2 79.9 298.9 79.6 298.7 79.3z"/><path d="M503.6 228.2c-1.3-0.8-2.6-1.7-3.9-2.5 1.7 0.7 3.4 1.4 5.1 2C504.4 227.9 504 228 503.6 228.2z"/><path d="M498.4 224.4c-0.8-0.4-1.7-0.9-2.5-1.3C496.8 223.5 497.6 223.9 498.4 224.4z"/><path d="M462.7 397c0 0-0.2 0-0.2 0C462.6 397 462.7 397 462.7 397z"/><path d="M478.3 701.3c-4.5-1.7-8.9-3.4-13.4-5.1 -0.4-0.1-0.7-0.6-1-0.9 5.6-2.8-0.5-3-1.2-4.1 -1.2-2-2.4-1.9-3.4-0.5 -0.2 0.3-1.4 0.3-1.5 0.1 -1.4-3.3-2.4-6.7-4-9.8 -0.8-1.5-2.8-2.3-4.2-3.5 -1.1-1-2.2-2-3.1-3.2 -0.6-0.8-0.8-2-1.5-2.8 -3.8-4.6-7.9-9-11.6-13.8 -3.9-5-8.9-4.6-12.4 2.9 -6.3 13.5-17.2 22.1-28.7 30.5 -2.6 1.9-5 4.3-7.9 5.8 -2.4 1.3-5.6 1.1-8.1 2.3 -8.8 4.3-16-1.6-21.9-5.7 -8.1-5.7-14.1-14.4-21.4-21.4 -2.5-2.4-6.2-3.5-9.3-5.3 -1-0.5-1.9-2.1-2.6-2 -1.2 0.2-3.1 1.5-3.1 2.2 0.5 5.6-4.8 6.4-7.1 9.6 -3 4.1-4.6 9.3-6.9 14 -0.8 1.7-1.7 3.3-2.6 4.9 -0.2 0.4-0.7 0.7-1.1 1.1 0-0.5 0-1 0-1.5 0-0.3-0.1-0.5-0.1-0.8 -1.6 0.8-3.6 1.2-4.7 2.4 -3.5 3.6-6.6 7.6-10.1 11.2 -4.1 4.2-8.5 6.4-14.3 1.6 -4.3-3.5-11.3-5.3-13.3-9.6 -4.2-9.1-13-12.1-19.2-18.4 -0.5-0.5-0.4-1.6-0.6-2.4 0.8-0.1 1.6-0.2 2.4-0.2 -1.1-0.8-2.1-1.9-3.3-2.4 -4.5-2-9-3.7-13.5-5.8 -3.9-1.9-7.7-4-11.4-6.2 -1.8-1.1-3.2-3.4-5.1-4 -2.1-0.6-4.9-0.6-6.8 0.3 -7.9 3.9-15.5 8.1-21.2 15.1 -0.9 1.1-1.8 2.4-2.3 3.7 -2.1 5.5-7.5 1.5-11 3.7 -3 1.9-6.9 2.2-10 4 -3.3 1.9-4.6 0.6-5.8-2.3 -1.3-3.2-4-6.4-4-9.5 0-3.6 1.3-8.1 3.7-10.4 12.3-11.5 25.1-22.4 37.8-33.5 2.5-2.2 5.1-4.2 7.5-6.4 5-4.5 8.3-0.1 11.2 2.8 5.7 5.8 10.6 12.4 16.4 18.2 6.9 7 14.3 13.4 21.4 20.2 5.7 5.5 11.1 11.2 16.7 16.8 1.7 1.6 3.7 2.9 5.3 4.6 3 3 4.4 1.3 6.2-1.3 4.3-6.4 8.6-12.9 13.5-18.9 9.4-11.7 19.5-22.8 28.6-34.7 6.5-8.5 10.9-8.6 16.6 0.8 4.1 6.7 8 13.7 13.2 19.5 6.8 7.5 14.5 14.2 22.6 20.2 2 1.5 7.5 0 10.4-1.8 8.4-5.4 16.5-11.4 24.4-17.5 6.7-5.2 12.8-11.3 19.6-16.4 5-3.8 8.2-12.9 16.8-7.7 5.1 3 9.3 7.8 13.5 12.1 6.9 7.1 13.2 14.6 20.2 21.6 1.1 1.1 5.1 1.3 6.2 0.2 12.3-10.9 24.2-22.2 36.5-33.1 3.3-2.9 7.1-5.8 11.2-7 7.3-2 10.9 4.4 14.6 9.1 7.1 8.7 13.6 17.9 20.4 26.7 0.6 0.8 2.3 1 3.5 1.1 8.3 0.5 11.3 5.3 7.7 12.5 -0.6 1.1 0.7 3.1 1 4.7 0.2 0.8 0.7 2.3 0.6 2.3 -4.9 2.1 0.7 2.2 0.8 3.4 0 0.8 1.3 2.1 1.2 2.2 -1.4 1.1-2.8 2.2-4.4 3 -0.7 0.4-1.7 0.1-2.6 0.2 -0.3 0.1-0.4 0.7-0.6 1 0.9 0.2 1.7 0.5 2.6 0.7 0.5 0.1 1 0.3 1.4 0.4 -0.8 0.7-1.8 2.2-2.3 2.1 -3.7-1.3-7.5-2.5-10.8-4.6 -2.5-1.5-4-4.5-6.3-6.4 -2.4-1.9-5.7-2.7-7.7-4.8 -3.8-4.1-6.9-8.9-10.5-13.2 -3.5-4.2-6.8-8.8-11.1-12 -1.2-0.8-5.8 3.1-8.7 5 -2.8 1.8-5.4 3.7-8.1 5.6 -0.3 0.2-0.9 0.4-0.9 0.5 3.4 8.1-5.3 9.4-8 14.1 -3.1 5.4-8 9.7-11.8 14.7 -1.7 2.2-2.6 5.1-4.1 7.5 -0.3 0.5-1.7 0.4-2.6 0.5C478.8 700.4 478.5 700.8 478.3 701.3zM293.6 662.1C293.6 662.1 293.6 662 293.6 662.1L293.6 662.1zM372.8 680.9c3.9-1.2 6.3-1.9 8.8-2.8 0.9-0.3 1.6-1 2.4-1.5 -0.5-0.7-1.2-2-1.5-1.9 -5.2 1.3-10.3 2.8-15.4 4.3 -0.2 0.1-0.2 0.8-0.3 1.3C369.1 680.5 371.6 680.8 372.8 680.9z"/><path d="M495.5 224.4c0.4 0.3 0.7 0.7 1.1 1 0 0-0.1 0.2-0.1 0.2 -0.3 0.1-0.7 0.3-1 0.4C495.6 225.5 495.5 225 495.5 224.4z"/><path d="M501.2 228.4c0.1 0.1 0.2 0.2 0.3 0.3 -0.1 0-0.2 0.1-0.2 0.1C501.2 228.7 501.2 228.5 501.2 228.4z"/><path d="M504.8 229c0 0.1 0 0.2 0 0.4 -0.4 0-0.9 0-1.3 0 0-0.1 0-0.2 0.1-0.4C504 228.9 504.4 229 504.8 229z"/><path d="M500.6 228c0 0 0.1 0 0.1 0C500.7 228 500.6 228 500.6 228z"/><path d="M496.7 225.5c0.3 0.2 0.7 0.3 1.1 0.5 -0.1 0.1-0.2 0.3-0.3 0.4 -0.3-0.2-0.6-0.5-0.9-0.7C496.5 225.6 496.7 225.5 496.7 225.5z"/><path d="M503.5 228.4c0 0.1 0 0.2 0 0.4C503.4 228.6 503.4 228.5 503.5 228.4z"/></svg>