<svg class="icon" xmlns="http://www.w3.org/2000/svg" viewBox="0 0 253.8 263.8"><path d="M207.9 0c4 0.3 8 0.3 11.8 1.1 2.8 0.7 7.1 2.1 7.6 4 0.9 3.7 2.7 8.5-2.3 11.6 -1.2 0.7-1.7 2.5-2.9 4.3 -1.7 0-4.2 0.3-6.7-0.1 -2.6-0.4-6.6 1-6.5-4 0-0.2-0.7-0.7-1.1-0.7 -8.3 0.2-15.7-6.9-24.9-2 -3.1 1.6-8.1-0.3-12.2-0.7 -6.9-0.6-13.9-1.4-20.8-1.9 -1.5-0.1-3 0.6-4.5 1.9 2.2 0.2 4.3 0.5 6.5 0.7 -19.1 2.6-38.4-3.6-57.9 2.3 0.2-1.2 0.3-2.2 0.7-4.1 -6.2 0.8-12.2 1.5-18.1 2.2 -0.1 0.4-0.1 0.8-0.2 1.2 2.2 0.6 4.4 1.1 7.2 1.8 -10.9 0.5-21.2 0.5-31.3 1.8 -6.9 0.9-13.7 3.4-20.4 5.7 -1.2 0.4-2.5 3.2-2.4 4.8 1.1 20.4-1.7 40.4-5.7 60.2 -1 4.9-2.4 9.8-2.2 14.7 0.2 8 1.8 15.9 2.3 23.9 0.2 3.7-0.9 7.6-1 11.3 -0.6 15 0.4 29.8 3.5 44.5 2.5 12 4.5 24 6.6 36 0.2 1.4-0.6 3.1-1.3 4.5 -0.9 1.7 0.1 1.5 1.7 3.5 1.5 1.9 1.1 5.5 0.9 8.3 -0.2 2-1.6 3.9-2.9 7.1 7.9 0 15 0 22 0 27.3 0 54.6 0.5 81.9-0.2 25.1-0.6 50.1-2.5 75.2-3.9 2-0.1 4-0.6 5.9-1.2 2.6-0.8 4.9-1.6 4.2-5.5 -0.4-2.2 1.4-4.7 1.9-7.1 1.6-6.9 4.2-13.7 4.5-20.7 1.1-24.7 1.6-49.4 1.9-74.1 0.3-24.4 0-48.8 0.1-73.2 0-3.6 0.3-7.4 1.4-10.8 1.6-5 5.1-4.6 9-1.4 5.2 4.3 7.5 10.2 10.4 15.7 0.9 1.7 0.9 4.3 0.5 6.2 -1.1 5.2-2.5 10.2 1.1 15.3 0.9 1.3 0.3 3.9 0.1 5.8 -0.8 9.1-2 18.3-2.5 27.4 -0.4 6.6-0.1 13.2 0.3 19.8 0.1 1.5 1.7 2.8 3 4.8 0.4 1.2 1.1 3.1 1.8 5 0 0.3 0 0.7 0 1 -1.5 5.2-4 10.4-4.1 15.6 -0.1 4.1-1.9 8.9 1.7 12.9 0.8 0.9 0.4 4-0.6 5 -1.8 1.9-1.9 1.7-2.1 2.9 -0.4 2.9-1 5.8-1.5 8.7 -0.1 0.4 0 0.9 0.1 1.6 0.9-0.6 1.6-1.1 2.9-2.1 -1.6 11.3-3.1 21.8-4.7 32.4 0.3 0.1 0.6 0.2 0.9 0.3 0.7-0.8 1.3-1.7 2.7-3.4 -1 3.3-1.5 5.6-2.5 7.8 -2.7 5.9 0.8 10.9 1.9 16.2 0.9 4.6-0.8 7.9-5 8.3 -3.7 0.4-7.5 0-11.3-0.1 -2.9-0.1-5.8-0.3-8.7-0.5 0 0.5 0 0.9-0.1 1.4 1 0.2 1.9 0.4 2.9 0.6 -10.1 1.2-20.3 2.8-30.2 1.7 -9.1-1-17.6-0.8-26 2.7 -0.9 0.4-2.1 0.2-3.2 0.1 -6.8-0.7-13.7-1.4-20.5-2.1 0 0.6-0.1 1.2-0.1 1.8 5.8 0.4 11.6 0.9 17.3 1.3 0 0.3 0 0.6 0 0.9 -9.9 0-19.8 0-29.7 0 0-0.2 0-0.4 0-0.6 2-0.6 4.1-1.2 6.1-1.8 -0.1-0.3-0.1-0.7-0.2-1 -8.5 1-17 2-25.5 3 0 0.5 0.1 1 0.1 1.5 2.9 0 5.9 0 8.8 0 -1.9 0.8-3.7 0.7-5.5 0.9 -3.2 0.3-6.4 0.7-9.6 1.1 -0.7 0-1.3 0-2 0 -2.6-3.4-17.1-4.8-19.9-1.9 -0.3 0.4-0.1 1.3-0.1 1.9 -3 0-6 0-9 0 -3.2-0.6-6.5-1.1-9.7-1.7 -8-1.4-16.4-1.7-23.9-4.5 -6.1-2.4-10.6-1.8-16.2 0.8 -3.6 1.7-9.5 2.9-12.1 1 -3-2.1-8-6.2-4.7-12.1 0.3-0.5-0.5-1.9-1.1-2.4 -4.6-3.8-5.9-9-5.9-14.6 -0.1-21.1-0.6-42.2 0-63.2 0.7-23.2 2.4-46.5 3.6-69.7C7.3 91 8.7 84.6 8 78.4 6.5 64.2 4 50.1 1.8 36 1.6 34.6 0.6 33.3 0 32c0-3.3 0-6.7 0-10 2-7.3 7-11.7 14.4-12.6 5.9-0.7 11.9-0.3 17.8-0.6 20.4-1.3 40.7-2.5 61.1-4 30.8-2.4 61.5-5.1 92.5-3.1 3.4 0.2 6.8-1 10.2-1.6C199.9 0 203.9 0 207.9 0zM64.9 10c-0.1-0.6-0.2-1.2-0.3-1.7 -3.5 0.5-7 1.1-10.5 1.6 0.1 0.7 0.2 1.4 0.4 2.1C57.9 11.3 61.4 10.7 64.9 10z"/><path d="M82.8 186.4c3.7 3.1 7.4 6.1 11 9.2 -0.3 0.5-0.6 0.9-1 1.3 -0.5-0.1-1.1 0-1.5-0.3 -11.6-9.1-23.1-18.2-28.9-32.3 -0.5-1.2-1.3-2.5-1.3-3.7 0.6-10.8 0.6-21.8 2.4-32.5 1.7-9.9 9.1-16.9 16.8-22.8 7.5-5.7 14.8-12.2 23.3-15.6 11.8-4.7 24.1-3 35.3 3.7 1.6 0.9 3.1 1.9 4.8 2.7 9.9 4.7 19.9 9 29.6 14 8.1 4.2 12.1 11.7 15.6 19.9 4 9.5-0.3 17.2-3 25.6 -1.2 3.7-1.6 7.8-2.5 11.6 -1 4.1-2.1 8.2-3.3 12.2 -0.2 0.8-1.2 1.3-1.7 2.1 -1.3 2.1-3.8 4.4-3.6 6.2 0.6 4.4-2.3 5.5-4.9 6.9 -4.5 2.4-9.2 4.7-13.8 6.9 -1 0.5-3.2 2.1-3.3-1.3 0-0.2-3.2-0.4-4.9-0.5 -3.1-0.1-6.1-0.1-9.2-0.3 -3.6-0.3-7.2-1.3-10.7-1.1 -14.4 1.1-26.8-4.8-39.1-11.1 -1.7-0.9-3.5-1.4-5.3-2.1C83.4 185.5 83.1 186 82.8 186.4zM99 121c-3.3 3.4-6.6 6.8-9.9 10.2 -6.7 3-8.2 9.9-10.1 15.7 -1.2 3.8-0.2 9.1 4.7 12.4 4.7 3.2 8.6 7.6 12.6 11.8 5.9 6.3 13.2 9.2 21.5 8.7 7.6-0.4 15.3-1.3 22.6-3.2 12.4-3.2 22.6-9.5 26-23.3 0.6-2.2 1.5-4.4 2.5-6.5 1.7-3.2 1.2-5.7-0.8-8.6 -7.3-10.5-17-18.6-27.1-26.2 -6.7-5-14.1-6.2-22.1-3.4 -1.4 0.5-2.8 0.9-4.2 1.5C108.5 112.5 102.7 115.3 99 121z"/><path d="M203.1 71.8c-5.4 0.8-12.5 8.9-11.5 14.5 2-1.9 3.9-3.6 5.7-5.3 0.1 0.1 0.3 0.3 0.4 0.4 -1.9 2.7-3.6 5.5-5.7 8.1 -0.5 0.7-2 0.8-3 0.8 -0.7 0-1.5-0.8-2.3-0.8 -2 0-4.6 1-5.9 0.1 -6.2-4.3-13-8.4-14.5-16.7 -0.6-3.4-1-6.8-1.2-10.2 -0.2-4.3 6-8 11.4-6 4.9 1.8 6.9 1.3 7.6-4.2 0.5-3.6 7.2-7.4 10.6-6.8 4.3 0.8 4.3 4.5 4.6 7.8 0.2 1.6-2.1 4.3 2 4.1 0.1 0 0.3 2.6 0.5 4C202.2 64.9 202.7 68.3 203.1 71.8z"/></svg>