<svg class="icon" xmlns="http://www.w3.org/2000/svg" viewBox="0 0 1045 1056"><path d="M512 0c1 0 2 0 3 0 8.8 1.3 17.6 2.5 26.3 3.8 31.6 4.7 63.4 8 94.6 14.5 18.3 3.8 35.8 12.1 53.3 19.2 22.6 9.1 45.9 17.1 66.9 29.1 23.2 13.2 44.2 30.1 65.8 46 6.9 5.1 12.4 12.2 18.7 18.2 16.2 15.7 33.2 30.6 48.4 47.2 11.4 12.5 20.3 27.1 30.4 40.8 5.7 7.7 11.8 15.2 16.9 23.3 2.3 3.7 1.8 9.3 4.3 12.8 2.8 3.9 9.1 5.4 11.3 9.4 13.5 25.2 26.8 50.6 39.2 76.3 11.7 24.3 24.8 48.3 32.3 73.9 6.3 21.3 6.2 44.6 7.4 67.1 1 18.2-0.3 36.5-0.3 54.8 0 3.3 1.1 6.6 1.7 9.9 0.6-3.2 1.2-6.4 1.7-9.6 0.8-5.1 1.5-10.2 2.2-15.3 0.7 0.6 1.6 1.1 2.1 1.8 2.4 3.6 4.7 7.2 7.1 10.8 0 12.7 0 25.3 0 38 -0.9 1.2-2.3 2.3-2.5 3.6 -2.6 16.2-5 32.4-7.9 48.5 -0.3 1.8-5.2 2.8-5.6 4.6 -2.1 9.2-2.1 19.1-5.2 27.9 -5.9 16.8-13.3 33-20.1 49.5 -0.4 1.1-0.4 2.4-0.7 3.6 1.3-0.2 2.8-1 3.8-0.6 1.9 0.8 5.2 3.1 5.1 3.3 -7.1 13.8-14.6 27.4-21.9 41.1 -4.3 8-26.3 6.3-13.1 24 0.3 0.4-0.4 1.5-0.7 2.2 -8.9 17.8-17.6 35.6-26.7 53.3 -1.6 3.2-4.4 5.9-6.7 8.8 -2.1-2.4-4.1-4.8-6.2-7.2 -0.4-0.5-0.7-1.3-1.2-1.4 -0.4-0.1-1.2 0.4-1.5 0.9 -6.5 7.5-13.3 14.7-19.2 22.6 -3.4 4.7-4.8 10.8-7.9 15.9 -3.4 5.7-7.5 10.9-11.4 16.3 0.6-2.3 1.2-4.6 1.6-6.9 0.1-0.4-0.9-1.4-1-1.3 -0.8 0.4-1.7 0.8-2.2 1.5 -7.1 9.5-14.4 18.9-21.2 28.5 -4.8 6.8-8.9 14-13.3 21 -0.2 0.4-0.6 0.8-0.9 1 -5.2 2.3-11.1 3.7-15.5 6.9 -7 5.2-13.4 11.4-19.6 17.7 -2.2 2.2-2.2 7.1-4.6 8.5 -21.7 13-43.6 25.9-65.7 38.2 -11 6.1-22.3 12.1-34.1 16.2 -22.4 7.7-45.3 14.1-67.9 21 -2.6 0.8-5.3 1.2-8 1.7 1.3-1.6 2.7-3.2 4-4.8 7.1-4 14.1-8 21.2-11.8 2-1.1 4.3-1.5 6.5-2.2 0.1 0 0.4 1 0.6 1.5 1.9-1.6 3.6-4.1 5.7-4.4 2.9-0.4 6 1 9 1.3 0.8 0.1 1.8-1.2 2.6-1.8 -0.6-0.3-1.3-0.9-1.8-0.7 -14.9 5.4-29.8 10.9-44.7 16.3 -10 0.2-20.1-0.1-30.1 1 -2.7 0.3-4.8 5.1-7.3 7.7 -2.6 2.8-4.9 7.1-8 8 -7 2-14.4 2.3-21.6 3.2 -2 0-4 0-6 0 -19.8-3.5-39.5-7.7-59.4-10.1 -14.6-1.8-29.5-0.9-44.1-2 -10-0.8-19.8-3.1-29.7-4.7 0.8-0.8 1.6-1.6 2.4-2.4 0.5-0.4 1-0.7 1.5-1.1l0-0.2c0.3-0.3 0.5-0.5 0.8-0.8l0.2 0c1.4 0.4 2.7 0.8 4.1 1.2 0.1 0.1 0.3 0.2 0.4 0.4 2.2 0.3 4.3 0.6 6.5 0.9 0.1-0.8 0.5-2.4 0.3-2.4 -2.4-0.9-4.8-1.6-7.3-2.3l-0.2 0c-1.6-0.3-3.1-0.7-4.7-1l-0.2 0c-0.3-0.3-0.5-0.5-0.8-0.8l0-0.2c-3.6 0-7.2-0.1-10.8-0.1 -6.3 0.8-13.1 3.5-18.9 2.1 -9-2.2-17-7.9-25.9-10.6 -14.8-4.4-30.4-6.4-44.9-11.7 -16.7-6.1-32.5-14.6-48.7-22.1 -0.6-0.3-0.8-1.3-1.2-2 0.4-0.2 0.9-0.5 1.3-0.4 1.5 0.1 2.9 0.4 4.4 0.6 -1.8-1.3-3.5-2.9-5.5-3.8 -9.4-4.4-19.6-7.5-28.2-13.2 -7.1-4.7-11.7-13.2-18.6-18.4 -19.4-14.6-42.4-25.7-58.7-43.1 -35.4-38-69.7-77.4-100-119.5 -20.5-28.5-34.4-62-49.3-94.3 -10.3-22.4-19.1-45.9-25.1-69.8 -6.5-25.5-13.5-52.2-12.2-78 2.4-48.9 5.4-98.9 17.9-145.8 13.2-49.2 33.3-98 58.9-141.9 23.5-40.3 56.6-75.7 89.1-109.8 21.8-22.9 48.1-42.7 75.6-58.5 40.5-23.3 82.9-44.1 126.2-61.6 29.3-11.9 61.4-17.3 92.6-23.7C477.2 1 494.7 1.4 512 0zM589.9 779.6c0.2 0.2 0.4 0.5 0.5 0.8l0.1 0.1c0.2 0.3 0.4 0.5 0.6 0.8 -0.1 0.2-0.2 0.4-0.3 0.6 -0.5 0.4-1 0.8-1.5 1.2 -0.3 0-0.6-0.1-0.9-0.2l-0.2 0c-5.2 2-10.4 4-15.6 6.1 -0.1 0.1 0.2 0.9 0.1 1.4 -0.1 1.3-0.3 2.5-0.4 3.8 -1.4-0.9-3.2-1.5-4-2.8 -8.9-12.6-17.7-25.2-26.3-38 -5.3-7.9-9.8-16.3-15.5-23.9 -5.6-7.4-12.4-14-18.7-21 0.2 2.6 0.4 5.2 0.6 7.8 -1.2-0.3-2.5-0.5-3.6-0.8 -2.1-0.7-5.5-2.7-6.1-2.1 -5.8 6.1-11.4 12.5-16.4 19.2 -19.7 26.4-39.1 53.1-59.1 79.3 -3 3.9-8.4 6-12.9 8.7 -0.4 0.2-1.8-1.4-2.8-2.1 -0.3 0.8-1.1 1.8-0.9 2.2 0.8 1.5 2.2 2.7 3 4.2 1.1 2 3.3 5.2 2.6 6.2 -4.3 6.4-9.3 12.3-14.1 18.4 -5.6 7.1-11.2 14.3-17.1 21.1 -3.7 4.3-8.7 7.5-12 12 -3.2 4.4-5 9.9-7.4 14.9 1.6-1.8 3.1-3.7 4.8-5.5 0.3-0.3 1.7-0.1 1.7 0.1 0.3 1.4 0.9 3 0.6 4.2 -2.5 8.9-6.4 17.7-7.4 26.7 -1.1 9.9-3.1 26.4 1.6 29 13.4 7.5 29.7 11.6 45.2 13.1 22.3 2.2 45.1 2 67.6 1 41.7-1.8 83.9-1.4 124.7-8.7 31.6-5.7 62.2-20 91.8-33.6 27.6-12.7 54.2-28.1 79.4-44.9 18.5-12.3 35.4-27.7 50.9-43.8 20.6-21.4 42.9-42.6 57.7-67.8 22.2-37.8 39.1-78.8 57.1-118.9 2.6-5.7 1.6-17.3-2.4-20.7 -7.5-6.4-18.3-8.7-27.8-12.8 -0.6 0-1.1 0-1.7 0 -1.5-2.1-2.5-5.4-4.6-6.3 -8.6-3.9-17.8-6.6-26.4-10.6 -10.9-5.1-21.1-11.6-32.1-16.2 -10-4.2-21.5-5.2-30.8-10.4 -14.3-8-34.3 1.4-45.2-15.6 0-0.1-0.3 0-0.5 0 -14.8 1.2-29.6 2.1-44.3 4.1 -2.9 0.4-4.6 7.4-7.7 8.3 -12.9 3.6-26.5 5.3-39.3 9.3 -6 1.9-11.1 7.1-16.2 11.2 -0.5 0.4 1.9 5.1 1.7 5.3 -12.5 6.7-25 13.4-37.9 19.4 -4.6 2.2-10 2.6-15.1 3.8 -0.6-1.3-1.1-2.7-1.7-4l-0.3-0.2c-1.6 0.6-3.2 1.3-4.7 1.9l-0.2 0.3c-0.5 0.8-1.1 1.5-1.6 2.3l0 0.2c-2.7 2.5-5.5 4.9-8.2 7.4l-0.1 0.2c2 0.3 4 0.7 6 1 -4.1 2.4-8.2 4.7-12.2 7 -2.6 1.5-5.3 2.9-7.7 4.7 -0.3 0.2 0.2 2.1 0.7 3 0.6 0.9 1.6 1.5 2.5 2.2 -1.6 0.2-3.5-0.1-4.6 0.7 -7.9 5.8-15.7 11.8-23.4 17.9 -0.7 0.6-1.2 2.2-1 3.1 0.2 0.8 1.4 1.5 2.3 1.8 9.5 4 19.1 7.6 28.5 11.8 11.9 5.3 24.2 10.2 35.3 17 5.1 3.1 7.8 10.1 11.7 15.2 1.1 1.5 3.2 2.6 3.5 4.2 4.6 24.9-10 39.8-27.9 52.9 -1.6 1.2-2.4 3.4-3.6 5.1 2.2-0.5 4.6-0.6 6.7-1.5 3.1-1.2 6-2.9 8.9-4.5 -1.1 2.2-2.3 4.4-3.3 6.7 -0.3 0.7-0.2 1.6-0.2 2.4 1-0.5 2.1-1.1 3.1-1.4 2.6-0.9 5.2-1.7 7.9-2.6 -0.7 1.4-1.1 3.7-2.1 4 -9.9 2.9-19.9 5.4-29.8 8 0-0.6 0.1-1.1 0.1-1.7 0.2-0.1 0.5-0.2 0.7-0.3 0.3-0.7 0.6-1.4 0.9-2.1l0-0.2c-0.9 0-1.7 0-2.6 0L589.9 779.6zM767.1 983.4c-0.2 0-0.5 0-0.7 0.1 0 0.2-0.1 0.5-0.1 0.7 0.3 0 0.5-0.1 0.8-0.1 0.1-0.1 0.2-0.1 0.3-0.2C767.2 983.7 767.2 983.5 767.1 983.4zM477.3 79.9c-3.1 0.9-6.1 2.4-9.3 2.8 -18.1 2.2-36.4 3.5-54.2 6.8 -4.5 0.8-7 10.5-11.7 11.9 -20.9 6.2-44.3 6.9-63.1 16.8 -35.8 19-69.1 42.9-103.5 64.7 -1.2 0.8-2.6 1.1-4 1.5 -0.1 0-0.7-1-0.7-1.5 0-0.9 0.3-1.8 0.5-2.7 -0.9 0.3-2.3 0.3-2.7 0.9 -0.6 1-0.6 2.4-1 3.6 -1 3.2-1 7.5-3.1 9.3 -11.1 9-23.2 16.9-34.2 26 -7.5 6.2-13.5 14.2-20.5 21 -7.6 7.3-15.6 14.2-23.4 21.2 1.6 0.5 4.5 1 4.5 1.5 0 2.2-0.9 4.4-1.4 6.6 1.8-0.1 3.5-0.1 5.3-0.2 -0.9 1.7-1.6 3.7-2.9 5.2 -4.7 5.5-9.5 10.8-14.3 16 -1.2 1.3-2.9 2.3-4.3 3.4 0.9-1.7 2.1-3.3 2.8-5.1 1.1-2.7 2-5.5 3-8.3 -2.8 1.9-7.1 3-8.3 5.6 -10.6 23.4-20.8 47.1-30.8 70.8 -4.9 11.7-9.3 23.7-13.8 35.6 -0.3 0.8 0.1 1.8 0.2 2.8 0.5-0.4 1.1-0.7 1.4-1.2 2.7-4.3 5.3-8.6 8-12.9 -1.5 4.4-2.8 8.9-4.5 13.2 -5.5 14.7-11.3 29.2-16.7 44 -1.2 3.3-1.1 7.1-1.5 10.6 0.5-0.1 1.1-0.1 1.3-0.4 1.3-1.5 2.5-3 3.7-4.6 -0.3 2-1.5 4.6-0.7 6 1 1.8 3.8 3.9 5.6 3.8 19.5-2 39.2-3.3 58.4-7.1 39.8-7.8 79.4-16.6 118.9-25.8 7.6-1.8 19.4-4.7 9.7-17.4 -5.6-7.3-14.7-13.2-17.5-21.4 -8.1-23.5-14.8-47.7-20.1-72 -3-14-8.2-33-1.7-42.1 7-9.8 26.3-11.9 40.7-15 15-3.2 30-4.3 33.4 18 1.7 11.2 8 21.7 12 32.7 1 2.8 0.1 7.9 1.6 8.7 2.6 1.3 6.6 0 10-0.1 -3 3.2-8.5 6.4-8.6 9.7 -0.4 13.1 0.8 26.3 1.4 39.4 5-1.9 11.7-2.4 14.6-6 30.7-38.4 61.6-76.8 90.8-116.4 16.7-22.6 32.7-46.3 44.5-71.6 9.8-20.9 14.1-44.6 18.4-67.5 1.1-5.9-7.3-13.5-11.3-20.3C477.6 79.9 477.3 79.9 477.3 79.9zM518.2 223c-0.8 1.1-1.7 2.1-2.5 3.2 -11.2 17.7-22.4 35.4-33.7 53.1 -8.5 13.2-16.3 27-26 39.3 -9.6 12.3-21.2 23-31.8 34.5 -0.7 0.8-1.1 2.1-1.1 3.2 0.1 3.7 0.5 7.3 0.7 10.9 -0.1 0.2-0.1 0.3 0 0.5 -2.9 1.7-5.7 3.3-8.6 5 -0.3-0.9-0.6-1.7-0.9-2.6 -0.4 1-0.7 2.1-1.2 3 -1.9 3.3-3.1 7.3-5.8 9.7 -8.3 7.3-17.8 13.3-25.6 21 -4.7 4.7-7.2 11.7-10.7 17.6 1.4 0.3 2.7 0.6 4.1 0.8 -2.3 2.2-4.6 4.4-7 6.6 -1.1 1.1-3.5 2.7-3.3 3.1 7 13.8 13.7 27.7 21.5 41.1 4.7 8.2 11.3 15.3 16.5 23.3 3.5 5.3 5.3 11.9 9.3 16.5 8.8 10.1 19.5 18.7 27.9 29.1 9.9 12.4 17.6 26.6 27.3 39.1 3.7 4.7 13.4 11 15.4 9.6 16.1-11.5 30.6-25.2 46.5-37.1 18.3-13.6 36.7-27.3 56.5-38.6 18.4-10.5 38.6-17.6 57.9-26.6 47.4-22 94.2-29 142.9-1.5 22.3 12.6 47.8 19.4 71.8 29 16.1 6.4 31.8 13.8 48.2 19.3 10.3 3.5 28.4 9.4 31.3 5.5 26.8-36.4 22.9-77.9 14-119 -5.6-25.6-12-51.1-20.4-75.9 -6.6-19.7-15.4-38.9-25.6-57 -11.1-19.5-25-37.5-37.9-56 -3.1-4.5-6.7-8.9-11-12.1 -5.1-3.9-12-5.5-16.5-9.8 -12.6-12-23.1-26.6-36.8-37.1 -17.8-13.6-37.6-25-57.3-36 -13.6-7.6-28.6-12.4-42.7-19.2 -5.5-2.6-10.1-7-15.2-10.6 4 0.1 8 0.2 12 0.2 0.5 0 1.1-0.5 1.6-0.8 -1.5-0.5-3-1-4.5-1.5 -16.3-5.2-32.4-11.1-48.9-15.5 -12.7-3.4-25.9-5.8-39-7.1 -11.4-1.1-23.1-0.5-34.6 0.2 -4.7 0.3-10.5 1.4-13.5 4.4 -2.8 2.8-2.9 8.6-3.3 13.2 -0.5 5.9 0.3 11.9-0.3 17.7 -0.4 4.9-1.2 10-3.2 14.4 -5.4 11.6-12.6 22.5-17.2 34.4C530 185.7 524.4 204.5 518.2 223zM73.9 510.4c-4.2 5.8-10.4 10.5-11 15.9 -0.8 7.5 2.5 15.5 4 23.2 0.4 1.8 0.7 3.6 1.1 5.5 0.4-1.7 0.7-3.5 1.3-5.1 0.6-1.6 1.4-3.1 2.1-4.6 0.3 1.7 0.7 3.4 0.8 5.1 0.7 15.4 0.4 30.9 2.3 46.1 1.8 15.2 6.8 30 8.4 45.2 1.3 11.8-3.4 24.8 0 35.6 6.2 20.1 16.3 39 24.9 58.4 5.5 12.2 9.5 25.6 17.2 36.3 17.8 24.9 36.3 49.5 56.7 72.3 14.7 16.4 31.5 31.8 49.9 43.9 22.8 15 48.3 26 72.6 38.6 0.3 0.1 2.2-1.6 2.3-2.5 1.4-16.2 1.8-32.5 4-48.6 5.3-38.3 6.7-77.3 31.9-110.5 28.1-37 53.9-75.9 80.7-113.9 3.6-5.1 11.5-13.1 10.4-14.7 -7.6-10.7-17.3-19.9-26-29.8 -11.2-12.9-22.5-25.8-32.9-39.3 -7.4-9.6-12.9-20.6-20.1-30.2 -12.7-16.9-25.9-33.6-39.3-50 -11.3-13.8-10.5-11-26.9-4.2 -21.5 8.9-44.7 14.4-67.6 19.1 -15.3 3.2-31.4 2.3-47.2 3.6 -10 0.8-20.1 1.8-30.1 3.5 -9.5 1.6-18.9 4.3-28.3 6.5 2.3 0.3 4.6 0.6 6.9 0.9 -0.1 0.3-0.1 0.8-0.2 0.9 -9.3 2.2-18.7 4.6-28.1 6.4 -1.1 0.2-2.6-2.6-4.1-3.7C85.8 517.6 81.9 515.3 73.9 510.4zM466.6 743.7c9.9-10.6 20.6-21.3 30-32.9 1.5-1.8-2.6-8.1-4.1-12.3 -2 0.9-4.6 1.3-5.8 2.9 -8.8 11.2-17.5 22.5-26 33.9 -0.8 1.1-0.9 3.3-0.5 4.7C460.6 741 462.5 741.4 466.6 743.7zM348.8 360.6c-5.4 7.4-9.5 12.5-12.8 18 -0.5 0.9 2.6 3.9 4.1 6 5.8-6.6 11.6-13.2 17.4-19.8C355.1 363.5 352.7 362.4 348.8 360.6zM767.9 989.9c0.6 0.3 1 0.6 1.4 0.6 0.2 0 0.6-0.5 0.6-0.6 -0.2-0.3-0.5-0.9-0.7-0.9C768.8 989 768.5 989.5 767.9 989.9zM699.4 1015.5c-0.6-0.5-0.9-1-1.3-1.1 -0.4-0.1-0.9 0.1-1.4 0.2 0.4 0.4 0.6 0.9 1.1 1.1C698.1 1015.9 698.6 1015.6 699.4 1015.5z"/><path d="M518.2 223c3.3-3.8 6.5-7.6 9.9-11.3 1.4-1.5 3.1-2.7 4.7-4 -0.1 2.2 0.6 5-0.5 6.5 -4.9 6.8-10.2 13.3-15.5 19.8 -0.1 0.2-2.9-1.2-2.9-1.7 0.3-2.1 1.2-4.1 1.8-6.1C516.5 225.1 517.4 224.1 518.2 223z"/><path d="M436.8 1035.8c-0.2-0.9-0.5-1.7-0.7-2.6 2 1.2 4 2.4 6 3.6 -0.8 0.8-1.6 1.6-2.4 2.4 -0.6-0.1-1.2-0.1-1.9-0.2 -0.3-0.5-0.7-1.1-1-1.6 0.1-0.2 0.2-0.4 0.4-0.6 0.3-0.1 0.5-0.3 0.7-0.4 -0.2 0-0.5-0.1-0.8-0.1C437 1036 436.9 1035.9 436.8 1035.8z"/><path d="M590.9 783.7c-0.5-0.2-1-0.4-1.6-0.7 0.5-0.4 1-0.8 1.5-1.2 0 0 0.2 0.1 0.2 0.1C591 782.6 591 783.2 590.9 783.7z"/><path d="M477.6 79.9c0 0-0.4 0-0.4 0C477.3 79.9 477.6 79.9 477.6 79.9z"/><path d="M423.8 367.2c0 0 0 0.5 0 0.5C423.7 367.6 423.7 367.4 423.8 367.2z"/><path d="M590.4 780.4c0 0 0.1 0.1 0.1 0.1C590.6 780.5 590.4 780.4 590.4 780.4z"/><path d="M591.2 781.3c0.3 0.1 0.4 0.2 0.6 0.4 -0.2 0.1-0.4 0.3-0.7 0.3 0 0-0.1-0.1-0.1-0.1C591 781.7 591.1 781.5 591.2 781.3z"/><path d="M588.5 782.9c0 0-0.2 0-0.2 0C588.3 782.9 588.5 782.9 588.5 782.9z"/><path d="M590 779.4c0 0-0.1 0.3-0.1 0.2S590 779.4 590 779.4z"/><path d="M767.1 983.4c0 0.2-0.1 0.4-0.1 0.5 -0.2-0.1-0.4-0.2-0.5-0.4C766.6 983.4 766.8 983.3 767.1 983.4z"/><path d="M442.6 1030.5c0 0 0-0.2 0-0.2C442.6 1030.3 442.6 1030.5 442.6 1030.5z"/><path d="M448.6 1032.4c0 0-0.2 0-0.2 0C448.3 1032.3 448.6 1032.4 448.6 1032.4z"/><path d="M444.4 1034.7c0 0 0.2 0 0.2 0C444.6 1034.7 444.4 1034.7 444.4 1034.7z"/><path d="M592.6 779.6c0 0 0-0.2 0-0.2C592.6 779.4 592.6 779.6 592.6 779.6z"/><path d="M443.6 1031.4c0 0-0.2 0-0.2 0C443.4 1031.3 443.6 1031.4 443.6 1031.4z"/><path d="M443.6 1035.7c0 0 0-0.2 0-0.2S443.6 1035.7 443.6 1035.7z"/><path d="M598.3 617.4c0 0 0 0.2 0 0.2C598.3 617.6 598.3 617.4 598.3 617.4z"/><path d="M433.1 1035.8c1.3 0 2.5 0 3.7 0 0.1 0.1 0.3 0.3 0.4 0.4 0 0.2 0 0.4 0 0.6 -0.1 0.2-0.2 0.4-0.3 0.6 -0.6 0.2-1.2 0.4-1.9 0.7 0 0 0 0.1 0 0.1 0.1 0.3 0.1 0.6 0.1 0.9 -3.3-0.2-6.5-0.4-9.8-0.6 1.2-0.8 2.5-1.7 3.7-2.5 0.1 0.1 0.3 0.2 0.4 0.3 1 0 2.1 0 3.1 0C432.7 1036.1 432.9 1035.9 433.1 1035.8z"/><path d="M431 1031.9c0.7 1.3 1.4 2.6 2.1 3.9 -0.2 0.1-0.4 0.2-0.5 0.4 -1 0-2.1 0-3.1 0 -0.1-0.1-0.3-0.2-0.4-0.3C429.7 1034.5 430.3 1033.2 431 1031.9z"/><path d="M572.1 799.2c12.1-3.8 17.9-5.6 23.8-7.4 -4.9 3.7-9.5 7.7-14.8 10.6 -1.1 0.6-4.5-2.6-6.8-4.1C575.6 797.7 576.8 797.2 572.1 799.2z"/><path d="M603.2 618.8c0.6 0.7 1.2 1.4 1.8 2 -0.3 0.8-0.5 1.6-0.8 2.3 -0.2-0.1-0.4-0.3-0.6-0.4l-0.2 0c-0.2 0.2-0.4 0.4-0.6 0.6l0 0.2c0.1 0.2 0.3 0.4 0.4 0.6 0.3 0.2 0.5 0.5 0.8 0.7 -2.6 0.4-5.3 0.7-7.9 1.1 -0.1-0.3-0.1-0.6-0.2-0.9 0 0 0.2-0.1 0.2-0.1 0.6-0.3 1.3-0.5 1.9-0.8 0 0 0.3 0.3 0.3 0.3l-0.2-0.4c1.6-1.7 3.3-3.3 4.9-5C602.9 619 603.2 618.8 603.2 618.8z"/><path d="M603.9 624.1c-0.2 0-0.5 0-0.7 0.1 -0.1-0.2-0.3-0.4-0.4-0.6 0 0 0-0.2 0-0.2 0.2-0.2 0.4-0.4 0.6-0.6 0 0 0.2 0 0.2 0 0.2 0.1 0.4 0.3 0.6 0.4C604.1 623.5 604 623.8 603.9 624.1z"/><path d="M136.7 519.3c-0.8-0.2-3.9-1-7-1.8 10.2-1.9 20.4-3.8 30.5-5.7 -3.4 2-6.5 4.5-10.1 5.7C146.6 518.6 142.8 518.5 136.7 519.3z"/><path d="M448.7 1035.8c1-0.6 2-1.2 3-1.7 0 0 0.4 0.6 0.7 1 -1.1 0.4-2.2 0.7-3.2 1.1C449 1036.1 448.8 1036 448.7 1035.8z"/><path d="M605.1 613.2c-0.1-0.1-0.2-0.1-0.3-0.2C604.9 613 605.1 613.2 605.1 613.2z"/><path d="M600.1 614.9c0.1 0.1 0.2 0.2 0.4 0.3 -0.2 0-0.4 0-0.6 0C599.9 615.1 600.1 614.9 600.1 614.9z"/><path d="M590.1 625c0 0-0.1 0.2-0.1 0.2C589.9 625.1 590.1 625 590.1 625z"/><path d="M595.8 625c0 0 0.2-0.1 0.2-0.1S595.8 625 595.8 625z"/><path d="M603.1 618.1c0 0.3 0.1 0.5 0.1 0.8 0 0-0.3 0.2-0.3 0.2 0-0.4 0-0.7 0-1.1C602.9 617.9 603.1 618.1 603.1 618.1z"/><path d="M604.1 617c-0.3 0.3-0.7 0.7-1 1 0 0-0.2-0.2-0.2-0.2 0.3-0.3 0.7-0.7 1-1L604.1 617z"/><path d="M603.9 616.9c0 0 0.2 0.2 0.2 0.2C604.1 617 603.9 616.9 603.9 616.9z"/></svg>