<?xml version="1.0" encoding="utf-8"?>
<!-- Generator: Adobe Illustrator 25.0.0, SVG Export Plug-In . SVG Version: 6.00 Build 0)  -->
<svg version="1.1" id="Calque_1" xmlns="http://www.w3.org/2000/svg" xmlns:xlink="http://www.w3.org/1999/xlink" x="0px" y="0px"
	 viewBox="0 0 229.2 285.2" style="enable-background:new 0 0 229.2 285.2;" xml:space="preserve">
<style type="text/css">
	.st0{fill:#FFFFFF;}
</style>
<g>
	<g>
		<path class="st0" d="M203.4,90.7h-13.9V74.9c0-41.3-33.6-74.9-74.9-74.9S39.7,33.6,39.7,74.9v15.8H25.9C11.6,90.7,0,102.2,0,116.5
			v121.8c0,14.3,25.9,25.9,25.9,25.9s53.1,21.1,88.8,21.1s88.8-21.1,88.8-21.1s25.8-11.6,25.8-25.9V116.5
			C229.2,102.2,217.7,90.7,203.4,90.7z M127.9,191.5v32.9c0,7.3-5.9,13.2-13.2,13.2s-13.2-5.9-13.2-13.2v-32.9
			c-8.9-4.8-15-14.1-15-25c0-15.6,12.6-28.2,28.2-28.2c15.6,0,28.2,12.6,28.2,28.2C142.9,177.3,136.8,186.7,127.9,191.5z
			 M162.5,90.7H66.7V74.9c0-26.4,21.5-47.9,47.9-47.9s47.9,21.5,47.9,47.9V90.7z"/>
	</g>
</g>
</svg>
