<?xml version="1.0" encoding="utf-8"?>
<!-- Generator: Adobe Illustrator 25.0.0, SVG Export Plug-In . SVG Version: 6.00 Build 0)  -->
<svg version="1.1" id="Calque_1" xmlns="http://www.w3.org/2000/svg" xmlns:xlink="http://www.w3.org/1999/xlink" x="0px" y="0px"
	 viewBox="0 0 923.1 254" style="enable-background:new 0 0 923.1 254;" xml:space="preserve">
<style type="text/css">
	.st0{fill-rule:evenodd;clip-rule:evenodd;fill:#32364E;}
	.st1{fill-rule:evenodd;clip-rule:evenodd;fill:#FFFFFF;}
</style>
<path class="st0" d="M37.2,0h848.7c20.5,0,37.2,16.6,37.2,37.2v179.7c0,20.5-16.6,37.2-37.2,37.2H37.2C16.6,254,0,237.4,0,216.8
	V37.2C0,16.6,16.6,0,37.2,0z"/>
<path class="st1" d="M442.4,164.9h-9.1l7-17.3l-14-35.2h9.6l8.8,24l8.8-24h9.6L442.4,164.9z M407.6,149.8c-3.1,0-6.4-1.2-9.3-3.4
	v2.6h-9.3V96.4h9.3v18.5c2.9-2.2,6.1-3.4,9.3-3.4c9.8,0,16.5,7.9,16.5,19.1S417.4,149.8,407.6,149.8z M405.6,119.6
	c-2.6,0-5.1,1.1-7.3,3.3v15.6c2.2,2.2,4.8,3.3,7.3,3.3c5.3,0,8.9-4.5,8.9-11.1C414.5,124.1,410.9,119.6,405.6,119.6L405.6,119.6z
	 M351.1,146.4c-2.8,2.3-6.1,3.4-9.3,3.4c-9.7,0-16.5-7.9-16.5-19.1s6.8-19.1,16.5-19.1c3.2,0,6.4,1.2,9.3,3.4V96.4h9.4v52.5h-9.4
	L351.1,146.4z M351.1,122.9c-2.1-2.2-4.7-3.3-7.2-3.3c-5.3,0-9,4.5-9,11.1c0,6.6,3.6,11.1,9,11.1c2.6,0,5.1-1.1,7.2-3.3V122.9z
	 M295.4,133.2c0.6,5.6,5,9.4,11.1,9.4c3.4,0,7.1-1.2,10.9-3.4v7.8c-4.2,1.9-8.3,2.8-12.4,2.8c-11,0-18.8-8-18.8-19.4
	c0-11,7.6-18.9,18-18.9c9.6,0,16.1,7.5,16.1,18.3c0,1,0,2.2-0.1,3.4H295.4z M303.9,118.8c-4.5,0-8,3.4-8.5,8.4h15.9
	C311,122.2,308,118.8,303.9,118.8z M270.8,124.5v24.4h-9.4v-36.5h9.4v3.7c2.6-2.9,5.8-4.5,9-4.5c1,0,2.1,0.1,3.1,0.4v8.3
	c-1-0.3-2.2-0.4-3.3-0.4C276.5,119.8,273.2,121.5,270.8,124.5z M229,133.2c0.6,5.6,5,9.4,11.1,9.4c3.4,0,7.1-1.2,10.9-3.4v7.8
	c-4.2,1.9-8.3,2.8-12.4,2.8c-11,0-18.8-8-18.8-19.4c0-11,7.6-18.9,18-18.9c9.6,0,16.1,7.5,16.1,18.3c0,1,0,2.2-0.1,3.4L229,133.2z
	 M237.5,118.8c-4.5,0-8,3.4-8.5,8.4H245C244.7,122.2,241.7,118.8,237.5,118.8z M196.4,148.9l-7.5-24.8l-7.4,24.8h-8.4l-12.6-36.5
	h9.3l7.4,24.8l7.4-24.8h8.5l7.4,24.8l7.4-24.8h9.3l-12.5,36.5L196.4,148.9z M139.2,149.8c-11,0-18.9-8-18.9-19.1
	c0-11.3,7.8-19.1,18.9-19.1c11,0,18.8,7.9,18.8,19.1C158,141.9,150.3,149.8,139.2,149.8z M139.2,119.3c-5.5,0-9.3,4.6-9.3,11.3
	s3.8,11.3,9.3,11.3c5.4,0,9.2-4.6,9.2-11.3S144.6,119.3,139.2,119.3z M98.2,130.9h-8.4v18h-9.3V98.7h17.8c10.2,0,17.5,6.6,17.5,16.2
	C115.7,124.3,108.4,130.9,98.2,130.9z M96.8,106.3h-7.1v17h7.1c5.4,0,9.2-3.4,9.2-8.5C106,109.7,102.3,106.3,96.8,106.3z
	 M847.7,135.5h-44.9c1,10.8,8.9,13.9,17.8,13.9c9.1,0,16.3-1.9,22.5-5.1v18.5c-6.2,3.5-14.5,5.9-25.4,5.9c-22.3,0-38-14-38-41.7
	c0-23.4,13.3-41.9,35.1-41.9c21.8,0,33.2,18.6,33.2,42.1C848,129.4,847.8,134.2,847.7,135.5L847.7,135.5z M814.7,103.9
	c-5.7,0-12.1,4.3-12.1,14.7h23.7C826.3,108.2,820.3,103.9,814.7,103.9z M743.3,168.8c-8,0-12.9-3.4-16.2-5.8l0,26l-22.9,4.9l0-107.1
	h20.2l1.2,5.7c3.2-3,9-7.2,18-7.2c16.1,0,31.3,14.5,31.3,41.2C774.7,155.5,759.7,168.8,743.3,168.8L743.3,168.8z M738,105.5
	c-5.3,0-8.6,1.9-11,4.5l0.1,34.1c2.2,2.4,5.4,4.4,10.8,4.4c8.5,0,14.2-9.2,14.2-21.6C752.1,114.9,746.4,105.5,738,105.5L738,105.5z
	 M671.7,86.7h23v80.4h-23V86.7z M671.7,61l23-4.9v18.7l-23,4.9V61z M647.9,112.6v54.5h-22.9V86.7h19.8l1.4,6.8
	c5.4-9.9,16.1-7.9,19.1-6.8v21.1C662.4,106.8,653.3,105.5,647.9,112.6L647.9,112.6z M599.4,138.9c0,13.5,14.5,9.3,17.4,8.1v18.7
	c-3.1,1.7-8.6,3-16.1,3c-13.6,0-23.8-10-23.8-23.6l0.1-73.6l22.4-4.8l0,19.9h17.4v19.6h-17.4L599.4,138.9z M571.6,142.8
	c0,16.5-13.1,25.9-32.2,25.9c-7.9,0-16.6-1.5-25.1-5.2v-21.9c7.7,4.2,17.5,7.3,25.1,7.3c5.1,0,8.8-1.4,8.8-5.6
	c0-11-34.9-6.8-34.9-32.2c0-16.2,12.4-26,31-26c7.6,0,15.2,1.2,22.8,4.2V111c-7-3.8-15.8-5.9-22.8-5.9c-4.8,0-7.8,1.4-7.8,5
	C536.5,120.4,571.6,115.5,571.6,142.8L571.6,142.8z"/>
</svg>
