<?xml version="1.0" encoding="utf-8"?>
<!-- Generator: Adobe Illustrator 25.0.0, SVG Export Plug-In . SVG Version: 6.00 Build 0)  -->
<svg version="1.1" id="Calque_1" xmlns="http://www.w3.org/2000/svg" xmlns:xlink="http://www.w3.org/1999/xlink" x="0px" y="0px"
	 viewBox="0 0 600 179.6" style="enable-background:new 0 0 600 179.6;" xml:space="preserve">
<style type="text/css">
	.st0{fill:#412727;}
</style>
<g>
	<path class="st0" d="M67.2,52.2c0.5-0.6,1-1.3,1.6-1.9C68.3,50.9,67.7,51.6,67.2,52.2C67.2,52.2,67.2,52.2,67.2,52.2z"/>
	<path class="st0" d="M72.9,150.2c0.1,1.2,0.3,2.3,0.5,3.5C73.2,152.5,73,151.3,72.9,150.2z"/>
	<path class="st0" d="M83.6,96.3c6.2,9,5.2,21.2,13.9,30.1c-0.3-1.6-0.3-2.3-0.5-3c-1.7-5.1-4.1-10.1-5-15.3c-1.6-9.3-5.2-18.4-5-28
		c0.1-4.3-3.4-8.2-1.4-12.6c0,0,0-0.2,0-0.2c-1.8-2.4-1.2-5-0.7-7.5C85,59,85,58.3,85,57.6c-0.2-2.5-0.4-5.1-0.6-8.5
		c-8.6,15.2-16.9,30-25.3,45c-1.1-3.7-2-7.3-3.4-10.7c-1.3-3.3-3.1-6.5-4.7-9.7c0,0-0.1,0-0.2,0.1c0.2,1,0.5,2,0.7,3
		c-0.9-0.5-1.5-1.2-1.9-2c-1.5-3.8-2.9-7.6-4.5-11.4c-1.4-3.3-2.2-7-5.7-9.1c-2.1-1.3-3-1.2-3.4,1.2c-0.4,2.5-0.2,5.1-0.8,7.5
		c-1.8,7.9-3.8,15.7-5.7,23.6c-0.2,0.9,0.2,1.9,0,2.8c-1,4.4-2.2,8.7-3.3,13.2c0.5-0.2,0.8-0.3,1.4-0.6c-0.9,3-1.8,5.8-2.6,8.5
		c-0.3,1-0.2,2.2-0.5,3.2c-0.4,1.5-1.1,3-1.6,4.5c-0.4,1-0.7,2-1,2.9c0,0.3,0,0.5,0,1c0.5-0.3,1.2-0.5,1.4-1
		c2-5.1,3.6-10.3,5.7-15.3c1.8-4.2,4.2-8.2,6.3-12.3c0.2,0.1,0.5,0.2,0.7,0.4c0,0.4,0,0.7,0,1.6c1.4-2.1,2.5-3.8,3.7-5.7
		c-1,0.3-1.7,0.5-2.9,0.9c1-1,1.6-1.7,2.2-2.4c0.4-0.4,0.9-0.8,1.3-1.2c0.4,0.5,1.1,1,1.2,1.5c1.1,8.3,2.2,16.7,3.1,25.1
		c0.3,2.9,0,5.8,0.4,8.7c0.9,7.1,2,14.1,3,21.2c0.4,2.7,0.9,5.3,1.4,8c0.2,0,0.3,0,0.5-0.1c-0.6-5.7-1.2-11.5-1.8-17.2
		c0.3,0,0.6-0.1,1-0.1c1,7,2.1,14,3.1,21c0.3,0,0.7,0,1,0c0-2.7,0.2-5.5,0-8.2c-0.2-3-0.9-6-1.1-9.1c-0.1-1.9,0.2-3.9,0.7-5.7
		c1-3.6,2.6-6.9,2.4-10.9c-0.2-2.4-0.5-5.7,3.2-6.5c1.4-0.3,2.8-0.6,4.5-1c0.2,0.5,0.5,1.2,0.7,2c1.2,4.3,2.4,8.7,3.7,13
		c1.5,4.7,3.3,9.4,4.5,14.2c0.6,2.3,1,4.8,1.3,7.2c-1-9.6,1.7-19,3.2-28.5c-0.2-0.2-0.5-0.3-0.7-0.5c-0.1,0.5-0.3,1-0.4,1.5
		c-0.1-0.1-0.2-0.2-0.3-0.3c0.7-2.3,1.3-4.6,2.2-7.3c-0.9,0.5-1.1,0.7-1.6,1c0.1-0.6,0.2-1,0.2-1.3c0.5-3,1.3-6,1.2-9
		c-0.1-2.5-1.5-5-1.9-7.5c-0.6-3.6-1.2-7.2,2-10.1c0.7,0.7,1.3,1.4,2,2.1c0,0,0,0,0.1,0c0.5,1.8,1.1,3.5,1.6,5.3
		c0.2-0.1,0.5-0.2,0.7-0.2c-0.6-1.6-1.2-3.2-1.8-4.8c1.9,3,3.7,5.9,5.8,9.4C84.3,98.4,84,97.3,83.6,96.3z"/>
	<path class="st0" d="M58.2,66.4c0.6,1.5,1.3,2.9,2.2,5.1c1.2-3.8,2.2-6.7,3.1-9.8c0.5-1.5,0.7-3.2,0.9-4.8c0.2-1.5,0.9-2.7,2.3-3.7
		c0.9-0.6,1.4-1.9,2.1-2.9c-0.5,0.6-1.1,1.3-1.6,1.9c0,0,0,0,0,0c0,0,0,0,0,0c-0.1,0-0.1-0.1-0.2-0.2c0,0-0.1-0.1-0.1-0.1
		c-0.1-0.1-0.2-0.1-0.2-0.2c0.6-0.7,1.2-1.4,1.8-2.1c0,0,0,0,0,0c0,0,0,0,0,0c-0.4-2.1-0.4-4,1.5-5.5c1.8-1.4,3.4-3,5.2-4.6
		c-1.9-0.3-3-0.5-4.8-0.7c1.4-1.2,2.2-1.8,3.3-2.8c-1.1-0.4-2.1-0.7-2.8-1c0.4-0.8,1-1.8,1.6-3c-1.6-0.5-2.7-0.9-3.9-1.3
		c-0.2-0.9-0.3-1.9-0.5-2.9c-0.9,0.3-1.5,0.5-2,0.6c0.3-1.4,0.6-2.6,0.8-3.8c-0.7-0.3-1.3-0.6-1.9-0.9c-0.4,0-0.8,0-1.2,0
		c-2.1,1-4.3,1.9-6.3,3.1c-2.5,1.5-4.8,3.5-7.3,5c-5.2,3-7.2,10-3.4,14.7C51.7,52.7,55.2,59.3,58.2,66.4z"/>
	<path class="st0" d="M66.7,51.8c0.1,0.1,0.2,0.1,0.2,0.2c0,0,0.1,0.1,0.1,0.1c0.1,0.1,0.1,0.1,0.2,0.2c0,0,0,0,0,0
		c0.5-0.6,1.1-1.3,1.6-1.9c-0.1-0.2-0.2-0.4-0.4-0.6c0,0,0,0,0,0C67.9,50.4,67.2,51.1,66.7,51.8z"/>
</g>
<g>
	<path class="st0" d="M159.8,52.2c0.5-0.6,1-1.3,1.6-1.9C160.9,50.9,160.3,51.6,159.8,52.2C159.8,52.2,159.8,52.2,159.8,52.2z"/>
	<path class="st0" d="M165.5,150.2c0.1,1.2,0.3,2.3,0.5,3.5C165.8,152.5,165.6,151.3,165.5,150.2z"/>
	<path class="st0" d="M176.1,96.3c6.2,9,5.2,21.2,13.9,30.1c-0.3-1.6-0.3-2.3-0.5-3c-1.7-5.1-4.1-10.1-5-15.3
		c-1.6-9.3-5.2-18.4-5-28c0.1-4.3-3.4-8.2-1.4-12.6c0,0,0-0.2,0-0.2c-1.8-2.4-1.2-5-0.7-7.5c0.1-0.7,0.1-1.4,0.1-2.1
		c-0.2-2.5-0.4-5.1-0.6-8.5c-8.6,15.2-16.9,30-25.3,45c-1.1-3.7-2-7.3-3.4-10.7c-1.3-3.3-3.1-6.5-4.7-9.7c0,0-0.1,0-0.2,0.1
		c0.2,1,0.5,2,0.7,3c-0.9-0.5-1.5-1.2-1.9-2c-1.5-3.8-2.9-7.6-4.5-11.4c-1.4-3.3-2.2-7-5.7-9.1c-2.1-1.3-3-1.2-3.4,1.2
		c-0.4,2.5-0.2,5.1-0.8,7.5c-1.8,7.9-3.8,15.7-5.7,23.6c-0.2,0.9,0.2,1.9,0,2.8c-1,4.4-2.2,8.7-3.3,13.2c0.5-0.2,0.8-0.3,1.4-0.6
		c-0.9,3-1.8,5.8-2.6,8.5c-0.3,1-0.2,2.2-0.5,3.2c-0.4,1.5-1.1,3-1.6,4.5c-0.4,1-0.7,2-1,2.9c0,0.3,0,0.5,0,1c0.5-0.3,1.2-0.5,1.4-1
		c2-5.1,3.6-10.3,5.7-15.3c1.8-4.2,4.2-8.2,6.3-12.3c0.2,0.1,0.5,0.2,0.7,0.4c0,0.4,0,0.7,0,1.6c1.4-2.1,2.5-3.8,3.7-5.7
		c-1,0.3-1.7,0.5-2.9,0.9c1-1,1.6-1.7,2.2-2.4c0.4-0.4,0.9-0.8,1.3-1.2c0.4,0.5,1.1,1,1.2,1.5c1.1,8.3,2.2,16.7,3.1,25.1
		c0.3,2.9,0,5.8,0.4,8.7c0.9,7.1,2,14.1,3,21.2c0.4,2.7,0.9,5.3,1.4,8c0.2,0,0.3,0,0.5-0.1c-0.6-5.7-1.2-11.5-1.8-17.2
		c0.3,0,0.6-0.1,1-0.1c1,7,2.1,14,3.1,21c0.3,0,0.7,0,1,0c0-2.7,0.2-5.5,0-8.2c-0.2-3-0.9-6-1.1-9.1c-0.1-1.9,0.2-3.9,0.7-5.7
		c1-3.6,2.6-6.9,2.4-10.9c-0.2-2.4-0.5-5.7,3.2-6.5c1.4-0.3,2.8-0.6,4.5-1c0.2,0.5,0.5,1.2,0.7,2c1.2,4.3,2.4,8.7,3.7,13
		c1.5,4.7,3.3,9.4,4.5,14.2c0.6,2.3,1,4.8,1.3,7.2c-1-9.6,1.7-19,3.2-28.5c-0.2-0.2-0.5-0.3-0.7-0.5c-0.1,0.5-0.3,1-0.4,1.5
		c-0.1-0.1-0.2-0.2-0.3-0.3c0.7-2.3,1.3-4.6,2.2-7.3c-0.9,0.5-1.1,0.7-1.6,1c0.1-0.6,0.2-1,0.2-1.3c0.5-3,1.3-6,1.2-9
		c-0.1-2.5-1.5-5-1.9-7.5c-0.6-3.6-1.2-7.2,2-10.1c0.7,0.7,1.3,1.4,2,2.1c0,0,0,0,0.1,0c0.5,1.8,1.1,3.5,1.6,5.3
		c0.2-0.1,0.5-0.2,0.7-0.2c-0.6-1.6-1.2-3.2-1.8-4.8c1.9,3,3.7,5.9,5.8,9.4C176.9,98.4,176.6,97.3,176.1,96.3z"/>
	<path class="st0" d="M150.8,66.4c0.6,1.5,1.3,2.9,2.2,5.1c1.2-3.8,2.2-6.7,3.1-9.8c0.5-1.5,0.7-3.2,0.9-4.8
		c0.2-1.5,0.9-2.7,2.3-3.7c0.9-0.6,1.4-1.9,2.1-2.9c-0.5,0.6-1.1,1.3-1.6,1.9c0,0,0,0,0,0c0,0,0,0,0,0c-0.1,0-0.1-0.1-0.2-0.2
		c0,0-0.1-0.1-0.1-0.1c-0.1-0.1-0.2-0.1-0.2-0.2c0.6-0.7,1.2-1.4,1.8-2.1c0,0,0,0,0,0c0,0,0,0,0,0c-0.4-2.1-0.4-4,1.5-5.5
		c1.8-1.4,3.4-3,5.2-4.6c-1.9-0.3-3-0.5-4.8-0.7c1.4-1.2,2.2-1.8,3.3-2.8c-1.1-0.4-2.1-0.7-2.8-1c0.4-0.8,1-1.8,1.6-3
		c-1.6-0.5-2.7-0.9-3.9-1.3c-0.2-0.9-0.3-1.9-0.5-2.9c-0.9,0.3-1.5,0.5-2,0.6c0.3-1.4,0.6-2.6,0.8-3.8c-0.7-0.3-1.3-0.6-1.9-0.9
		c-0.4,0-0.8,0-1.2,0c-2.1,1-4.3,1.9-6.3,3.1c-2.5,1.5-4.8,3.5-7.3,5c-5.2,3-7.2,10-3.4,14.7C144.3,52.7,147.8,59.3,150.8,66.4z"/>
	<path class="st0" d="M159.2,51.8c0.1,0.1,0.2,0.1,0.2,0.2c0,0,0.1,0.1,0.1,0.1c0.1,0.1,0.1,0.1,0.2,0.2c0,0,0,0,0,0
		c0.5-0.6,1.1-1.3,1.6-1.9c-0.1-0.2-0.2-0.4-0.4-0.6c0,0,0,0,0,0C160.5,50.4,159.8,51.1,159.2,51.8z"/>
</g>
<g>
	<path class="st0" d="M252.4,52.2c0.5-0.6,1-1.3,1.6-1.9C253.5,50.9,252.9,51.6,252.4,52.2C252.4,52.2,252.4,52.2,252.4,52.2z"/>
	<path class="st0" d="M258.1,150.2c0.1,1.2,0.3,2.3,0.5,3.5C258.4,152.5,258.2,151.3,258.1,150.2z"/>
	<path class="st0" d="M268.7,96.3c6.2,9,5.2,21.2,13.9,30.1c-0.3-1.6-0.3-2.3-0.5-3c-1.7-5.1-4.1-10.1-5-15.3
		c-1.6-9.3-5.2-18.4-5-28c0.1-4.3-3.4-8.2-1.4-12.6c0,0,0-0.2,0-0.2c-1.8-2.4-1.2-5-0.7-7.5c0.1-0.7,0.1-1.4,0.1-2.1
		c-0.2-2.5-0.4-5.1-0.6-8.5c-8.6,15.2-16.9,30-25.3,45c-1.1-3.7-2-7.3-3.4-10.7c-1.3-3.3-3.1-6.5-4.7-9.7c0,0-0.1,0-0.2,0.1
		c0.2,1,0.5,2,0.7,3c-0.9-0.5-1.5-1.2-1.9-2c-1.5-3.8-2.9-7.6-4.5-11.4c-1.4-3.3-2.2-7-5.7-9.1c-2.1-1.3-3-1.2-3.4,1.2
		c-0.4,2.5-0.2,5.1-0.8,7.5c-1.8,7.9-3.8,15.7-5.7,23.6c-0.2,0.9,0.2,1.9,0,2.8c-1,4.4-2.2,8.7-3.3,13.2c0.5-0.2,0.8-0.3,1.4-0.6
		c-0.9,3-1.8,5.8-2.6,8.5c-0.3,1-0.2,2.2-0.5,3.2c-0.4,1.5-1.1,3-1.6,4.5c-0.4,1-0.7,2-1,2.9c0,0.3,0,0.5,0,1c0.5-0.3,1.2-0.5,1.4-1
		c2-5.1,3.6-10.3,5.7-15.3c1.8-4.2,4.2-8.2,6.3-12.3c0.2,0.1,0.5,0.2,0.7,0.4c0,0.4,0,0.7,0,1.6c1.4-2.1,2.5-3.8,3.7-5.7
		c-1,0.3-1.7,0.5-2.9,0.9c1-1,1.6-1.7,2.2-2.4c0.4-0.4,0.9-0.8,1.3-1.2c0.4,0.5,1.1,1,1.2,1.5c1.1,8.3,2.2,16.7,3.1,25.1
		c0.3,2.9,0,5.8,0.4,8.7c0.9,7.1,2,14.1,3,21.2c0.4,2.7,0.9,5.3,1.4,8c0.2,0,0.3,0,0.5-0.1c-0.6-5.7-1.2-11.5-1.8-17.2
		c0.3,0,0.6-0.1,1-0.1c1,7,2.1,14,3.1,21c0.3,0,0.7,0,1,0c0-2.7,0.2-5.5,0-8.2c-0.2-3-0.9-6-1.1-9.1c-0.1-1.9,0.2-3.9,0.7-5.7
		c1-3.6,2.6-6.9,2.4-10.9c-0.2-2.4-0.5-5.7,3.2-6.5c1.4-0.3,2.8-0.6,4.5-1c0.2,0.5,0.5,1.2,0.7,2c1.2,4.3,2.4,8.7,3.7,13
		c1.5,4.7,3.3,9.4,4.5,14.2c0.6,2.3,1,4.8,1.3,7.2c-1-9.6,1.7-19,3.2-28.5c-0.2-0.2-0.5-0.3-0.7-0.5c-0.1,0.5-0.3,1-0.4,1.5
		c-0.1-0.1-0.2-0.2-0.3-0.3c0.7-2.3,1.3-4.6,2.2-7.3c-0.9,0.5-1.1,0.7-1.6,1c0.1-0.6,0.2-1,0.2-1.3c0.5-3,1.3-6,1.2-9
		c-0.1-2.5-1.5-5-1.9-7.5c-0.6-3.6-1.2-7.2,2-10.1c0.7,0.7,1.3,1.4,2,2.1c0,0,0,0,0.1,0c0.5,1.8,1.1,3.5,1.6,5.3
		c0.2-0.1,0.5-0.2,0.7-0.2c-0.6-1.6-1.2-3.2-1.8-4.8c1.9,3,3.7,5.9,5.8,9.4C269.5,98.4,269.2,97.3,268.7,96.3z"/>
	<path class="st0" d="M243.4,66.4c0.6,1.5,1.3,2.9,2.2,5.1c1.2-3.8,2.2-6.7,3.1-9.8c0.5-1.5,0.7-3.2,0.9-4.8
		c0.2-1.5,0.9-2.7,2.3-3.7c0.9-0.6,1.4-1.9,2.1-2.9c-0.5,0.6-1.1,1.3-1.6,1.9c0,0,0,0,0,0c0,0,0,0,0,0c-0.1,0-0.1-0.1-0.2-0.2
		c0,0-0.1-0.1-0.1-0.1c-0.1-0.1-0.2-0.1-0.2-0.2c0.6-0.7,1.2-1.4,1.8-2.1c0,0,0,0,0,0c0,0,0,0,0,0c-0.4-2.1-0.4-4,1.5-5.5
		c1.8-1.4,3.4-3,5.2-4.6c-1.9-0.3-3-0.5-4.8-0.7c1.4-1.2,2.2-1.8,3.3-2.8c-1.1-0.4-2.1-0.7-2.8-1c0.4-0.8,1-1.8,1.6-3
		c-1.6-0.5-2.7-0.9-3.9-1.3c-0.2-0.9-0.3-1.9-0.5-2.9c-0.9,0.3-1.5,0.5-2,0.6c0.3-1.4,0.6-2.6,0.8-3.8c-0.7-0.3-1.3-0.6-1.9-0.9
		c-0.4,0-0.8,0-1.2,0c-2.1,1-4.3,1.9-6.3,3.1c-2.5,1.5-4.8,3.5-7.3,5c-5.2,3-7.2,10-3.4,14.7C236.9,52.7,240.4,59.3,243.4,66.4z"/>
	<path class="st0" d="M251.8,51.8c0.1,0.1,0.2,0.1,0.2,0.2c0,0,0.1,0.1,0.1,0.1c0.1,0.1,0.1,0.1,0.2,0.2c0,0,0,0,0,0
		c0.5-0.6,1.1-1.3,1.6-1.9c-0.1-0.2-0.2-0.4-0.4-0.6c0,0,0,0,0,0C253,50.4,252.4,51.1,251.8,51.8z"/>
</g>
<g>
	<path class="st0" d="M345,52.2c0.5-0.6,1-1.3,1.6-1.9C346.1,50.9,345.5,51.6,345,52.2C345,52.2,345,52.2,345,52.2z"/>
	<path class="st0" d="M350.7,150.2c0.1,1.2,0.3,2.3,0.5,3.5C351,152.5,350.8,151.3,350.7,150.2z"/>
	<path class="st0" d="M361.3,96.3c6.2,9,5.2,21.2,13.9,30.1c-0.3-1.6-0.3-2.3-0.5-3c-1.7-5.1-4.1-10.1-5-15.3
		c-1.6-9.3-5.2-18.4-5-28c0.1-4.3-3.4-8.2-1.4-12.6c0,0,0-0.2,0-0.2c-1.8-2.4-1.2-5-0.7-7.5c0.1-0.7,0.1-1.4,0.1-2.1
		c-0.2-2.5-0.4-5.1-0.6-8.5c-8.6,15.2-16.9,30-25.3,45c-1.1-3.7-2-7.3-3.4-10.7c-1.3-3.3-3.1-6.5-4.7-9.7c0,0-0.1,0-0.2,0.1
		c0.2,1,0.5,2,0.7,3c-0.9-0.5-1.5-1.2-1.9-2c-1.5-3.8-2.9-7.6-4.5-11.4c-1.4-3.3-2.2-7-5.7-9.1c-2.1-1.3-3-1.2-3.4,1.2
		c-0.4,2.5-0.2,5.1-0.8,7.5c-1.8,7.9-3.8,15.7-5.7,23.6c-0.2,0.9,0.2,1.9,0,2.8c-1,4.4-2.2,8.7-3.3,13.2c0.5-0.2,0.8-0.3,1.4-0.6
		c-0.9,3-1.8,5.8-2.6,8.5c-0.3,1-0.2,2.2-0.5,3.2c-0.4,1.5-1.1,3-1.6,4.5c-0.4,1-0.7,2-1,2.9c0,0.3,0,0.5,0,1c0.5-0.3,1.2-0.5,1.4-1
		c2-5.1,3.6-10.3,5.7-15.3c1.8-4.2,4.2-8.2,6.3-12.3c0.2,0.1,0.5,0.2,0.7,0.4c0,0.4,0,0.7,0,1.6c1.4-2.1,2.5-3.8,3.7-5.7
		c-1,0.3-1.7,0.5-2.9,0.9c1-1,1.6-1.7,2.2-2.4c0.4-0.4,0.9-0.8,1.3-1.2c0.4,0.5,1.1,1,1.2,1.5c1.1,8.3,2.2,16.7,3.1,25.1
		c0.3,2.9,0,5.8,0.4,8.7c0.9,7.1,2,14.1,3,21.2c0.4,2.7,0.9,5.3,1.4,8c0.2,0,0.3,0,0.5-0.1c-0.6-5.7-1.2-11.5-1.8-17.2
		c0.3,0,0.6-0.1,1-0.1c1,7,2.1,14,3.1,21c0.3,0,0.7,0,1,0c0-2.7,0.2-5.5,0-8.2c-0.2-3-0.9-6-1.1-9.1c-0.1-1.9,0.2-3.9,0.7-5.7
		c1-3.6,2.6-6.9,2.4-10.9c-0.2-2.4-0.5-5.7,3.2-6.5c1.4-0.3,2.8-0.6,4.5-1c0.2,0.5,0.5,1.2,0.7,2c1.2,4.3,2.4,8.7,3.7,13
		c1.5,4.7,3.3,9.4,4.5,14.2c0.6,2.3,1,4.8,1.3,7.2c-1-9.6,1.7-19,3.2-28.5c-0.2-0.2-0.5-0.3-0.7-0.5c-0.1,0.5-0.3,1-0.4,1.5
		c-0.1-0.1-0.2-0.2-0.3-0.3c0.7-2.3,1.3-4.6,2.2-7.3c-0.9,0.5-1.1,0.7-1.6,1c0.1-0.6,0.2-1,0.2-1.3c0.5-3,1.3-6,1.2-9
		c-0.1-2.5-1.5-5-1.9-7.5c-0.6-3.6-1.2-7.2,2-10.1c0.7,0.7,1.3,1.4,2,2.1c0,0,0,0,0.1,0c0.5,1.8,1.1,3.5,1.6,5.3
		c0.2-0.1,0.5-0.2,0.7-0.2c-0.6-1.6-1.2-3.2-1.8-4.8c1.9,3,3.7,5.9,5.8,9.4C362.1,98.4,361.7,97.3,361.3,96.3z"/>
	<path class="st0" d="M336,66.4c0.6,1.5,1.3,2.9,2.2,5.1c1.2-3.8,2.2-6.7,3.1-9.8c0.5-1.5,0.7-3.2,0.9-4.8c0.2-1.5,0.9-2.7,2.3-3.7
		c0.9-0.6,1.4-1.9,2.1-2.9c-0.5,0.6-1.1,1.3-1.6,1.9c0,0,0,0,0,0c0,0,0,0,0,0c-0.1,0-0.1-0.1-0.2-0.2c0,0-0.1-0.1-0.1-0.1
		c-0.1-0.1-0.2-0.1-0.2-0.2c0.6-0.7,1.2-1.4,1.8-2.1c0,0,0,0,0,0c0,0,0,0,0,0c-0.4-2.1-0.4-4,1.5-5.5c1.8-1.4,3.4-3,5.2-4.6
		c-1.9-0.3-3-0.5-4.8-0.7c1.4-1.2,2.2-1.8,3.3-2.8c-1.1-0.4-2.1-0.7-2.8-1c0.4-0.8,1-1.8,1.6-3c-1.6-0.5-2.7-0.9-3.9-1.3
		c-0.2-0.9-0.3-1.9-0.5-2.9c-0.9,0.3-1.5,0.5-2,0.6c0.3-1.4,0.6-2.6,0.8-3.8c-0.7-0.3-1.3-0.6-1.9-0.9c-0.4,0-0.8,0-1.2,0
		c-2.1,1-4.3,1.9-6.3,3.1c-2.5,1.5-4.8,3.5-7.3,5c-5.2,3-7.2,10-3.4,14.7C329.5,52.7,333,59.3,336,66.4z"/>
	<path class="st0" d="M344.4,51.8c0.1,0.1,0.2,0.1,0.2,0.2c0,0,0.1,0.1,0.1,0.1c0.1,0.1,0.1,0.1,0.2,0.2c0,0,0,0,0,0
		c0.5-0.6,1.1-1.3,1.6-1.9c-0.1-0.2-0.2-0.4-0.4-0.6c0,0,0,0,0,0C345.6,50.4,345,51.1,344.4,51.8z"/>
</g>
<g>
	<path class="st0" d="M437.6,52.2c0.5-0.6,1-1.3,1.6-1.9C438.6,50.9,438.1,51.6,437.6,52.2C437.6,52.2,437.6,52.2,437.6,52.2z"/>
	<path class="st0" d="M443.3,150.2c0.1,1.2,0.3,2.3,0.5,3.5C443.6,152.5,443.4,151.3,443.3,150.2z"/>
	<path class="st0" d="M453.9,96.3c6.2,9,5.2,21.2,13.9,30.1c-0.3-1.6-0.3-2.3-0.5-3c-1.7-5.1-4.1-10.1-5-15.3
		c-1.6-9.3-5.2-18.4-5-28c0.1-4.3-3.4-8.2-1.4-12.6c0,0,0-0.2,0-0.2c-1.8-2.4-1.2-5-0.7-7.5c0.1-0.7,0.1-1.4,0.1-2.1
		c-0.2-2.5-0.4-5.1-0.6-8.5c-8.6,15.2-16.9,30-25.3,45c-1.1-3.7-2-7.3-3.4-10.7c-1.3-3.3-3.1-6.5-4.7-9.7c0,0-0.1,0-0.2,0.1
		c0.2,1,0.5,2,0.7,3c-0.9-0.5-1.5-1.2-1.9-2c-1.5-3.8-2.9-7.6-4.5-11.4c-1.4-3.3-2.2-7-5.7-9.1c-2.1-1.3-3-1.2-3.4,1.2
		c-0.4,2.5-0.2,5.1-0.8,7.5c-1.8,7.9-3.8,15.7-5.7,23.6c-0.2,0.9,0.2,1.9,0,2.8c-1,4.4-2.2,8.7-3.3,13.2c0.5-0.2,0.8-0.3,1.4-0.6
		c-0.9,3-1.8,5.8-2.6,8.5c-0.3,1-0.2,2.2-0.5,3.2c-0.4,1.5-1.1,3-1.6,4.5c-0.4,1-0.7,2-1,2.9c0,0.3,0,0.5,0,1c0.5-0.3,1.2-0.5,1.4-1
		c2-5.1,3.6-10.3,5.7-15.3c1.8-4.2,4.2-8.2,6.3-12.3c0.2,0.1,0.5,0.2,0.7,0.4c0,0.4,0,0.7,0,1.6c1.4-2.1,2.5-3.8,3.7-5.7
		c-1,0.3-1.7,0.5-2.9,0.9c1-1,1.6-1.7,2.2-2.4c0.4-0.4,0.9-0.8,1.3-1.2c0.4,0.5,1.1,1,1.2,1.5c1.1,8.3,2.2,16.7,3.1,25.1
		c0.3,2.9,0,5.8,0.4,8.7c0.9,7.1,2,14.1,3,21.2c0.4,2.7,0.9,5.3,1.4,8c0.2,0,0.3,0,0.5-0.1c-0.6-5.7-1.2-11.5-1.8-17.2
		c0.3,0,0.6-0.1,1-0.1c1,7,2.1,14,3.1,21c0.3,0,0.7,0,1,0c0-2.7,0.2-5.5,0-8.2c-0.2-3-0.9-6-1.1-9.1c-0.1-1.9,0.2-3.9,0.7-5.7
		c1-3.6,2.6-6.9,2.4-10.9c-0.2-2.4-0.5-5.7,3.2-6.5c1.4-0.3,2.8-0.6,4.5-1c0.2,0.5,0.5,1.2,0.7,2c1.2,4.3,2.4,8.7,3.7,13
		c1.5,4.7,3.3,9.4,4.5,14.2c0.6,2.3,1,4.8,1.3,7.2c-1-9.6,1.7-19,3.2-28.5c-0.2-0.2-0.5-0.3-0.7-0.5c-0.1,0.5-0.3,1-0.4,1.5
		c-0.1-0.1-0.2-0.2-0.3-0.3c0.7-2.3,1.3-4.6,2.2-7.3c-0.9,0.5-1.1,0.7-1.6,1c0.1-0.6,0.2-1,0.2-1.3c0.5-3,1.3-6,1.2-9
		c-0.1-2.5-1.5-5-1.9-7.5c-0.6-3.6-1.2-7.2,2-10.1c0.7,0.7,1.3,1.4,2,2.1c0,0,0,0,0.1,0c0.5,1.8,1.1,3.5,1.6,5.3
		c0.2-0.1,0.5-0.2,0.7-0.2c-0.6-1.6-1.2-3.2-1.8-4.8c1.9,3,3.7,5.9,5.8,9.4C454.7,98.4,454.3,97.3,453.9,96.3z"/>
	<path class="st0" d="M428.6,66.4c0.6,1.5,1.3,2.9,2.2,5.1c1.2-3.8,2.2-6.7,3.1-9.8c0.5-1.5,0.7-3.2,0.9-4.8
		c0.2-1.5,0.9-2.7,2.3-3.7c0.9-0.6,1.4-1.9,2.1-2.9c-0.5,0.6-1.1,1.3-1.6,1.9c0,0,0,0,0,0c0,0,0,0,0,0c-0.1,0-0.1-0.1-0.2-0.2
		c0,0-0.1-0.1-0.1-0.1c-0.1-0.1-0.2-0.1-0.2-0.2c0.6-0.7,1.2-1.4,1.8-2.1c0,0,0,0,0,0c0,0,0,0,0,0c-0.4-2.1-0.4-4,1.5-5.5
		c1.8-1.4,3.4-3,5.2-4.6c-1.9-0.3-3-0.5-4.8-0.7c1.4-1.2,2.2-1.8,3.3-2.8c-1.1-0.4-2.1-0.7-2.8-1c0.4-0.8,1-1.8,1.6-3
		c-1.6-0.5-2.7-0.9-3.9-1.3c-0.2-0.9-0.3-1.9-0.5-2.9c-0.9,0.3-1.5,0.5-2,0.6c0.3-1.4,0.6-2.6,0.8-3.8c-0.7-0.3-1.3-0.6-1.9-0.9
		c-0.4,0-0.8,0-1.2,0c-2.1,1-4.3,1.9-6.3,3.1c-2.5,1.5-4.8,3.5-7.3,5c-5.2,3-7.2,10-3.4,14.7C422.1,52.7,425.6,59.3,428.6,66.4z"/>
	<path class="st0" d="M437,51.8c0.1,0.1,0.2,0.1,0.2,0.2c0,0,0.1,0.1,0.1,0.1c0.1,0.1,0.1,0.1,0.2,0.2c0,0,0,0,0,0
		c0.5-0.6,1.1-1.3,1.6-1.9c-0.1-0.2-0.2-0.4-0.4-0.6c0,0,0,0,0,0C438.2,50.4,437.6,51.1,437,51.8z"/>
</g>
<g>
	<path class="st0" d="M530.2,52.2c0.5-0.6,1-1.3,1.6-1.9C531.2,50.9,530.7,51.6,530.2,52.2C530.2,52.2,530.2,52.2,530.2,52.2z"/>
	<path class="st0" d="M535.9,150.2c0.1,1.2,0.3,2.3,0.5,3.5C536.2,152.5,536,151.3,535.9,150.2z"/>
	<path class="st0" d="M546.5,96.3c6.2,9,5.2,21.2,13.9,30.1c-0.3-1.6-0.3-2.3-0.5-3c-1.7-5.1-4.1-10.1-5-15.3
		c-1.6-9.3-5.2-18.4-5-28c0.1-4.3-3.4-8.2-1.4-12.6c0,0,0-0.2,0-0.2c-1.8-2.4-1.2-5-0.7-7.5c0.1-0.7,0.1-1.4,0.1-2.1
		c-0.2-2.5-0.4-5.1-0.6-8.5c-8.6,15.2-16.9,30-25.3,45c-1.1-3.7-2-7.3-3.4-10.7c-1.3-3.3-3.1-6.5-4.7-9.7c0,0-0.1,0-0.2,0.1
		c0.2,1,0.5,2,0.7,3c-0.9-0.5-1.5-1.2-1.9-2c-1.5-3.8-2.9-7.6-4.5-11.4c-1.4-3.3-2.2-7-5.7-9.1c-2.1-1.3-3-1.2-3.4,1.2
		c-0.4,2.5-0.2,5.1-0.8,7.5c-1.8,7.9-3.8,15.7-5.7,23.6c-0.2,0.9,0.2,1.9,0,2.8c-1,4.4-2.2,8.7-3.3,13.2c0.5-0.2,0.8-0.3,1.4-0.6
		c-0.9,3-1.8,5.8-2.6,8.5c-0.3,1-0.2,2.2-0.5,3.2c-0.4,1.5-1.1,3-1.6,4.5c-0.4,1-0.7,2-1,2.9c0,0.3,0,0.5,0,1c0.5-0.3,1.2-0.5,1.4-1
		c2-5.1,3.6-10.3,5.7-15.3c1.8-4.2,4.2-8.2,6.3-12.3c0.2,0.1,0.5,0.2,0.7,0.4c0,0.4,0,0.7,0,1.6c1.4-2.1,2.5-3.8,3.7-5.7
		c-1,0.3-1.7,0.5-2.9,0.9c1-1,1.6-1.7,2.2-2.4c0.4-0.4,0.9-0.8,1.3-1.2c0.4,0.5,1.1,1,1.2,1.5c1.1,8.3,2.2,16.7,3.1,25.1
		c0.3,2.9,0,5.8,0.4,8.7c0.9,7.1,2,14.1,3,21.2c0.4,2.7,0.9,5.3,1.4,8c0.2,0,0.3,0,0.5-0.1c-0.6-5.7-1.2-11.5-1.8-17.2
		c0.3,0,0.6-0.1,1-0.1c1,7,2.1,14,3.1,21c0.3,0,0.7,0,1,0c0-2.7,0.2-5.5,0-8.2c-0.2-3-0.9-6-1.1-9.1c-0.1-1.9,0.2-3.9,0.7-5.7
		c1-3.6,2.6-6.9,2.4-10.9c-0.2-2.4-0.5-5.7,3.2-6.5c1.4-0.3,2.8-0.6,4.5-1c0.2,0.5,0.5,1.2,0.7,2c1.2,4.3,2.4,8.7,3.7,13
		c1.5,4.7,3.3,9.4,4.5,14.2c0.6,2.3,1,4.8,1.3,7.2c-1-9.6,1.7-19,3.2-28.5c-0.2-0.2-0.5-0.3-0.7-0.5c-0.1,0.5-0.3,1-0.4,1.5
		c-0.1-0.1-0.2-0.2-0.3-0.3c0.7-2.3,1.3-4.6,2.2-7.3c-0.9,0.5-1.1,0.7-1.6,1c0.1-0.6,0.2-1,0.2-1.3c0.5-3,1.3-6,1.2-9
		c-0.1-2.5-1.5-5-1.9-7.5c-0.6-3.6-1.2-7.2,2-10.1c0.7,0.7,1.3,1.4,2,2.1c0,0,0,0,0.1,0c0.5,1.8,1.1,3.5,1.6,5.3
		c0.2-0.1,0.5-0.2,0.7-0.2c-0.6-1.6-1.2-3.2-1.8-4.8c1.9,3,3.7,5.9,5.8,9.4C547.3,98.4,546.9,97.3,546.5,96.3z"/>
	<path class="st0" d="M521.2,66.4c0.6,1.5,1.3,2.9,2.2,5.1c1.2-3.8,2.2-6.7,3.1-9.8c0.5-1.5,0.7-3.2,0.9-4.8
		c0.2-1.5,0.9-2.7,2.3-3.7c0.9-0.6,1.4-1.9,2.1-2.9c-0.5,0.6-1.1,1.3-1.6,1.9c0,0,0,0,0,0c0,0,0,0,0,0c-0.1,0-0.1-0.1-0.2-0.2
		c0,0-0.1-0.1-0.1-0.1c-0.1-0.1-0.2-0.1-0.2-0.2c0.6-0.7,1.2-1.4,1.8-2.1c0,0,0,0,0,0c0,0,0,0,0,0c-0.4-2.1-0.4-4,1.5-5.5
		c1.8-1.4,3.4-3,5.2-4.6c-1.9-0.3-3-0.5-4.8-0.7c1.4-1.2,2.2-1.8,3.3-2.8c-1.1-0.4-2.1-0.7-2.8-1c0.4-0.8,1-1.8,1.6-3
		c-1.6-0.5-2.7-0.9-3.9-1.3c-0.2-0.9-0.3-1.9-0.5-2.9c-0.9,0.3-1.5,0.5-2,0.6c0.3-1.4,0.6-2.6,0.8-3.8c-0.7-0.3-1.3-0.6-1.9-0.9
		c-0.4,0-0.8,0-1.2,0c-2.1,1-4.3,1.9-6.3,3.1c-2.5,1.5-4.8,3.5-7.3,5c-5.2,3-7.2,10-3.4,14.7C514.7,52.7,518.2,59.3,521.2,66.4z"/>
	<path class="st0" d="M529.6,51.8c0.1,0.1,0.2,0.1,0.2,0.2c0,0,0.1,0.1,0.1,0.1c0.1,0.1,0.1,0.1,0.2,0.2c0,0,0,0,0,0
		c0.5-0.6,1.1-1.3,1.6-1.9c-0.1-0.2-0.2-0.4-0.4-0.6c0,0,0,0,0,0C530.8,50.4,530.2,51.1,529.6,51.8z"/>
</g>
<path class="st0" d="M4.3,5.6C4.6,5.8,4.9,6,5.5,6h0.1c0.5,0,1.1,0,1.5,0.2c0,0.2,0.1,0.5,0.7,0.4c0.7,0,1.3,0,2,0.1
	c0.3,0,0.7,0.1,1-0.1c0.3,0,0.7-0.1,1,0.1c-0.1,0-0.4,0-0.3,0.1C12,6.9,12.6,6.9,13.1,7c1.4,0.2,2.9,0,4.3,0.2
	c2.2,0.2,4.3,0.4,6.6,0.4c0.9,0,1.7,0.1,2.6,0.1C28.1,7.7,29.5,8,31,8c1.3,0,2.6,0.1,3.8,0.3c0.8,0.3,1.7,0.1,2.5,0.1
	c2.7,0.2,5.4,0.3,8.1,0.3c2.4,0,4.7,0,7.1,0c0.4,0,0.8,0,1.2,0c2.6,0.2,5.2,0.1,7.9,0.1c0.2,0,0.3-0.1,0.5-0.1c1.3,0,2.5,0,3.8,0
	c0.3,0,0.6,0.1,0.8-0.1c1.7,0,3.4,0,5.2,0c1.2,0,2.4,0,3.6-0.3c0.8,0,1.6-0.2,2.5-0.2c0.8,0,1.6,0,2.4,0c3.9,0.1,7.8,0,11.7,0
	c0.5,0.1,1,0.1,1.5,0.1c2.2,0,4.3,0.2,6.4,0.5c1.2,0.1,2.4,0.1,3.6,0.1c1.7-0.1,3.4-0.2,5.1-0.2c6.1,0,12.2,0,18.3,0
	c0.4,0,1,0.1,1.4-0.2c-0.5-0.2-0.9-0.4-1.4-0.5c-0.4-0.1-0.5-0.3-0.5-0.5c0.4,0,1,0,0.5-0.4c-0.3-0.3-0.6-0.6-1.4-0.5
	c-0.3,0-0.5-0.1-0.5-0.3c0.3,0,0.6,0,0.9-0.1c-0.1-0.4-0.4-0.8-0.9-1.2c-0.6-0.4-1.4-0.8-2-1.2c-1.3-0.8-2.7-1.5-4.5-2
	c-0.4-0.3-0.8-0.5-1.3-0.7c-0.8-0.5-1-0.5-2.2-0.2c-3.5,0-7.1,0-10.6,0c-0.4,0-0.7,0-1.1,0c-1.6-0.2-3.2-0.4-4.9-0.4
	c-0.3-0.2-0.7-0.2-1.1,0c-0.3,0-0.6,0-0.9,0c-0.1,0-0.1,0-0.2,0c-0.2,0-0.3-0.1-0.5-0.1C95.5,0,95.4-0.1,95,0.1
	c-0.3,0-0.6-0.1-0.8,0.1c-0.2,0-0.4,0.1-0.6,0.2c-0.6,0-1,0.2-1.1,0.6c-0.1,0-0.3,0.1-0.4,0.1c-0.4-0.1-0.6,0-0.6,0.2
	c-0.1,0-0.1,0-0.2,0c-0.4-0.1-0.6,0-0.6,0.2c-0.1,0.2-0.5,0.2-0.8,0.2c-0.3-0.2-0.6-0.1-0.9,0C87.9,2,86.8,2,85.6,2c-3,0-6,0-8.9,0
	c-0.4,0-0.9-0.1-1.3,0.1c-0.2,0-0.3,0-0.5,0c-0.3-0.4-1-0.4-1.6-0.4c-2.5,0-4.8,0.4-7,1c-1.5,0.4-3.1,0.7-4.9,0.7
	c-0.9,0-1.9,0-2.9,0c-0.5,0-1,0-1.4,0.2c-0.6,0.2-0.4,0.3,0.2,0.4c0.2,0.3-0.1,0.6-0.2,1c-0.2,0.1-0.5,0.1-0.6,0.3
	c-0.2,0-0.3,0-0.5,0c-1.8-0.1-3.7,0-5.5,0c-1.5,0-3,0-4.6,0c-0.2-0.4-0.8-0.2-1.2-0.2c-1.7,0-3.5,0.1-5.3-0.1
	C38.5,4.9,38,4.7,38,4.2c0-0.3-0.2-0.4-0.7-0.4c-0.4,0-0.8-0.1-1.2-0.1c-4.4,0-8.7,0-13.1,0c-0.4,0-0.8,0-0.9,0.2
	c-0.3,0-0.5,0-0.8,0C21,3.7,20.8,3.8,20.7,4c-0.4,0-0.9,0-1.3,0c-0.5-0.2-0.9-0.2-1.1,0.1c-0.2,0-0.3,0-0.5,0
	c-0.5-0.2-0.9-0.2-1.2,0.1c-0.2,0-0.3,0-0.5,0c-0.4-0.2-0.5,0-0.6,0.1c-0.2,0-0.3,0-0.5,0c-0.1,0-0.1-0.1-0.2-0.1
	c-1.1,0.2-2.3,0.3-3.4,0.7c-1.1,0-2.2,0-3.3,0C7.8,5,7.4,4.7,6.6,4.8c-0.3,0-0.5,0-0.8,0C4.6,4.6,3.6,4.9,2.4,5.1
	c0.5,0.2,0.7,0.5,1.3,0.4C3.9,5.5,4.1,5.6,4.3,5.6z"/>
<path class="st0" d="M297.1,4.2L297.1,4.2h0.2c0.1,0.1,0.1,0.1,0.2,0.2c1.6,0.6,3,1.2,4.6,1.8c0.9,0.3,1.7,0.4,2.7,0.4
	c3.5,0,7,0.2,10.5,0.4c0.7,0,1.2,0.2,1.9,0.1c0.3,0.1,0.5,0.1,0.8,0.1c0.5,0.2,0.9,0.2,1.5,0.1c0.3,0,0.5,0,0.8,0
	c0.7,0.3,1.4,0.2,2.2,0.2c1.5,0.1,3,0.3,4.6,0.2c0.2,0.1,0.4,0.1,0.6,0c2-0.1,4.1,0,6.1-0.1c1.2,0,2.5,0,3.7,0.2
	c0,0.2,0.2,0.3,0.6,0.3c0.6,0.3,1.2,0.4,2.1,0.4c3.7,0,7.4,0.2,11.1,0.1c0.5,0,0.9,0,1.3-0.1c0.6,0.1,1.3-0.1,1.8,0.2
	c0.3,0,0.6,0,0.9,0c0.4-0.3,1-0.1,1.5-0.2c0.2,0,0.5,0,0.6-0.1c1.1,0.1,2.2-0.1,3.3-0.2c0.1,0,0.2,0.1,0.3,0.1c0.3,0,0.6,0,0.9,0
	c0-0.1,0-0.1,0-0.2c0.2,0,0.4,0,0.5,0c0.4,0,0.8,0.1,1-0.1c0.4,0,0.7,0,1,0c0.2,0,0.4,0,0.5,0.1c0.2,0,0.4,0,0.6,0
	c0.4-0.3,0.8-0.2,1.2-0.1c0.5,0.1,0.9,0.1,1.3-0.1c0-0.1,0-0.1,0-0.2c0.6,0,1.2,0,1.8,0c0.2,0,0.4,0,0.7,0.1c0.1,0,0.3,0,0.4,0
	c0-0.1,0-0.1,0-0.2c0.6,0,1.2,0,1.8,0c0.3,0,0.6,0,0.8,0.1c0.4,0.1,0.8,0.1,1,0c0-0.1,0-0.1,0-0.2c0.4,0,0.7,0,1,0
	c0.1,0,0.3,0,0.4,0.1c0.2,0,0.5,0,0.7,0c0-0.1,0-0.1,0-0.2c0.4,0,0.7,0,1,0c0.1-0.2,0.2-0.4,0.6-0.1c0.4,0,0.8,0,1.1,0h0.1h0.1
	c0.4,0.1,0.7,0,1,0c0-0.1,0-0.1,0-0.2c0.5,0,0.9,0,1.3,0l0,0c0.2,0,0.3,0,0.5,0c0-0.1,0-0.1,0-0.2c1.4,0,2.9,0.1,4.4-0.1
	c0.3,0,0.6,0,0.9,0c0.1,0,0.3,0,0.4,0c0-0.1,0-0.1,0-0.2c1.1,0,2.3,0,3.3,0c0.5,0.2,1.1,0.3,1.4,0.6c0.1,0.2,0.5,0.2,0.9,0.2
	c0.3,0,0.7-0.1,0.9,0.2c0.4,0.1,0.7,0.1,1,0c0.9,0.2,1.7,0.2,2.6,0.1c0.2,0.1,0.4,0.1,0.6,0c0.7,0.3,1.3,0.2,2,0.1
	c0.2,0.1,0.4,0.1,0.6,0.1c0.1,0.1,0.3,0.1,0.5,0.1c1,0.2,2.1,0.1,3.1,0.1c0.3,0.2,0.7,0.2,1,0.1c0.1,0,0.3,0,0.4,0
	c3.2,0,6.4,0,9.7,0c0.6,0.3,1.2,0.1,1.8,0.1c2.1,0,4.2,0,6.3,0c2.4,0,4.7,0.2,7.1,0.1c0.8-0.1,1.4-0.1,2.2-0.1
	c2.2,0,4.3,0.1,6.4,0.1c4.7,0.1,9.6,0,14.3,0c0.4,0,0.8,0,1,0c1-0.3,2.2-0.2,3.3-0.2c0.4,0,0.7,0,1,0c0.3,0,0.2-0.2,0-0.3
	c0.1-0.5,0.5-0.7,1.1-0.7c0.7,0.1,0.7,0.3,0.6,0.6c-0.2,0.3,0.4,0.2,0.7,0.2c1,0,1.9-0.1,2.8-0.3c2-0.4,4-0.9,5.7,0.2
	c0.2,0.1,0.5,0.2,0.8,0.2c0.3,0.1,0.6,0.2,0.6,0.4c0.7,0.4,1.3,0.1,2.1,0.1c0-0.1,0.1-0.2,0.3-0.2c0.7,0.1,1.2-0.2,1.8-0.1
	c2.2-0.1,4.3-0.5,6.4-0.7c0.3,0,0.6,0,0.7-0.3c0.8,0,1.4-0.1,1.5-0.6c1.1-0.2,2.3-0.2,3.2,0.1c0.9,0.3,1.9,0.2,2.7,0
	c0.8-0.1,1.6,0,2.2,0.2c0.5,0.2,0.9,0.2,1.4,0.2c0.9,0,2,0,2.9,0c3,0.2,6.1,0.1,9.1-0.1c1.1-0.1,2.4-0.4,3.5-0.1
	c1.1,0.2,2.2,0.3,3.3,0.4c2.1,0.2,4.1-0.1,6.2-0.1c0.3,0,0.5-0.1,0.7-0.2c0.7-0.4,1.4-0.4,2.3-0.2c0.4,0.1,0.8,0.2,1.1,0.1
	c0.9-0.1,1.8,0.1,2.7,0.1c3.2,0,6.5,0,9.8,0.1c4.3,0.1,8.5,0.2,12.7,0.2c0.6,0,1.1-0.2,1.6-0.1c1.9,0.2,3.8,0.1,5.7,0.1
	c6.7,0,13.5,0,20.1,0c0.4,0.2,0.9,0.1,1.3,0.1c1.4,0,2.7-0.1,4.2,0.1c2.5-0.1,5-0.2,7.5-0.5c0.3,0,0.5,0,0.8,0
	c0.8,0.3,1.3,0,2.2-0.1c-1.2-0.4-2.4-0.6-3.6-0.7c-0.1,0-0.1,0.1-0.2,0.1c-0.2,0-0.3,0-0.5,0C586,6,584.9,6,583.9,5.9
	c-0.2,0-0.3,0-0.5,0c-0.1-0.2-0.3-0.2-0.5,0c-0.2,0-0.3,0-0.5,0c-0.3-0.3-0.7-0.3-1-0.1c-0.3,0-0.5,0-0.8,0
	c-0.2-0.3-0.7-0.2-1.1-0.2c-0.3,0-0.7,0-0.9,0c-0.5-0.2-1-0.2-1.5,0c-0.2,0-0.3,0-0.5,0c-0.2-0.3-0.5-0.3-0.9-0.2
	c-0.2,0-0.3,0-0.5,0c-0.2-0.2-0.5-0.2-0.8-0.1c-0.3,0-0.5,0-0.8,0c-0.1-0.1-0.2-0.2-0.5-0.2c-2.1,0-4.2-0.2-6.3-0.3
	c-0.4,0-0.8-0.1-1,0.1c-0.2,0-0.3,0-0.5,0c-0.6-0.4-1.2-0.3-1.9-0.1c-1.3,0-2.6,0-3.9,0c-0.1-0.1-0.3-0.1-0.6-0.1
	c-4,0-8,0.1-11.9-0.1c-0.4,0-0.7,0-1,0c-2-0.4-4.1-0.4-6.2-0.7c-2.3-0.3-4.6-0.4-6.8-0.7c-0.4,0-0.7-0.1-1,0c-0.4,0-0.9,0-1.2,0
	c-0.3-0.3-0.7-0.2-1-0.1c-0.4,0-0.8,0-1.2,0c-0.4-0.1-0.6,0-0.7,0.2c-0.4,0-0.8,0-1,0.1c-0.1,0-0.1,0-0.2,0c-0.1-0.1-0.1-0.2-0.3,0
	c-0.2,0-0.4,0-0.6,0c-0.2-0.2-0.5-0.1-0.7-0.1c-1.4,0-2.7,0-4.2,0c-0.3,0-0.6,0-0.9,0.1c-0.7,0.1-1.3-0.1-2.1-0.1
	c-0.5-0.3-1-0.1-1.6-0.1c-0.5,0-1,0-1.5,0c-0.9-0.3-1.7-0.1-2.6-0.1c-0.5,0-0.9,0-1.3,0c-0.1-0.1-0.3-0.1-0.6-0.1
	c-3.2,0-6.4,0.1-9.6-0.1c-0.2,0-0.4,0-0.5,0c-1.5-0.4-3.1-0.5-4.6-0.5c-2.4-0.1-4.8,0-7.2,0c-0.4,0-0.7,0-1,0
	c-1.3-0.1-2.6-0.3-3.9-0.1v0.1c-0.4,0-0.8,0.1-0.8,0.2c-0.2,0.7-1,1-1.5,1.6c-0.3,0.2-0.8,0.2-1.2,0.2c-0.5,0-0.8-0.2-0.9-0.4
	c-0.2-0.5-0.5-0.9-0.9-1.4c-0.3-0.4-0.8-0.5-1.5-0.4c-0.3,0-0.7-0.1-0.9,0c-0.4,0-0.7,0-1,0c-0.1,0-0.2,0-0.3-0.1
	c-0.3-0.1-0.7-0.1-0.9-0.1c-1.7,0-3.5,0-5.2,0.1c-0.3,0-0.5,0-0.8,0c-0.5-0.2-0.9-0.2-1.3,0c-1.1,0-2.3,0-3.3,0
	c-0.7,0-1.4-0.1-2.1,0.1c-0.5,0-0.9,0-1.3,0c-0.4-0.2-0.9-0.1-1.3-0.1c-1.5,0-3.1,0-4.6,0c-3.3,0-6.6-0.1-9.9-0.3
	c-3.8-0.1-7.6-0.3-11.4-0.2c-4.3,0.1-8.4-0.3-12.5-0.9c-2.1-0.3-4.2-0.5-6.4-0.5c-7,0.2-14-0.2-21.1,0.2c-4.5,0.3-9.1,0.3-13.7,0.2
	c-0.4,0-0.8,0-1.1,0c-0.9,0-1.9-0.1-2.8,0c-0.3,0-0.5,0-0.8,0c-0.1-0.1-0.2-0.2-0.4-0.2c-1.6,0-3.2,0-4.7,0c-0.3,0-0.5,0.1-0.6,0.2
	c-0.3,0-0.6,0-0.7,0.2c-0.6,0.1-1.2,0.2-1.8,0.3c-3.3,0.4-6.7,0.8-10,1.2c-1,0.1-2.1,0.2-2.8,0.6c-2.5,0.3-4.9,0.6-7.1,1.1
	c-0.8-0.1-1.5,0-2.2-0.4c-0.2-0.1-0.4-0.1-0.6-0.1c-1.5-0.1-3.1-0.2-4.7-0.3c-1.4-0.1-2.9-0.1-4.4-0.2c-0.5,0-0.9,0-1.2,0.1
	c-0.9,0.3-2,0.3-3,0.2c0-0.1,0-0.2,0.1-0.3c0.5-0.5,0.5-0.5-0.7-0.5c-1.9-0.1-3.8-0.1-5.8,0.1c-1.4-0.2-2.8-0.5-4.4-0.4
	c-1.4,0.1-2.7,0.1-4.2,0.2c-0.5,0-0.9,0-1.4,0c-2.5,0-4.9,0-7.4-0.1c-1.5-0.1-3.1-0.2-4.6-0.1c-3.1,0.1-6.3,0.3-9.4,0.2
	c-0.4,0-0.7,0-1,0c1.3,0.5,2.7,0.9,4,1.1C296,3.9,296.4,4.3,297.1,4.2z M317.7,4.7c0.2,0,0.3,0.1,0.4,0.2
	C318,4.8,317.9,4.7,317.7,4.7c-0.1,0-0.1,0-0.2,0c-0.3,0-0.5,0-0.8,0c0.3,0,0.5,0,0.8,0C317.6,4.7,317.7,4.7,317.7,4.7z M306.6,4.3
	L306.6,4.3C306.7,4.4,306.7,4.3,306.6,4.3L306.6,4.3z M310.6,6.4c0.2,0,0.4,0,0.5,0l0.1-0.1c0.1-0.1,0.3-0.2,0.5-0.3
	c-0.2,0-0.4,0.1-0.5,0.3L311,6.4C310.9,6.4,310.8,6.4,310.6,6.4z M368.2,4c-0.2,0-0.4,0-0.6,0C367.8,4,368,4,368.2,4L368.2,4z
	 M348.3,6.5c-0.1,0-0.2-0.1-0.3-0.1c-0.4,0-0.7,0-1,0c-0.6,0-1.2,0-1.8,0c0.6,0,1.2,0,1.8,0c0.4,0,0.7,0,1,0
	C348.1,6.4,348.2,6.5,348.3,6.5z"/>
<path class="st0" d="M596.7,175.6c-1.1-0.4-2.4-0.8-3.6-0.9c-2.4-0.3-4.8-0.3-7.3-0.1c-2,0.1-3.9,0.1-5.7-0.4
	c-0.4-0.1-0.8-0.1-1.1-0.2c-2.8-0.2-5.7-0.4-8.5-0.5c-0.8,0-1.4-0.2-2.2-0.1c-1,0.1-2.1,0.1-3,0.1c-1.6,0-3.2,0.2-4.7,0.5
	c-1.9,0.3-3.8,0.5-5.8,0.5c-1,0-2.2-0.1-2.7-0.8c-0.2-0.2-0.6-0.3-1-0.3c-1.5-0.1-3.1-0.1-4.6-0.4c-0.4-0.1-0.8-0.1-1.1-0.1
	c-1.6,0.2-3.2,0-4.9,0.1c-0.2-0.2-0.3-0.2-0.5,0c-0.3,0-0.5,0-0.8,0c-0.1-0.1-0.1-0.2-0.3-0.2c-2.1-0.2-4.1-0.5-6.2-0.5
	c-2.9-0.1-5.9-0.2-8.8-0.2c-2.5,0-5,0.1-7.3-0.6c-0.2-0.1-0.4,0-0.7,0c-0.2-0.2-0.4-0.5-0.9-0.3c-0.9,0.3-1.8,0.5-2.4,0.9
	c-0.1,0-0.2,0.1-0.3,0.1c-0.2,0-0.3,0-0.4,0.1c-0.4,0.1-0.9,0.2-1.2,0.3c-0.7,0-1.4,0-2.1,0.1c-0.4-0.1-0.8-0.1-1,0.1
	c-0.5,0-0.9,0.1-1.3,0.1c-0.3,0-0.6,0-0.8,0c-2.7,0.5-5.5,0.6-8.2,0.8c-1,0-2.1,0.1-3.1,0.1c-0.9,0-1.9,0.1-2.8,0.1
	c-0.5,0-0.9-0.1-1.4-0.3c-1.1-0.3-2.4-0.7-3.5-0.9s-2.2-0.6-3.4-0.7c-0.9,0-1.9,0.1-2.7,0.1c-0.6,0-1-0.1-1.6,0
	c-1.9,0-3.8,0.2-5.6,0.4c-0.5,0-0.9-0.1-1.4,0c-1.8,0.2-3.7,0.1-5.5,0.2c-2.7,0.1-5.3,0-8,0c-4.7,0-9.5-0.2-14.2-0.2
	c-0.9,0-1.8-0.1-2.5-0.5c-0.7-0.4-1.5-0.5-2.5-0.5c-0.9,0-1.6,0-2.5,0c-0.3,0-0.7,0-0.8,0.2c-0.6,0-1.2,0-1.8,0
	c-1-0.3-2.3-0.3-3.3-0.5c-0.3,0-0.7-0.3-1,0c-0.3,0-0.5,0-0.8-0.1c-0.1-0.1-0.3-0.3-0.6-0.1c-0.5,0-1,0-1.5,0
	c-1.5-0.1-3-0.3-4.6-0.2c-1.2,0-1.3,0.1-1.2,0.8c-0.1,0.2-0.2,0.4-0.6,0.4c-0.4-0.1-0.7,0-1,0c-0.8-0.3-1.6-0.6-2.4-0.9
	c-0.5-0.2-1-0.2-1.5,0c-0.4,0.2-0.9,0.3-1.2,0.5c-0.5,0-0.9,0.1-1.2,0.2c-1.2,0.1-2.3,0.4-3.5,0.6c-0.9,0.2-1.8,0.3-2.8,0.4
	c-2.3,0.1-4.1-0.4-5.8-1c-1.7-0.7-3.7-0.9-5.6-1.3c0,0-0.1,0-0.2,0.1c-0.2,0-0.4,0-0.6,0c-1.4-0.1-2.9,0-4.4,0.1
	c-0.7,0-1.4-0.2-2.1,0.1c-0.9,0.2-1.8,0.4-2.7,0.6c-0.7,0.2-1.4,0.3-2.2,0.4c-1.3,0.2-2,0-2.7-0.6c-0.3-0.2-0.4-0.5-0.8-0.7
	c-0.9,0.3-3.5,0.5-4.4,0.4c-1.4-0.2-2.8-0.1-4.3,0c-0.5,0-0.9,0-1.4,0c-2.7,0.2-5.5,0.1-8.2,0.1c-0.9,0-1.7,0-2.6,0.1
	c-1-0.2-2.1,0-3,0c-2.3,0-4.5-0.1-6.7,0s-4.6,0.2-6.8,0.2c-2,0-4-0.2-6-0.2c-0.6,0-1.1,0-1.6,0.2c-0.6,0.2-1.2,0.3-1.9,0.4
	c-2.3,0.2-4.6,0.3-6.8,0.5c-2,0.2-4,0.1-6,0.4c-0.1,0-0.3,0-0.4,0c-1.8,0.1-3.5,0-4.7-0.8c-0.4-0.3-0.9-0.1-1.3-0.1
	c-1.2-0.4-2.5-0.8-3.9-0.9c-3-0.2-6.1-0.2-9.1,0c-0.9,0-1.9-0.2-2.7,0.2c-0.6,0.3-1,0.2-1.6,0.1c-0.5-0.1-0.9-0.2-1.3-0.1
	c-2.5,0.2-4.9,0.1-7.4,0.2c-0.3,0-0.7,0.1-0.9-0.1c-0.7-0.5-1.7-0.5-2.7-0.5c-1,0-1,0-1,0.5c0,0.2-0.3,0.4-0.3,0.6
	c-0.5,0.1-0.8,0.2-1,0.4c-0.4,0-0.5,0.1-0.6,0.2c-0.4,0.1-0.8,0.1-0.9,0.3c-1.4,0-2.9,0-4.4,0c-0.4,0-0.8-0.1-1,0.1
	c-0.4,0-0.7,0-1,0.1c-0.9,0.1-1.8,0.1-2.7,0.4c-1.7,0.3-3.4,0.7-5.3,0.5c-1.3-0.2-2.7-0.2-4.2-0.2c-0.4,0-0.8,0-1.1,0
	c-0.6,0-1-0.1-0.9-0.5c0-0.3-0.5-0.5-0.8-0.7c-0.1-0.4,0.2-0.6,0.6-0.9c0.3,0,0.5-0.1,0.4-0.3l0.1-0.1c0.4,0,0.8-0.1,0.7-0.3
	c-0.1-0.2-0.5-0.2-0.9-0.2c-0.9,0.1-2,0.2-3,0.3c-1.2,0.2-2.6,0.2-3.8,0.4c-2.1,0.2-4.2,0-6.3,0.2c-1.4,0.2-2.8,0.2-4.3,0.3
	c0,0.2,0.3,0.3,0.5,0.3c-0.3,0.4-0.9,0.6-1.5,0.4c-0.5-0.1-0.9-0.1-1.3-0.1c-0.8,0-1.4,0-2.2,0c-0.4,0-0.8,0-0.9-0.2
	c-0.1-0.3-0.6-0.3-0.9-0.3c-2,0-4,0.2-6.1,0.1c-1.8-0.3-3.6,0-5.4,0.1c-0.8,0-1.5,0.1-2.3,0c-0.5-0.2-1.1-0.3-1.6-0.3
	c-1.3,0-2.5-0.4-3.9-0.2c-2.3,0.3-4.6,0.3-7,0.2c-1-0.1-2.2-0.2-3.3-0.2c-0.7-0.2-1.1-0.1-1.7,0.2c-0.9,0.4-1.8,0.9-2.8,1.1
	c-0.6-0.1-1,0.1-1.6,0.2c-0.6,0.1-1.1,0.2-1.8,0.3c-2,0.2-4.1,0.1-6.2,0.2c-1.4,0.1-2.8,0-4.3,0c-1.5-0.3-2-0.2-2.3,0.7
	c-0.2,0.2-0.6,0.2-0.9,0.3c-0.8,0-1.4,0.2-2.2,0.1c-1.2-0.1-1.6-0.1-2-0.8c-0.1-0.1-0.2-0.2-0.4-0.3c-1-0.2-1.8-0.7-3-0.8
	c-0.4-0.1-0.7-0.3-1-0.4c0-0.8,0.7-1.3,1.5-2c-0.5-0.1-0.9-0.1-1.2-0.1c-1,0-2.1,0-3.1,0c-0.6-0.2-1.2-0.2-1.8,0
	c-1.2,0.3-2.5,0.5-3.8,0.6c-0.7,0-0.9,0.2-0.9,0.5c-0.5,0.2-1,0.1-1.5,0.1c-0.1-0.1-0.3-0.1-0.6-0.1c-0.3-0.2-0.8-0.3-1.2-0.3
	c-0.9,0-1.8,0-2.7,0c-1.3,0-2.6,0-3.9,0.2c-0.5,0-1-0.1-1.5,0.1c-1,0-2,0.3-3,0.1c-0.7-0.1-1.3-0.1-2,0.1c-0.7,0.2-1.4,0.2-2.2,0.2
	c-1.2-0.1-2.6-0.3-3.8-0.2c-0.1-0.3-0.5-0.3-0.9-0.3c-1.2,0-2.4,0-3.6,0c-0.7,0-1.3-0.2-2-0.1c-1.4,0.2-2.8,0.2-4.3,0
	c-0.4,0-0.6,0-0.7,0.2c-0.2,0-0.3,0-0.5,0c-0.3-0.2-0.8-0.1-1-0.1c-3.5-0.1-7,0.3-10.5,0.3c-0.1,0-0.2,0.1-0.3,0.1
	c-1.4-0.1-2.7,0.2-4.1,0.4c-0.7,0.1-1.4,0.1-2,0.4c-0.2,0.1-0.5,0.1-0.7,0.2c-1.3,0.1-2.6,0.2-3.9,0c-0.5-0.2-1-0.1-1.6-0.1
	c-4,0.2-7.9,0.4-11.9,0.4c-0.5,0-0.9,0-1.3,0c-0.2,0-0.4,0-0.5,0.2c-2.4,0-4.8-0.1-7.2,0c-0.8-0.1-1.4,0-2.2,0
	c-1.5,0.1-3.1,0.2-4.3-0.4c-1.2-0.6-2.7-0.8-4.2-1c-0.6-0.1-1-0.1-1.6,0c-2.2,0.4-4.5,0.8-6.6,1.2c-1.4,0.3-2.9,0.3-4.5,0.2
	c-0.6-0.1-1.1-0.1-1.8,0c-1.8,0.2-3.5,0.3-5.3,0c-0.7-0.1-1.5-0.4-2.3-0.1c-0.2,0-0.5,0-0.7,0c-0.2-0.3-0.6-0.2-0.9-0.2
	c-1.2,0-2.6,0-3.8,0c-0.7,0-1.3,0-2.1,0c-1.7,0.1-3.4,0.2-4.9-0.3c-0.1,0-0.3,0-0.5,0c-0.2-0.2-0.6-0.2-0.9-0.2
	c-1.5,0.1-2.7-0.3-3.5-0.9c-0.3-0.2-0.7-0.3-1.2-0.3c-1.6,0-3.2-0.1-4.8,0.1c-0.3,0-0.5,0-0.8,0c-0.8,0-1.5-0.1-2.2,0.2
	c-2.4,0.2-4.7,0.4-7.2,0.3c-2.3-0.1-4.6,0-7,0c-0.4-0.1-0.8-0.2-1-0.4c-0.6-0.3-1.1-0.3-1.8,0c-0.9,0.2-1.7,0.5-2.7,0.6
	c-1.3,0.2-2.7,0.4-4,0.5c-0.8,0.1-1.5,0.2-1.9,0.6c-0.4,0.1-0.9,0.2-0.9,0.5c-0.7,0.8-1.5,0.7-2.1,1c0.3,0.2,0.7,0.3,0.9,0.4
	c0.2,0.2,0.3,0.3,0.5,0.5c1.4,0.4,2.8,0.8,4.5,0.9c0.7,0.3,1.6,0.3,2.4,0.5c2.3,0.5,4.6,0.9,6.9,1.4c1.4,0.3,2.9,0.7,4.6,0.6
	c2.7-0.2,5.5,0,8.2,0.2c1.9,0.2,3.8,0.4,5.8,0.3c1.6-0.1,3.2-0.1,4.7,0c0.4,0,0.8,0.1,1,0c0.6-0.2,1.1-0.2,1.7-0.2
	c4.2,0.1,8.4,0.2,12.6,0.1c2.2,0,4.4,0.2,6.5,0c0.2-0.2,0.6-0.1,0.9-0.2c0.4,0,0.8,0.1,1-0.1c1.5,0,2.9-0.2,4.4-0.3
	c1.7-0.2,3.4-0.6,5.2-0.6c0.4,0,0.7,0,1,0c1,0.3,2.3,0.1,3.3,0.1c0.1,0.1,0.3,0.2,0.6,0.3c1.5,0.1,3,0.2,4.6,0.3
	c1.3,0.1,2.7,0.1,3.9,0.3c1.1,0.2,2.4,0.2,3.5,0.3c3.6,0.1,7.1-0.1,10.7-0.3c2.1-0.1,4.2-0.4,6.3-0.6c2.5-0.3,4.9-0.4,7.4-0.6
	c1.3-0.1,2.7,0,4.1-0.2c2.1-0.2,4.3-0.1,6.4,0c2.7,0.1,5.3,0.3,8,0.2c4.3,0,8.6,0,12.9,0c0.6,0,1.2,0,1.8,0c1.6-0.1,3.3-0.2,4.9-0.2
	c1.2,0.1,2.4-0.2,3.6-0.1c0.9,0,1.7-0.2,2.6-0.3c0.5-0.1,1,0,1.3-0.3c0.9-0.1,1.6,0.4,2.6,0.4c0.2,0.3,0.9,0.3,1.2,0.6
	c0.8,0.5,1.8,0.5,2.8,0.3c1.3-0.3,2.6-0.2,3.9-0.2c0.9,0.9,3.1,1.4,5.3,1.2c2.1-0.2,4.1-0.4,6.3-0.4c2.9,0,5.9,0,8.8,0
	c0.5,0,0.9,0,1.4,0c2.4-0.3,4.8-0.4,7.3-0.4c1.4,0,2.9,0,4.3,0.2c0.9,0.1,1.7-0.2,2.5,0.1c0.4,0.2,0.9,0.1,1.2,0.1
	c1.2,0,2.5-0.1,3.6,0c2.9,0.2,5.9,0.4,8.8,0.4c1.9,0,3.9-0.1,5.8,0.1c0.5,0,0.9,0,1.4,0c1.6-0.1,3.2-0.3,4.7-0.5
	c2.2,0,4.5,0,6.6-0.2c2.2-0.2,4.4-0.4,6.6-0.4c0.4,0,0.7,0,0.9-0.1c1.2,0,2.4-0.1,3.5-0.2c2.4-0.3,4.6-0.5,7-0.6c0.4,0,0.7,0,1,0
	c0.4,0,0.7,0,1,0c1.5,0,3.1,0,4.6,0c0.5,0,0.9,0,1.3,0c1.1,0.1,2.4-0.1,3.5,0c0.9,0,1.5,0.4,2.5,0.3c0.3,0.2,0.8,0.1,1.2,0.1
	c0.6,0,1.2,0,1.8,0c2.4,0.2,4.7,0.1,7.1,0c0.4,0,0.9,0,1.3-0.2c2.4-0.5,4.9-0.7,7.5-0.8c1.1,0.1,2.2,0.2,3.3,0.1
	c2.4,0.1,4.2,0.7,5.7,1.5c0.4,0.2,0.6,0.4,1.1,0.3c2.1-0.8,4.4-1.4,6.7-2c1.2-0.3,1.6-0.3,2.7,0.2c0,0.3,0.3,0.4,0.8,0.5
	c0.7,0.3,1.3,0.7,2.4,0.7c0-0.1,0.1-0.1,0.2-0.1s0.2,0,0.3,0c2.3,0,4.5-0.1,6.7,0.1c0.4,0,0.9,0,1.2-0.1c0.3,0.1,0.5,0.1,0.8,0
	c0.1-0.2,0.5-0.2,0.8-0.2c0.3,0.1,0.7,0.1,1,0.1v-0.1c0.3,0,0.7-0.1,0.9-0.1c0,0.2,0.6,0.3,0.6,0.5c0.3,0.1,0.6,0.2,0.9,0.2
	c0.1,0.2,0.3,0.2,0.6,0.2c0.3,0,0.5,0,0.8,0.1c0.1,0.2,0.3,0.2,0.6,0.2c0.2,0,0.5,0,0.7,0.1c0.1,0.2,0.3,0.2,0.6,0.2
	c0.6,0.1,1.1,0.3,1.8,0.3c1.3-0.2,2.7-0.1,4-0.1c0.1,0,0.1,0.1,0.2,0.2c0.2,0,0.3,0,0.5,0v0.1c0.1,0,0.3,0,0.4,0s0.3,0,0.4-0.1
	c0.1,0,0.3,0,0.3,0.1c0.2,0,0.3,0,0.5,0c0.3-0.1,0.6,0,0.9,0c2.9,0,5.8,0,8.7,0c2.5,0.1,4.8,0,7.3,0c0.5,0,0.9-0.1,1.2-0.2
	c0.2-0.4,0.8-0.2,1.2-0.2c3.3-0.1,6.6,0.1,10-0.1c1.8-0.1,3.6-0.2,5.4-0.2c0.2,0,0.4,0,0.6-0.1c0.3,0,0.5,0,0.8,0s0.6,0,0.8-0.1
	c0.8-0.2,1.5-0.1,2.3-0.1c0.5,0.2,0.9,0.2,1-0.1c0.6,0,1.1,0,1.8,0c0.3,0.2,0.7,0.1,1,0.1c1.5,0.1,3.1-0.2,4.6-0.1
	c0.5,0,0.9-0.1,1.3,0.1c0.9,0,1.8,0,2.6-0.2c0.3,0.1,0.5,0,0.8-0.1c0.9,0.1,1.8-0.1,2.7,0l0,0c0.2,0,0.4,0,0.5,0c0-0.1,0-0.1,0-0.2
	l0,0c0.4,0,0.9,0,1.2,0c0.2,0,0.5,0.1,0.7,0.1c0.1,0,0.3,0,0.4,0c0-0.1,0-0.1,0-0.2c0.7,0,1.2-0.1,1.9,0l0,0c0.2,0,0.3,0,0.5,0
	c0-0.1,0-0.1,0-0.2c0.6,0,1-0.1,1.6,0c0.1,0,0.1,0,0.2-0.1c0.1,0,0.2,0,0.3,0c0.2,0.1,0.3,0,0.5,0l-0.1-0.1c0.4,0,0.8,0,1.1,0
	c0.3,0,0.5,0,0.8-0.1c0-0.1,0.1-0.1,0.3-0.1c0.7,0,1.4,0.2,2.1-0.1c0.2,0,0.4-0.1,0.6-0.1c1.8,0.1,3.6-0.2,5.4-0.3
	c0.7,0.1,1.2-0.1,1.9,0.1c0.3,0,0.7,0,0.9,0c1.6-0.4,4,0,5.1,0.8c0.4,0.3,0.7,0.7,0.3,0.9c-0.3,0.2-0.4,0.3,0.1,0.4c0.3,0,0.7,0,1,0
	c2.2,0,4.3-0.1,6.4,0c0.2,0,0.3,0,0.5,0c0.7-0.4,0.6-0.5-0.4-0.6c-0.2-0.3-0.9-0.5-1.1-0.8c0.1-0.1,0.2-0.2,0.3-0.4
	c0.1,0,0.1,0,0.2,0c0.8,0,1.5-0.1,2.3,0.2c0.1,0.3,0.6,0.4,1.1,0.4c0.2,0,0.5,0,0.7,0.1c0.1,0.1,0.3,0.3,0.6,0.1
	c0.4-0.1,0.7,0,0.9,0.1c0.5,0.5,0.9,0.1,1.3,0c0.5,0,1-0.1,1.5-0.1c2.6,0,5.1-0.1,7.7,0.1c1.7,0.2,3.4,0.2,5.1,0.2
	c4.1,0,8.2-0.1,12.3-0.3c2.2,0,4.4,0,6.5-0.1c1.8-0.1,3.6-0.2,5.4-0.5c2.1,0,4.3-0.2,6.4-0.2c0.7,0,1.2,0,1.9-0.1
	c1,0,2.1,0.1,3.1-0.1c3.3,0,6.7,0,10,0c2,0,3.8,0,5.7,0c3.6,0,7.2,0,10.8,0c3,0,6,0.2,8.9,0.5c0.9,0.1,1.8,0.3,2.7,0.4
	c2,0.1,4.1,0.3,6.2,0.3c4,0,8,0,12,0c0.1,0.1,0.3,0.1,0.6,0.1c2,0,4,0,5.9,0c0.2,0.2,0.5,0.1,0.9,0.1c1-0.1,2-0.2,2.9-0.4
	c3.4-0.7,6.8-1.2,10.6-1.2c4.1,0,8.2,0.1,12.2-0.2c1.5-0.1,3-0.3,4.5-0.5c0.6,0,1.1,0,1.8-0.1c0.2,0,0.4,0,0.6-0.1
	c1.8,0,3.6,0,5.4,0c0.4,0.2,1,0.1,1.3,0.4c5.5,0,11-0.1,16.5-0.3C598.8,176,597.7,175.8,596.7,175.6z M303.1,175.1L303.1,175.1
	C303,175,303,175,303.1,175.1L303.1,175.1z M378.6,175.1c-0.2,0-0.5-0.1-0.7-0.2c-0.5,0-0.9,0-1.3,0c0.5,0,0.9,0,1.3,0
	C378.3,175,378.4,175.1,378.6,175.1z M357.3,176.6c0,0.1,0.1,0.2,0.3,0.3C357.5,176.8,357.4,176.8,357.3,176.6
	c-0.2,0-0.3-0.1-0.5-0.1C357,176.5,357.2,176.6,357.3,176.6z M544.1,175.6C544.1,175.7,544.1,175.7,544.1,175.6
	C544.1,175.7,544.1,175.7,544.1,175.6L544.1,175.6z M526,174.8c0-0.1,0-0.1,0-0.2C526,174.6,526,174.7,526,174.8
	c0.1,0,0.2,0,0.3,0.1C526.1,174.8,526.1,174.8,526,174.8z M495.4,176.1c0-0.1-0.1-0.2-0.3-0.2C495.3,175.9,495.4,176,495.4,176.1
	L495.4,176.1z M516.1,172.1c-0.1,0-0.2,0-0.3,0C515.9,172.1,516,172.1,516.1,172.1L516.1,172.1z M414,172c-0.1,0.1-0.2,0.1-0.3,0.2
	c0.2,0.1,0.4,0.1,0.6,0.1c-0.2,0-0.4-0.1-0.6-0.1C413.8,172.1,413.9,172.1,414,172z M412.7,172.8L412.7,172.8
	c-0.3,0.1-0.5,0.2-0.8,0.3C412.2,172.9,412.5,172.9,412.7,172.8z M310,172.2c0,0.1-0.1,0.1-0.3,0.1
	C309.8,172.3,309.9,172.3,310,172.2L310,172.2C309.9,172.1,309.9,172.2,310,172.2z M229.6,172.5L229.6,172.5c-0.3,0-0.6,0.1-0.9,0.1
	C229,172.5,229.3,172.5,229.6,172.5z M118.7,173.8L118.7,173.8c-0.2,0-0.4,0-0.5,0C118.3,173.8,118.5,173.8,118.7,173.8z M6.7,175.2
	c0,0.1,0.2,0.2,0.3,0.3C6.8,175.5,6.7,175.4,6.7,175.2L6.7,175.2z"/>
<path class="st0" d="M124.8,2.5c1.7,1.1,3.7,2.1,4.8,3.4c0.2,0.2,0.3,0.5,0.9,0.5c0.1,0,0.2,0.1,0.3,0.1c0.5,0.4,1.1,0.8,1.9,1.1
	c0.5,0.2,0.7,0.6,1.4,0.6c0.7,0.4,1.5,0.9,2.8,0.5c0.4,0,0.9,0,1.3-0.1c0.4,0.2,0.8,0.1,1.2,0c3.5-0.2,7-0.2,10.5,0
	c1.7,0.1,3.4,0.1,5,0c5.4-0.2,10.7-0.2,16.1,0c1.1,0,2.2,0,3.3-0.1c2.1-0.2,4.2-0.4,6.3-0.4c7.6-0.2,15.2-0.1,22.7,0.5
	c3.8,0.3,7.7,0.3,11.5,0.5c6.2,0.2,12.5,0.2,18.8,0.1c0.5,0,0.9,0,1.4-0.1c4.3-0.3,8.6-0.5,12.9-0.5c6,0,11.9,0.1,17.9,0.1
	c5.2,0,10.3-0.3,15.5-0.3c0.3,0,0.6,0,0.9-0.1c2.3-0.5,4.7-0.6,7.2-0.8c3.5-0.2,7-0.6,10.5-0.6c0.2,0,0.5,0,0.6-0.1
	c1.2,0.1,2.4,0,3.6-0.1c0.5,0.1,0.9,0.1,1.4,0c0.3,0.1,0.5,0.1,0.7,0c0.9,0.1,1.9,0,2.8-0.1c1.1,0.1,2.2,0.1,3.3,0
	c1.5,0.2,3.1,0,4.6,0.1c-0.2-0.2-0.5-0.3-0.9-0.3c-1.4-0.5-2.7-1-4.3-1.2c-0.2-0.3-0.8-0.3-1.2-0.5c-1.7-0.6-3.7-0.9-5.5-1.4
	c-1-0.3-2-0.4-3.1-0.4c-0.5,0-0.9,0-1.4,0c-1.5-0.2-3.1-0.2-4.2-0.9c-0.2-0.1-0.5-0.3-0.8-0.4c-1-0.4-1.9-0.8-3.3-0.5
	c-0.3,0-0.5,0-0.8,0c-3,0.2-6.1,0.3-9.1,0.2c-3.2-0.1-6.3,0.1-9.4,0.4c-1,0.1-1.7,0.6-2.7,0.6c-0.4-0.1-0.8-0.2-1.2-0.1
	c-1.7,0.1-3.2-0.2-4.9-0.4c-4.1-0.3-8.3-0.6-12.5-0.6c-1.3,0-2.4,0.1-3.3,0.5c-0.3,0-0.6,0-0.9,0c-3,0.5-6,0.4-9,0.4
	c-0.6,0-1.2-0.1-1.7-0.1c-1.8-0.2-3.7-0.4-5.6-0.3c-1.7,0.1-3.4,0.4-5.1,0.5c-1.4,0.1-2.8,0.2-4.2,0.5c-0.6,0-1.2,0-1.7,0.1
	c-3.9,0.4-7.5,0.2-11.1-0.7c-0.4-0.1-0.7-0.2-1.2-0.2c-1.8,0.2-3.6,0-5.4,0.2c-3.1,0-6.2,0-9.3,0.2c-0.7,0.1-1.4,0-1.7-0.4
	c0-0.1,0-0.1-0.2-0.1c-1.2,0-2.4-0.1-3.6,0.1c-1.6,0.1-3.3,0.3-4.9,0.4c-1.8,0.1-3.5,0.4-5.3,0.4c-1.4,0-2.7-0.3-4.2-0.2
	c-0.9-0.2-1.9-0.1-2.9-0.2c-2.5-0.2-5-0.4-7.5-0.4c-2.3-0.2-4.5-0.5-6.8-0.4c-0.9-0.1-1.9-0.2-2.8-0.2c-3.4-0.1-6.9,0.2-10.3,0.1
	c-1.4,0-2.7,0-4,0.2c-0.6,0.1-1.2,0-1.9,0c-1.2,0-2.4-0.3-3.6-0.3c-1-0.1-2-0.3-3-0.2c-0.6-0.2-1.2-0.1-1.9-0.1
	c-0.2-0.1-0.4-0.1-0.6,0c-0.2-0.2-0.6-0.1-1-0.1c-1,0-2.1,0-3.1-0.1c-0.3,0-0.6-0.1-0.8,0.1c-0.2,0.2-0.1,0.3,0.1,0.5
	C123.7,1.8,124.2,2.2,124.8,2.5z M194.1,5.9c-0.2,0-0.4,0-0.6-0.1C193.6,5.9,193.9,5.9,194.1,5.9L194.1,5.9z M134,7.9L134,7.9
	c0.3,0,0.5,0,0.8,0C134.5,7.9,134.3,7.9,134,7.9z M177.4,8L177.4,8c0.1,0,0.2,0,0.2,0C177.5,8,177.4,8,177.4,8z"/>
</svg>
