<?xml version="1.0" encoding="utf-8"?>
<!-- Generator: Adobe Illustrator 24.1.2, SVG Export Plug-In . SVG Version: 6.00 Build 0)  -->
<svg version="1.1" id="Layer_1" xmlns="http://www.w3.org/2000/svg" xmlns:xlink="http://www.w3.org/1999/xlink" x="0px" y="0px"
	 viewBox="0 0 340.2 74.2" style="enable-background:new 0 0 340.2 74.2;" xml:space="preserve">
<style type="text/css">
	.st0{fill:#303030;}
	.st1{fill:url(#SVGID_1_);}
</style>
<path d="M133.6,44"/>
<path d="M107.4,44"/>
<path d="M133.6,44"/>
<g>
	<g>
		<path class="st0" d="M324.7,20.2c0.8,0.5,1.5,1.1,2,2c0.5,0.8,0.7,1.8,0.7,2.8s-0.3,2-0.7,2.8c-0.5,0.9-1.2,1.5-2,2
			s-1.8,0.7-2.8,0.7s-2-0.3-2.8-0.7s-1.5-1.2-2-2s-0.7-1.8-0.7-2.8s0.2-2,0.7-2.8c0.5-0.9,1.1-1.5,2-2s1.8-0.7,2.8-0.7
			C322.9,19.5,323.9,19.7,324.7,20.2z M324.2,29c0.7-0.4,1.2-1,1.6-1.6c0.4-0.7,0.6-1.5,0.6-2.3c0-0.9-0.2-1.6-0.6-2.3
			c-0.4-0.7-0.9-1.2-1.6-1.6s-1.5-0.6-2.3-0.6c-0.9,0-1.6,0.2-2.3,0.6c-0.7,0.4-1.2,0.9-1.6,1.6s-0.6,1.5-0.6,2.3s0.2,1.6,0.6,2.3
			c0.4,0.7,0.9,1.2,1.6,1.6s1.4,0.6,2.3,0.6C322.7,29.6,323.5,29.4,324.2,29z M324.5,25.3c-0.2,0.3-0.5,0.6-0.9,0.8l1.3,2h-1.6
			l-1.1-1.8h-0.1h-1v1.8h-1.6V22h2.7c0.8,0,1.5,0.2,1.9,0.6c0.5,0.4,0.7,0.9,0.7,1.6C324.8,24.6,324.7,25,324.5,25.3z M322,25.1
			c0.4,0,0.6-0.1,0.9-0.3c0.2-0.2,0.3-0.4,0.3-0.7c0-0.3-0.1-0.5-0.3-0.7c-0.2-0.2-0.5-0.3-0.9-0.3h-0.9V25h0.9V25.1z"/>
	</g>
	<g>
		<g>
			<path class="st0" d="M6.5,55.1c-0.2,0.4,0,0.7,0.4,0.7h16.2c0.4,0,0.5-0.3,0.3-0.6L18.6,50c-0.3-0.3-0.4-0.9-0.2-1.3l16-29.9
				c0.2-0.4,0.2-1,0-1.4L30.9,11c-0.2-0.4-0.5-0.4-0.8,0L6.5,55.1z"/>
		</g>
		<g>
			<path class="st0" d="M27.7,36.4c-0.2,0.4-0.1,0.5,0.3,0.2l5.7-4c0.4-0.3,0.8-0.1,1,0.2l3,5.6c0.2,0.4,0.1,1-0.2,1.3l-3.2,3.4
				c-0.3,0.3-0.2,0.6,0.3,0.6h13.1c0.4,0,0.6-0.3,0.4-0.7L36.5,21.3c-0.2-0.4-0.5-0.4-0.8,0L27.7,36.4z"/>
		</g>
	</g>
	<path class="st0" d="M72.3,21c1.8,1,3.2,2.5,4.3,4.3s1.6,4,1.6,6.4s-0.5,4.6-1.6,6.4c-1,1.8-2.5,3.3-4.3,4.3s-3.8,1.5-6,1.5
		c-3.3,0-5.8-1-7.5-3.1v2.7h-6.6V10.8h6.9v11.5c1.7-1.9,4.1-2.9,7.2-2.9C68.5,19.5,70.5,20,72.3,21z M69.4,36.5
		c1.1-1.2,1.7-2.8,1.7-4.8s-0.6-3.6-1.7-4.8c-1.1-1.2-2.6-1.8-4.4-1.8s-3.2,0.6-4.4,1.8c-1.1,1.2-1.7,2.8-1.7,4.8s0.6,3.6,1.7,4.8
		c1.1,1.2,2.6,1.8,4.4,1.8S68.3,37.7,69.4,36.5z"/>
	<path class="st0" d="M84.9,43.3c-1.9-0.5-3.4-1.1-4.5-1.8l2.3-5c1.1,0.7,2.3,1.2,3.8,1.7s3,0.6,4.4,0.6c2.9,0,4.4-0.7,4.4-2.2
		c0-0.7-0.4-1.2-1.2-1.5c-0.8-0.3-2-0.5-3.7-0.8c-1.9-0.3-3.6-0.6-4.8-1c-1.3-0.4-2.4-1.1-3.3-2c-0.9-1-1.4-2.4-1.4-4.2
		c0-1.5,0.4-2.8,1.3-4s2.1-2.1,3.8-2.7c1.7-0.6,3.6-1,5.9-1c1.7,0,3.4,0.2,5,0.5c1.7,0.4,3.1,0.9,4.1,1.5l-2.3,4.9
		c-2.1-1.2-4.4-1.8-6.9-1.8c-1.5,0-2.6,0.2-3.3,0.6c-0.7,0.4-1.1,1-1.1,1.6c0,0.7,0.4,1.3,1.2,1.5c0.8,0.3,2.1,0.6,3.8,0.8
		c1.9,0.3,3.5,0.7,4.8,1s2.3,1,3.2,2c0.9,1,1.4,2.3,1.4,4.1c0,1.5-0.4,2.8-1.3,3.9c-0.9,1.2-2.2,2-3.9,2.7c-1.7,0.6-3.7,1-6,1
		C88.8,44,86.8,43.8,84.9,43.3z"/>
	<path class="st0" d="M138.2,10.8h6.9v32.8h-6.9V10.8z"/>
	<path class="st0" d="M175.5,19.8v23.8h-6.6v-2.8c-0.9,1-2,1.8-3.3,2.4c-1.3,0.5-2.6,0.8-4.1,0.8c-3.1,0-5.6-0.9-7.4-2.7
		c-1.8-1.8-2.7-4.5-2.7-8V19.8h6.9v12.4c0,3.8,1.6,5.8,4.8,5.8c1.6,0,3-0.5,4-1.6s1.5-2.7,1.5-4.8V19.8H175.5z"/>
	<path class="st0" d="M184.1,43.3c-1.9-0.5-3.4-1.1-4.5-1.8l2.3-5c1.1,0.7,2.4,1.2,3.9,1.7c1.5,0.4,3,0.6,4.4,0.6
		c2.9,0,4.4-0.7,4.4-2.2c0-0.7-0.4-1.2-1.2-1.5s-2-0.5-3.7-0.8c-1.9-0.3-3.6-0.6-4.8-1c-1.3-0.4-2.4-1.1-3.3-2
		c-0.9-1-1.4-2.4-1.4-4.2c0-1.5,0.4-2.8,1.3-4c0.9-1.2,2.1-2.1,3.8-2.7s3.6-1,5.9-1c1.7,0,3.4,0.2,5,0.5c1.7,0.4,3,0.9,4.1,1.5
		l-2.3,4.9c-2.1-1.2-4.4-1.8-6.9-1.8c-1.5,0-2.6,0.2-3.3,0.6s-1.1,1-1.1,1.6c0,0.7,0.4,1.3,1.2,1.5c0.8,0.3,2.1,0.6,3.8,0.8
		c1.9,0.3,3.5,0.7,4.8,1s2.3,1,3.2,2s1.4,2.3,1.4,4.1c0,1.5-0.4,2.8-1.3,3.9c-0.9,1.2-2.2,2-3.9,2.7c-1.7,0.6-3.7,1-6,1
		C187.9,44,186,43.8,184.1,43.3z"/>
	<path class="st0" d="M210.1,42.4c-2-1-3.6-2.5-4.7-4.4c-1.1-1.9-1.7-4-1.7-6.3c0-2.4,0.6-4.5,1.7-6.3c1.1-1.9,2.7-3.3,4.7-4.4
		c2-1,4.3-1.6,6.8-1.6s4.7,0.5,6.6,1.6c1.9,1,3.2,2.5,4.1,4.5l-5.4,2.9c-1.2-2.2-3-3.3-5.4-3.3c-1.8,0-3.3,0.6-4.5,1.8
		s-1.8,2.8-1.8,4.8s0.6,3.6,1.8,4.8s2.7,1.8,4.5,1.8c2.4,0,4.1-1.1,5.4-3.3l5.4,2.9c-0.9,1.9-2.2,3.4-4.1,4.4
		c-1.9,1.1-4.1,1.6-6.6,1.6C214.4,44,212.1,43.5,210.1,42.4z"/>
	<path class="st0" d="M249.6,22.1c2,1.8,3,4.4,3,7.9v13.6h-6.5v-3c-1.3,2.2-3.7,3.3-7.3,3.3c-1.8,0-3.4-0.3-4.8-0.9
		s-2.4-1.5-3.1-2.6s-1.1-2.3-1.1-3.7c0-2.2,0.8-4,2.5-5.2c1.7-1.3,4.2-1.9,7.7-1.9h5.5c0-1.5-0.5-2.7-1.4-3.5s-2.3-1.2-4.1-1.2
		c-1.3,0-2.5,0.2-3.7,0.6s-2.3,0.9-3.1,1.6l-2.5-4.8c1.3-0.9,2.9-1.6,4.7-2.1s3.7-0.8,5.6-0.8C244.8,19.5,247.7,20.4,249.6,22.1z
		 M243.8,38.5c0.9-0.5,1.6-1.3,1.9-2.4v-2.4H241c-2.8,0-4.3,0.9-4.3,2.8c0,0.9,0.4,1.6,1,2.1c0.7,0.5,1.6,0.8,2.9,0.8
		C241.8,39.4,242.9,39.1,243.8,38.5z"/>
	<path class="st0" d="M279,21c1.8,1,3.2,2.5,4.3,4.3s1.5,4,1.5,6.4s-0.5,4.6-1.5,6.4s-2.5,3.3-4.3,4.3s-3.8,1.5-6,1.5
		c-3,0-5.4-1-7.2-2.9v8.8h-6.9v-30h6.6v2.7c1.7-2.1,4.2-3.1,7.5-3.1C275.1,19.5,277.1,20,279,21z M276.1,36.5
		c1.1-1.2,1.7-2.8,1.7-4.8s-0.6-3.6-1.7-4.8c-1.1-1.2-2.6-1.8-4.4-1.8s-3.2,0.6-4.4,1.8c-1.1,1.2-1.7,2.8-1.7,4.8s0.6,3.6,1.7,4.8
		s2.6,1.8,4.4,1.8S275,37.7,276.1,36.5z"/>
	<path class="st0" d="M312.6,33.7h-18c0.3,1.5,1.1,2.6,2.3,3.5s2.7,1.3,4.5,1.3c1.2,0,2.3-0.2,3.3-0.5s1.9-1,2.7-1.8l3.7,4
		c-2.2,2.6-5.5,3.8-9.8,3.8c-2.7,0-5.1-0.5-7.1-1.6c-2.1-1-3.7-2.5-4.8-4.4s-1.7-4-1.7-6.3s0.5-4.4,1.7-6.3c1.1-1.9,2.6-3.3,4.6-4.4
		c1.9-1,4.1-1.6,6.5-1.6c2.3,0,4.4,0.5,6.3,1.5s3.4,2.4,4.5,4.3s1.6,4.1,1.6,6.5C312.7,31.9,312.7,32.5,312.6,33.7z M296.4,26
		c-1.1,0.9-1.7,2.1-2,3.6h11.7c-0.2-1.5-0.9-2.7-2-3.6s-2.4-1.4-3.9-1.4C298.8,24.7,297.5,25.2,296.4,26z"/>
</g>
<path d="M133.6,19.5"/>
<path d="M133.6,19.5"/>
<g>
	
		<radialGradient id="SVGID_1_" cx="119.793" cy="-165.2336" r="18.1677" gradientTransform="matrix(1 0 0 -1 0 -132.5354)" gradientUnits="userSpaceOnUse">
		<stop  offset="0" style="stop-color:#F7B700"/>
		<stop  offset="1" style="stop-color:#CBAA08"/>
	</radialGradient>
	<path class="st1" d="M119.7,17.4c-8.3,0-15.1,6.7-15.1,15c0,1.2,0.2,2.5,0.5,3.7s0.7,2.3,1.3,3.4c0.6,1.1,1.3,2.1,2.1,3
		c0.8,0.9,1.7,1.7,2.7,2.3l0.1,0.1l0.9,0.5l0,0l0,0l0.9,0.5h0.1l0,0c0.1,0,0.1,0,0.1-0.1l0.8-1.4l0.2-0.4l0,0l0.7-1.3
		c0.7,0.3,1.4,0.5,2.1,0.7c0.8,0.2,1.6,0.3,2.5,0.3s1.7-0.1,2.5-0.3c0.7-0.2,1.4-0.4,2.1-0.7l0.6,1c-1.6,0.7-3.4,1.1-5.2,1.1
		c-0.7,0-1.4-0.1-2.1-0.2l-1-0.2l0,0c-0.1,0-0.2,0.1-0.2,0.2l-0.3,2c0,0,0,0.1,0,0.2l0.1,0.1l1,0.2c0.8,0.1,1.7,0.2,2.5,0.2
		c1.1,0,2.3-0.1,3.4-0.4c1.1-0.2,2.1-0.6,3.1-1.1l0,0h0.1l0.9-0.5l0,0l0.2-0.1l0.7-0.4c0.1,0,0.1-0.1,0.1-0.1l0,0v-0.1l-0.5-0.9
		l-1.3-2.2c0.7-0.5,1.3-1,1.8-1.7c0.6-0.7,1.1-1.4,1.5-2.2s0.8-1.6,1-2.5s0.3-1.8,0.3-2.8c0-0.6,0-1.1-0.1-1.7l-0.1-1
		c0,0,0-0.1-0.1-0.1h-0.1l0,0l-2,0.3c-0.1,0-0.2,0.1-0.2,0.2l0.1,1v0.1h-1.2c-0.1-0.5-0.2-1.1-0.4-1.6l-0.4-1l-0.1-0.1h-0.1h-0.1
		l-1.9,0.7c-0.1,0-0.2,0.2-0.1,0.3l0.4,1c0.2,0.6,0.4,1.2,0.4,1.9c0,0.5-0.1,0.9-0.2,1.4l-1.1-0.6c0.1-0.3,0.1-0.5,0.1-0.8
		c0-0.5-0.1-1.1-0.3-1.6c-0.2-0.4-0.4-0.8-0.8-1.2l2.4-4.3l0.8,0.6h0.1l0,0c0.1,0,0.1,0,0.1-0.1l1.2-1.6c0,0,0.1-0.1,0-0.2
		c0,0,0-0.1-0.1-0.1l-0.8-0.6c-2-1.5-4.3-2.2-6.8-2.2c-2.3,0-4.6,0.7-6.4,2l-0.8,0.6c-0.1,0.1-0.1,0.2-0.1,0.3l1.2,1.7l0.1,0.1l0,0
		h0.1l0.8-0.6c1.5-1,3.2-1.6,5.1-1.6c1.1,0,2.2,0.2,3.2,0.6l-2.4,4.3c-0.3-0.1-0.5-0.1-0.8-0.1c-2.2,0-4.1,1.8-4.1,4
		c0,0.5,0.1,0.9,0.2,1.3c0.1,0.4,0.3,0.8,0.6,1.1c0.3,0.3,0.6,0.6,0.9,0.9c0.3,0.2,0.7,0.4,1,0.5v1.3c-0.3-0.1-0.6-0.2-0.9-0.3
		l-0.9-0.4h-0.1c-0.1,0-0.2,0-0.2,0.1l-0.8,1.9c0,0,0,0.1,0,0.2s0.1,0.1,0.1,0.1l0.9,0.4c1,0.4,2,0.7,3.1,0.7h1
		c0.1,0,0.2-0.1,0.2-0.2v-3.6c0.6-0.2,1.1-0.5,1.6-0.9l1.1,0.6c-0.2,0.2-0.4,0.4-0.6,0.6l-0.8,0.6l-0.1,0.1c0,0,0,0.1,0.1,0.2
		l1.3,1.6c0,0,0.1,0.1,0.2,0.1s0.1,0,0.1,0l0.8-0.6c1.5-1.2,2.5-2.9,2.8-4.8h1.2c-0.6,4.4-4.4,7.6-8.8,7.6c-2.8,0-5.4-1.3-7.1-3.5
		l3-1.7c0.1,0,0.1-0.1,0.1-0.1c0-0.1,0-0.1,0-0.2l-1-1.8c0-0.1-0.1-0.1-0.2-0.1h-0.1l-3,1.7c0,0,0,0,0-0.1l-0.4-1
		c0-0.1-0.1-0.1-0.2-0.1h-0.1l-1.9,0.7c-0.1,0-0.1,0.1-0.1,0.1s0,0.1,0,0.2l0.4,1c0.8,2.1,2.2,3.9,3.9,5.2l-0.6,1
		c-3-2.1-4.8-5.4-5.2-9h3.4c0.1,0,0.2-0.1,0.2-0.2v-1c0-0.5,0-1,0.1-1.5l0.2-1c0-0.1-0.1-0.2-0.2-0.2l-2-0.3l0,0
		c-0.1,0-0.2,0.1-0.2,0.2l-0.2,1c0,0.2-0.1,0.4-0.1,0.6h-1.2c0.1-1.4,0.5-2.8,1.1-4l4.2,2.5c-0.2,0.6-0.4,1.1-0.4,1.7l-0.1,1
		c0,0.1,0.1,0.2,0.2,0.2l2,0.3l0,0h0.1c0.1,0,0.1-0.1,0.1-0.1l0.1-1c0.3-2.3,2.1-4.1,4.4-4.4l1-0.2c0.1,0,0.1,0,0.1-0.1v-0.1l-0.3-2
		c0-0.1,0-0.1-0.1-0.1h-0.1l0,0l-1,0.2c-1,0.1-1.9,0.5-2.7,1c-0.8,0.5-1.5,1-2,1.7l-4.3-2.5c2.4-3.2,6.2-5.2,10.2-5.2
		s7.8,1.9,10.2,5.2l-3.1,1.8c-0.1,0.1-0.1,0.2-0.1,0.3l1,1.8l0.1,0.1c0,0,0,0,0.1,0h0.1l3.1-1.8c0.8,1.6,1.2,3.4,1.2,5.2
		c0,2.8-0.9,5.5-2.7,7.7l-0.6,0.8c-0.1,0.1-0.1,0.2,0,0.3l1.6,1.3h0.1l0,0c0.1,0,0.1,0,0.1-0.1l0.6-0.8c2.1-2.7,3.2-5.8,3.2-9.2
		C134.8,24.1,128.1,17.4,119.7,17.4z M120,33.9h-0.5c-0.8-0.1-1.3-0.8-1.3-1.5c0-0.9,0.7-1.6,1.6-1.6c0.2,0,0.4,0,0.5,0.1l0.5,0.3
		c0.4,0.3,0.6,0.8,0.6,1.2C121.3,33.1,120.8,33.7,120,33.9z"/>
</g>
<g>
	<path class="st0" d="M42.5,60.9V62h-8.6V49.9h8.3V51h-7v4.3h6.3v1.1h-6.3v4.5L42.5,60.9L42.5,60.9z"/>
	<path class="st0" d="M46.3,61.7c-0.8-0.3-1.5-0.7-1.9-1.2l0.5-1c0.4,0.4,1,0.8,1.8,1.1S48.2,61,49,61c1.1,0,1.9-0.2,2.5-0.6
		c0.5-0.4,0.8-0.9,0.8-1.5c0-0.5-0.2-0.9-0.4-1.2c-0.3-0.3-0.7-0.5-1.1-0.7c-0.4-0.2-1-0.3-1.8-0.5c-0.9-0.2-1.6-0.5-2.2-0.7
		c-0.5-0.2-1-0.5-1.4-1c-0.4-0.4-0.6-1-0.6-1.8c0-0.6,0.2-1.2,0.5-1.7s0.8-0.9,1.5-1.2s1.5-0.5,2.5-0.5c0.7,0,1.4,0.1,2,0.3
		c0.7,0.2,1.2,0.5,1.7,0.8l-0.4,1c-0.5-0.3-1-0.6-1.6-0.8s-1.2-0.3-1.7-0.3c-1.1,0-1.9,0.2-2.4,0.6c-0.5,0.4-0.8,0.9-0.8,1.6
		c0,0.5,0.2,0.9,0.4,1.2c0.3,0.3,0.7,0.5,1.1,0.7c0.5,0.2,1,0.3,1.8,0.5c0.9,0.2,1.6,0.4,2.2,0.7c0.5,0.2,1,0.5,1.4,1s0.6,1,0.6,1.8
		c0,0.6-0.2,1.2-0.5,1.7s-0.8,0.9-1.5,1.2S50.1,62,49.1,62C48,62.1,47.1,62,46.3,61.7z"/>
	<path class="st0" d="M58.2,61.3c-1-0.5-1.7-1.3-2.3-2.2s-0.8-2-0.8-3.2s0.3-2.2,0.8-3.2c0.5-0.9,1.3-1.7,2.3-2.2s2.1-0.8,3.3-0.8
		c0.9,0,1.7,0.2,2.5,0.5c0.8,0.3,1.4,0.7,1.9,1.3l-0.8,0.8c-0.9-1-2.2-1.4-3.6-1.4c-1,0-1.8,0.2-2.6,0.7c-0.8,0.4-1.4,1-1.8,1.8
		c-0.5,0.8-0.7,1.6-0.7,2.6s0.2,1.8,0.7,2.6c0.4,0.8,1.1,1.4,1.8,1.8c0.8,0.4,1.7,0.6,2.6,0.6c1.5,0,2.7-0.5,3.6-1.5l0.8,0.8
		c-0.5,0.6-1.2,1-2,1.3s-1.6,0.5-2.5,0.5C60.3,62.1,59.2,61.9,58.2,61.3z"/>
	<path class="st0" d="M76,58.8h-6.8L67.7,62h-1.3L72,49.9h1.3L78.8,62h-1.3L76,58.8z M75.5,57.8l-2.9-6.5l-2.9,6.5H75.5z"/>
	<path class="st0" d="M89,51c0.9,0.7,1.3,1.8,1.3,3s-0.4,2.3-1.3,3s-2.1,1.1-3.6,1.1h-3.3V62h-1.3V49.9h4.6
		C86.9,49.9,88.1,50.3,89,51z M88.1,56.3c0.6-0.5,0.9-1.3,0.9-2.2c0-1-0.3-1.7-0.9-2.3c-0.6-0.5-1.6-0.8-2.8-0.8h-3.2v6.1h3.2
		C86.5,57.1,87.4,56.8,88.1,56.3z"/>
	<path class="st0" d="M101.7,60.9V62h-8.6V49.9h8.3V51h-7.1v4.3h6.3v1.1h-6.3v4.5L101.7,60.9L101.7,60.9z"/>
	<path class="st0" d="M117.8,56h1.2v4.6c-0.6,0.5-1.2,0.9-2,1.2s-1.6,0.4-2.4,0.4c-1.2,0-2.3-0.3-3.3-0.8s-1.7-1.3-2.3-2.2
		c-0.6-0.9-0.8-2-0.8-3.2s0.3-2.2,0.8-3.2c0.6-0.9,1.3-1.7,2.3-2.2s2.1-0.8,3.3-0.8c0.9,0,1.8,0.2,2.6,0.4c0.8,0.3,1.4,0.7,2,1.3
		l-0.8,0.8c-1-1-2.2-1.4-3.7-1.4c-1,0-1.9,0.2-2.7,0.7s-1.4,1-1.9,1.8s-0.7,1.6-0.7,2.6s0.2,1.8,0.7,2.6s1.1,1.4,1.9,1.8
		c0.8,0.4,1.7,0.7,2.7,0.7c1.3,0,2.3-0.3,3.2-0.9L117.8,56L117.8,56z"/>
	<path class="st0" d="M130.3,58.8h-6.8L122,62h-1.3l5.6-12.1h1.3l5.5,12.2h-1.4L130.3,58.8z M129.8,57.8l-2.9-6.5l-2.9,6.5H129.8z"
		/>
	<path class="st0" d="M147.7,49.9V62h-1.2v-9.7l-4.8,8.2h-0.6l-4.8-8.1V62h-1.2V49.9h1.1l5.3,9l5.2-9H147.7z"/>
	<path class="st0" d="M160.3,60.9V62h-8.6V49.9h8.3V51h-7.1v4.3h6.3v1.1h-6.3v4.5L160.3,60.9L160.3,60.9z"/>
	<path class="st0" d="M169.8,61.3c-1-0.5-1.7-1.3-2.3-2.2s-0.8-2-0.8-3.2s0.3-2.2,0.8-3.2c0.6-0.9,1.3-1.7,2.3-2.2s2.1-0.8,3.3-0.8
		c0.9,0,1.7,0.2,2.5,0.5s1.4,0.7,1.9,1.3l-0.8,0.8c-0.9-1-2.1-1.4-3.6-1.4c-1,0-1.8,0.2-2.6,0.7s-1.4,1-1.9,1.8
		c-0.4,0.8-0.7,1.6-0.7,2.6s0.2,1.8,0.7,2.6c0.4,0.8,1.1,1.4,1.9,1.8c0.8,0.4,1.7,0.7,2.6,0.7c1.5,0,2.7-0.5,3.6-1.5l0.8,0.8
		c-0.5,0.6-1.2,1-1.9,1.3s-1.6,0.5-2.5,0.5C171.9,62.1,170.8,61.9,169.8,61.3z"/>
	<path class="st0" d="M182.1,61.3c-1-0.5-1.7-1.3-2.3-2.2s-0.8-2-0.8-3.2s0.3-2.2,0.8-3.2s1.3-1.7,2.3-2.2s2.1-0.8,3.3-0.8
		s2.3,0.3,3.3,0.8s1.7,1.3,2.3,2.2s0.8,2,0.8,3.2s-0.3,2.2-0.8,3.2c-0.6,0.9-1.3,1.7-2.3,2.2s-2.1,0.8-3.3,0.8
		C184.1,62.1,183.1,61.9,182.1,61.3z M187.9,60.3c0.8-0.4,1.4-1,1.8-1.8c0.4-0.8,0.7-1.6,0.7-2.6s-0.2-1.8-0.7-2.6s-1.1-1.4-1.8-1.8
		c-0.8-0.4-1.6-0.7-2.6-0.7s-1.8,0.2-2.6,0.7s-1.4,1-1.8,1.8s-0.7,1.6-0.7,2.6s0.2,1.8,0.7,2.6c0.4,0.8,1.1,1.4,1.8,1.8
		s1.6,0.7,2.6,0.7C186.3,61,187.2,60.8,187.9,60.3z"/>
	<path class="st0" d="M204.8,49.9V62h-1.1l-7.8-9.9V62h-1.3V49.9h1.1l7.8,9.9v-9.9H204.8z"/>
	<path class="st0" d="M210.7,61.3c-1-0.5-1.7-1.3-2.3-2.2s-0.8-2-0.8-3.2s0.3-2.2,0.8-3.2c0.6-0.9,1.3-1.7,2.3-2.2s2.1-0.8,3.3-0.8
		c0.9,0,1.7,0.2,2.5,0.5s1.4,0.7,1.9,1.3l-0.8,0.8c-0.9-1-2.1-1.4-3.6-1.4c-1,0-1.8,0.2-2.6,0.7s-1.4,1-1.9,1.8
		c-0.4,0.8-0.7,1.6-0.7,2.6s0.2,1.8,0.7,2.6c0.4,0.8,1.1,1.4,1.9,1.8c0.8,0.4,1.7,0.7,2.6,0.7c1.5,0,2.7-0.5,3.6-1.5l0.8,0.8
		c-0.5,0.6-1.2,1-1.9,1.3s-1.6,0.5-2.5,0.5C212.8,62.1,211.7,61.9,210.7,61.3z"/>
	<path class="st0" d="M229.8,60.9V62h-8.6V49.9h8.3V51h-7.1v4.3h6.3v1.1h-6.3v4.5L229.8,60.9L229.8,60.9z"/>
	<path class="st0" d="M241,51c0.9,0.7,1.3,1.8,1.3,3s-0.4,2.3-1.3,3s-2.1,1.1-3.6,1.1h-3.3V62h-1.3V49.9h4.6
		C238.9,49.9,240.1,50.3,241,51z M240.1,56.3c0.6-0.5,0.9-1.3,0.9-2.2c0-1-0.3-1.7-0.9-2.3c-0.6-0.5-1.6-0.8-2.8-0.8h-3.2v6.1h3.2
		C238.5,57.1,239.4,56.8,240.1,56.3z"/>
	<path class="st0" d="M247.1,51h-4.3v-1.1h9.8V51h-4.3v11H247V51H247.1z"/>
</g>
</svg>
