<?xml version="1.0" encoding="utf-8"?>
<!-- Generator: Adobe Illustrator 24.2.3, SVG Export Plug-In . SVG Version: 6.00 Build 0)  -->
<svg version="1.1" id="Calque_1" xmlns="http://www.w3.org/2000/svg" xmlns:xlink="http://www.w3.org/1999/xlink" x="0px" y="0px"
	 viewBox="0 0 634.2 80.2" style="enable-background:new 0 0 634.2 80.2;" xml:space="preserve" preserveAspectRatio="none">
<style type="text/css">
	.st0{fill:#412727;}
</style>
<g>
	<path class="st0" d="M1.9,5.6C2.2,5.8,2.5,6,3.1,6h0.1c0.5,0,1.1,0,1.5,0.2c0,0.2,0.1,0.5,0.7,0.4c0.7,0,1.3,0,2,0.1
		c0.3,0,0.7,0.1,1-0.1c0.3,0,0.7-0.1,1,0.1c-0.1,0-0.4,0-0.3,0.1c0.5,0.1,1.1,0.1,1.6,0.2c1.4,0.2,2.9,0,4.3,0.2
		c2.2,0.2,4.3,0.4,6.6,0.4c0.9,0,1.7,0.1,2.6,0.1c1.5,0,2.9,0.3,4.4,0.3c1.3,0,2.6,0.1,3.8,0.3c0.8,0.3,1.7,0.1,2.5,0.1
		c2.7,0.2,5.4,0.3,8.1,0.3c2.4,0,4.7,0,7.1,0c0.4,0,0.8,0,1.2,0c2.6,0.2,5.2,0.1,7.9,0.1c0.2,0,0.3-0.1,0.5-0.1c1.3,0,2.5,0,3.8,0
		c0.3,0,0.6,0.1,0.8-0.1c1.7,0,3.4,0,5.2,0c1.2,0,2.4,0,3.6-0.3c0.8,0,1.6-0.2,2.5-0.2c0.8,0,1.6,0,2.4,0c3.9,0.1,7.8,0,11.7,0
		c0.5,0.1,1,0.1,1.5,0.1c2.2,0,4.3,0.2,6.4,0.5c1.2,0.1,2.4,0.1,3.6,0.1c1.7-0.1,3.4-0.2,5.1-0.2c6.1,0,12.2,0,18.3,0
		c0.4,0,1,0.1,1.4-0.2c-0.5-0.2-0.9-0.4-1.4-0.5c-0.4-0.1-0.5-0.3-0.5-0.5c0.4,0,1,0,0.5-0.4c-0.3-0.3-0.6-0.6-1.4-0.5
		c-0.3,0-0.5-0.1-0.5-0.3c0.3,0,0.6,0,0.9-0.1c-0.1-0.4-0.4-0.8-0.9-1.2c-0.6-0.4-1.4-0.8-2-1.2c-1.3-0.8-2.7-1.5-4.5-2
		c-0.4-0.3-0.8-0.5-1.3-0.7c-0.8-0.5-1-0.5-2.2-0.2c-3.5,0-7.1,0-10.6,0c-0.4,0-0.7,0-1.1,0c-1.6-0.2-3.2-0.4-4.9-0.4
		c-0.3-0.2-0.7-0.2-1.1,0c-0.3,0-0.6,0-0.9,0c-0.1,0-0.1,0-0.2,0c-0.2,0-0.3-0.1-0.5-0.1C93.1,0,93-0.1,92.6,0.1
		c-0.3,0-0.6-0.1-0.8,0.1c-0.2,0-0.4,0.1-0.6,0.2c-0.6,0-1,0.2-1.1,0.6c-0.1,0-0.3,0.1-0.4,0.1c-0.4-0.1-0.6,0-0.6,0.2
		c-0.1,0-0.1,0-0.2,0c-0.4-0.1-0.6,0-0.6,0.2c-0.1,0.2-0.5,0.2-0.8,0.2c-0.3-0.2-0.6-0.1-0.9,0C85.5,2,84.4,2,83.2,2c-3,0-6,0-8.9,0
		c-0.4,0-0.9-0.1-1.3,0.1c-0.2,0-0.3,0-0.5,0c-0.3-0.4-1-0.4-1.6-0.4c-2.5,0-4.8,0.4-7,1c-1.5,0.4-3.1,0.7-4.9,0.7
		c-0.9,0-1.9,0-2.9,0c-0.5,0-1,0-1.4,0.2c-0.6,0.2-0.4,0.3,0.2,0.4c0.2,0.3-0.1,0.6-0.2,1c-0.2,0.1-0.5,0.1-0.6,0.3
		c-0.2,0-0.3,0-0.5,0c-1.8-0.1-3.7,0-5.5,0c-1.5,0-3,0-4.6,0c-0.2-0.4-0.8-0.2-1.2-0.2c-1.7,0-3.5,0.1-5.3-0.1
		c-0.9-0.1-1.4-0.3-1.4-0.8c0-0.3-0.2-0.4-0.7-0.4c-0.4,0-0.8-0.1-1.2-0.1c-4.4,0-8.7,0-13.1,0c-0.4,0-0.8,0-0.9,0.2
		c-0.3,0-0.5,0-0.8,0c-0.3-0.2-0.5-0.1-0.6,0.1c-0.4,0-0.9,0-1.3,0c-0.5-0.2-0.9-0.2-1.1,0.1c-0.2,0-0.3,0-0.5,0
		c-0.5-0.2-0.9-0.2-1.2,0.1c-0.2,0-0.3,0-0.5,0c-0.4-0.2-0.5,0-0.6,0.1c-0.2,0-0.3,0-0.5,0c-0.1,0-0.1-0.1-0.2-0.1
		C11.3,4.4,10.1,4.5,9,4.9c-1.1,0-2.2,0-3.3,0C5.4,5,5,4.7,4.2,4.8c-0.3,0-0.5,0-0.8,0C2.2,4.6,1.2,4.9,0,5.1
		c0.5,0.2,0.7,0.5,1.3,0.4C1.5,5.5,1.7,5.6,1.9,5.6z"/>
	<path class="st0" d="M314.9,4.4h0.1h0.1c0.1,0.1,0.1,0.1,0.2,0.2c1.7,0.6,3.2,1.3,4.9,1.9c0.9,0.3,1.8,0.4,2.8,0.4
		c3.7,0,7.4,0.2,11.1,0.4c0.7,0,1.3,0.2,2,0.1c0.3,0.1,0.5,0.1,0.8,0.1c0.5,0.2,1,0.2,1.6,0.1c0.3,0,0.5,0,0.8,0
		c0.7,0.3,1.5,0.2,2.3,0.2c1.6,0.1,3.2,0.3,4.8,0.2c0.2,0.1,0.4,0.1,0.6,0c2.1-0.1,4.3,0,6.4-0.1c1.3,0,2.6,0,3.9,0.2
		c0,0.2,0.2,0.3,0.6,0.3c0.6,0.3,1.3,0.4,2.2,0.4c3.9,0,7.8,0.2,11.7,0.1c0.5,0,0.9,0,1.4-0.1c0.6,0.1,1.4-0.1,1.9,0.2
		c0.3,0,0.6,0,0.9,0c0.4-0.3,1.1-0.1,1.6-0.2c0.2,0,0.5,0,0.6-0.1c1.2,0.1,2.3-0.1,3.5-0.2c0.1,0,0.2,0.1,0.3,0.1c0.3,0,0.6,0,0.9,0
		c0-0.1,0-0.1,0-0.2c0.2,0,0.4,0,0.5,0c0.4,0,0.8,0.1,1.1-0.1c0.4,0,0.7,0,1.1,0c0.2,0,0.4,0,0.5,0.1c0.2,0,0.4,0,0.6,0
		c0.4-0.3,0.8-0.2,1.3-0.1c0.5,0.1,0.9,0.1,1.4-0.1c0-0.1,0-0.1,0-0.2c0.6,0,1.3,0,1.9,0c0.2,0,0.4,0,0.7,0.1c0.1,0,0.3,0,0.4,0
		c0-0.1,0-0.1,0-0.2c0.6,0,1.3,0,1.9,0c0.3,0,0.6,0,0.8,0.1c0.4,0.1,0.8,0.1,1.1,0c0-0.1,0-0.1,0-0.2c0.4,0,0.7,0,1.1,0
		c0.1,0,0.3,0,0.4,0.1c0.2,0,0.5,0,0.7,0c0-0.1,0-0.1,0-0.2c0.4,0,0.7,0,1.1,0c0.1-0.2,0.2-0.4,0.6-0.1c0.4,0,0.8,0,1.2,0h0.1h0.1
		c0.4,0.1,0.7,0,1.1,0c0-0.1,0-0.1,0-0.2c0.5,0,0.9,0,1.4,0l0,0c0.2,0,0.3,0,0.5,0c0-0.1,0-0.1,0-0.2c1.5,0,3.1,0.1,4.6-0.1
		c0.3,0,0.6,0,0.9,0c0.1,0,0.3,0,0.4,0c0-0.1,0-0.1,0-0.2c1.2,0,2.4,0,3.5,0c0.5,0.2,1.2,0.3,1.5,0.6c0.1,0.2,0.5,0.2,0.9,0.2
		c0.3,0,0.7-0.1,0.9,0.2c0.4,0.1,0.7,0.1,1.1,0c0.9,0.2,1.8,0.2,2.7,0.1c0.2,0.1,0.4,0.1,0.6,0c0.7,0.3,1.4,0.2,2.1,0.1
		c0.2,0.1,0.4,0.1,0.6,0.1c0.1,0.1,0.3,0.1,0.5,0.1c1.1,0.2,2.2,0.1,3.3,0.1c0.3,0.2,0.7,0.2,1.1,0.1c0.1,0,0.3,0,0.4,0
		c3.4,0,6.8,0,10.2,0c0.6,0.3,1.3,0.1,1.9,0.1c2.2,0,4.4,0,6.6,0c2.5,0,5,0.2,7.5,0.1c0.8-0.1,1.5-0.1,2.3-0.1
		c2.3,0,4.5,0.1,6.8,0.1c5,0.1,10.1,0,15.1,0c0.4,0,0.8,0,1.1,0c1.1-0.3,2.3-0.2,3.5-0.2c0.4,0,0.7,0,1.1,0c0.3,0,0.2-0.2,0-0.3
		c0.1-0.5,0.5-0.7,1.2-0.7c0.7,0.1,0.7,0.3,0.6,0.6c-0.2,0.3,0.4,0.2,0.7,0.2c1.1,0,2-0.1,3-0.3c2.1-0.4,4.2-0.9,6,0.2
		c0.2,0.1,0.5,0.2,0.8,0.2c0.3,0.1,0.6,0.2,0.6,0.4c0.7,0.4,1.4,0.1,2.2,0.1c0-0.1,0.1-0.2,0.3-0.2c0.7,0.1,1.3-0.2,1.9-0.1
		c2.3-0.1,4.5-0.5,6.7-0.7c0.3,0,0.6,0,0.7-0.3c0.8,0,1.5-0.1,1.6-0.6c1.2-0.2,2.4-0.2,3.4,0.1c1,0.3,2,0.2,2.9,0
		c0.8-0.1,1.7,0,2.3,0.2c0.5,0.2,1,0.2,1.5,0.2c1,0,2.1,0,3.1,0c3.2,0.2,6.4,0.1,9.6-0.1c1.2-0.1,2.5-0.4,3.7-0.1
		c1.2,0.2,2.3,0.3,3.5,0.4c2.2,0.2,4.3-0.1,6.5-0.1c0.3,0,0.5-0.1,0.7-0.2c0.7-0.4,1.5-0.4,2.4-0.2c0.4,0.1,0.8,0.2,1.2,0.1
		c1-0.1,1.9,0.1,2.8,0.1c3.4,0,6.9,0,10.3,0.1c4.5,0.1,9,0.2,13.4,0.2c0.6,0,1.2-0.2,1.7-0.1c2,0.2,4,0.1,6,0.1c7.1,0,14.2,0,21.2,0
		c0.4,0.2,0.9,0.1,1.4,0.1c1.5,0,2.9-0.1,4.4,0.1c2.6-0.1,5.3-0.2,7.9-0.5c0.3,0,0.5,0,0.8,0c0.8,0.3,1.4,0,2.3-0.1
		c-1.3-0.4-2.5-0.6-3.8-0.7c-0.1,0-0.1,0.1-0.2,0.1c-0.2,0-0.3,0-0.5,0c-0.9-0.4-2-0.4-3.1-0.5c-0.2,0-0.3,0-0.5,0
		c-0.1-0.2-0.3-0.2-0.5,0c-0.2,0-0.3,0-0.5,0c-0.3-0.3-0.7-0.3-1.1-0.1c-0.3,0-0.5,0-0.8,0c-0.2-0.3-0.7-0.2-1.2-0.2
		c-0.3,0-0.7,0-1,0c-0.5-0.2-1.1-0.2-1.6,0c-0.2,0-0.3,0-0.5,0c-0.2-0.3-0.5-0.3-0.9-0.2c-0.2,0-0.3,0-0.5,0
		c-0.2-0.2-0.5-0.2-0.8-0.1c-0.3,0-0.5,0-0.8,0c-0.1-0.1-0.2-0.2-0.5-0.2c-2.2,0-4.4-0.2-6.6-0.3c-0.4,0-0.8-0.1-1.1,0.1
		c-0.2,0-0.3,0-0.5,0c-0.6-0.4-1.3-0.3-2-0.1c-1.4,0-2.7,0-4.1,0C591.8,5,591.6,5,591.3,5c-4.2,0-8.4,0.1-12.5-0.1
		c-0.4,0-0.7,0-1.1,0c-2.1-0.4-4.3-0.4-6.5-0.7c-2.4-0.3-4.9-0.4-7.2-0.7c-0.4,0-0.7-0.1-1.1,0c-0.4,0-0.9,0-1.3,0
		c-0.3-0.3-0.7-0.2-1.1-0.1c-0.4,0-0.8,0-1.3,0c-0.4-0.1-0.6,0-0.7,0.2c-0.4,0-0.8,0-1.1,0.1c-0.1,0-0.1,0-0.2,0
		c-0.1-0.1-0.1-0.2-0.3,0c-0.2,0-0.4,0-0.6,0c-0.2-0.2-0.5-0.1-0.7-0.1c-1.5,0-2.9,0-4.4,0c-0.3,0-0.6,0-0.9,0.1
		c-0.7,0.1-1.4-0.1-2.2-0.1c-0.5-0.3-1.1-0.1-1.7-0.1c-0.5,0-1.1,0-1.6,0c-0.9-0.3-1.8-0.1-2.7-0.1c-0.5,0-0.9,0-1.4,0
		c-0.1-0.1-0.3-0.1-0.6-0.1c-3.4,0-6.7,0.1-10.1-0.1c-0.2,0-0.4,0-0.5,0c-1.6-0.4-3.3-0.5-4.9-0.5c-2.5-0.1-5.1,0-7.6,0
		c-0.4,0-0.7,0-1.1,0c-1.4-0.1-2.7-0.3-4.1-0.1v0.1c-0.4,0-0.8,0.1-0.8,0.2c-0.2,0.7-1.1,1.1-1.6,1.7c-0.3,0.2-0.8,0.2-1.3,0.2
		s-0.8-0.2-0.9-0.4c-0.2-0.5-0.5-1-0.9-1.5c-0.3-0.4-0.8-0.5-1.6-0.4c-0.3,0-0.7-0.1-1,0c-0.4,0-0.7,0-1.1,0c-0.1,0-0.2,0-0.3-0.1
		c-0.3-0.1-0.7-0.1-1-0.1c-1.8,0-3.7,0-5.5,0.1c-0.3,0-0.5,0-0.8,0c-0.5-0.2-0.9-0.2-1.4,0c-1.2,0-2.4,0-3.5,0
		c-0.7,0-1.5-0.1-2.2,0.1c-0.5,0-0.9,0-1.4,0c-0.4-0.2-0.9-0.1-1.4-0.1c-1.6,0-3.3,0-4.9,0c-3.5,0-7-0.1-10.4-0.3
		c-4-0.1-8-0.3-12-0.2c-4.5,0.1-8.9-0.3-13.2-0.9c-2.2-0.3-4.4-0.5-6.7-0.5c-7.4,0.2-14.8-0.2-22.3,0.2C410.9,1,406,1,401.2,0.9
		c-0.4,0-0.8,0-1.2,0c-1,0-2-0.1-3,0c-0.3,0-0.5,0-0.8,0c-0.1-0.1-0.2-0.2-0.4-0.2c-1.7,0-3.4,0-5,0c-0.3,0-0.5,0.1-0.6,0.2
		c-0.3,0-0.6,0-0.7,0.2c-0.6,0.1-1.3,0.2-1.9,0.3c-3.5,0.4-7.1,0.8-10.6,1.3c-1.1,0.1-2.2,0.2-3,0.6c-2.6,0.3-5.2,0.6-7.5,1.2
		c-0.8-0.1-1.6,0-2.3-0.4C364,4,363.8,4,363.6,4c-1.6-0.1-3.3-0.2-5-0.3c-1.5-0.1-3.1-0.1-4.6-0.2c-0.5,0-0.9,0-1.3,0.1
		c-1,0.3-2.1,0.3-3.2,0.2c0-0.1,0-0.2,0.1-0.3c0.5-0.5,0.5-0.5-0.7-0.5c-2-0.1-4-0.1-6.1,0.1c-1.5-0.2-3-0.5-4.6-0.4
		c-1.5,0.1-2.9,0.1-4.4,0.2c-0.5,0-1,0-1.5,0c-2.6,0-5.2,0-7.8-0.1c-1.6-0.1-3.3-0.2-4.9-0.1c-3.3,0.1-6.6,0.3-9.9,0.2
		c-0.4,0-0.7,0-1.1,0c1.4,0.5,2.8,0.9,4.2,1.2C313.7,4.1,314.1,4.5,314.9,4.4z M336.6,4.9c0.2,0,0.3,0.1,0.4,0.2
		C336.9,5,336.8,4.9,336.6,4.9c-0.1,0-0.1,0-0.2,0c-0.3,0-0.5,0-0.8,0c0.3,0,0.5,0,0.8,0C336.5,4.9,336.6,4.9,336.6,4.9z M324.9,4.5
		l0.1,0.1C325,4.6,325,4.5,324.9,4.5L324.9,4.5z M329.1,6.7c0.2,0,0.4,0,0.5,0l0.1-0.1c0.1-0.1,0.3-0.2,0.5-0.3
		c-0.2,0-0.4,0.1-0.5,0.3l-0.1,0.1C329.4,6.7,329.3,6.7,329.1,6.7z M389.9,4.2c-0.2,0-0.4,0-0.6,0C389.5,4.2,389.7,4.2,389.9,4.2
		L389.9,4.2z M368.9,6.8c-0.1,0-0.2-0.1-0.3-0.1c-0.4,0-0.7,0-1.1,0c-0.6,0-1.3,0-1.9,0c0.6,0,1.3,0,1.9,0c0.4,0,0.7,0,1.1,0
		C368.7,6.7,368.8,6.8,368.9,6.8z"/>
	<path class="st0" d="M630.9,76.2c-1.2-0.4-2.5-0.8-3.8-0.9c-2.5-0.3-5.1-0.3-7.7-0.1c-2.1,0.1-4.1,0.1-6-0.4
		c-0.4-0.1-0.8-0.1-1.2-0.2c-3-0.2-6-0.4-9-0.5c-0.8,0-1.5-0.2-2.3-0.1c-1.1,0.1-2.2,0.1-3.2,0.1c-1.7,0-3.4,0.2-5,0.5
		c-2,0.3-4,0.5-6.1,0.5c-1.1,0-2.3-0.1-2.8-0.8c-0.2-0.2-0.6-0.3-1.1-0.3c-1.6-0.1-3.3-0.1-4.9-0.4c-0.4-0.1-0.8-0.1-1.2-0.1
		c-1.7,0.2-3.4,0-5.2,0.1c-0.2-0.2-0.3-0.2-0.5,0c-0.3,0-0.5,0-0.8,0c-0.1-0.1-0.1-0.2-0.3-0.2c-2.2-0.2-4.3-0.5-6.5-0.5
		c-3.1-0.1-6.2-0.2-9.3-0.2c-2.6,0-5.3,0.1-7.7-0.6c-0.2-0.1-0.4,0-0.7,0c-0.2-0.2-0.4-0.5-1-0.3c-0.9,0.3-1.9,0.5-2.5,0.9
		c-0.1,0-0.2,0.1-0.3,0.1c-0.2,0-0.3,0-0.4,0.1c-0.4,0.1-0.9,0.2-1.3,0.3c-0.7,0-1.5,0-2.2,0.1c-0.4-0.1-0.8-0.1-1.1,0.1
		c-0.5,0-0.9,0.1-1.4,0.1c-0.3,0-0.6,0-0.8,0c-2.8,0.5-5.8,0.6-8.7,0.8c-1.1,0-2.2,0.1-3.3,0.1c-1,0-2,0.1-3,0.1
		c-0.5,0-1-0.1-1.5-0.3c-1.2-0.3-2.5-0.7-3.7-0.9c-1.2-0.2-2.3-0.6-3.6-0.7c-1,0-2,0.1-2.9,0.1c-0.6,0-1.1-0.1-1.7,0
		c-2,0-4,0.2-5.9,0.4c-0.5,0-1-0.1-1.5,0c-1.9,0.2-3.9,0.1-5.8,0.2c-2.8,0.1-5.6,0-8.4,0c-5,0-10-0.2-15-0.2c-1,0-1.9-0.1-2.6-0.5
		s-1.6-0.5-2.6-0.5c-0.9,0-1.7,0-2.6,0c-0.3,0-0.7,0-0.8,0.2c-0.6,0-1.3,0-1.9,0c-1.1-0.3-2.4-0.3-3.5-0.5c-0.3,0-0.7-0.3-1.1,0
		c-0.3,0-0.5,0-0.8-0.1c-0.1-0.1-0.3-0.3-0.6-0.1c-0.5,0-1.1,0-1.6,0c-1.6-0.1-3.2-0.3-4.9-0.2c-1.3,0-1.4,0.1-1.3,0.8
		c-0.1,0.2-0.2,0.4-0.6,0.4c-0.4-0.1-0.7,0-1.1,0c-0.8-0.3-1.7-0.6-2.5-0.9c-0.5-0.2-1.1-0.2-1.6,0c-0.4,0.2-1,0.3-1.3,0.5
		c-0.5,0-0.9,0.1-1.3,0.2c-1.3,0.1-2.4,0.4-3.7,0.6c-1,0.2-1.9,0.3-3,0.4c-2.4,0.1-4.3-0.4-6.1-1.1c-1.8-0.7-3.9-1-5.9-1.4
		c0,0-0.1,0-0.2,0.1c-0.2,0-0.4,0-0.6,0c-1.5-0.1-3.1,0-4.6,0.1c-0.7,0-1.5-0.2-2.2,0.1c-1,0.2-1.9,0.4-2.9,0.6
		c-0.7,0.2-1.5,0.3-2.3,0.4c-1.4,0.2-2.1,0-2.8-0.6c-0.3-0.2-0.4-0.5-0.8-0.7c-1,0.3-3.7,0.5-4.6,0.4c-1.5-0.2-3-0.1-4.5,0
		c-0.5,0-1,0-1.5,0c-2.9,0.2-5.8,0.1-8.6,0.1c-0.9,0-1.8,0-2.7,0.1c-1.1-0.2-2.2,0-3.2,0c-2.4,0-4.7-0.1-7.1,0s-4.8,0.2-7.2,0.2
		c-2.1,0-4.2-0.2-6.3-0.2c-0.6,0-1.2,0-1.7,0.2c-0.6,0.2-1.3,0.3-2,0.4c-2.4,0.2-4.8,0.3-7.2,0.5c-2.1,0.2-4.2,0.1-6.3,0.4
		c-0.1,0-0.3,0-0.4,0c-1.9,0.1-3.7,0-5-0.8c-0.4-0.3-0.9-0.1-1.4-0.1c-1.3-0.4-2.6-0.8-4.1-0.9c-3.2-0.2-6.4-0.2-9.6,0
		c-0.9,0-2-0.2-2.8,0.2c-0.6,0.3-1.1,0.2-1.7,0.1c-0.5-0.1-0.9-0.2-1.4-0.1c-2.6,0.2-5.2,0.1-7.8,0.2c-0.3,0-0.7,0.1-0.9-0.1
		C303.1,71,302,71,301,71c-1.1,0-1.1,0-1.1,0.5c0,0.2-0.3,0.4-0.3,0.6c-0.5,0.1-0.8,0.2-1.1,0.4c-0.4,0-0.5,0.1-0.6,0.2
		c-0.4,0.1-0.8,0.1-1,0.3c-1.5,0-3.1,0-4.6,0c-0.4,0-0.8-0.1-1.1,0.1c-0.4,0-0.7,0-1.1,0.1c-0.9,0.1-1.9,0.1-2.8,0.4
		c-1.8,0.3-3.6,0.7-5.6,0.5c-1.4-0.2-2.9-0.2-4.4-0.2c-0.4,0-0.8,0-1.2,0c-0.6,0-1.1-0.1-1-0.5c0-0.3-0.5-0.5-0.8-0.7
		c-0.1-0.4,0.2-0.6,0.6-0.9c0.3,0,0.5-0.1,0.4-0.3l0.1-0.1c0.4,0,0.8-0.1,0.7-0.3c-0.1-0.2-0.5-0.2-0.9-0.2c-1,0.1-2.1,0.2-3.2,0.3
		c-1.3,0.2-2.7,0.2-4,0.4c-2.2,0.2-4.4,0-6.6,0.2c-1.5,0.2-3,0.2-4.5,0.3c0,0.2,0.3,0.3,0.5,0.3c-0.3,0.4-0.9,0.6-1.6,0.4
		c-0.5-0.1-0.9-0.1-1.4-0.1c-0.8,0-1.5,0-2.3,0c-0.4,0-0.8,0-0.9-0.2c-0.1-0.3-0.6-0.3-1-0.3c-2.1,0-4.2,0.2-6.4,0.1
		c-1.9-0.3-3.8,0-5.7,0.1c-0.8,0-1.6,0.1-2.4,0c-0.5-0.2-1.2-0.3-1.7-0.3c-1.4,0-2.6-0.4-4.1-0.2c-2.4,0.3-4.9,0.3-7.4,0.2
		c-1.1-0.1-2.3-0.2-3.5-0.2c-0.7-0.2-1.2-0.1-1.8,0.2c-1,0.4-1.9,0.9-3,1.2c-0.6-0.1-1.1,0.1-1.7,0.2c-0.6,0.1-1.2,0.2-1.9,0.3
		c-2.1,0.2-4.3,0.1-6.5,0.2c-1.5,0.1-3,0-4.5,0c-1.6-0.3-2.1-0.2-2.4,0.7c-0.2,0.2-0.6,0.2-0.9,0.3c-0.8,0-1.5,0.2-2.3,0.1
		c-1.3-0.1-1.7-0.1-2.1-0.8c-0.1-0.1-0.2-0.2-0.4-0.3c-1.1-0.2-1.9-0.7-3.2-0.8c-0.4-0.1-0.7-0.3-1.1-0.4c0-0.8,0.7-1.4,1.6-2.1
		c-0.5-0.1-0.9-0.1-1.3-0.1c-1.1,0-2.2,0-3.3,0c-0.6-0.2-1.3-0.2-1.9,0c-1.3,0.3-2.6,0.5-4,0.6c-0.7,0-0.9,0.2-0.9,0.5
		c-0.5,0.2-1.1,0.1-1.6,0.1c-0.1-0.1-0.3-0.1-0.6-0.1c-0.3-0.2-0.8-0.3-1.3-0.3c-0.9,0-1.9,0-2.8,0c-1.4,0-2.7,0-4.1,0.2
		c-0.5,0-1.1-0.1-1.6,0.1c-1.1,0-2.1,0.3-3.2,0.1c-0.7-0.1-1.4-0.1-2.1,0.1c-0.7,0.2-1.5,0.2-2.3,0.2c-1.3-0.1-2.7-0.3-4-0.2
		c-0.1-0.3-0.5-0.3-0.9-0.3c-1.3,0-2.5,0-3.8,0c-0.7,0-1.4-0.2-2.1-0.1c-1.5,0.2-3,0.2-4.5,0c-0.4,0-0.6,0-0.7,0.2
		c-0.2,0-0.3,0-0.5,0c-0.3-0.2-0.8-0.1-1.1-0.1c-3.7-0.1-7.4,0.3-11.1,0.3c-0.1,0-0.2,0.1-0.3,0.1c-1.5-0.1-2.9,0.2-4.3,0.4
		c-0.7,0.1-1.5,0.1-2.1,0.4c-0.2,0.1-0.5,0.1-0.7,0.2c-1.4,0.1-2.7,0.2-4.1,0c-0.5-0.2-1.1-0.1-1.7-0.1c-4.2,0.2-8.3,0.4-12.5,0.4
		c-0.5,0-0.9,0-1.4,0c-0.2,0-0.4,0-0.5,0.2c-2.5,0-5.1-0.1-7.6,0c-0.8-0.1-1.5,0-2.3,0c-1.6,0.1-3.3,0.2-4.5-0.4
		c-1.3-0.6-2.9-0.8-4.4-1.1c-0.6-0.1-1.1-0.1-1.7,0c-2.3,0.4-4.7,0.8-7,1.3c-1.5,0.3-3.1,0.3-4.7,0.2c-0.6-0.1-1.2-0.1-1.9,0
		c-1.9,0.2-3.7,0.3-5.6,0c-0.7-0.1-1.6-0.4-2.4-0.1c-0.2,0-0.5,0-0.7,0c-0.2-0.3-0.6-0.2-1-0.2c-1.3,0-2.7,0-4,0c-0.7,0-1.4,0-2.2,0
		c-1.8,0.1-3.6,0.2-5.2-0.3c-0.1,0-0.3,0-0.5,0c-0.2-0.2-0.6-0.2-1-0.2c-1.6,0.1-2.8-0.3-3.7-0.9c-0.3-0.2-0.7-0.3-1.3-0.3
		c-1.7,0-3.4-0.1-5.1,0.1c-0.3,0-0.5,0-0.8,0c-0.8,0-1.6-0.1-2.3,0.2c-2.5,0.2-5,0.4-7.6,0.3c-2.4-0.1-4.9,0-7.4,0
		c-0.4-0.1-0.8-0.2-1.1-0.4c-0.6-0.3-1.2-0.3-1.9,0c-1,0.2-1.8,0.5-2.8,0.6c-1.4,0.2-2.8,0.4-4.2,0.5c-0.8,0.1-1.6,0.2-2,0.6
		c-0.4,0.1-1,0.2-0.9,0.5C3,74.7,2.1,74.6,1.5,75c0.3,0.2,0.7,0.3,1,0.4c0.2,0.2,0.3,0.3,0.5,0.5c1.5,0.4,3,0.8,4.7,1
		c0.7,0.3,1.7,0.3,2.5,0.5c2.4,0.5,4.8,1,7.3,1.5c1.5,0.3,3.1,0.7,4.8,0.6c2.9-0.2,5.8,0,8.7,0.2c2,0.2,4,0.4,6.1,0.3
		c1.7-0.1,3.4-0.1,5,0c0.4,0,0.8,0.1,1.1,0c0.6-0.2,1.2-0.2,1.8-0.2c4.4,0.1,8.9,0.2,13.3,0.1c2.3,0,4.6,0.2,6.9,0
		c0.2-0.2,0.6-0.1,0.9-0.2c0.4,0,0.8,0.1,1.1-0.1c1.6,0,3.1-0.2,4.6-0.3c1.8-0.2,3.6-0.6,5.5-0.6c0.4,0,0.7,0,1.1,0
		c1.1,0.3,2.4,0.1,3.5,0.1c0.1,0.1,0.3,0.2,0.6,0.3c1.6,0.1,3.2,0.2,4.8,0.3c1.4,0.1,2.8,0.1,4.1,0.3c1.2,0.2,2.5,0.2,3.7,0.3
		c3.8,0.1,7.5-0.1,11.3-0.3c2.2-0.1,4.4-0.4,6.6-0.6c2.6-0.3,5.2-0.4,7.8-0.6c1.4-0.1,2.9,0,4.3-0.2c2.2-0.2,4.5-0.1,6.7,0
		c2.8,0.1,5.6,0.3,8.4,0.2c4.5,0,9.1,0,13.6,0c0.6,0,1.3,0,1.9,0c1.7-0.1,3.5-0.2,5.2-0.2c1.3,0.1,2.5-0.2,3.8-0.1
		c0.9,0,1.8-0.2,2.7-0.3c0.5-0.1,1.1,0,1.4-0.3c1-0.1,1.7,0.4,2.7,0.4c0.2,0.3,0.9,0.3,1.3,0.6c0.8,0.5,1.9,0.5,3,0.3
		c1.4-0.3,2.7-0.2,4.1-0.2c1,1,3.3,1.5,5.6,1.3c2.2-0.2,4.3-0.4,6.6-0.4c3.1,0,6.2,0,9.3,0c0.5,0,1,0,1.5,0c2.5-0.3,5.1-0.4,7.7-0.4
		c1.5,0,3.1,0,4.5,0.2c0.9,0.1,1.8-0.2,2.6,0.1c0.4,0.2,0.9,0.1,1.3,0.1c1.3,0,2.6-0.1,3.8,0c3.1,0.2,6.2,0.4,9.3,0.4
		c2,0,4.1-0.1,6.1,0.1c0.5,0,1,0,1.5,0c1.7-0.1,3.4-0.3,5-0.5c2.3,0,4.7,0,7-0.2s4.6-0.4,7-0.4c0.4,0,0.7,0,1-0.1
		c1.3,0,2.5-0.1,3.7-0.2c2.5-0.3,4.9-0.5,7.4-0.6c0.4,0,0.7,0,1.1,0s0.7,0,1.1,0c1.6,0,3.3,0,4.9,0c0.5,0,0.9,0,1.4,0
		c1.2,0.1,2.5-0.1,3.7,0c0.9,0,1.6,0.4,2.6,0.3c0.3,0.2,0.8,0.1,1.3,0.1c0.6,0,1.3,0,1.9,0c2.5,0.2,5,0.1,7.5,0c0.4,0,1,0,1.4-0.2
		c2.5-0.5,5.2-0.7,7.9-0.8c1.2,0.1,2.3,0.2,3.5,0.1c2.5,0.1,4.4,0.7,6,1.6c0.4,0.2,0.6,0.4,1.2,0.3c2.2-0.8,4.6-1.5,7.1-2.1
		c1.3-0.3,1.7-0.3,2.9,0.2c0,0.3,0.3,0.4,0.8,0.5c0.7,0.3,1.4,0.7,2.5,0.7c0-0.1,0.1-0.1,0.2-0.1s0.2,0,0.3,0c2.4,0,4.7-0.1,7.1,0.1
		c0.4,0,0.9,0,1.3-0.1c0.3,0.1,0.5,0.1,0.8,0c0.1-0.2,0.5-0.2,0.8-0.2c0.3,0.1,0.7,0.1,1.1,0.1v-0.1c0.3,0,0.7-0.1,1-0.1
		c0,0.2,0.6,0.3,0.6,0.5c0.3,0.1,0.6,0.2,1,0.2c0.1,0.2,0.3,0.2,0.6,0.2c0.3,0,0.5,0,0.8,0.1c0.1,0.2,0.3,0.2,0.6,0.2
		c0.2,0,0.5,0,0.7,0.1c0.1,0.2,0.3,0.2,0.6,0.2c0.6,0.1,1.2,0.3,1.9,0.3c1.4-0.2,2.8-0.1,4.2-0.1c0.1,0,0.1,0.1,0.2,0.2
		c0.2,0,0.3,0,0.5,0v0.1c0.1,0,0.3,0,0.4,0s0.3,0,0.4-0.1c0.1,0,0.3,0,0.3,0.1c0.2,0,0.3,0,0.5,0c0.3-0.1,0.6,0,0.9,0
		c3.1,0,6.1,0,9.2,0c2.6,0.1,5.1,0,7.7,0c0.5,0,0.9-0.1,1.3-0.2c0.2-0.4,0.8-0.2,1.3-0.2c3.5-0.1,7,0.1,10.6-0.1
		c1.9-0.1,3.8-0.2,5.7-0.2c0.2,0,0.4,0,0.6-0.1c0.3,0,0.5,0,0.8,0s0.6,0,0.8-0.1c0.8-0.2,1.6-0.1,2.4-0.1c0.5,0.2,0.9,0.2,1.1-0.1
		c0.6,0,1.2,0,1.9,0c0.3,0.2,0.7,0.1,1.1,0.1c1.6,0.1,3.3-0.2,4.9-0.1c0.5,0,1-0.1,1.4,0.1c0.9,0,1.9,0,2.7-0.2
		c0.3,0.1,0.5,0,0.8-0.1c0.9,0.1,1.9-0.1,2.8,0l0,0c0.2,0,0.4,0,0.5,0c0-0.1,0-0.1,0-0.2l0,0c0.4,0,0.9,0,1.3,0
		c0.2,0,0.5,0.1,0.7,0.1c0.1,0,0.3,0,0.4,0c0-0.1,0-0.1,0-0.2c0.7,0,1.3-0.1,2,0l0,0c0.2,0,0.3,0,0.5,0c0-0.1,0-0.1,0-0.2
		c0.6,0,1.1-0.1,1.7,0c0.1,0,0.1,0,0.2-0.1c0.1,0,0.2,0,0.3,0c0.2,0.1,0.3,0,0.5,0l-0.1-0.1c0.4,0,0.8,0,1.2,0c0.3,0,0.5,0,0.8-0.1
		c0-0.1,0.1-0.1,0.3-0.1c0.7,0,1.5,0.2,2.2-0.1c0.2,0,0.4-0.1,0.6-0.1c1.9,0.1,3.8-0.2,5.7-0.3c0.7,0.1,1.3-0.1,2,0.1
		c0.3,0,0.7,0,1,0c1.7-0.4,4.2,0,5.4,0.8c0.4,0.3,0.7,0.7,0.3,1c-0.3,0.2-0.4,0.3,0.1,0.4c0.3,0,0.7,0,1.1,0c2.3,0,4.5-0.1,6.8,0
		c0.2,0,0.3,0,0.5,0c0.7-0.4,0.6-0.5-0.4-0.6c-0.2-0.3-0.9-0.5-1.2-0.8c0.1-0.1,0.2-0.2,0.3-0.4c0.1,0,0.1,0,0.2,0
		c0.8,0,1.6-0.1,2.4,0.2c0.1,0.3,0.6,0.4,1.2,0.4c0.2,0,0.5,0,0.7,0.1c0.1,0.1,0.3,0.3,0.6,0.1c0.4-0.1,0.7,0,1,0.1
		c0.5,0.5,1,0.1,1.4,0c0.5,0,1.1-0.1,1.6-0.1c2.7,0,5.4-0.1,8.1,0.1c1.8,0.2,3.6,0.2,5.4,0.2c4.3,0,8.7-0.1,13-0.3
		c2.3,0,4.6,0,6.9-0.1c1.9-0.1,3.8-0.2,5.7-0.5c2.2,0,4.5-0.2,6.7-0.2c0.7,0,1.3,0,2-0.1c1.1,0,2.2,0.1,3.3-0.1c3.5,0,7.1,0,10.6,0
		c2.1,0,4,0,6,0c3.8,0,7.6,0,11.4,0c3.2,0,6.3,0.2,9.4,0.5c1,0.1,1.9,0.3,2.8,0.4c2.1,0.1,4.3,0.3,6.5,0.3c4.2,0,8.4,0,12.7,0
		c0.1,0.1,0.3,0.1,0.6,0.1c2.1,0,4.2,0,6.2,0c0.2,0.2,0.5,0.1,0.9,0.1c1.1-0.1,2.1-0.2,3.1-0.4c3.6-0.7,7.2-1.3,11.2-1.3
		c4.3,0,8.6,0.1,12.9-0.2c1.6-0.1,3.2-0.3,4.7-0.5c0.6,0,1.2,0,1.9-0.1c0.2,0,0.4,0,0.6-0.1c1.9,0,3.8,0,5.7,0
		c0.4,0.2,1.1,0.1,1.4,0.4c5.8,0,11.6-0.1,17.4-0.3C633.1,76.6,632,76.4,630.9,76.2z M321.2,75.7l-0.1-0.1
		C321.1,75.6,321.1,75.6,321.2,75.7L321.2,75.7z M400.9,75.7c-0.2,0-0.5-0.1-0.7-0.2c-0.5,0-0.9,0-1.4,0c0.5,0,0.9,0,1.4,0
		C400.5,75.6,400.7,75.7,400.9,75.7z M378.4,77.3c0,0.1,0.1,0.2,0.3,0.3C378.6,77.5,378.5,77.5,378.4,77.3c-0.2,0-0.3-0.1-0.5-0.1
		C378.1,77.2,378.3,77.3,378.4,77.3z M575.4,76.2C575.4,76.3,575.4,76.3,575.4,76.2C575.4,76.3,575.4,76.3,575.4,76.2L575.4,76.2z
		 M556.3,75.4c0-0.1,0-0.1,0-0.2C556.3,75.2,556.3,75.3,556.3,75.4c0.1,0,0.2,0,0.3,0.1C556.5,75.4,556.4,75.4,556.3,75.4z
		 M524.1,76.7c0-0.1-0.1-0.2-0.3-0.2C524,76.5,524.1,76.6,524.1,76.7L524.1,76.7z M545.9,72.5c-0.1,0-0.2,0-0.3,0
		C545.7,72.5,545.8,72.5,545.9,72.5L545.9,72.5z M438.2,72.4c-0.1,0.1-0.2,0.1-0.3,0.2c0.2,0.1,0.4,0.1,0.6,0.1
		c-0.2,0-0.4-0.1-0.6-0.1C438,72.5,438.1,72.5,438.2,72.4z M436.8,73.3L436.8,73.3c-0.3,0.1-0.5,0.2-0.8,0.3
		C436.3,73.4,436.6,73.4,436.8,73.3z M328.5,72.6c0,0.1-0.1,0.1-0.3,0.1C328.3,72.7,328.4,72.7,328.5,72.6l-0.1-0.1
		C328.4,72.5,328.4,72.6,328.5,72.6z M243.7,72.9L243.7,72.9c-0.3,0-0.6,0.1-0.9,0.1C243.1,73,243.4,72.9,243.7,72.9z M126.7,74.3
		L126.7,74.3c-0.2,0-0.4,0-0.5,0C126.3,74.3,126.5,74.3,126.7,74.3z M8.6,75.8c0,0.1,0.2,0.2,0.3,0.3C8.7,76.1,8.6,76,8.6,75.8
		L8.6,75.8z"/>
	<path class="st0" d="M122.4,2.5c1.7,1.1,3.7,2.1,4.8,3.4c0.2,0.2,0.3,0.5,0.9,0.5c0.1,0,0.2,0.1,0.3,0.1c0.5,0.4,1.1,0.8,1.9,1.1
		c0.5,0.2,0.7,0.6,1.4,0.6c0.7,0.4,1.5,0.9,2.8,0.5c0.4,0,0.9,0,1.3-0.1c0.4,0.2,0.8,0.1,1.2,0c3.5-0.2,7-0.2,10.5,0
		c1.7,0.1,3.4,0.1,5,0c5.4-0.2,10.7-0.2,16.1,0c1.1,0,2.2,0,3.3-0.1c2.1-0.2,4.2-0.4,6.3-0.4c7.6-0.2,15.2-0.1,22.7,0.5
		c3.8,0.3,7.7,0.3,11.5,0.5c6.2,0.2,12.5,0.2,18.8,0.1c0.5,0,0.9,0,1.4-0.1c4.3-0.3,8.6-0.5,12.9-0.5c6,0,11.9,0.1,17.9,0.1
		c5.2,0,10.3-0.3,15.5-0.3c0.3,0,0.6,0,0.9-0.1c2.3-0.5,4.7-0.6,7.2-0.8c3.5-0.2,7-0.6,10.5-0.6c0.2,0,0.5,0,0.6-0.1
		c1.2,0.1,2.4,0,3.6-0.1c0.5,0.1,0.9,0.1,1.4,0c0.3,0.1,0.5,0.1,0.7,0c0.9,0.1,1.9,0,2.8-0.1c1.1,0.1,2.2,0.1,3.3,0
		c1.5,0.2,3.1,0,4.6,0.1c-0.2-0.2-0.5-0.3-0.9-0.3c-1.4-0.5-2.7-1-4.3-1.2c-0.2-0.3-0.8-0.3-1.2-0.5c-1.7-0.6-3.7-0.9-5.5-1.4
		c-1-0.3-2-0.4-3.1-0.4c-0.5,0-0.9,0-1.4,0c-1.5-0.2-3.1-0.2-4.2-0.9c-0.2-0.1-0.5-0.3-0.8-0.4c-1-0.4-1.9-0.8-3.3-0.5
		c-0.3,0-0.5,0-0.8,0c-3,0.2-6.1,0.3-9.1,0.2c-3.2-0.1-6.3,0.1-9.4,0.4c-1,0.1-1.7,0.6-2.7,0.6c-0.4-0.1-0.8-0.2-1.2-0.1
		c-1.7,0.1-3.2-0.2-4.9-0.4c-4.1-0.3-8.3-0.6-12.5-0.6c-1.3,0-2.4,0.1-3.3,0.5c-0.3,0-0.6,0-0.9,0c-3,0.5-6,0.4-9,0.4
		c-0.6,0-1.2-0.1-1.7-0.1c-1.8-0.2-3.7-0.4-5.6-0.3c-1.7,0.1-3.4,0.4-5.1,0.5c-1.4,0.1-2.8,0.2-4.2,0.5c-0.6,0-1.2,0-1.7,0.1
		c-3.9,0.4-7.5,0.2-11.1-0.7c-0.4-0.1-0.7-0.2-1.2-0.2c-1.8,0.2-3.6,0-5.4,0.2c-3.1,0-6.2,0-9.3,0.2c-0.7,0.1-1.4,0-1.7-0.4
		c0-0.1,0-0.1-0.2-0.1c-1.2,0-2.4-0.1-3.6,0.1c-1.6,0.1-3.3,0.3-4.9,0.4c-1.8,0.1-3.5,0.4-5.3,0.4c-1.4,0-2.7-0.3-4.2-0.2
		c-0.9-0.2-1.9-0.1-2.9-0.2c-2.5-0.2-5-0.4-7.5-0.4c-2.3-0.2-4.5-0.5-6.8-0.4c-0.9-0.1-1.9-0.2-2.8-0.2c-3.4-0.1-6.9,0.2-10.3,0.1
		c-1.4,0-2.7,0-4,0.2c-0.6,0.1-1.2,0-1.9,0c-1.2,0-2.4-0.3-3.6-0.3c-1-0.1-2-0.3-3-0.2c-0.6-0.2-1.2-0.1-1.9-0.1
		c-0.2-0.1-0.4-0.1-0.6,0c-0.2-0.2-0.6-0.1-1-0.1c-1,0-2.1,0-3.1-0.1c-0.3,0-0.6-0.1-0.8,0.1c-0.2,0.2-0.1,0.3,0.1,0.5
		C121.3,1.8,121.8,2.2,122.4,2.5z M191.7,5.9c-0.2,0-0.4,0-0.6-0.1C191.2,5.9,191.5,5.9,191.7,5.9L191.7,5.9z M131.6,7.9L131.6,7.9
		c0.3,0,0.5,0,0.8,0C132.1,7.9,131.9,7.9,131.6,7.9z M175,8L175,8c0.1,0,0.2,0,0.2,0C175.1,8,175,8,175,8z"/>
</g>
</svg>
